<svg width="31px" height="31px" viewBox="0 0 31 31" version="1.1" xmlns="http://www.w3.org/2000/svg" xmlns:xlink="http://www.w3.org/1999/xlink" fill-rule="evenodd">
  <path d="M8,1 L8,8 L1,8 L1,1 L8,1 L8,1 Z M9,0 L0,0 L0,9 L9,9 L9,0 L9,0 Z"></path>
  <path d="M19,1 L19,8 L12,8 L12,1 L19,1 L19,1 Z M20,0 L11,0 L11,9 L20,9 L20,0 L20,0 Z"></path>
  <path d="M30,1 L30,8 L23,8 L23,1 L30,1 L30,1 Z M31,0 L22,0 L22,9 L31,9 L31,0 L31,0 Z"></path>
  <path d="M8,12 L8,19 L1,19 L1,12 L8,12 L8,12 Z M9,11 L0,11 L0,20 L9,20 L9,11 L9,11 Z"></path>
  <path d="M19,12 L19,19 L12,19 L12,12 L19,12 L19,12 Z M20,11 L11,11 L11,20 L20,20 L20,11 L20,11 Z"></path>
  <path d="M30,12 L30,19 L23,19 L23,12 L30,12 L30,12 Z M31,11 L22,11 L22,20 L31,20 L31,11 L31,11 Z"></path>
  <path d="M8,23 L8,30 L1,30 L1,23 L8,23 L8,23 Z M9,22 L0,22 L0,31 L9,31 L9,22 L9,22 Z"></path>
  <path d="M19,23 L19,30 L12,30 L12,23 L19,23 L19,23 Z M20,22 L11,22 L11,31 L20,31 L20,22 L20,22 Z"></path>
  <path d="M30,23 L30,30 L23,30 L23,23 L30,23 L30,23 Z M31,22 L22,22 L22,31 L31,31 L31,22 L31,22 Z"></path>
</svg>
