<?xml version="1.0" encoding="utf-8"?>
<!-- Generator: Adobe Illustrator 21.0.0, SVG Export Plug-In . SVG Version: 6.00 Build 0)  -->
<svg version="1.1" id="Layer_1" xmlns="http://www.w3.org/2000/svg" xmlns:xlink="http://www.w3.org/1999/xlink" x="0px" y="0px"
	 viewBox="0 0 24 24" xml:space="preserve">
<path d="M21.6,5.9l-7.9-5.3c-0.9-0.6-2.1-0.6-3,0L2.9,6C2.5,6.3,2.2,6.6,2,7c0,0-0.3,0.6-0.3,1.3l0,7.5c0,0.9,0.5,1.7,1.2,2.2
	l7.9,5.3c0.5,0.3,1,0.5,1.5,0.5c0.5,0,1-0.2,1.5-0.5l7.8-5.4c0.7-0.5,1.2-1.3,1.2-2.2V8.3C22.8,8,22.9,6.8,21.6,5.9z M3.5,6.8
	l7.8-5.4c0.6-0.4,1.3-0.4,1.9,0l7.9,5.3c0.3,0.2,0.5,0.5,0.6,0.9l-5.6,3.6l-0.4,0.2l-2.5-1.8c-0.5-0.4-1.3-0.4-1.8,0l-2.5,1.7
	l-6-3.8C3,7.3,3.2,7,3.5,6.8z M14.8,12.1l-2.2,1.5c-0.2,0.1-0.5,0.1-0.7,0L9.7,12l2.2-1.5c0.2-0.1,0.5-0.1,0.7,0L14.8,12.1z
	 M21.8,15.8c0,0.5-0.3,1.1-0.7,1.4l-7.8,5.4c-0.6,0.4-1.3,0.4-1.9,0l-7.9-5.3c-0.5-0.3-0.8-0.8-0.8-1.4l0-7.2l5.9,3.7l2.8,2
	c0.5,0.4,1.3,0.4,1.8,0l2.8-1.9l5.8-3.8V15.8z"/>
</svg>
