<svg width="24px" height="22px" viewBox="0 0 24 22" version="1.1" xmlns="http://www.w3.org/2000/svg" xmlns:xlink="http://www.w3.org/1999/xlink" fill-rule="evenodd">
	<polygon points="24 22 0 22 0 18 1 18 1 21 23 21 23 18 24 18"></polygon>
	<path d="M10,1 L10,8 L3,8 L3,1 L10,1 L10,1 Z M11,0 L2,0 L2,9 L11,9 L11,0 L11,0 L11,0 Z" ></path>
	<path d="M21,1 L21,8 L14,8 L14,1 L21,1 L21,1 Z M22,0 L13,0 L13,9 L22,9 L22,0 L22,0 L22,0 Z" ></path>
	<path d="M10,11 L10,18 L3,18 L3,11 L10,11 L10,11 Z M11,10 L2,10 L2,19 L11,19 L11,10 L11,10 L11,10 Z" ></path>
	<path d="M21,11 L21,18 L14,18 L14,11 L21,11 L21,11 Z M22,10 L13,10 L13,19 L22,19 L22,10 L22,10 L22,10 Z" ></path>
	<rect x="4" y="2" width="1" height="5"></rect>
	<rect x="6" y="2" width="1" height="5"></rect>
	<rect x="8" y="2" width="1" height="5"></rect>
	<rect x="15" y="2" width="1" height="5"></rect>
	<rect x="17" y="2" width="1" height="5"></rect>
	<rect x="19" y="2" width="1" height="5"></rect>
	<rect x="4" y="12" width="1" height="5"></rect>
	<rect x="6" y="12" width="1" height="5"></rect>
	<rect x="8" y="12" width="1" height="5"></rect>
	<rect x="15" y="12" width="1" height="5"></rect>
	<rect x="17" y="12" width="1" height="5"></rect>
	<rect x="19" y="12" width="1" height="5"></rect>
</svg>
