<svg width="30px" height="27px" viewBox="0 0 30 27" version="1.1" xmlns="http://www.w3.org/2000/svg" xmlns:xlink="http://www.w3.org/1999/xlink" fill-rule="evenodd">
  <path d="M13,14 L13,23 L4,23 L4,14 L13,14 L13,14 Z M14,13 L3,13 L3,24 L14,24 L14,13 L14,13 Z"></path>
  <path d="M26,14 L26,23 L17,23 L17,14 L26,14 L26,14 Z M27,13 L16,13 L16,24 L27,24 L27,13 L27,13 Z"></path>
  <path d="M13,1 L13,10 L4,10 L4,1 L13,1 L13,1 Z M14,0 L3,0 L3,11 L14,11 L14,0 L14,0 Z"></path>
  <path d="M26,1 L26,10 L17,10 L17,1 L26,1 L26,1 Z M27,0 L16,0 L16,11 L27,11 L27,0 L27,0 Z"></path>
  <polygon points="30 27 0 27 0 21 1 21 1 26 29 26 29 21 30 21"></polygon>
</svg>
