<svg width="32px" height="31px" viewBox="0 0 32 31" version="1.1" xmlns="http://www.w3.org/2000/svg" xmlns:xlink="http://www.w3.org/1999/xlink" fill-rule="evenodd">
  <path d="M5,3.58 C4.44771525,3.58 4,4.02771525 4,4.58 C4,5.13228475 4.44771525,5.58 5,5.58 C5.55228475,5.58 6,5.13228475 6,4.58 C6,4.02771525 5.55228475,3.58 5,3.58 L5,3.58 Z"></path>
  <path d="M31,1 L31,8 L1,8 L1,1 L31,1 L31,1 Z M32,0 L0,0 L0,9 L32,9 L32,0 Z"></path>
  <path d="M5,14.58 C4.44771525,14.58 4,15.0277153 4,15.58 C4,16.1322847 4.44771525,16.58 5,16.58 C5.55228475,16.58 6,16.1322847 6,15.58 C6,15.0277153 5.55228475,14.58 5,14.58 L5,14.58 Z"></path>
  <path d="M31,12 L31,19 L1,19 L1,12 L31,12 L31,12 Z M32,11 L0,11 L0,20 L32,20 L32,11 Z"></path>
  <path d="M5,25.58 C4.44771525,25.58 4,26.0277153 4,26.58 C4,27.1322847 4.44771525,27.58 5,27.58 C5.55228475,27.58 6,27.1322847 6,26.58 C6,26.0277153 5.55228475,25.58 5,25.58 L5,25.58 Z"></path>
  <path d="M31,23 L31,30 L1,30 L1,23 L31,23 L31,23 Z M32,22 L0,22 L0,31 L32,31 L32,22 Z"></path>
</svg>
