<svg width="12px" height="12px" viewBox="0 0 12 12" version="1.1" xmlns="http://www.w3.org/2000/svg" xmlns:xlink="http://www.w3.org/1999/xlink" fill-rule="evenodd">
	<path d="M6,0 C2.7,0 0,2.7 0,6 C0,9.3 2.7,12 6,12 C9.3,12 12,9.3 12,6 C12,2.7 9.3,0 6,0 L6,0 L6,0 Z M6.8,10 L5.2,10 L5.2,8 L6.7,8 L6.8,10 L6.8,10 L6.8,10 Z M6.7,6.6 L6.7,7 L5.3,7 L5.3,6.5 C5.5,4.9 6.9,5 6.8,4 C6.9,3.4 6.6,3.1 6,3.1 C5.4,3.1 5,3.7 5,4.4 L3.6,4.4 C3.7,3 4.6,2 6,2 C7.8,2 8.4,3.1 8.4,3.8 C8.4,5.7 6.8,5.4 6.7,6.6 L6.7,6.6 L6.7,6.6 Z" id="Shape" fill="#000000"></path>
</svg>