<svg width="32px" height="32px" viewBox="0 0 32 32" version="1.1" xmlns="http://www.w3.org/2000/svg" xmlns:xlink="http://www.w3.org/1999/xlink" fill-rule="evenodd">
  <path d="M21,1 L21,31 L1,31 L1,1 L21,1 L21,1 Z M22,0 L0,0 L0,32 L22,32 L22,0 L22,0 Z"></path>
  <path d="M31,1 L31,31 L25,31 L25,1 L31,1 L31,1 Z M32,0 L24,0 L24,32 L32,32 L32,0 L32,0 Z"></path>
  <path d="M17,5 L17,11 L5,11 L5,5 L17,5 L17,5 Z M18,4 L4,4 L4,12 L18,12 L18,4 L18,4 Z"></path>
  <path d="M28,5 C27.4477153,5 27,5.44771525 27,6 C27,6.55228475 27.4477153,7 28,7 C28.5522847,7 29,6.55228475 29,6 C29,5.44771525 28.5522847,5 28,5 L28,5 Z"></path>
  <path d="M28,10 C27.4477153,10 27,10.4477153 27,11 C27,11.5522847 27.4477153,12 28,12 C28.5522847,12 29,11.5522847 29,11 C29,10.4477153 28.5522847,10 28,10 L28,10 Z"></path>
  <path d="M28,15 C27.4477153,15 27,15.4477153 27,16 C27,16.5522847 27.4477153,17 28,17 C28.5522847,17 29,16.5522847 29,16 C29,15.4477153 28.5522847,15 28,15 L28,15 Z"></path>
  <path d="M28,20 C27.4477153,20 27,20.4477153 27,21 C27,21.5522847 27.4477153,22 28,22 C28.5522847,22 29,21.5522847 29,21 C29,20.4477153 28.5522847,20 28,20 L28,20 Z"></path>
  <path d="M28,25.08 C27.4477153,25.08 27,25.5277153 27,26.08 C27,26.6322847 27.4477153,27.08 28,27.08 C28.5522847,27.08 29,26.6322847 29,26.08 C29,25.5277153 28.5522847,25.08 28,25.08 L28,25.08 Z"></path>
</svg>
