<svg width="30px" height="30px" viewBox="0 0 30 30" version="1.1" xmlns="http://www.w3.org/2000/svg" xmlns:xlink="http://www.w3.org/1999/xlink" fill-rule="evenodd">
  <path d="M27.95,2.05 C26.683,0.784 24.933,0 23,0 C21.067,0 19.317,0.784 18.05,2.05 L15.05,5.05 C13.784,6.317 13,8.067 13,10 C13,11.206 13.286,12.359 13.808,13.364 L13.365,13.807 C12.359,13.286 11.206,13 10,13 C8.067,13 6.317,13.784 5.05,15.05 L2.05,18.05 C0.784,19.317 0,21.067 0,23 C0,24.933 0.784,26.683 2.05,27.95 C3.316,29.217 5.067,30 7,30 C8.933,30 10.683,29.216 11.95,27.95 L14.95,24.95 C16.216,23.683 17,21.933 17,20 C17,18.794 16.714,17.641 16.192,16.636 L16.635,16.193 C17.641,16.714 18.794,17 20,17 C21.933,17 23.683,16.216 24.95,14.95 L27.95,11.95 C29.216,10.683 30,8.933 30,7 C30,5.067 29.216,3.317 27.95,2.05 L27.95,2.05 L27.95,2.05 L27.95,2.05 Z M15,20 C15,21.335 14.48,22.591 13.536,23.536 L10.536,26.536 C9.591,27.48 8.335,28 7,28 C5.665,28 4.409,27.48 3.464,26.536 C2.52,25.591 2,24.335 2,23 C2,21.665 2.52,20.409 3.464,19.464 L6.464,16.464 C7.409,15.52 8.665,15 10,15 C10.642,15 11.264,15.122 11.84,15.332 L7.586,19.586 L10.414,22.414 L14.668,18.16 C14.878,18.736 15,19.358 15,20 L15,20 L15,20 L15,20 Z M26.536,10.536 L23.536,13.536 C22.591,14.48 21.335,15 20,15 C19.358,15 18.736,14.878 18.16,14.668 L22.414,10.414 L19.586,7.586 L15.332,11.84 C15.122,11.264 15,10.642 15,10 C15,8.665 15.52,7.409 16.464,6.464 L19.464,3.464 C20.409,2.52 21.665,2 23,2 C24.335,2 25.591,2.52 26.536,3.464 C27.48,4.409 28,5.665 28,7 C28,8.335 27.48,9.591 26.536,10.536 L26.536,10.536 L26.536,10.536 L26.536,10.536 Z" id="Shape"></path>
</svg>
