<svg width="24px" height="24px" viewBox="0 0 24 24" version="1.1" xmlns="http://www.w3.org/2000/svg" xmlns:xlink="http://www.w3.org/1999/xlink" fill-rule="evenodd">
	<path d="M22.9,3.6 L14,3.6 L14,2.1 C14,0.9 12.9,0 11.8,0 L2,0 C0.9,0 0,0.9 0,2.1 L0,21.9 C0,23 0.9,24 2,24 L11.5,24 C12.6,24 13.9,23 13.9,21.9 L13.9,13 L22.9,13 C23.5,13 23.9,12.7 23.9,12.2 L23.9,4.4 C24,4 23.5,3.6 22.9,3.6 L22.9,3.6 Z M1,2.1 C1,1.5 1.5,1 2,1 L12,1 C12.6,1 13,1.5 13,2.1 L13,3.6 L10,3.6 C9.4,3.6 9,3.9 9,4.4 L9,15 L13,13.3 L13,18 L1,18 L1,2.1 L1,2.1 Z M13,21.9 C13,22.5 12.1,23 11.6,23 L2,23 C1.4,23 1,22.5 1,21.9 L1,19 L13,19 L13,21.9 L13,21.9 Z M23,12 L23,12 L13.5,12 L10,13.5 L10,4.6 L10,4.6 L22.9,4.6 L23,4.6 L23,12 L23,12 Z" id="Shape" fill="#010101"></path>
	<path d="M20.5,6 L12.5,6 C12.2,6 12,6.2 12,6.5 C12,6.8 12.2,7 12.5,7 L20.5,7 C20.8,7 21,6.8 21,6.5 C21,6.2 20.8,6 20.5,6 L20.5,6 Z" id="Shape" fill="#010101"></path>
	<path d="M20.5,9 L12.5,9 C12.2,9 12,9.2 12,9.5 C12,9.8 12.2,10 12.5,10 L20.5,10 C20.8,10 21,9.8 21,9.5 C21,9.2 20.8,9 20.5,9 L20.5,9 Z" id="Shape" fill="#010101"></path>
</svg>