<svg width="20px" height="24px" viewBox="0 0 20 24" version="1.1" xmlns="http://www.w3.org/2000/svg" xmlns:xlink="http://www.w3.org/1999/xlink">
  <!-- Generator: Sketch 40.1 (33804) - http://www.bohemiancoding.com/sketch -->
  <desc>Created with Sketch.</desc>
  <defs></defs>
  <path d="M12.2,4.6 L12,4 L12,0 L8,0 L8,4 L7.8,4.6 C3.4,5.6 0.2,9.5 0.2,14.2 C0.2,19.7 4.6,24 10,24 C15.4,24 19.8,19.6 19.8,14.2 C19.8,9.5 16.5,5.6 12.2,4.6 L12.2,4.6 Z M10,21.8 C5.7,21.8 2.4,18.4 2.4,14.2 C2.4,10.7 4.6,7.9 7.9,6.9 L8,7 L8,14 L12,14 L12,7 L12.2,6.9 C15.5,7.9 17.7,10.7 17.7,14.2 C17.6,18.4 14.3,21.8 10,21.8 L10,21.8 Z" id="Shape" fill="#000000"></path>
</svg>
