<svg xmlns="http://www.w3.org/2000/svg" width="50" height="50" viewBox="0 0 50 50"><path d="M46.3 23.6l-6.5-4c4-2.3 7.5-4.3 7.8-4.5s.5-.5.5-.9-.2-.7-.5-.9C41.4 9.5 26.8.6 26.6.5c-.1-.1-.1-.1-.2-.1-.9-.5-1.9-.5-2.9-.2-.8.3-1.5.7-2.1 1.1-.3.1-13 8-17.2 10.6l-1.4.9c-.4.2-.8.4-1.3.9-1.8 2-1.9 5.7-1.1 8.5.4 1.1.9 2.2 1.5 3 .8.9 1.6 1.5 2.5 2l.2.1c.6.4 19 10.8 19.8 11.2.1.1 1.4.9 1.4 4 0 .6.4 1 1 1s1-.4 1-1c0-4.3-2.2-5.6-2.4-5.7-6.6-3.7-19.3-10.9-19.8-11.2l-.2-.1c-.7-.5-1.4-.9-1.8-1.6-.5-.6-.8-1.4-1.1-2.3-.6-2.2-.6-5.2.7-6.6.2-.2.4-.3.7-.5l1.4-.9C20.4 4.3 22.4 3 22.5 3c.5-.4 1-.7 1.6-.9s1-.1 1.5.1h.1c1 .7 12.3 7.5 19.5 11.8-4.8 2.8-19.8 11.3-20.3 11.6-.4.2-.8.1-1 0-.5-.3-12.8-7.4-17.5-10.1-.5-.2-1.1-.1-1.4.4-.3.4-.1 1.1.3 1.3.7.4 17 9.8 17.7 10.3.9.5 2 .5 2.9 0 .4-.2 6.4-3.7 12-6.9l7.5 4.6c.2.1 2.7 1.5 2.7 4.8 0 3.6-1 4.3-2.6 5.6-.1 0-2.6 1.6-18 11.1l-.7.4c-.7.5-1.8 1.1-2.3.9-.5-.3-8.6-5.3-21.3-13l3.4-2.1c.4-.3.6-.9.3-1.4-.3-.5-.9-.7-1.4-.4L.7 34c-.3.2-.5.6-.5.9 0 .4.2.7.5.9l.3.2c22.1 13.5 22.5 13.7 22.6 13.8.3.2.7.2 1.1.2 1.1 0 2.3-.6 3.1-1l.7-.4c18-11.2 18-11.2 18.1-11.2 1.8-1.4 3.4-2.6 3.4-7.2 0-4.5-3.4-6.4-3.7-6.6z"/><path d="M11.1 14.4c.1.5.6.9 1.2.8l9.8-1.6-2.2 5.5c-.2.5.1 1.1.6 1.3.1.1.3.1.4.1.4 0 .8-.3.9-.6l3.6-8.9-13.5 2.2c-.5.1-.9.7-.8 1.2zM37.6 12.1c-.3-.4-.9-.6-1.4-.3l-6.4 3.9c-.4.3-.6.9-.3 1.4.1.2.3.3.5.4.3.1.7 0 .9-.1l6.4-3.9c.4-.3.6-.9.3-1.4z"/></svg>