 <svg width="24px" height="24px" viewBox="0 0 24 24" version="1.1" xmlns="http://www.w3.org/2000/svg" xmlns:xlink="http://www.w3.org/1999/xlink" fill-rule="evenodd">
  <path d="M8.8,0 C3.9408,0 0,3.9408 0,8.8 C0,13.6592 3.9408,17.6 8.8,17.6 C13.6592,17.6 17.6,13.6592 17.6,8.8 C17.6,3.9408 13.6592,0 8.8,0 L8.8,0 Z M8.8,16 C4.8304,16 1.6,12.7696 1.6,8.8 C1.6,4.8304 4.8304,1.6 8.8,1.6 C12.7696,1.6 16,4.8304 16,8.8 C16,12.7696 12.7696,16 8.8,16 L8.8,16 Z" id="Shape" fill="#000000"></path>
  <rect id="Rectangle-path" fill="#000000" transform="translate(19.999680, 19.999434) rotate(-45.000000) translate(-19.999680, -19.999434) " x="18.3024963" y="16.0398723" width="3.39436745" height="7.91912405"></rect>
  <circle id="Oval" fill="#000000" cx="16" cy="16" r="0.8"></circle>
</svg>
