<svg width="32px" height="32px" viewBox="0 0 32 32" version="1.1" xmlns="http://www.w3.org/2000/svg" xmlns:xlink="http://www.w3.org/1999/xlink" fill-rule="evenodd">
  <path d="M16,19 C14.3,19 13,17.7 13,16 C13,14.3 14.3,13 16,13 C17.7,13 19,14.3 19,16 C19,17.7 17.7,19 16,19 L16,19 Z M16,14 C14.9,14 14,14.9 14,16 C14,17.1 14.9,18 16,18 C17.1,18 18,17.1 18,16 C18,14.9 17.1,14 16,14 L16,14 Z"></path>
  <path d="M16,32 C14.3,32 13,30.7 13,29 C13,27.3 14.3,26 16,26 C17.7,26 19,27.3 19,29 C19,30.7 17.7,32 16,32 L16,32 L16,32 Z M16,27 C14.9,27 14,27.9 14,29 C14,30.1 14.9,31 16,31 C17.1,31 18,30.1 18,29 C18,27.9 17.1,27 16,27 L16,27 Z"></path>
  <path d="M9.5,12.5 C7.8,12.5 6.5,11.2 6.5,9.5 C6.5,7.8 7.8,6.5 9.5,6.5 C11.2,6.5 12.5,7.8 12.5,9.5 C12.5,11.2 11.2,12.5 9.5,12.5 L9.5,12.5 Z M9.5,7.5 C8.4,7.5 7.5,8.4 7.5,9.5 C7.5,10.6 8.4,11.5 9.5,11.5 C10.6,11.5 11.5,10.6 11.5,9.5 C11.5,8.4 10.6,7.5 9.5,7.5 L9.5,7.5 L9.5,7.5 Z"></path>
  <path d="M22.5,12.5 C20.8,12.5 19.5,11.2 19.5,9.5 C19.5,7.8 20.8,6.5 22.5,6.5 C24.2,6.5 25.5,7.8 25.5,9.5 C25.5,11.2 24.1,12.5 22.5,12.5 L22.5,12.5 Z M22.5,7.5 C21.4,7.5 20.5,8.4 20.5,9.5 C20.5,10.6 21.4,11.5 22.5,11.5 C23.6,11.5 24.5,10.6 24.5,9.5 C24.5,8.4 23.6,7.5 22.5,7.5 L22.5,7.5 L22.5,7.5 Z"></path>
  <path d="M9.5,25.5 C7.8,25.5 6.5,24.2 6.5,22.5 C6.5,20.8 7.8,19.5 9.5,19.5 C11.2,19.5 12.5,20.8 12.5,22.5 C12.5,24.2 11.2,25.5 9.5,25.5 L9.5,25.5 Z M9.5,20.5 C8.4,20.5 7.5,21.4 7.5,22.5 C7.5,23.6 8.4,24.5 9.5,24.5 C10.6,24.5 11.5,23.6 11.5,22.5 C11.5,21.4 10.6,20.5 9.5,20.5 L9.5,20.5 L9.5,20.5 Z"></path>
  <path d="M22.5,25.5 C20.8,25.5 19.5,24.2 19.5,22.5 C19.5,20.8 20.8,19.5 22.5,19.5 C24.2,19.5 25.5,20.8 25.5,22.5 C25.5,24.2 24.1,25.5 22.5,25.5 L22.5,25.5 Z M22.5,20.5 C21.4,20.5 20.5,21.4 20.5,22.5 C20.5,23.6 21.4,24.5 22.5,24.5 C23.6,24.5 24.5,23.6 24.5,22.5 C24.5,21.4 23.6,20.5 22.5,20.5 L22.5,20.5 L22.5,20.5 Z"></path>
  <path d="M16,6 C14.3,6 13,4.7 13,3 C13,1.3 14.3,0 16,0 C17.7,0 19,1.3 19,3 C19,4.7 17.7,6 16,6 L16,6 Z M16,1 C14.9,1 14,1.9 14,3 C14,4.1 14.9,5 16,5 C17.1,5 18,4.1 18,3 C18,1.9 17.1,1 16,1 L16,1 Z"></path>
  <path d="M29,19 C27.3,19 26,17.7 26,16 C26,14.3 27.3,13 29,13 C30.7,13 32,14.3 32,16 C32,17.7 30.7,19 29,19 L29,19 Z M29,14 C27.9,14 27,14.9 27,16 C27,17.1 27.9,18 29,18 C30.1,18 31,17.1 31,16 C31,14.9 30.1,14 29,14 L29,14 Z"></path>
  <path d="M3,19 C1.3,19 0,17.7 0,16 C0,14.3 1.3,13 3,13 C4.7,13 6,14.3 6,16 C6,17.7 4.7,19 3,19 L3,19 Z M3,14 C1.9,14 1,14.9 1,16 C1,17.1 1.9,18 3,18 C4.1,18 5,17.1 5,16 C5,14.9 4.1,14 3,14 L3,14 Z"></path>
  <rect x="15.5" y="18.3" width="1" height="8.4"></rect>
  <rect x="15.5" y="5.3" width="1" height="8.2"></rect>
  <rect x="9" y="11.6" width="1" height="8.5"></rect>
  <rect x="22" y="11.8" width="1" height="8.5"></rect>
</svg>
