<svg width="32px" height="32px" viewBox="0 0 32 32" version="1.1" xmlns="http://www.w3.org/2000/svg" xmlns:xlink="http://www.w3.org/1999/xlink" fill-rule="evenodd">
  <path d="M15.9,0.1 C7.3,0.1 0.1,7.2 0.1,15.9 C0.1,24.6 7.2,31.6 15.9,31.6 C24.6,31.6 31.7,24.6 31.7,15.9 C31.7,7.2 24.6,0.1 15.9,0.1 L15.9,0.1 L15.9,0.1 Z M23.2,24.4 L8.6,24.4 C7.2,24.4 6,25.2 5.4,26.3 C2.7,23.6 1,19.9 1,15.8 C1,7.7 7.6,1 15.8,1 C24,1 30.7,7.7 30.7,15.8 C30.7,19.9 29,23.6 26.3,26.2 C25.8,25.1 24.5,24.4 23.2,24.4 L23.2,24.4 L23.2,24.4 Z"></path>
  <path d="M15.9,6.5 C19.8,6.5 22.9,9.6 22.9,13.5 C22.9,17.4 19.8,20.5 15.9,20.5 C12,20.5 8.9,17.4 8.9,13.5 C8.9,9.6 12,6.5 15.9,6.5 L15.9,6.5 Z M15.9,4.5 C10.9,4.5 6.9,8.5 6.9,13.5 C6.9,18.5 10.9,22.5 15.9,22.5 C20.9,22.5 24.9,18.5 24.9,13.5 C24.9,8.5 20.9,4.5 15.9,4.5 L15.9,4.5 L15.9,4.5 Z"></path>
</svg>
