<svg width="32px" height="32px" viewBox="0 0 32 32" version="1.1" xmlns="http://www.w3.org/2000/svg" xmlns:xlink="http://www.w3.org/1999/xlink" fill-rule="evenodd">
		<path d="M16,6.4 C19.9,6.4 23,9.5 23,13.4 C23,17.3 19.9,20.4 16,20.4 C12.1,20.4 9,17.3 9,13.4 C9,9.5 12.1,6.4 16,6.4 L16,6.4 Z M16,4.4 C11,4.4 7,8.4 7,13.4 C7,18.4 11,22.4 16,22.4 C21,22.4 25,18.4 25,13.4 C25,8.4 21,4.4 16,4.4 L16,4.4 L16,4.4 Z" id="Shape" fill="#000000"></path>
		<path d="M16,0 C7.2,0 0,7.2 0,16 C0,24.8 7.2,32 16,32 C24.8,32 32,24.8 32,16 C32,7.2 24.8,0 16,0 L16,0 Z M23.3,24.3 L8.7,24.3 C7.5,24.3 6.5,24.8 5.9,25.6 C3.5,23.1 2,19.7 2,16 C2,8.3 8.3,2 16,2 C23.7,2 30,8.3 30,16 C30,19.7 28.5,23.1 26.1,25.6 C25.5,24.8 24.4,24.3 23.3,24.3 L23.3,24.3 Z" id="Shape" fill="#000000"></path>
</svg>