<svg width="24px" height="23px" viewBox="0 0 24 23" version="1.1" xmlns="http://www.w3.org/2000/svg" xmlns:xlink="http://www.w3.org/1999/xlink" fill-rule="evenodd">
	<path d="M15.9,8 C14.7,7.3 13.3,7 12,7 C9.2,7 6.5,8.5 5,11.1 C2.8,14.9 4.2,19.8 8.1,22 C9.3,22.7 10.7,23 12,23 C14.8,23 17.5,21.5 19,18.9 C21.2,15 19.8,10.2 15.9,8 L15.9,8 Z M6.4,11.2 C7.1,10.2 8.3,9.5 9.8,9.4 L10.2,9.4 C10.6,9.4 10.9,9.4 11.3,9.5 C10.4,10.4 9.5,11.6 8.6,13 C7.9,14.3 7.4,15.5 7,16.6 C5.7,14.8 5.4,12.7 6.4,11.2 L6.4,11.2 Z M8.4,20.7 C8,20.5 7.8,19.9 7.8,19.1 C8.1,19.4 8.5,19.7 8.9,19.9 C9.2,20.1 9.6,20.3 10,20.5 C9.3,20.8 8.7,20.9 8.4,20.7 L8.4,20.7 Z M9.5,18.9 C8.9,18.5 8.4,18.1 8,17.7 C8.2,16.5 8.8,15.1 9.6,13.6 C10.5,12 11.6,10.7 12.6,9.9 C13.3,10.1 14,10.5 14.6,10.9 C15,11.1 15.3,11.4 15.6,11.6 C15.4,13 14.8,14.6 13.9,16.1 C13,17.7 12,18.9 11,19.7 C10.5,19.5 10,19.2 9.5,18.9 L9.5,18.9 Z M15.2,8.9 C15.5,9.1 15.7,9.5 15.7,10.2 C15.6,10.1 15.4,10 15.3,9.9 C14.8,9.6 14.3,9.3 13.8,9.1 C14.1,8.9 14.5,8.8 14.7,8.8 C14.9,8.8 15.1,8.9 15.2,8.9 L15.2,8.9 Z M15,16.7 C15.8,15.3 16.4,13.9 16.7,12.6 C18.4,14.5 19,16.9 17.9,18.6 C17.2,19.6 16,20.3 14.5,20.4 C13.8,20.4 13.1,20.3 12.4,20.2 C13.2,19.2 14.2,18.1 15,16.7 L15,16.7 Z M18.6,13.1 C18.6,13.2 18.7,13.4 18.7,13.5 C18.3,12.7 17.6,11.9 16.9,11.1 L16.9,10.2 C17.7,11 18.3,12 18.6,13.1 L18.6,13.1 Z M12,8.1 C12.4,8.1 12.7,8.1 13.1,8.2 C12.9,8.3 12.7,8.4 12.5,8.6 C11.8,8.4 11.2,8.3 10.6,8.3 C11,8.2 11.5,8.1 12,8.1 L12,8.1 Z M5.4,16.8 C5.3,16.3 5.2,15.9 5.2,15.4 C5.6,16.3 6.1,17.2 6.8,18 C6.7,18.5 6.7,18.9 6.7,19.3 C6.1,18.6 5.6,17.8 5.4,16.8 L5.4,16.8 Z M10.2,21.6 C10.5,21.4 10.9,21.2 11.2,21 C12.1,21.3 13.1,21.5 14,21.5 L14.1,21.5 C13.4,21.7 12.7,21.9 11.9,21.9 C11.4,21.9 10.8,21.8 10.2,21.6 L10.2,21.6 Z" id="Shape"></path>
	<path d="M12,5 C11.7,5 11.4,4.7 11.4,4.4 L11.4,0.6 C11.4,0.3 11.7,0 12,0 C12.3,0 12.6,0.3 12.6,0.6 L12.6,4.4 C12.6,4.7 12.4,5 12,5 L12,5 Z" id="Shape"></path>
	<path d="M3.8,9 C3.7,9 3.6,9 3.5,8.9 L0.3,7.1 C1.66533454e-16,6.9 -0.1,6.5 0.1,6.2 C0.2,6 0.6,5.9 0.9,6 L4.1,7.9 C4.4,8.1 4.5,8.4 4.3,8.7 C4.2,8.9 4,9 3.8,9 L3.8,9 Z" id="Shape"></path>
	<path d="M20.2,9 C20,9 19.8,8.9 19.7,8.7 C19.5,8.4 19.6,8 19.9,7.9 L23.1,6 C23.4,5.8 23.8,5.9 23.9,6.2 C24.1,6.5 24,6.9 23.7,7 L20.5,8.9 C20.4,9 20.3,9 20.2,9 L20.2,9 Z" id="Shape"></path>
	<path d="M7.4,6 C7.2,6 7,5.9 6.9,5.7 L4.8,2.7 C4.6,2.4 4.6,2 4.9,1.8 C5.2,1.7 5.5,1.7 5.7,2 L7.8,5 C8.1,5.3 8,5.7 7.7,5.9 C7.6,6 7.5,6 7.4,6 L7.4,6 Z" id="Shape"></path>
	<path d="M16.6,6 C16.5,6 16.4,6 16.3,5.9 C16,5.7 15.9,5.3 16.1,5 L18.2,2 C18.4,1.7 18.8,1.7 19,1.9 C19.3,2.1 19.3,2.5 19.1,2.7 L17,5.7 C17,5.9 16.8,6 16.6,6 L16.6,6 Z" id="Shape"></path>
</svg>