<svg width="42px" height="41px" viewBox="0 0 42 41" fill-rule="evenodd" version="1.1" xmlns="http://www.w3.org/2000/svg" xmlns:xlink="http://www.w3.org/1999/xlink">
  <path d="M36.4,40.6 C33.6,40.6 31.2,38.2 31.2,35.3 C31.2,32.4 33.5,30 36.4,30 C39.3,30 41.6,32.4 41.6,35.3 C41.6,38.2 39.3,40.6 36.4,40.6 L36.4,40.6 Z M36.4,31.3 C34.3,31.3 32.5,33.1 32.5,35.3 C32.5,37.5 34.2,39.3 36.4,39.3 C38.6,39.3 40.3,37.5 40.3,35.3 C40.3,33.1 38.5,31.3 36.4,31.3 L36.4,31.3 Z M21,40.6 C18.2,40.6 15.8,38.2 15.8,35.3 C15.8,32.4 18.1,30 21,30 C23.8,30 26.2,32.4 26.2,35.3 C26.1,38.2 23.8,40.6 21,40.6 L21,40.6 Z M21,31.3 C18.9,31.3 17.1,33.1 17.1,35.3 C17.1,37.5 18.8,39.3 21,39.3 C23.2,39.3 24.9,37.5 24.9,35.3 C24.8,33.1 23.1,31.3 21,31.3 L21,31.3 Z M5.5,40.6 C2.7,40.6 0.3,38.2 0.3,35.3 C0.3,32.4 2.6,30 5.5,30 C8.3,30 10.7,32.4 10.7,35.3 C10.7,38.2 8.4,40.6 5.5,40.6 L5.5,40.6 Z M5.5,31.3 C3.4,31.3 1.6,33.1 1.6,35.3 C1.6,37.5 3.3,39.3 5.5,39.3 C7.6,39.3 9.4,37.5 9.4,35.3 C9.4,33.1 7.6,31.3 5.5,31.3 L5.5,31.3 Z M36.4,25.7 C33.6,25.7 31.2,23.3 31.2,20.4 C31.2,17.5 33.5,15.1 36.4,15.1 C39.3,15.1 41.6,17.5 41.6,20.4 C41.6,23.3 39.3,25.7 36.4,25.7 L36.4,25.7 Z M36.4,16.5 C34.3,16.5 32.5,18.3 32.5,20.5 C32.5,22.7 34.2,24.5 36.4,24.5 C38.6,24.5 40.3,22.7 40.3,20.5 C40.3,18.3 38.5,16.5 36.4,16.5 L36.4,16.5 Z M21,25.7 C18.2,25.7 15.8,23.3 15.8,20.4 C15.8,17.5 18.1,15.1 21,15.1 C23.8,15.1 26.2,17.5 26.2,20.4 C26.2,23.3 23.8,25.7 21,25.7 L21,25.7 Z M21,16.5 C18.9,16.5 17.1,18.3 17.1,20.5 C17.1,22.7 18.8,24.5 21,24.5 C23.2,24.5 24.9,22.7 24.9,20.5 C24.8,18.3 23.1,16.5 21,16.5 L21,16.5 Z M5.5,25.7 C2.7,25.7 0.3,23.3 0.3,20.4 C0.3,17.5 2.6,15.1 5.5,15.1 C8.3,15.1 10.7,17.5 10.7,20.4 C10.7,23.3 8.4,25.7 5.5,25.7 L5.5,25.7 Z M5.5,16.5 C3.4,16.5 1.6,18.3 1.6,20.5 C1.6,22.7 3.3,24.5 5.5,24.5 C7.6,24.5 9.4,22.7 9.4,20.5 C9.4,18.3 7.6,16.5 5.5,16.5 L5.5,16.5 Z M36.4,10.9 C33.6,10.9 31.2,8.5 31.2,5.6 C31.2,2.7 33.5,0.3 36.4,0.3 C39.3,0.3 41.6,2.7 41.6,5.6 C41.6,8.5 39.3,10.9 36.4,10.9 L36.4,10.9 Z M36.4,1.6 C34.3,1.6 32.5,3.4 32.5,5.6 C32.5,7.8 34.2,9.6 36.4,9.6 C38.6,9.6 40.3,7.8 40.3,5.6 C40.3,3.4 38.5,1.6 36.4,1.6 L36.4,1.6 Z M21,10.9 C18.2,10.9 15.8,8.5 15.8,5.6 C15.8,2.7 18.1,0.3 21,0.3 C23.8,0.3 26.2,2.7 26.2,5.6 C26.2,8.5 23.8,10.9 21,10.9 L21,10.9 Z M21,1.6 C18.9,1.6 17.1,3.4 17.1,5.6 C17.1,7.8 18.8,9.6 21,9.6 C23.2,9.6 24.9,7.8 24.9,5.6 C24.9,3.4 23.1,1.6 21,1.6 L21,1.6 Z M5.5,10.9 C2.7,10.9 0.3,8.5 0.3,5.6 C0.3,2.7 2.6,0.3 5.5,0.3 C8.3,0.3 10.7,2.7 10.7,5.6 C10.7,8.5 8.4,10.9 5.5,10.9 L5.5,10.9 Z M5.5,1.6 C3.4,1.6 1.6,3.4 1.6,5.6 C1.6,7.8 3.3,9.6 5.5,9.6 C7.6,9.6 9.4,7.8 9.4,5.6 C9.4,3.4 7.6,1.6 5.5,1.6 L5.5,1.6 Z"></path>
</svg>
