<svg version="1.1" xmlns="http://www.w3.org/2000/svg" width="40px" height="40px" viewBox="0 0 40 40">
	<path d="M5.5,2c1.9,0,3.5,1.6,3.5,3.5c0,1.9-1.6,3.5-3.5,3.5S2,7.4,2,5.5C2,3.6,3.6,2,5.5,2 M5.5,0C2.4,0,0,2.4,0,5.5
		c0,3,2.4,5.5,5.5,5.5c3,0,5.5-2.4,5.5-5.5C10.9,2.4,8.5,0,5.5,0L5.5,0z"/>
	<path d="M34.5,2C36.4,2,38,3.6,38,5.5c0,1.9-1.6,3.5-3.5,3.5s-3.5-1.6-3.5-3.5C31.1,3.6,32.6,2,34.5,2 M34.5,0
		c-3,0-5.5,2.4-5.5,5.5c0,3,2.4,5.5,5.5,5.5c3,0,5.5-2.4,5.5-5.5C40,2.4,37.6,0,34.5,0L34.5,0z"/>
	<path d="M20,2c1.9,0,3.5,1.6,3.5,3.5c0,1.9-1.6,3.5-3.5,3.5s-3.5-1.6-3.5-3.5C16.5,3.6,18.1,2,20,2 M20,0c-3,0-5.5,2.4-5.5,5.5
		c0,3,2.4,5.5,5.5,5.5c3,0,5.5-2.4,5.5-5.5C25.4,2.4,23,0,20,0L20,0z"/>
	<path d="M5.5,16.5c1.9,0,3.5,1.6,3.5,3.5c0,1.9-1.6,3.5-3.5,3.5S2,21.9,2,20C2,18.1,3.6,16.5,5.5,16.5 M5.5,14.5
		C2.4,14.5,0,17,0,20c0,3,2.4,5.5,5.5,5.5c3,0,5.5-2.4,5.5-5.5C10.9,17,8.5,14.5,5.5,14.5L5.5,14.5z"/>
	<path d="M34.5,16.5c1.9,0,3.5,1.6,3.5,3.5c0,1.9-1.6,3.5-3.5,3.5s-3.5-1.6-3.5-3.5C31.1,18.1,32.6,16.5,34.5,16.5 M34.5,14.5
		c-3,0-5.5,2.4-5.5,5.5c0,3,2.4,5.5,5.5,5.5c3,0,5.5-2.4,5.5-5.5C40,17,37.6,14.5,34.5,14.5L34.5,14.5z"/>
	<path d="M20,16.5c1.9,0,3.5,1.6,3.5,3.5c0,1.9-1.6,3.5-3.5,3.5s-3.5-1.6-3.5-3.5C16.5,18.1,18.1,16.5,20,16.5 M20,14.5
		c-3,0-5.5,2.4-5.5,5.5c0,3,2.4,5.5,5.5,5.5c3,0,5.5-2.4,5.5-5.5C25.4,17,23,14.5,20,14.5L20,14.5z"/>
	<path d="M5.5,31.1c1.9,0,3.5,1.6,3.5,3.5S7.4,38,5.5,38S2,36.4,2,34.5S3.6,31.1,5.5,31.1 M5.5,29.1c-3,0-5.5,2.4-5.5,5.5
		S2.4,40,5.5,40c3,0,5.5-2.4,5.5-5.5S8.5,29.1,5.5,29.1L5.5,29.1z"/>
	<path d="M34.5,31.1c1.9,0,3.5,1.6,3.5,3.5S36.4,38,34.5,38s-3.5-1.6-3.5-3.5S32.6,31.1,34.5,31.1 M34.5,29.1c-3,0-5.5,2.4-5.5,5.5
		s2.4,5.5,5.5,5.5c3,0,5.5-2.4,5.5-5.5S37.6,29.1,34.5,29.1L34.5,29.1z"/>
	<path d="M20,31.1c1.9,0,3.5,1.6,3.5,3.5S21.9,38,20,38s-3.5-1.6-3.5-3.5S18.1,31.1,20,31.1 M20,29.1c-3,0-5.5,2.4-5.5,5.5
		S16.9,40,20,40c3,0,5.5-2.4,5.5-5.5S23,29.1,20,29.1L20,29.1z"/>
</svg>
