<?xml version="1.0" encoding="UTF-8" standalone="no"?>
<svg width="42px" height="41px" viewBox="0 0 42 41" version="1.1" xmlns="http://www.w3.org/2000/svg" xmlns:xlink="http://www.w3.org/1999/xlink" xmlns:sketch="http://www.bohemiancoding.com/sketch/ns">
    <!-- Generator: Sketch 3.4 (15588) - http://www.bohemiancoding.com/sketch -->
    <title>Imported Layers</title>
    <desc>Created with Sketch.</desc>
    <defs></defs>
    <g id="Page-1" stroke="none" stroke-width="1" fill="none" fill-rule="evenodd" sketch:type="MSPage">
        <g id="Compute-Taxonomy" sketch:type="MSArtboardGroup" transform="translate(-420.000000, -181.000000)" stroke="#5AAAFA" stroke-width="1.3">
            <g id="Main-Menu" sketch:type="MSLayerGroup" transform="translate(38.000000, 83.000000)">
                <path d="M398.453527,118.45504 C398.453527,121.012251 400.471333,123.085792 402.960568,123.085792 C405.449804,123.085792 407.46761,121.012251 407.46761,118.45504 C407.46761,115.89783 405.449804,113.824289 402.960568,113.824289 C400.471333,113.824289 398.453527,115.89783 398.453527,118.45504 L398.453527,118.45504 Z M413.905915,118.45504 C413.905915,121.012251 415.923722,123.085792 418.412957,123.085792 C420.902192,123.085792 422.919998,121.012251 422.919998,118.45504 C422.919998,115.89783 420.902192,113.824289 418.412957,113.824289 C415.923722,113.824289 413.905915,115.89783 413.905915,118.45504 L413.905915,118.45504 Z M383,118.45504 C383,121.012251 385.017806,123.085792 387.507041,123.085792 C389.996277,123.085792 392.014083,121.012251 392.014083,118.45504 C392.014083,115.89783 389.996277,113.824289 387.507041,113.824289 C385.017806,113.824289 383,115.89783 383,118.45504 L383,118.45504 Z M398.453527,103.630751 C398.453527,106.187962 400.471333,108.261503 402.960568,108.261503 C405.449804,108.261503 407.46761,106.187962 407.46761,103.630751 C407.46761,101.073541 405.449804,99 402.960568,99 C400.471333,99 398.453527,101.073541 398.453527,103.630751 L398.453527,103.630751 Z M413.905915,103.630751 C413.905915,106.187962 415.923722,108.261503 418.412957,108.261503 C420.902192,108.261503 422.919998,106.187962 422.919998,103.630751 C422.919998,101.073541 420.902192,99 418.412957,99 C415.923722,99 413.905915,101.073541 413.905915,103.630751 L413.905915,103.630751 Z M383,103.630751 C383,106.187962 385.017806,108.261503 387.507041,108.261503 C389.996277,108.261503 392.014083,106.187962 392.014083,103.630751 C392.014083,101.073541 389.996277,99 387.507041,99 C385.017806,99 383,101.073541 383,103.630751 L383,103.630751 Z M398.453527,133.279329 C398.453527,135.836539 400.471333,137.908903 402.960568,137.908903 C405.449804,137.908903 407.46761,135.836539 407.46761,133.279329 C407.46761,130.722118 405.449804,128.648577 402.960568,128.648577 C400.471333,128.648577 398.453527,130.722118 398.453527,133.279329 L398.453527,133.279329 Z M413.905915,133.279329 C413.905915,135.836539 415.923722,137.908903 418.412957,137.908903 C420.902192,137.908903 422.919998,135.836539 422.919998,133.279329 C422.919998,130.722118 420.902192,128.648577 418.412957,128.648577 C415.923722,128.648577 413.905915,130.722118 413.905915,133.279329 L413.905915,133.279329 Z M383,133.279329 C383,135.836539 385.017806,137.908903 387.507041,137.908903 C389.996277,137.908903 392.014083,135.836539 392.014083,133.279329 C392.014083,130.722118 389.996277,128.648577 387.507041,128.648577 C385.017806,128.648577 383,130.722118 383,133.279329 L383,133.279329 Z" id="Imported-Layers" sketch:type="MSShapeGroup"></path>
            </g>
        </g>
    </g>
</svg>