<?xml version="1.0" encoding="UTF-8" standalone="no"?>
<svg width="43px" height="45px" viewBox="0 0 43 45" version="1.1" xmlns="http://www.w3.org/2000/svg" xmlns:xlink="http://www.w3.org/1999/xlink" xmlns:sketch="http://www.bohemiancoding.com/sketch/ns">
    <!-- Generator: Sketch 3.4 (15588) - http://www.bohemiancoding.com/sketch -->
    <title>Fill 1 + Fill 2 + Fill 3</title>
    <desc>Created with Sketch.</desc>
    <defs></defs>
    <g id="Page-1" stroke="none" stroke-width="1" fill="none" fill-rule="evenodd" sketch:type="MSPage">
        <g id="Compute-Taxonomy" sketch:type="MSArtboardGroup" transform="translate(-660.000000, -132.000000)" fill="#5AAAFA">
            <g id="Main-Menu" sketch:type="MSLayerGroup" transform="translate(23.000000, 62.000000)">
                <g id="Fill-1-+-Fill-2-+-Fill-3" transform="translate(637.000000, 70.000000)" sketch:type="MSShapeGroup">
                    <path d="M21.2200979,26.5691136 L21.2200979,26.5691136 C20.7957926,26.5691136 20.3775228,26.4578807 20.0099524,26.2479735 L1.43949979,15.6240358 C0.683234282,15.1910647 0.230561392,14.4160226 0.229354264,13.5512765 C0.228147136,12.6859324 0.678405771,11.9096943 1.43346415,11.4749291 L19.8657007,0.861755936 C20.6008414,0.437755271 21.5544723,0.437157244 22.2914238,0.858167778 L40.86248,11.4815074 C41.6187455,11.9144785 42.0708148,12.6895206 42.0720219,13.5542667 C42.0732291,14.4196108 41.6229704,15.1958489 40.8679121,15.6306141 L22.4356755,26.2443853 C22.066898,26.4566847 21.646214,26.5691136 21.2200979,26.5691136 L21.2200979,26.5691136 Z M21.0818818,1.73248227 C20.8682202,1.73248227 20.6575764,1.78929477 20.4722823,1.89574345 L2.04004582,12.5089167 C1.66161129,12.7271963 1.43587841,13.1165114 1.43648197,13.5494825 C1.43708553,13.9830516 1.66402554,14.3711706 2.04306364,14.5882542 L20.6135163,25.2115938 C20.7976033,25.3168465 21.0076435,25.373061 21.2200979,25.373061 C21.4337596,25.373061 21.6444033,25.3162485 21.8296974,25.2097998 L40.2613304,14.5966266 C40.6403685,14.378945 40.8654978,13.9902279 40.8648942,13.5560608 C40.8642907,13.1224917 40.6379542,12.7343726 40.2589161,12.5178871 L21.6878599,1.89394937 C21.503773,1.78869674 21.2943363,1.73248227 21.0818818,1.73248227 L21.0818818,1.73248227 Z" id="Fill-1"></path>
                    <path d="M21.2200979,35.7422394 C20.8012246,35.7422394 20.3835584,35.6351927 20.0099524,35.4216973 L1.5010633,24.8336412 C0.736347901,24.396484 0.284278575,23.6124714 0.291521341,22.7375589 C0.298764107,21.8632444 0.764111838,21.0870063 1.53607001,20.6618096 L2.75707968,19.990226 C3.04920459,19.8281609 3.41617141,19.9340115 3.57792652,20.2222602 C3.73968163,20.5111069 3.63466152,20.875305 3.34314018,21.035576 L2.12213051,21.7071596 C1.73524608,21.9200569 1.50227043,22.3093721 1.49864905,22.7477254 C1.49502766,23.1860787 1.72136411,23.578982 2.10462716,23.7978596 L20.6135163,34.3859157 C20.9883294,34.5994111 21.4536772,34.5994111 21.8296974,34.3841216 L40.2064061,23.8032418 C40.588462,23.5831682 40.8141949,23.1896668 40.8099699,22.7519116 C40.8051414,22.3135583 40.5721658,21.9254392 40.1852813,21.7137379 L38.9522004,21.036174 C38.6606791,20.875305 38.5550554,20.5117049 38.7168105,20.2228582 C38.8791692,19.9334135 39.246136,19.8299549 39.5370538,19.989628 L40.7707383,20.6671918 C41.5420929,21.0911925 42.0080442,21.8656366 42.0170976,22.739353 C42.0255475,23.6136675 41.5758925,24.39768 40.8129878,24.8366313 L22.4356755,35.4187072 C22.0608624,35.6345947 21.6401784,35.7422394 21.2200979,35.7422394" id="Fill-2"></path>
                    <path d="M21.2194944,45.0158337 C20.8012246,45.0158337 20.3835584,44.909385 20.0099524,44.6958896 L1.43949979,34.0725499 C0.683234282,33.6395789 0.230561392,32.8645367 0.229354264,31.9997907 C0.228147136,31.1344466 0.678405771,30.3582084 1.43346415,29.9234433 L2.7468191,29.16694 C3.03532262,29.0006886 3.4047037,29.0969709 3.57189088,29.3840235 C3.73968163,29.6686841 3.64190429,30.0352742 3.35340077,30.2009275 L2.04004582,30.9574308 C1.66161129,31.1757104 1.43587841,31.5644275 1.43648197,31.9979966 C1.43708553,32.4309676 1.66402554,32.8196848 2.04306364,33.0361703 L20.6135163,43.660108 C20.9877259,43.8742014 21.4536772,43.8736034 21.8290939,43.6583139 L40.2613304,33.0451407 C40.6403685,32.8274591 40.8654978,32.4375459 40.8648942,32.0045749 C40.8642907,31.5704078 40.6379542,31.1822887 40.2589161,30.9652051 L38.9431469,30.212888 C38.6540398,30.0478327 38.5550554,29.6824387 38.721639,29.395984 C38.8876191,29.1107255 39.2576037,29.0120511 39.5461072,29.1771064 L40.8618764,29.9294235 C41.6187455,30.3617966 42.0708148,31.1368387 42.0720219,32.0027808 C42.0732291,32.8681249 41.6229704,33.6443631 40.8679121,34.0785302 L22.4356755,44.6917034 C22.0608624,44.9081889 21.6401784,45.0158337 21.2194944,45.0158337" id="Fill-3"></path>
                </g>
            </g>
        </g>
    </g>
</svg>