<svg version="1.1" xmlns="http://www.w3.org/2000/svg" width="40px" height="40px" viewBox="0 0 40 40">
	<path d="M20,2l17.5,9.5L20,21.2L2.5,11.7L20,2 M20,0c-0.3,0-0.6,0.1-0.9,0.3L0.7,10.5c-1,0.6-1,2,0,2.6l18.4,10
		c0.3,0.2,0.6,0.2,0.9,0.2c0.3,0,0.6-0.1,0.9-0.3l18.3-10.2c1-0.6,1-2,0-2.6l-18.4-10C20.6,0.1,20.3,0,20,0L20,0z"/>
	<path d="M20.1,31.5c-0.5,0-0.9-0.1-1.4-0.4L1.2,21.5C0.4,21,0,20.2,0,19.4c0-0.9,0.4-1.7,1.2-2.1l1.5-0.9C3.1,16,3.7,16.1,4,16.6
		c0.3,0.5,0.2,1.1-0.3,1.4l-1.5,0.9C2,19.1,2,19.3,2,19.4c0,0.1,0,0.3,0.2,0.4l17.5,9.7c0.2,0.1,0.5,0.1,0.8,0l17.3-9.9
		c0.2-0.1,0.2-0.3,0.2-0.4c0-0.1,0-0.3-0.2-0.4l-1.5-0.9c-0.5-0.3-0.6-0.9-0.3-1.4c0.3-0.5,0.9-0.6,1.4-0.3l1.4,0.9
		c0.7,0.4,1.2,1.2,1.2,2.1c0,0.9-0.4,1.7-1.2,2.1l-17.3,9.9C21.1,31.4,20.6,31.5,20.1,31.5z"/>
	<path d="M19.9,40c-0.5,0-0.9-0.1-1.4-0.4L1.2,30C0.4,29.6,0,28.8,0,27.9c0-0.9,0.4-1.7,1.2-2.1l1.5-0.9c0.5-0.3,1.1-0.2,1.4,0.3
		c0.3,0.5,0.2,1.1-0.3,1.4l-1.5,0.9C2,27.6,2,27.8,2,27.9c0,0.1,0,0.3,0.2,0.4l17.3,9.6c0.2,0.1,0.5,0.1,0.8,0l17.6-9.9
		C38,28,38,27.8,38,27.7c0-0.1,0-0.3-0.2-0.4l-1.4-0.9c-0.5-0.3-0.6-0.9-0.3-1.4c0.3-0.5,0.9-0.6,1.4-0.3l1.4,0.9
		c0.7,0.4,1.2,1.2,1.2,2.1c0,0.9-0.4,1.7-1.2,2.1l-17.6,9.9C20.8,39.9,20.3,40,19.9,40z"/>
</svg>
