<svg width="43px" height="45px" viewBox="0 0 43 45" fill-rule="evenodd" version="1.1" xmlns="http://www.w3.org/2000/svg" xmlns:xlink="http://www.w3.org/1999/xlink">
  <path d="M21.2,26.6 L21.2,26.6 C20.8,26.6 20.4,26.5 20,26.3 L1.4,15.7 C0.6,15.3 0.2,14.5 0.2,13.6 C0.2,12.7 0.6,12 1.4,11.5 L19.8,0.9 C20.5,0.5 21.5,0.5 22.2,0.9 L40.8,11.5 C41.6,11.9 42,12.7 42,13.6 C42,14.5 41.6,15.2 40.8,15.7 L22.4,26.3 C22.1,26.5 21.6,26.6 21.2,26.6 L21.2,26.6 L21.2,26.6 Z M21.1,1.7 C20.9,1.7 20.7,1.8 20.5,1.9 L2.1,12.5 C1.7,12.7 1.5,13.1 1.5,13.5 C1.5,13.9 1.7,14.3 2.1,14.5 L20.7,25.1 C20.9,25.2 21.1,25.3 21.3,25.3 C21.5,25.3 21.7,25.2 21.9,25.1 L40.3,14.5 C40.7,14.3 40.9,13.9 40.9,13.5 C40.9,13.1 40.7,12.7 40.3,12.5 L21.7,1.9 C21.5,1.8 21.3,1.7 21.1,1.7 L21.1,1.7 L21.1,1.7 Z"></path>
  <path d="M21.2,35.7 C20.8,35.7 20.4,35.6 20,35.4 L1.5,24.8 C0.7,24.4 0.3,23.6 0.3,22.7 C0.3,21.8 0.8,21 1.5,20.6 L2.7,19.9 C3,19.7 3.4,19.8 3.5,20.1 C3.7,20.4 3.6,20.8 3.3,20.9 L2.1,21.6 C1.7,21.8 1.5,22.2 1.5,22.6 C1.5,23 1.7,23.4 2.1,23.7 L20.6,34.3 C21,34.5 21.4,34.5 21.8,34.3 L40.2,23.7 C40.6,23.5 40.8,23.1 40.8,22.6 C40.8,22.2 40.6,21.8 40.2,21.6 L39,20.9 C38.7,20.7 38.6,20.4 38.8,20.1 C39,19.8 39.3,19.7 39.6,19.9 L40.8,20.6 C41.6,21 42,21.8 42,22.7 C42,23.6 41.6,24.4 40.8,24.8 L22.4,35.4 C22.1,35.6 21.6,35.7 21.2,35.7"></path>
  <path d="M21.2,45 C20.8,45 20.4,44.9 20,44.7 L1.4,34.1 C0.6,33.7 0.2,32.9 0.2,32 C0.2,31.1 0.6,30.4 1.4,29.9 L2.7,29.1 C3,28.9 3.4,29 3.5,29.3 C3.7,29.6 3.6,30 3.3,30.1 L2,30.9 C1.6,31.1 1.4,31.5 1.4,31.9 C1.4,32.3 1.6,32.7 2,32.9 L20.6,43.5 C21,43.7 21.4,43.7 21.8,43.5 L40.2,32.9 C40.6,32.7 40.8,32.3 40.8,31.9 C40.8,31.5 40.6,31.1 40.2,30.9 L38.9,30.1 C38.6,29.9 38.5,29.6 38.7,29.3 C38.9,29 39.2,28.9 39.5,29.1 L40.8,29.9 C41.6,30.3 42,31.1 42,32 C42,32.9 41.6,33.6 40.8,34.1 L22.4,44.7 C22.1,44.9 21.6,45 21.2,45"></path>
</svg>
