<svg 
	xmlns="http://www.w3.org/2000/svg" width="40" height="40" viewBox="0 0 110 110">
	<path d="M-193.62-81.228h-26.227c-5.024 0-9.75-1.965-13.33-5.546-3.58-3.582-5.547-8.306-5.547-13.33 0-5.024 1.966-9.75 5.546-13.33 3.582-3.582 8.307-5.547 13.33-5.547h4.304c.846 0 1.642-.362 2.214-.984.56-.622.845-1.455.76-2.288-.09-.957-.138-1.927-.138-2.873 0-7.834 3.046-15.195 8.592-20.74 5.534-5.534 12.907-8.594 20.743-8.594 4.613 0 9.04 1.045 13.13 3.097 3.905 1.965 7.388 4.826 10.073 8.295 1.008 1.306 2.885 1.542 4.19.535 1.306-1.007 1.542-2.885.534-4.19-3.232-4.167-7.424-7.624-12.123-9.986-4.937-2.475-10.247-3.73-15.804-3.73-9.428 0-18.293 3.67-24.958 10.334-6.68 6.69-10.347 15.556-10.347 24.98v.175h-1.168c-6.615 0-12.846 2.586-17.546 7.3-4.7 4.698-7.3 10.942-7.3 17.544 0 6.604 2.587 12.847 7.3 17.547 4.7 4.702 10.943 7.3 17.546 7.3h26.227c1.652 0 2.982-1.33 2.982-2.983s-1.33-2.985-2.982-2.985zm22.73-38.536c-6.466 0-11.726 5.26-11.726 11.727 0 6.466 5.26 11.726 11.727 11.726 6.466 0 11.728-5.26 11.728-11.727 0-6.467-5.262-11.727-11.727-11.727zm0 17.795c-3.345 0-6.067-2.723-6.067-6.067s2.723-6.07 6.068-6.07 6.07 2.726 6.07 6.07-2.723 6.068-6.07 6.068zm25.79 2.19v-16.924c2.066-1.145 3.46-3.345 3.46-5.882 0-3.706-3.01-6.716-6.716-6.716-1.805 0-3.445.71-4.652 1.878l-11.04-6.38c.01-.136.01-.285.01-.422 0-3.706-3.01-6.715-6.714-6.715s-6.715 3.008-6.715 6.714c0 .137 0 .286.012.423l-11.217 6.48c-1.22-1.22-2.896-1.965-4.762-1.965-3.706 0-6.716 3.01-6.716 6.716 0 2.636 1.517 4.924 3.73 6.018v16.626c-2.214 1.095-3.73 3.383-3.73 6.02 0 3.705 3.01 6.714 6.716 6.714 1.73 0 3.295-.646 4.49-1.716l11.477 6.627c-.014.138-.014.287-.014.424 0 3.706 3.01 6.716 6.716 6.716 3.703 0 6.715-3.01 6.715-6.715 0-.136 0-.285-.013-.423l11.316-6.528c1.182 1.007 2.71 1.63 4.377 1.63 3.707 0 6.715-3.01 6.715-6.717.014-2.54-1.378-4.74-3.445-5.884zm-9.96 5.422l-11.974 6.914c-1.07-.71-2.352-1.12-3.72-1.12-1.368 0-2.66.41-3.716 1.12l-12.264-7.076c-.223-2.375-1.666-4.377-3.705-5.396v-16.64c1.915-.944 3.31-2.772 3.657-4.96l12.324-7.114c1.07.71 2.35 1.12 3.718 1.12s2.662-.41 3.72-1.12l12.022 6.94c.313 2.362 1.854 4.327 3.943 5.26v16.377c-2.236.982-3.828 3.145-4.002 5.695zm0 0M64.24 21.416c-10.94 0-19.844 8.194-19.844 18.267 0 5.503 2.825 9.686 7.75 11.476 3.396 1.232 7.488 1.232 11.1 1.232h1.988c3.612 0 7.704 0 11.1-1.233 4.927-1.792 7.752-5.974 7.752-11.477 0-10.074-8.902-18.267-19.845-18.267zm.994 24.78h-1.987c-7.104 0-12.71-.14-12.71-6.514 0-6.667 6.137-12.072 13.704-12.072s13.704 5.406 13.704 12.072c0 6.373-5.606 6.513-12.71 6.513zm40.03 4.055c0-24.708-19.933-44.812-44.434-44.812-24.124 0-43.818 19.49-44.416 43.68l-8.44 8.51c-2.7 2.724-3.938 6.724-2.836 10.406 1.307 4.373 5.23 7.27 9.67 7.27h1.59V94.73c0 5.43 4.367 9.833 9.752 9.833h15.174c1.697 0 3.072-1.387 3.072-3.097s-1.375-3.097-3.072-3.097H26.15c-1.992 0-3.607-1.633-3.607-3.64V69.105h-7.736c-3.515 0-5.275-4.284-2.79-6.792l10.526-10.616v-.068h.07c-.017-.46-.07-.914-.07-1.38 0-21.327 17.142-38.617 38.287-38.617 21.146 0 38.29 17.29 38.29 38.618 0 .466-.054.92-.07 1.38h.07v2.597c0 1.71 1.375 3.097 3.07 3.097 1.697 0 3.072-1.387 3.072-3.097V51.63c0-.19-.01-.375-.025-.56.016-.272.026-.545.026-.82zm0 0"/>
</svg>
