<svg width="31px" height="46px" viewBox="0 0 31 46" fill-rule="evenodd" version="1.1" xmlns="http://www.w3.org/2000/svg" xmlns:xlink="http://www.w3.org/1999/xlink">
  <path d="M18.9,45.5 L12.1,45.5 C11.7,45.5 11.5,45.2 11.5,44.8 C11.5,44.4 11.8,44.1 12.1,44.1 L18.9,44.1 C19.3,44.1 19.6,44.4 19.6,44.8 C19.6,45.2 19.2,45.5 18.9,45.5 L18.9,45.5 Z M20.6,42.4 L10.3,42.4 C9.9,42.4 9.7,42.1 9.7,41.7 C9.7,41.3 10,41 10.3,41 L20.6,41 C21,41 21.3,41.3 21.3,41.7 C21.3,42.1 21,42.4 20.6,42.4 L20.6,42.4 Z M20.6,39.3 L10.3,39.3 C9.9,39.3 9.7,39 9.7,38.6 C9.7,38.2 10,37.9 10.3,37.9 L20.6,37.9 C21,37.9 21.3,38.2 21.3,38.6 C21.3,39 21,39.3 20.6,39.3 L20.6,39.3 Z M21.7,35.8 L9.3,35.8 L9.3,33.1 C9.3,30.8 8.6,28.7 5.4,25.4 C2.2,22.2 0.4,18.4 0.4,14.7 C0.4,6.7 7.2,0.2 15.5,0.2 C23.8,0.2 30.6,6.7 30.6,14.7 C30.6,18.4 28.8,22.2 25.6,25.4 C22.3,28.6 21.7,30.7 21.7,33.1 L21.7,35.8 L21.7,35.8 Z M10.6,34.5 L20.4,34.5 L20.4,33.1 C20.4,30.5 21.1,28 24.7,24.5 C27.6,21.6 29.3,18.1 29.3,14.8 C29.3,7.5 23.1,1.6 15.5,1.6 C7.9,1.6 1.7,7.5 1.7,14.8 C1.7,18.1 3.4,21.6 6.3,24.5 C9.9,28 10.6,30.5 10.6,33.1 L10.6,34.5 L10.6,34.5 Z"></path>
</svg>
