<?xml version="1.0" encoding="UTF-8" standalone="no"?>
<svg width="31px" height="46px" viewBox="0 0 31 46" version="1.1" xmlns="http://www.w3.org/2000/svg" xmlns:xlink="http://www.w3.org/1999/xlink" xmlns:sketch="http://www.bohemiancoding.com/sketch/ns">
    <!-- Generator: Sketch 3.4 (15588) - http://www.bohemiancoding.com/sketch -->
    <title>Imported Layers</title>
    <desc>Created with Sketch.</desc>
    <defs></defs>
    <g id="Page-1" stroke="none" stroke-width="1" fill="none" fill-rule="evenodd" sketch:type="MSPage">
        <g id="Compute-Taxonomy" sketch:type="MSArtboardGroup" transform="translate(-774.000000, -177.000000)" stroke-linecap="round" stroke="#5AAAFA" stroke-width="1.3">
            <g id="Main-Menu" sketch:type="MSLayerGroup" transform="translate(38.000000, 83.000000)">
                <path d="M751.465897,95 C743.476896,95 737,101.180023 737,108.802954 C737,112.590293 739.004101,116.225808 741.809095,118.990401 C745.128504,122.262247 745.918187,124.527824 745.918187,127.104109 L745.918187,129.167255 L757.014853,129.167255 L757.014853,127.104109 C757.014853,124.527824 757.804536,122.262247 761.123945,118.990401 C763.927694,116.225808 765.931795,112.590293 765.931795,108.802954 C765.931795,101.180023 759.456145,95 751.465897,95 M746.342922,132.632117 L756.636204,132.632117 M746.342922,135.718009 L756.636204,135.718009 M748.107876,138.805078 L754.87125,138.805078" id="Imported-Layers" sketch:type="MSShapeGroup"></path>
            </g>
        </g>
    </g>
</svg>