<svg width="46px" height="44px" viewBox="0 0 46 44" fill-rule="evenodd" version="1.1" xmlns="http://www.w3.org/2000/svg" xmlns:xlink="http://www.w3.org/1999/xlink">
  <path d="M41.5,6 C41.5,5.3 40.9,4.7 40.2,4.7 C39.5,4.7 38.9,5.3 38.9,6 C38.9,6.7 39.5,7.3 40.2,7.3 C40.9,7.3 41.5,6.7 41.5,6"></path>
  <path d="M41.5,37.5 C41.5,36.8 40.9,36.2 40.2,36.2 C39.5,36.2 38.9,36.8 38.9,37.5 C38.9,38.2 39.5,38.8 40.2,38.8 C40.9,38.8 41.5,38.2 41.5,37.5"></path>
  <path d="M41.5,21.8 C41.5,21.1 40.9,20.5 40.2,20.5 C39.5,20.5 38.9,21.1 38.9,21.8 C38.9,22.5 39.5,23.1 40.2,23.1 C40.9,23 41.5,22.5 41.5,21.8"></path>
  <path d="M45.3,43.3 L1,43.3 C0.7,43.3 0.4,43 0.4,42.7 L0.4,32.2 C0.4,31.9 0.7,31.6 1,31.6 L45.3,31.6 C45.6,31.6 45.9,31.9 45.9,32.2 L45.9,42.7 C45.9,43.1 45.7,43.3 45.3,43.3 L45.3,43.3 L45.3,43.3 Z M1.6,42.2 L44.7,42.2 L44.7,32.9 L1.6,32.9 L1.6,42.2 L1.6,42.2 Z"></path>
  <path d="M45.3,27.6 L1,27.6 C0.7,27.6 0.4,27.3 0.4,27 L0.4,16.5 C0.4,16.2 0.7,15.9 1,15.9 L45.3,15.9 C45.6,15.9 45.9,16.2 45.9,16.5 L45.9,27 C45.9,27.3 45.7,27.6 45.3,27.6 L45.3,27.6 L45.3,27.6 Z M1.6,26.4 L44.7,26.4 L44.7,17.1 L1.6,17.1 L1.6,26.4 L1.6,26.4 Z"></path>
  <path d="M45.3,11.8 L1,11.8 C0.7,11.8 0.4,11.5 0.4,11.2 L0.4,0.7 C0.4,0.4 0.7,0.1 1,0.1 L45.3,0.1 C45.6,0.1 45.9,0.4 45.9,0.7 L45.9,11.2 C45.9,11.6 45.7,11.8 45.3,11.8 L45.3,11.8 L45.3,11.8 Z M1.6,10.7 L44.7,10.7 L44.7,1.4 L1.6,1.4 L1.6,10.7 L1.6,10.7 Z"></path>
</svg>
