<svg version="1.1" xmlns="http://www.w3.org/2000/svg" 
	 width="40px" height="40px" viewBox="0 0 40 40">
<style type="text/css">
</style>
<g>
	<path d="M38,3v6H2V3H38 M39.6,1H0.4C0.2,1,0,1.2,0,1.4v9.2C0,10.9,0.2,11,0.4,11h39.2c0.2,0,0.4-0.1,0.4-0.4V1.4
		C40,1.2,39.8,1,39.6,1L39.6,1z"/>
	<circle cx="35" cy="6" r="1.1"/>
</g>
<g>
	<path d="M38,17v6H2v-6H38 M39.6,15H0.4C0.2,15,0,15.2,0,15.4v9.2C0,24.9,0.2,25,0.4,25h39.2c0.2,0,0.4-0.1,0.4-0.4v-9.2
		C40,15.2,39.8,15,39.6,15L39.6,15z"/>
	<circle cx="35" cy="20" r="1.1"/>
</g>
<g>
	<path d="M38,31v6H2v-6H38 M39.6,29H0.4C0.2,29,0,29.2,0,29.4v9.2C0,38.9,0.2,39,0.4,39h39.2c0.2,0,0.4-0.1,0.4-0.4v-9.2
		C40,29.2,39.8,29,39.6,29L39.6,29z"/>
	<circle cx="35" cy="34" r="1.1"/>
</g>
</svg>
