<?xml version="1.0" encoding="UTF-8" standalone="no"?>
<svg width="46px" height="44px" viewBox="0 0 46 44" version="1.1" xmlns="http://www.w3.org/2000/svg" xmlns:xlink="http://www.w3.org/1999/xlink" xmlns:sketch="http://www.bohemiancoding.com/sketch/ns">
    <!-- Generator: Sketch 3.4 (15588) - http://www.bohemiancoding.com/sketch -->
    <title>Imported Layers</title>
    <desc>Created with Sketch.</desc>
    <defs></defs>
    <g id="Page-1" stroke="none" stroke-width="1" fill="none" fill-rule="evenodd" sketch:type="MSPage">
        <g id="Compute-Taxonomy" sketch:type="MSArtboardGroup" transform="translate(-76.000000, -133.000000)" fill="#5AAAFA">
            <g id="Main-Menu" sketch:type="MSLayerGroup" transform="translate(23.000000, 62.000000)">
                <g id="Imported-Layers" transform="translate(53.000000, 71.000000)" sketch:type="MSShapeGroup">
                    <path d="M41.5453886,6.03258837 C41.5453886,5.335883 40.9477786,4.77120301 40.210444,4.77120301 C39.4737142,4.77120301 38.8761042,5.335883 38.8761042,6.03258837 C38.8761042,6.72929375 39.4737142,7.29397374 40.210444,7.29397374 C40.9477786,7.29397374 41.5453886,6.72929375 41.5453886,6.03258837" id="Fill-1"></path>
                    <path d="M41.5453886,37.5026387 C41.5453886,36.8065048 40.9477786,36.2418248 40.210444,36.2418248 C39.4737142,36.2418248 38.8761042,36.8065048 38.8761042,37.5026387 C38.8761042,38.199344 39.4737142,38.764024 40.210444,38.764024 C40.9477786,38.764024 41.5453886,38.199344 41.5453886,37.5026387" id="Fill-2"></path>
                    <path d="M41.5453886,21.7676135 C41.5453886,21.0714797 40.9477786,20.5062282 40.210444,20.5062282 C39.4737142,20.5062282 38.8761042,21.0714797 38.8761042,21.7676135 C38.8761042,22.4643189 39.4737142,23.0289989 40.210444,23.0289989 C40.9477786,23.0289989 41.5453886,22.4643189 41.5453886,21.7676135" id="Fill-3"></path>
                    <path d="M45.3427527,43.3117555 L0.996823184,43.3117555 C0.662935807,43.3117555 0.391954747,43.0562778 0.391954747,42.7402171 L0.391954747,32.2650603 C0.391954747,31.9489995 0.662935807,31.6935218 0.996823184,31.6935218 L45.3427527,31.6935218 C45.6772449,31.6935218 45.9476211,31.9489995 45.9476211,32.2650603 L45.9476211,42.7402171 C45.9476211,43.0562778 45.6772449,43.3117555 45.3427527,43.3117555 L45.3427527,43.3117555 Z M1.60169162,42.1686786 L44.7372793,42.1686786 L44.7372793,32.8365987 L1.60169162,32.8365987 L1.60169162,42.1686786 Z" id="Fill-4"></path>
                    <path d="M45.3427527,27.5767304 L0.996823184,27.5767304 C0.662935807,27.5767304 0.391954747,27.3212527 0.391954747,27.0051919 L0.391954747,16.5300351 C0.391954747,16.2139744 0.662935807,15.9584967 0.996823184,15.9584967 L45.3427527,15.9584967 C45.6772449,15.9584967 45.9476211,16.2139744 45.9476211,16.5300351 L45.9476211,27.0051919 C45.9476211,27.3212527 45.6772449,27.5767304 45.3427527,27.5767304 L45.3427527,27.5767304 Z M1.60169162,26.4336534 L44.7372793,26.4336534 L44.7372793,17.1015736 L1.60169162,17.1015736 L1.60169162,26.4336534 Z" id="Fill-5"></path>
                    <path d="M45.3427527,11.8417052 L0.996823184,11.8417052 C0.662935807,11.8417052 0.391954747,11.585656 0.391954747,11.2701668 L0.391954747,0.795009988 C0.391954747,0.479520762 0.662935807,0.224043074 0.996823184,0.224043074 L45.3427527,0.224043074 C45.6772449,0.224043074 45.9476211,0.479520762 45.9476211,0.795009988 L45.9476211,11.2701668 C45.9476211,11.585656 45.6772449,11.8417052 45.3427527,11.8417052 L45.3427527,11.8417052 Z M1.60169162,10.6986283 L44.7372793,10.6986283 L44.7372793,1.36711998 L1.60169162,1.36711998 L1.60169162,10.6986283 Z" id="Fill-6"></path>
                </g>
            </g>
        </g>
    </g>
</svg>