<?xml version="1.0" encoding="UTF-8" standalone="no"?>
<svg width="45px" height="42px" viewBox="0 0 45 42" version="1.1" xmlns="http://www.w3.org/2000/svg" xmlns:xlink="http://www.w3.org/1999/xlink" xmlns:sketch="http://www.bohemiancoding.com/sketch/ns">
    <!-- Generator: Sketch 3.4 (15588) - http://www.bohemiancoding.com/sketch -->
    <title>Imported Layers</title>
    <desc>Created with Sketch.</desc>
    <defs></defs>
    <g id="Page-1" stroke="none" stroke-width="1" fill="none" fill-rule="evenodd" sketch:type="MSPage">
        <g id="Compute-Taxonomy" sketch:type="MSArtboardGroup" transform="translate(-76.000000, -276.000000)" fill="#5AAAFA">
            <g id="Main-Menu" sketch:type="MSLayerGroup" transform="translate(23.000000, 62.000000)">
                <g id="Imported-Layers" transform="translate(53.000000, 214.000000)" sketch:type="MSShapeGroup">
                    <path d="M43.9994805,11.5047975 L1.15363636,11.5047975 C0.830454545,11.5047975 0.569220779,11.2574063 0.569220779,10.9525849 C0.569220779,10.6477636 0.830454545,10.4003723 1.15363636,10.4003723 L43.9994805,10.4003723 C44.3220779,10.4003723 44.5838961,10.6477636 44.5838961,10.9525849 C44.5838961,11.2574063 44.3220779,11.5047975 43.9994805,11.5047975" id="Fill-1"></path>
                    <path d="M43.9994805,41.868208 L1.15480519,41.868208 C0.832207792,41.868208 0.57038961,41.6213689 0.57038961,41.3159953 L0.57038961,0.83107998 C0.57038961,0.526258618 0.832207792,0.278867369 1.15480519,0.278867369 L43.9994805,0.278867369 C44.3220779,0.278867369 44.5838961,0.526258618 44.5838961,0.83107998 L44.5838961,41.3159953 C44.5838961,41.6213689 44.3220779,41.868208 43.9994805,41.868208 L43.9994805,41.868208 Z M1.73922078,40.7637827 L43.4150649,40.7637827 L43.4150649,1.38329259 L1.73922078,1.38329259 L1.73922078,40.7637827 Z" id="Fill-2"></path>
                    <path d="M28.7509091,31.7472552 C28.6521429,31.7472552 28.5522078,31.7235101 28.461039,31.6738109 L10.4166234,21.9112442 L1.59720779,31.5556374 C1.38564935,31.7864623 1.0162987,31.8118641 0.772597403,31.6130676 C0.528311688,31.4131666 0.501428571,31.0647204 0.712402597,30.8338956 L9.84681818,20.8449216 C10.0297403,20.6455729 10.3365584,20.5953215 10.5790909,20.7267481 L28.582013,30.4672264 L43.5237662,10.6323016 C43.7096104,10.3838059 44.0748701,10.3258236 44.3384416,10.5025316 C44.6014286,10.6792397 44.6627922,11.0243726 44.4757792,11.2728682 L29.2277922,31.5153259 C29.1144156,31.6655278 28.9344156,31.7472552 28.7509091,31.7472552" id="Fill-3"></path>
                </g>
            </g>
        </g>
    </g>
</svg>