<svg width="45px" height="42px" viewBox="0 0 45 42" fill-rule="evenodd" version="1.1" xmlns="http://www.w3.org/2000/svg" xmlns:xlink="http://www.w3.org/1999/xlink">
  <path d="M44,11.5 L1.2,11.5 C0.9,11.5 0.6,11.3 0.6,10.9 C0.6,10.6 0.9,10.3 1.2,10.3 L44,10.3 C44.3,10.3 44.6,10.5 44.6,10.9 C44.6,11.3 44.3,11.5 44,11.5"></path>
  <path d="M44,41.9 L1.2,41.9 C0.9,41.9 0.6,41.7 0.6,41.3 L0.6,0.8 C0.6,0.5 0.9,0.2 1.2,0.2 L44,0.2 C44.3,0.2 44.6,0.4 44.6,0.8 L44.6,41.3 C44.6,41.6 44.3,41.9 44,41.9 L44,41.9 L44,41.9 Z M1.7,40.8 L43.4,40.8 L43.4,1.4 L1.7,1.4 L1.7,40.8 L1.7,40.8 Z"></path>
  <path d="M28.8,31.7 C28.7,31.7 28.6,31.7 28.5,31.6 L10.5,21.8 L1.7,31.4 C1.5,31.6 1.1,31.7 0.9,31.5 C0.7,31.3 0.6,31 0.8,30.7 L9.9,20.7 C10.1,20.5 10.4,20.5 10.6,20.6 L28.6,30.3 L43.5,10.5 C43.7,10.3 44.1,10.2 44.3,10.4 C44.6,10.6 44.6,10.9 44.4,11.2 L29.2,31.4 C29.1,31.7 28.9,31.7 28.8,31.7"></path>
</svg>
