<?xml version="1.0" encoding="UTF-8" standalone="no"?>
<svg width="45px" height="43px" viewBox="0 0 45 43" version="1.1" xmlns="http://www.w3.org/2000/svg" xmlns:xlink="http://www.w3.org/1999/xlink" xmlns:sketch="http://www.bohemiancoding.com/sketch/ns">
    <!-- Generator: Sketch 3.4 (15588) - http://www.bohemiancoding.com/sketch -->
    <title>Imported Layers</title>
    <desc>Created with Sketch.</desc>
    <defs></defs>
    <g id="Page-1" stroke="none" stroke-width="1" fill="none" fill-rule="evenodd" sketch:type="MSPage">
        <g id="Compute-Taxonomy" sketch:type="MSArtboardGroup" transform="translate(-435.000000, -271.000000)" fill="#5AAAFA">
            <g id="Main-Menu" sketch:type="MSLayerGroup" transform="translate(23.000000, 62.000000)">
                <g id="Imported-Layers" transform="translate(412.000000, 209.000000)" sketch:type="MSShapeGroup">
                    <path d="M44.3025,42.1522342 L33.4758553,42.1522342 C33.1484211,42.1522342 32.88375,41.9015878 32.88375,41.5927556 L32.88375,21.1337434 C32.88375,20.8249112 33.1484211,20.5742648 33.4758553,20.5742648 L44.3025,20.5742648 C44.6299342,20.5742648 44.8946053,20.8249112 44.8946053,21.1337434 L44.8946053,41.5927556 C44.8946053,41.9015878 44.6299342,42.1522342 44.3025,42.1522342 L44.3025,42.1522342 Z M34.0679605,41.033277 L43.7103947,41.033277 L43.7103947,21.6932219 L34.0679605,21.6932219 L34.0679605,41.033277 Z" id="Fill-1"></path>
                    <path d="M19.7632895,11.4631563 C19.6608553,11.4631563 19.5584211,11.4379798 19.4672368,11.3881862 C19.2836842,11.2880396 19.1711842,11.1034116 19.1711842,10.9036778 L19.1711842,0.674171673 C19.1711842,0.473878346 19.2836842,0.289250419 19.4672368,0.189103755 C19.6496053,0.0895165706 19.8763816,0.0895165706 20.0593421,0.189103755 L29.4353289,5.30329733 C29.6182895,5.40344399 29.7313816,5.58807192 29.7313816,5.78836525 C29.7313816,5.9880991 29.6182895,6.17272702 29.4353289,6.27287369 L20.0593421,11.3881862 C19.9681579,11.4379798 19.8657237,11.4631563 19.7632895,11.4631563 L19.7632895,11.4631563 Z M20.3553947,1.64262907 L20.3553947,9.9346609 L27.9550658,5.78836525 L20.3553947,1.64262907 L20.3553947,1.64262907 Z" id="Fill-2"></path>
                    <path d="M6.41013158,27.3445149 C6.08269737,27.3445149 5.81802632,27.0938685 5.81802632,26.7850364 L5.81802632,5.78892473 C5.81802632,5.48009256 6.08269737,5.22944616 6.41013158,5.22944616 L19.7632895,5.22944616 C20.0901316,5.22944616 20.3553947,5.48009256 20.3553947,5.78892473 C20.3553947,6.0977569 20.0901316,6.34840329 19.7632895,6.34840329 L7.00223684,6.34840329 L7.00223684,26.7850364 C7.00223684,27.0938685 6.73756579,27.3445149 6.41013158,27.3445149" id="Fill-3"></path>
                    <path d="M6.41072368,42.1527936 C3.09967105,42.1527936 0.406184211,39.6077256 0.406184211,36.4791215 C0.406184211,33.3499579 3.09967105,30.8043304 6.41072368,30.8043304 C9.72177632,30.8043304 12.4152632,33.3499579 12.4152632,36.4791215 C12.4152632,39.6077256 9.72177632,42.1527936 6.41072368,42.1527936 L6.41072368,42.1527936 Z M6.41072368,31.9232875 C3.75335526,31.9232875 1.59039474,33.9670627 1.59039474,36.4791215 C1.59039474,38.9906208 3.75335526,41.0338365 6.41072368,41.0338365 C9.06809211,41.0338365 11.2310526,38.9906208 11.2310526,36.4791215 C11.2310526,33.9670627 9.06809211,31.9232875 6.41072368,31.9232875 L6.41072368,31.9232875 Z" id="Fill-4"></path>
                    <path d="M28.6300658,37.0380406 L11.8243421,37.0380406 C11.4969079,37.0380406 11.2322368,36.7873942 11.2322368,36.478562 C11.2322368,36.1691704 11.4969079,35.9190834 11.8243421,35.9190834 L28.6300658,35.9190834 C28.9575,35.9190834 29.2227632,36.1691704 29.2227632,36.478562 C29.2227632,36.7873942 28.9575,37.0380406 28.6300658,37.0380406 L28.6300658,37.0380406 Z M38.8900658,21.6926625 C38.5632237,21.6926625 38.2985526,21.4420161 38.2985526,21.1331839 L38.2985526,6.34896277 L34.0685526,6.34896277 C33.7411184,6.34896277 33.4764474,6.09831637 33.4764474,5.78948421 C33.4764474,5.48009256 33.7411184,5.23000564 34.0685526,5.23000564 L38.8900658,5.23000564 C39.2175,5.23000564 39.4827632,5.48009256 39.4827632,5.78948421 L39.4827632,21.1331839 C39.4827632,21.4420161 39.2175,21.6926625 38.8900658,21.6926625 L38.8900658,21.6926625 Z" id="Fill-5"></path>
                </g>
            </g>
        </g>
    </g>
</svg>