<svg version="1.1" xmlns="http://www.w3.org/2000/svg"
	 width="40px" height="40px" viewBox="0 0 40 40">
<path d="M39,19h-4V6.8c0-0.6-0.4-1-1-1h-5c-0.6,0-1,0.4-1,1s0.4,1,1,1h4V19h-3.9c-0.6,0-1,0.4-1,1v17.9c0,0.6,0.4,1,1,1H39
	c0.6,0,1-0.4,1-1V20C40,19.4,39.6,19,39,19z M38,36.9h-7.9V21H38V36.9z"/>
<path d="M24,32.8C24,32.8,24,32.8,24,32.8l-14,0.1c0,0,0,0,0,0C9.4,30.6,7.4,29,5,29c-2.8,0-5,2.3-5,5c0,2.8,2.3,5,5,5
	c2.5,0,4.6-1.9,5-4.3c0,0,0,0,0,0h14c0.6,0,1-0.4,1-0.9C25,33.3,24.5,32.8,24,32.8z M5,37c-1.7,0-3-1.4-3-3s1.4-3,3-3s3,1.4,3,3
	S6.7,37,5,37z"/>
<path d="M25.5,6.1l-8-5c-0.3-0.2-0.7-0.2-1,0C16.2,1.3,16,1.6,16,2v3.7H5c-0.6,0-1,0.4-1,1v19c0,0.6,0.4,1,1,1s1-0.4,1-1v-18h10V12
	c0,0.4,0.2,0.7,0.5,0.9c0.2,0.1,0.3,0.1,0.5,0.1c0.2,0,0.4-0.1,0.5-0.2l8-5C25.8,7.7,26,7.3,26,7C26,6.6,25.8,6.3,25.5,6.1z
	 M18,10.2V6.8c0,0,0,0,0-0.1s0,0,0-0.1V3.8L23.1,7L18,10.2z"/>
</svg>
