<svg width="45px" height="43px" viewBox="0 0 45 43" fill-rule="evenodd" version="1.1" xmlns="http://www.w3.org/2000/svg" xmlns:xlink="http://www.w3.org/1999/xlink">
  <path d="M44.3,42.2 L33.5,42.2 C33.2,42.2 32.9,41.9 32.9,41.6 L32.9,21.1 C32.9,20.8 33.2,20.5 33.5,20.5 L44.3,20.5 C44.6,20.5 44.9,20.8 44.9,21.1 L44.9,41.6 C44.9,41.9 44.6,42.2 44.3,42.2 L44.3,42.2 L44.3,42.2 Z M34.1,41 L43.7,41 L43.7,21.7 L34.1,21.7 L34.1,41 L34.1,41 Z"></path>
  <path d="M19.8,11.5 C19.7,11.5 19.6,11.5 19.5,11.4 C19.3,11.3 19.2,11.1 19.2,10.9 L19.2,0.7 C19.2,0.5 19.3,0.3 19.5,0.2 C19.7,0.1 19.9,0.1 20.1,0.2 L29.5,5.3 C29.7,5.4 29.8,5.6 29.8,5.8 C29.8,6 29.7,6.2 29.5,6.3 L20.1,11.4 C20,11.4 19.9,11.5 19.8,11.5 L19.8,11.5 L19.8,11.5 Z M20.4,1.6 L20.4,9.9 L28,5.8 L20.4,1.6 L20.4,1.6 L20.4,1.6 Z"></path>
  <path d="M6.4,27.3 C6.1,27.3 5.8,27 5.8,26.7 L5.8,5.7 C5.8,5.4 6.1,5.1 6.4,5.1 L19.8,5.1 C20.1,5.1 20.4,5.4 20.4,5.7 C20.4,6 20.1,6.3 19.8,6.3 L7,6.3 L7,26.7 C7,27.1 6.7,27.3 6.4,27.3"></path>
  <path d="M6.4,42.2 C3.1,42.2 0.4,39.7 0.4,36.5 C0.4,33.4 3.1,30.8 6.4,30.8 C9.7,30.8 12.4,33.3 12.4,36.5 C12.4,39.6 9.7,42.2 6.4,42.2 L6.4,42.2 L6.4,42.2 Z M6.4,31.9 C3.7,31.9 1.6,33.9 1.6,36.5 C1.6,39 3.8,41.1 6.4,41.1 C9.1,41.1 11.2,39.1 11.2,36.5 C11.2,34 9.1,31.9 6.4,31.9 L6.4,31.9 L6.4,31.9 Z"></path>
  <path d="M28.6,37 L11.8,37 C11.5,37 11.2,36.7 11.2,36.4 C11.2,36.1 11.5,35.8 11.8,35.8 L28.6,35.8 C28.9,35.8 29.2,36.1 29.2,36.4 C29.2,36.8 29,37 28.6,37 L28.6,37 L28.6,37 Z M38.9,21.7 C38.6,21.7 38.3,21.4 38.3,21.1 L38.3,6.3 L34.1,6.3 C33.8,6.3 33.5,6 33.5,5.7 C33.5,5.4 33.8,5.1 34.1,5.1 L38.9,5.1 C39.2,5.1 39.5,5.4 39.5,5.7 L39.5,21 C39.5,21.4 39.2,21.7 38.9,21.7 L38.9,21.7 L38.9,21.7 Z"></path>
</svg>
