<?xml version="1.0" encoding="UTF-8" standalone="no"?>
<svg width="46px" height="46px" viewBox="0 0 46 46" version="1.1" xmlns="http://www.w3.org/2000/svg" xmlns:xlink="http://www.w3.org/1999/xlink" xmlns:sketch="http://www.bohemiancoding.com/sketch/ns">
    <!-- Generator: Sketch 3.4 (15588) - http://www.bohemiancoding.com/sketch -->
    <title>Imported Layers</title>
    <desc>Created with Sketch.</desc>
    <defs>
        <linearGradient x1="15.3492312%" y1="12.7365881%" x2="81.302004%" y2="81.5919505%" id="linearGradient-1">
            <stop stop-color="#5AAAFA" offset="0%"></stop>
            <stop stop-color="#00B299" offset="100%"></stop>
        </linearGradient>
    </defs>
    <g id="Page-1" stroke="none" stroke-width="1" fill="none" fill-rule="evenodd" sketch:type="MSPage">
        <g id="Compute-Taxonomy" sketch:type="MSArtboardGroup" transform="translate(-778.000000, -275.000000)" stroke="url(#linearGradient-1)" stroke-width="1.5">
            <path d="M789.519934,307.964803 C789.165263,307.964803 788.875132,307.674079 788.875132,307.319408 L788.875132,291.764211 C788.875132,291.409539 789.126776,290.974342 789.434079,290.797303 L800.140526,284.636447 C800.447829,284.46 800.951711,284.46 801.259013,284.636447 L811.966053,290.797303 C812.273355,290.974342 812.525,291.409539 812.525,291.764211 L812.525,307.319408 C812.525,307.674079 812.234868,307.964803 811.879605,307.964803 L789.519934,307.964803 L789.519934,307.964803 Z M822.409605,297.704803 C822.409605,309.691974 812.691974,319.409605 800.704803,319.409605 C788.717632,319.409605 779,309.691974 779,297.704803 C779,285.717632 788.717632,276 800.704803,276 C812.691974,276 822.409605,285.717632 822.409605,297.704803 L822.409605,297.704803 Z" id="Imported-Layers" sketch:type="MSShapeGroup"></path>
        </g>
    </g>
</svg>