
<svg version="1.1" xmlns="http://www.w3.org/2000/svg" 
	 width="40px" height="40px" viewBox="0 0 40 40">
<path d="M20,2c9.9,0,18,8.1,18,18s-8.1,18-18,18S2,29.9,2,20S10.1,2,20,2 M20,0C9,0,0,9,0,20s9,20,20,20s20-9,20-20S31,0,20,0L20,0z
	"/>
<path d="M20.1,11C20.2,11,20.2,11,20.1,11l1,0.6c1.8,1.1,6.3,3.8,7.8,4.6L29,28l-18,0l0-11.8C13.4,14.9,18.4,12,20.1,11
	C20.1,11,20.1,11,20.1,11 M20.1,9c-0.4,0-0.7,0.1-1,0.2c-1.7,1.1-9,5.2-9.4,5.4C9.4,14.8,9,15,9,15.5l0,13.8C9,29.6,9.3,30,9.8,30
	l20.4,0c0.4,0,0.8-0.3,0.8-0.8l0-13.7c0-0.3-0.2-0.5-0.5-0.7c-0.2-0.1-8.4-5-9.4-5.6C20.9,9.1,20.5,9,20.1,9L20.1,9z"/>
</svg>
