<svg width="46px" height="46px" viewBox="0 0 46 46" fill-rule="evenodd" version="1.1" xmlns="http://www.w3.org/2000/svg" xmlns:xlink="http://www.w3.org/1999/xlink">
  <path d="M22.7,45.2 C10.3,45.2 0.2,35.1 0.2,22.7 C0.2,10.3 10.3,0.2 22.7,0.2 C35.1,0.2 45.2,10.3 45.2,22.7 C45.2,35.1 35.1,45.2 22.7,45.2 L22.7,45.2 Z M22.7,1.8 C11.1,1.8 1.7,11.2 1.7,22.8 C1.7,34.4 11.1,43.8 22.7,43.8 C34.3,43.8 43.7,34.4 43.7,22.8 C43.7,11.2 34.3,1.8 22.7,1.8 L22.7,1.8 Z M33.9,33.7 L11.5,33.7 C10.7,33.7 10.1,33.1 10.1,32.3 L10.1,16.7 C10.1,16.1 10.5,15.4 11,15.1 L21.7,8.9 C22.2,8.6 23,8.6 23.6,8.9 L34.3,15.1 C34.8,15.4 35.2,16.1 35.2,16.7 L35.2,32.3 C35.3,33.1 34.6,33.7 33.9,33.7 L33.9,33.7 Z M11.6,32.2 L33.8,32.2 L33.8,16.7 C33.8,16.6 33.7,16.4 33.6,16.4 L22.9,10.2 L22.5,10.2 L11.8,16.4 C11.7,16.4 11.6,16.6 11.6,16.7 L11.6,32.2 L11.6,32.2 Z"></path>
</svg>
