<svg width="46px" height="40px" viewBox="0 0 46 40" fill-rule="evenodd" version="1.1" xmlns="http://www.w3.org/2000/svg" xmlns:xlink="http://www.w3.org/1999/xlink">
  <path d="M34.3,39.9 L11.6,39.9 L0.3,20.1 L11.6,0.3 L34.3,0.3 L45.6,20.1 L34.3,39.9 L34.3,39.9 Z M13.1,38.6 L32.6,38.6 L22.9,21.5 L13.1,38.6 L13.1,38.6 Z M23.9,20.8 L33.7,38.2 L43.6,20.8 L23.9,20.8 L23.9,20.8 Z M2.1,20.8 L11.9,38 L21.7,20.8 L2.1,20.8 L2.1,20.8 Z M24,19.5 L43.7,19.5 L33.9,2.3 L24,19.5 L24,19.5 Z M2.1,19.5 L21.7,19.5 L12,2.3 L2.1,19.5 L2.1,19.5 Z M13.1,1.6 L22.9,18.9 L32.8,1.6 L13.1,1.6 L13.1,1.6 Z"></path>
</svg>
