<svg width="77px" height="78px" viewBox="0 0 77 78" fill-rule="evenodd" version="1.1" xmlns="http://www.w3.org/2000/svg" xmlns:xlink="http://www.w3.org/1999/xlink">
  <path d="M58,58.9 L18.4,58.9 L18.4,18.8 L58,18.8 L58,58.9 L58,58.9 Z M21.4,55.9 L55,55.9 L55,21.8 L21.4,21.8 L21.4,55.9 L21.4,55.9 Z"></path>
  <path d="M38.2,46.2 C34.1,46.2 30.8,42.9 30.8,38.8 C30.8,34.7 34.1,31.4 38.2,31.4 C42.3,31.4 45.6,34.7 45.6,38.8 C45.5,42.9 42.2,46.2 38.2,46.2 L38.2,46.2 Z M38.2,34.4 C35.8,34.4 33.8,36.4 33.8,38.8 C33.8,41.2 35.8,43.2 38.2,43.2 C40.6,43.2 42.6,41.2 42.6,38.8 C42.5,36.4 40.6,34.4 38.2,34.4 L38.2,34.4 Z"></path>
  <path d="M15.4,35.6 L5.4,35.6 C2.4,35.6 0,33.2 0,30.2 L0,28.7 C0,25.7 2.4,23.3 5.4,23.3 L15.4,23.3 L15.4,26.3 L5.4,26.3 C4.1,26.3 3,27.4 3,28.7 L3,30.2 C3,31.5 4.1,32.6 5.4,32.6 L15.4,32.6 L15.4,35.6 L15.4,35.6 Z"></path>
  <path d="M15.4,52.4 L5.4,52.4 C2.4,52.4 0,50 0,47 L0,45.5 C0,42.5 2.4,40.1 5.4,40.1 L15.4,40.1 L15.4,43.1 L5.4,43.1 C4.1,43.1 3,44.2 3,45.5 L3,47 C3,48.3 4.1,49.4 5.4,49.4 L15.4,49.4 L15.4,52.4 L15.4,52.4 Z"></path>
  <path d="M70.9,53.4 L60.9,53.4 L60.9,50.4 L70.9,50.4 C72.2,50.4 73.3,49.3 73.3,48 L73.3,46.5 C73.3,45.2 72.2,44.1 70.9,44.1 L60.9,44.1 L60.9,41.1 L70.9,41.1 C73.9,41.1 76.3,43.5 76.3,46.5 L76.3,48 C76.3,51 73.9,53.4 70.9,53.4 L70.9,53.4 Z"></path>
  <path d="M70.9,36.6 L60.9,36.6 L60.9,33.6 L70.9,33.6 C72.2,33.6 73.3,32.5 73.3,31.2 L73.3,29.7 C73.3,28.4 72.2,27.3 70.9,27.3 L60.9,27.3 L60.9,24.3 L70.9,24.3 C73.9,24.3 76.3,26.7 76.3,29.7 L76.3,31.2 C76.3,34.2 73.9,36.6 70.9,36.6 L70.9,36.6 Z"></path>
  <path d="M30.5,77 L29,77 C26,77 23.6,74.6 23.6,71.6 L23.6,61.6 L26.6,61.6 L26.6,71.6 C26.6,72.9 27.7,74 29,74 L30.5,74 C31.8,74 32.9,72.9 32.9,71.6 L32.9,61.6 L35.9,61.6 L35.9,71.6 C35.9,74.6 33.5,77 30.5,77 L30.5,77 Z"></path>
  <path d="M47.4,77 L45.9,77 C42.9,77 40.5,74.6 40.5,71.6 L40.5,61.6 L43.5,61.6 L43.5,71.6 C43.5,72.9 44.6,74 45.9,74 L47.4,74 C48.7,74 49.8,72.9 49.8,71.6 L49.8,61.6 L52.8,61.6 L52.8,71.6 C52.8,74.6 50.4,77 47.4,77 L47.4,77 Z"></path>
  <path d="M52.8,15.8 L49.8,15.8 L49.8,5.8 C49.8,4.5 48.7,3.4 47.4,3.4 L45.9,3.4 C44.6,3.4 43.5,4.5 43.5,5.8 L43.5,15.8 L40.5,15.8 L40.5,5.8 C40.5,2.8 42.9,0.4 45.9,0.4 L47.4,0.4 C50.4,0.4 52.8,2.8 52.8,5.8 L52.8,15.8 L52.8,15.8 Z"></path>
  <path d="M35.9,15.8 L32.9,15.8 L32.9,5.8 C32.9,4.5 31.8,3.4 30.5,3.4 L29,3.4 C27.7,3.4 26.6,4.5 26.6,5.8 L26.6,15.8 L23.6,15.8 L23.6,5.8 C23.6,2.8 26,0.4 29,0.4 L30.5,0.4 C33.5,0.4 35.9,2.8 35.9,5.8 L35.9,15.8 L35.9,15.8 Z"></path>
</svg>
