<?xml version="1.0" encoding="UTF-8" standalone="no"?>
<svg width="47px" height="47px" viewBox="0 0 47 47" version="1.1" xmlns="http://www.w3.org/2000/svg" xmlns:xlink="http://www.w3.org/1999/xlink" xmlns:sketch="http://www.bohemiancoding.com/sketch/ns">
    <!-- Generator: Sketch 3.4 (15588) - http://www.bohemiancoding.com/sketch -->
    <title>Stroke 2</title>
    <desc>Created with Sketch.</desc>
    <defs></defs>
    <g id="Page-1" stroke="none" stroke-width="1" fill="none" fill-rule="evenodd" sketch:type="MSPage">
        <g id="Compute-Taxonomy" sketch:type="MSArtboardGroup" transform="translate(-532.000000, -178.000000)" stroke-linecap="round" stroke="#5AAAFA" stroke-width="1.3">
            <g id="Main-Menu" sketch:type="MSLayerGroup" transform="translate(38.000000, 83.000000)">
                <path d="M515.759117,118.455933 C515.759117,119.489069 516.586032,120.326892 517.604616,120.326892 C518.623199,120.326892 519.450114,119.489069 519.450114,118.455933 C519.450114,117.424145 518.623199,116.586322 517.604616,116.586322 C516.586032,116.586322 515.759117,117.424145 515.759117,118.455933 L515.759117,118.455933 Z M518.835404,125.889929 C514.785713,126.578237 510.950965,123.808841 510.271909,119.703239 C509.592853,115.598984 512.324136,111.71294 516.373827,111.023285 C520.423519,110.334977 524.256898,113.104372 524.937323,117.208628 C525.616378,121.31423 522.885096,125.200274 518.835404,125.889929 L518.835404,125.889929 Z M518.219325,133.322577 C510.119943,133.667405 503.27873,127.29079 502.939202,119.079586 C502.599674,110.869729 508.890523,103.935464 516.989906,103.590636 C525.089289,103.245809 531.930501,109.622423 532.270029,117.833627 C532.609557,126.043485 526.318708,132.97775 518.219325,133.322577 L518.219325,133.322577 Z M539.602736,118.455933 C539.602736,130.771393 529.75369,140.755226 517.604616,140.755226 C505.455542,140.755226 495.606495,130.771393 495.606495,118.455933 C495.606495,106.140474 505.455542,96.1579877 517.604616,96.1579877 C529.75369,96.1579877 539.602736,106.140474 539.602736,118.455933 L539.602736,118.455933 Z" id="Stroke-2" sketch:type="MSShapeGroup"></path>
            </g>
        </g>
    </g>
</svg>