<?xml version="1.0" encoding="UTF-8" standalone="no"?>
<svg width="77px" height="77px" viewBox="0 0 77 77" version="1.1" xmlns="http://www.w3.org/2000/svg" xmlns:xlink="http://www.w3.org/1999/xlink" xmlns:sketch="http://www.bohemiancoding.com/sketch/ns">
    <!-- Generator: Sketch 3.4.3 (16618) - http://www.bohemiancoding.com/sketch -->
    <title>Page 1</title>
    <desc>Created with Sketch.</desc>
    <defs></defs>
    <g id="Add-Menu-Screens" stroke="none" stroke-width="1" fill="none" fill-rule="evenodd" sketch:type="MSPage">
        <g id="&lt;!---Generator:-Adobe-Illustrator-17.0.2,-SVG-Export-Plug-In----&gt;--&lt;svg-version=&quot;1.1&quot;----xmlns=&quot;http://www.w3.org/2000/svg&quot;-xmlns:xlink=&quot;http://www.w3.org/1999/xlink&quot;-xmlns:a=&quot;http://ns.adobe.com/AdobeSVGViewerExtensions/3.0/&quot;----x=&quot;0px&quot;-y=&quot;0px&quot;-width=&quot;76.3px&quot;-height=&quot;76.6px&quot;-viewBox=&quot;0-0-76.3-76.6&quot;-enable-background=&quot;new-0-0-76.3-76.6&quot;----xml:space=&quot;preserve&quot;&gt;--&lt;defs&gt;--&lt;/defs&gt;--&lt;g-id=&quot;XMLID_17_&quot;&gt;---&lt;g-id=&quot;XMLID_19_&quot;&gt;---------&lt;polygon-id=&quot;XMLID_23_&quot;-fill=&quot;none&quot;-stroke=&quot;#E6E7E8&quot;-stroke-width=&quot;1.2244&quot;-stroke-linejoin=&quot;round&quot;-stroke-miterlimit=&quot;10&quot;-points=&quot;-----1.5,38.5-19.8,6.7-56.5,6.7-74.8,38.5-56.5,70.2-19.8,70.2---&quot;/&gt;---------&lt;polygon-id=&quot;XMLID_22_&quot;-fill=&quot;none&quot;-stroke=&quot;#E6E7E8&quot;-stroke-width=&quot;1.2244&quot;-stroke-linejoin=&quot;round&quot;-stroke-miterlimit=&quot;10&quot;-points=&quot;-----74.8,38.5-1.5,38.5-56.5,70.2-56.5,6.7-19.8,70.2-19.8,6.7---&quot;/&gt;---------&lt;polygon-id=&quot;XMLID_21_&quot;-fill=&quot;none&quot;-stroke=&quot;#E6E7E8&quot;-stroke-width=&quot;1.2244&quot;-stroke-linejoin=&quot;round&quot;-stroke-miterlimit=&quot;10&quot;-points=&quot;-----1.5,38.5-74.8,38.5-19.8,70.2-19.8,6.7-56.5,70.2-56.5,6.7---&quot;/&gt;---------&lt;circle-id=&quot;XMLID_20_&quot;-fill=&quot;none&quot;-stroke=&quot;#E6E7E8&quot;-stroke-width=&quot;1.2244&quot;-stroke-linejoin=&quot;round&quot;-stroke-miterlimit=&quot;10&quot;-cx=&quot;38.2&quot;-cy=&quot;38.5&quot;-r=&quot;36.7&quot;/&gt;---&lt;/g&gt;-------&lt;rect-id=&quot;XMLID_18_&quot;-x=&quot;1.5&quot;-y=&quot;1.8&quot;-fill=&quot;none&quot;-stroke=&quot;#E6E7E8&quot;-stroke-width=&quot;1.2244&quot;-stroke-linejoin=&quot;round&quot;-stroke-miterlimit=&quot;10&quot;-width=&quot;73.3&quot;-height=&quot;73.3&quot;/&gt;--&lt;/g&gt;--&lt;rect-x=&quot;19.9&quot;-y=&quot;19.9&quot;-fill=&quot;none&quot;-stroke=&quot;#5AAAFA&quot;-stroke-width=&quot;3&quot;-stroke-miterlimit=&quot;10&quot;-width=&quot;36.6&quot;-height=&quot;37.1&quot;/&gt;--&lt;ellipse-fill=&quot;none&quot;-stroke=&quot;#5AAAFA&quot;-stroke-width=&quot;3&quot;-stroke-linecap=&quot;round&quot;-stroke-linejoin=&quot;round&quot;-stroke-miterlimit=&quot;10&quot;-cx=&quot;38.2&quot;-cy=&quot;38.4&quot;-rx=&quot;5.9&quot;-ry=&quot;5.9&quot;/&gt;--&lt;path-id=&quot;XMLID_16_&quot;-fill=&quot;none&quot;-stroke=&quot;#5AAAFA&quot;-stroke-width=&quot;3&quot;-stroke-linejoin=&quot;round&quot;-stroke-miterlimit=&quot;10&quot;-d=&quot;M15.4,33.7---h-10c-2.2,0-3.9-1.8-3.9-3.9v-1.5c0-2.2,1.8-3.9,3.9-3.9h10&quot;/&gt;--&lt;path-id=&quot;XMLID_15_&quot;-fill=&quot;none&quot;-stroke=&quot;#5AAAFA&quot;-stroke-width=&quot;3&quot;-stroke-linejoin=&quot;round&quot;-stroke-miterlimit=&quot;10&quot;-d=&quot;M15.4,50.5---h-10c-2.2,0-3.9-1.8-3.9-3.9v-1.5c0-2.2,1.8-3.9,3.9-3.9h10&quot;/&gt;--&lt;path-id=&quot;XMLID_14_&quot;-fill=&quot;none&quot;-stroke=&quot;#5AAAFA&quot;-stroke-width=&quot;3&quot;-stroke-linejoin=&quot;round&quot;-stroke-miterlimit=&quot;10&quot;-d=&quot;M60.9,42.2---h10c2.2,0,3.9,1.8,3.9,3.9v1.5c0,2.2-1.8,3.9-3.9,3.9h-10&quot;/&gt;--&lt;path-id=&quot;XMLID_13_&quot;-fill=&quot;none&quot;-stroke=&quot;#5AAAFA&quot;-stroke-width=&quot;3&quot;-stroke-linejoin=&quot;round&quot;-stroke-miterlimit=&quot;10&quot;-d=&quot;M60.9,25.3---h10c2.2,0,3.9,1.8,3.9,3.9v1.5c0,2.2-1.8,3.9-3.9,3.9h-10&quot;/&gt;--&lt;path-id=&quot;XMLID_12_&quot;-fill=&quot;none&quot;-stroke=&quot;#5AAAFA&quot;-stroke-width=&quot;3&quot;-stroke-linejoin=&quot;round&quot;-stroke-miterlimit=&quot;10&quot;-d=&quot;M34.4,61.2---v10c0,2.2-1.8,3.9-3.9,3.9H29c-2.2,0-3.9-1.8-3.9-3.9v-10&quot;/&gt;--&lt;path-id=&quot;XMLID_11_&quot;-fill=&quot;none&quot;-stroke=&quot;#5AAAFA&quot;-stroke-width=&quot;3&quot;-stroke-linejoin=&quot;round&quot;-stroke-miterlimit=&quot;10&quot;-d=&quot;M51.3,61.2---v10c0,2.2-1.8,3.9-3.9,3.9h-1.5c-2.2,0-3.9-1.8-3.9-3.9v-10&quot;/&gt;--&lt;path-id=&quot;XMLID_10_&quot;-fill=&quot;none&quot;-stroke=&quot;#5AAAFA&quot;-stroke-width=&quot;3&quot;-stroke-linejoin=&quot;round&quot;-stroke-miterlimit=&quot;10&quot;-d=&quot;M41.9,15.4---v-10c0-2.2,1.8-3.9,3.9-3.9h1.5c2.2,0,3.9,1.8,3.9,3.9v10&quot;/&gt;--&lt;path-id=&quot;XMLID_9_&quot;-fill=&quot;none&quot;-stroke=&quot;#5AAAFA&quot;-stroke-width=&quot;3&quot;-stroke-linejoin=&quot;round&quot;-stroke-miterlimit=&quot;10&quot;-d=&quot;M25.1,15.4---v-10c0-2.2,1.8-3.9,3.9-3.9h1.5c2.2,0,3.9,1.8,3.9,3.9v10&quot;/&gt;--&lt;/svg&gt;--" sketch:type="MSArtboardGroup" stroke-width="3" stroke="#5AAAFA">
            <g id="Page-1" sketch:type="MSLayerGroup" transform="translate(1.000000, 1.000000)">
                <g sketch:type="MSShapeGroup">
                    <path d="M55.486,56.416 L18.869,56.416 L18.869,19.268 L55.486,19.268 L55.486,56.416 Z" id="Stroke-11"></path>
                    <path d="M43.0352,37.7951 C43.0352,34.5571 40.4042,31.9331 37.1572,31.9331 C33.9102,31.9331 31.2792,34.5571 31.2792,37.7951 C31.2792,41.0311 33.9102,43.6551 37.1572,43.6551 C40.4042,43.6551 43.0352,41.0311 43.0352,37.7951 L43.0352,37.7951 Z" id="Stroke-12" stroke-linecap="round" stroke-linejoin="round"></path>
                    <path d="M14.4057,33.0572 L4.4107,33.0572 C2.2507,33.0572 0.4997,31.3062 0.4997,29.1462 L0.4997,27.6102 C0.4997,25.4502 2.2507,23.6992 4.4107,23.6992 L14.4057,23.6992" id="Stroke-13" stroke-linejoin="round"></path>
                    <path d="M14.4057,49.9055 L4.4107,49.9055 C2.2507,49.9055 0.4997,48.1545 0.4997,45.9945 L0.4997,44.4585 C0.4997,42.2985 2.2507,40.5475 4.4107,40.5475 L14.4057,40.5475" id="Stroke-14" stroke-linejoin="round"></path>
                    <path d="M59.9085,41.5879 L69.9035,41.5879 C72.0635,41.5879 73.8145,43.3389 73.8145,45.4989 L73.8145,47.0349 C73.8145,49.1949 72.0635,50.9459 69.9035,50.9459 L59.9085,50.9459" id="Stroke-15" stroke-linejoin="round"></path>
                    <path d="M59.9085,24.7396 L69.9035,24.7396 C72.0635,24.7396 73.8145,26.4906 73.8145,28.6506 L73.8145,30.1866 C73.8145,32.3466 72.0635,34.0976 69.9035,34.0976 L59.9085,34.0976" id="Stroke-16" stroke-linejoin="round"></path>
                    <path d="M33.4321,60.5943 L33.4321,70.5893 C33.4321,72.7493 31.6811,74.5003 29.5211,74.5003 L27.9851,74.5003 C25.8251,74.5003 24.0741,72.7493 24.0741,70.5893 L24.0741,60.5943" id="Stroke-17" stroke-linejoin="round"></path>
                    <path d="M50.2804,60.5943 L50.2804,70.5893 C50.2804,72.7493 48.5294,74.5003 46.3694,74.5003 L44.8334,74.5003 C42.6734,74.5003 40.9224,72.7493 40.9224,70.5893 L40.9224,60.5943" id="Stroke-18" stroke-linejoin="round"></path>
                    <path d="M40.922,14.7973 L40.922,4.8023 C40.922,2.6423 42.673,0.8913 44.833,0.8913 L46.369,0.8913 C48.529,0.8913 50.28,2.6423 50.28,4.8023 L50.28,14.7973" id="Stroke-19" stroke-linejoin="round"></path>
                    <path d="M24.0738,14.7973 L24.0738,4.8023 C24.0738,2.6423 25.8248,0.8913 27.9848,0.8913 L29.5208,0.8913 C31.6808,0.8913 33.4318,2.6423 33.4318,4.8023 L33.4318,14.7973" id="Stroke-20" stroke-linejoin="round"></path>
                </g>
            </g>
        </g>
    </g>
</svg>