<?xml version="1.0" encoding="UTF-8" standalone="no"?>
<svg width="45px" height="45px" viewBox="0 0 45 45" version="1.1" xmlns="http://www.w3.org/2000/svg" xmlns:xlink="http://www.w3.org/1999/xlink" xmlns:sketch="http://www.bohemiancoding.com/sketch/ns">
    <!-- Generator: Sketch 3.4 (15588) - http://www.bohemiancoding.com/sketch -->
    <title>Group</title>
    <desc>Created with Sketch.</desc>
    <defs></defs>
    <g id="Page-1" stroke="none" stroke-width="1" fill="none" fill-rule="evenodd" sketch:type="MSPage">
        <g id="Compute-Taxonomy" sketch:type="MSArtboardGroup" transform="translate(-313.000000, -274.000000)" fill="#5AAAFA">
            <g id="Main-Menu" sketch:type="MSLayerGroup" transform="translate(23.000000, 62.000000)">
                <g id="Group" transform="translate(290.000000, 212.000000)" sketch:type="MSShapeGroup">
                    <path d="M22.6811842,44.82 C10.3861184,44.82 0.383684211,34.8181579 0.383684211,22.5230921 C0.383684211,10.2280263 10.3861184,0.226184211 22.6811842,0.226184211 C34.9756579,0.226184211 44.9780921,10.2280263 44.9780921,22.5230921 C44.9780921,34.8181579 34.9756579,44.82 22.6811842,44.82 L22.6811842,44.82 Z M22.6811842,1.41039474 C11.0398026,1.41039474 1.56789474,10.8817105 1.56789474,22.5230921 C1.56789474,34.1644737 11.0398026,43.6357895 22.6811842,43.6357895 C34.3225658,43.6357895 43.7938816,34.1644737 43.7938816,22.5230921 C43.7938816,10.8817105 34.3225658,1.41039474 22.6811842,1.41039474 L22.6811842,1.41039474 Z" id="Fill-1"></path>
                    <path d="M16.3871053,43.605 L15.5741447,42.7428947 L26.5902632,32.3514474 C26.9905263,31.9736842 27.0781579,31.3774342 26.8046053,30.9007895 L18.4707237,16.4297368 C17.9194737,15.4705263 18.0976974,14.2738816 18.9065132,13.5195395 L24.6676974,8.13493421 C25.0721053,7.75717105 25.1609211,7.15914474 24.8838158,6.67953947 L21.6757895,1.12263158 L22.7019079,0.531118421 L25.9099342,6.08743421 C26.4629605,7.04605263 26.2853289,8.24388158 25.4759211,9 L19.7147368,14.3846053 C19.3109211,14.7617763 19.2215132,15.3598026 19.4974342,15.8388158 L27.8301316,30.3098684 C28.3796053,31.2643421 28.2043421,32.4574342 27.4032237,33.2129605 L16.3871053,43.605" id="Fill-2"></path>
                    <path d="M12.3353289,41.6167105 L11.3109868,41.0234211 L15.1419079,34.3977632 C15.3526974,34.0330263 15.3532895,33.5794737 15.1419079,33.2147368 L13.0606579,29.6094079 C12.5088158,28.6531579 12.6852632,27.4571053 13.4893421,26.7015789 L16.6399342,23.7392763 C17.0413816,23.3609211 17.1296053,22.7634868 16.8536842,22.2868421 L14.5024342,18.2161184 C14.2922368,17.8513816 13.9002632,17.6251974 13.4792763,17.6251974 L7.75717105,17.6251974 C6.91638158,17.6251974 6.13184211,17.1734211 5.71026316,16.4463158 L3.24118421,12.1944079 L4.26434211,11.5999342 L6.73401316,15.8518421 C6.94539474,16.2153947 7.33736842,16.4409868 7.75717105,16.4409868 L13.4792763,16.4409868 C14.3218421,16.4409868 15.1069737,16.8939474 15.5285526,17.6240132 L17.8786184,21.6941447 C18.4310526,22.6492105 18.2551974,23.8452632 17.4505263,24.6019737 L14.2999342,27.5642763 C13.8990789,27.9414474 13.8102632,28.5394737 14.0861842,29.0173026 L16.1680263,32.6226316 C16.5896053,33.3521053 16.5896053,34.2598026 16.1674342,34.9904605 L12.3353289,41.6167105" id="Fill-3"></path>
                    <path d="M44.1390789,26.0313158 L40.0642105,26.0313158 C39.2198684,26.0313158 38.4341447,25.5765789 38.0131579,24.8447368 L34.5493421,18.8242105 C34.1313158,18.0965132 34.1307237,17.1929605 34.54875,16.4652632 L39.0102632,8.69328947 L40.0369737,9.28302632 L35.5754605,17.055 C35.3664474,17.4185526 35.3664474,17.8703289 35.5760526,18.2332895 L39.0398684,24.2538158 C39.2500658,24.6197368 39.6426316,24.8471053 40.0642105,24.8471053 L44.1390789,24.8471053 L44.1390789,26.0313158" id="Fill-4"></path>
                </g>
            </g>
        </g>
    </g>
</svg>