<svg width="45px" height="45px" viewBox="0 0 45 45" fill-rule="evenodd" version="1.1" xmlns="http://www.w3.org/2000/svg" xmlns:xlink="http://www.w3.org/1999/xlink">
  <path d="M22.7,44.8 C10.4,44.8 0.4,34.8 0.4,22.5 C0.4,10.2 10.4,0.2 22.7,0.2 C35,0.2 45,10.2 45,22.5 C45,34.8 35,44.8 22.7,44.8 L22.7,44.8 L22.7,44.8 Z M22.7,1.4 C11.1,1.4 1.6,10.9 1.6,22.5 C1.6,34.1 11.1,43.6 22.7,43.6 C34.3,43.6 43.8,34.1 43.8,22.5 C43.8,10.9 34.3,1.4 22.7,1.4 L22.7,1.4 L22.7,1.4 Z"></path>
  <path d="M16.4,43.6 L15.6,42.7 L26.6,32.3 C27,31.9 27.1,31.3 26.8,30.8 L18.5,16.3 C17.9,15.3 18.1,14.1 18.9,13.4 L24.7,8 C25.1,7.6 25.2,7 24.9,6.5 L21.7,0.9 L22.7,0.3 L25.9,5.9 C26.5,6.9 26.3,8.1 25.5,8.8 L19.7,14.2 C19.3,14.6 19.2,15.2 19.5,15.7 L27.8,30.2 C28.3,31.2 28.2,32.3 27.4,33.1 L16.4,43.6"></path>
  <path d="M12.3,41.6 L11.3,41 L15.1,34.4 C15.3,34 15.3,33.6 15.1,33.2 L13,29.6 C12.4,28.6 12.6,27.4 13.4,26.7 L16.6,23.7 C17,23.3 17.1,22.7 16.8,22.2 L14.4,18.1 C14.2,17.7 13.8,17.5 13.4,17.5 L7.7,17.5 C6.9,17.5 6.1,17 5.7,16.3 L3.2,12 L4.2,11.4 L6.7,15.7 C6.9,16.1 7.3,16.3 7.7,16.3 L13.4,16.3 C14.2,16.3 15,16.8 15.4,17.5 L17.8,21.6 C18.4,22.6 18.2,23.8 17.4,24.5 L14.2,27.5 C13.8,27.9 13.7,28.5 14,29 L16.1,32.6 C16.5,33.3 16.5,34.2 16.1,35 L12.3,41.6"></path>
  <path d="M44.1,26 L40,26 C39.2,26 38.4,25.5 37.9,24.8 L34.4,18.8 C34,18.1 34,17.2 34.4,16.4 L38.9,8.6 L39.9,9.2 L35.4,17 C35.2,17.4 35.2,17.8 35.4,18.2 L38.9,24.2 C39.1,24.6 39.5,24.8 39.9,24.8 L44,24.8 L44,26"></path>
</svg>
