<svg version="1.1" xmlns="http://www.w3.org/2000/svg"
	 width="40px" height="40px" viewBox="0 0 40 40">
<path d="M20,0C9,0,0,9,0,20c0,11,9,20,20,20s20-9,20-20C40,9,31,0,20,0z M2,20c0-2.5,0.5-4.8,1.4-7l1.1,1.7C5,15.5,5.9,16,6.8,16
	c0,0,0,0,0,0l4.7,0c0.1,0,0.2,0.1,0.3,0.1l2.2,4.1c0.1,0.1,0.1,0.3,0,0.4l-3.3,3c-0.8,0.7-0.9,1.9-0.4,2.9l2.7,3.2
	c0.1,0.3,0.1,0.6,0,0.8l-3,4.5C5.2,31.7,2,26.2,2,20z M11.7,35.9l3-4.5c0.5-0.9,0.5-2,0-2.9L12,25.4c0-0.1,0-0.3,0.1-0.4l3.3-3
	c0.8-0.8,0.9-2,0.4-2.9l-2.2-4.1c-0.4-0.7-1.2-1.1-2-1.1l-4.7,0c-0.2,0-0.5-0.1-0.7-0.3l-1.7-2.7C7.5,5.8,13,2.3,19.3,2l2.5,3.8
	c0.2,0.3,0.1,0.7-0.1,0.9l-5,4.7c-0.8,0.8-1,2-0.5,3l6.6,12.9c0.2,0.4,0.1,0.8-0.2,1.1L14.1,37C13.3,36.7,12.5,36.4,11.7,35.9z
	 M20,38c-1.3,0-2.5-0.1-3.7-0.4l7.8-7.7c0.9-0.9,1.2-2.4,0.5-3.5L18,13.6c-0.1-0.2-0.1-0.5,0.1-0.6l5-4.7c0.9-0.9,1.1-2.3,0.5-3.4
	l-1.8-2.7c4.7,0.5,8.8,2.7,11.7,6l-4.2,6.3c-0.5,0.8-0.4,1.8,0,2.6l3.4,5.6c0.4,0.7,1.2,1.4,2.2,1.4h2.6C35.7,32,28.6,38,20,38z
	 M34.9,22c-0.1,0-0.3-0.2-0.5-0.4L31,15.9c-0.1-0.2-0.1-0.4,0-0.5l3.8-5.7c2,2.9,3.2,6.4,3.2,10.2c0,0.7,0,1.3-0.1,2H34.9z"/>
</svg>
