<?xml version="1.0" encoding="UTF-8" standalone="no"?>
<svg width="55px" height="62px" viewBox="0 0 55 62" version="1.1" xmlns="http://www.w3.org/2000/svg" xmlns:xlink="http://www.w3.org/1999/xlink" xmlns:sketch="http://www.bohemiancoding.com/sketch/ns">
    <!-- Generator: Sketch 3.5.1 (25234) - http://www.bohemiancoding.com/sketch -->
    <title>Page 1</title>
    <desc>Created with Sketch.</desc>
    <defs></defs>
    <g id="Console-Screens" stroke="none" stroke-width="1" fill="none" fill-rule="evenodd" sketch:type="MSPage">
        <g id="Atlas-Home-Copy" sketch:type="MSArtboardGroup" transform="translate(-1229.000000, -338.000000)">
            <g id="Page-1" sketch:type="MSLayerGroup" transform="translate(1230.000000, 339.000000)">
                <path d="M32.5567758,29.7696486 L50.7767303,29.7696486 C51.7267152,29.7696486 52.5040485,28.9847838 52.5040485,28.0255946 L52.5040485,9.19775676 C52.5040485,8.23856757 51.7267152,7.4537027 50.7767303,7.4537027 L25.6908667,7.4537027 C24.7408818,7.4537027 23.9635485,8.23856757 23.9635485,9.19775676 L23.9635485,36.2537027 L32.5567758,29.7696486 L32.5567758,29.7696486 Z" id="Stroke-1" stroke="#5AAAFA" stroke-width="2" sketch:type="MSShapeGroup"></path>
                <path d="M30.2034955,14.5945946 L46.2641015,14.5945946" id="Stroke-3" stroke="#5AAAFA" stroke-width="2" stroke-linecap="round" sketch:type="MSShapeGroup"></path>
                <path d="M30.2034955,21.8918919 L46.2641015,21.8918919" id="Stroke-5" stroke="#5AAAFA" stroke-width="2" stroke-linecap="round" sketch:type="MSShapeGroup"></path>
                <path d="M0.399427273,46.2162162 L34.2608061,46.2162162" id="Stroke-7" stroke="#5AAAFA" stroke-width="2" stroke-linejoin="round" sketch:type="MSShapeGroup"></path>
                <path d="M19.1032076,52.8641351 C19.1032076,51.8757568 18.3098136,51.0746757 17.3309197,51.0746757 C16.3520258,51.0746757 15.5586318,51.8757568 15.5586318,52.8641351 C15.5586318,53.8525135 16.3520258,54.6535946 17.3309197,54.6535946 C18.3098136,54.6535946 19.1032076,53.8525135 19.1032076,52.8641351" id="Fill-9" fill="#5AAAFA" sketch:type="MSShapeGroup"></path>
                <path d="M34.2611273,29.8726216 L34.2611273,56.4234324 C34.2611273,58.1747838 32.8550212,59.5945135 31.1204758,59.5945135 L3.54200606,59.5945135 C1.80746061,59.5945135 0.401354545,58.1747838 0.401354545,56.4234324 L0.401354545,3.32181081 C0.401354545,1.57045946 1.80746061,0.15072973 3.54200606,0.15072973 L31.1204758,0.15072973 C32.8550212,0.15072973 34.2611273,1.57045946 34.2611273,3.32181081 L34.2611273,7.4537027" id="Stroke-11" stroke="#5AAAFA" stroke-width="2" stroke-linejoin="round" sketch:type="MSShapeGroup"></path>
            </g>
        </g>
    </g>
</svg>