<svg version="1.1" id="Layer_1" xmlns="http://www.w3.org/2000/svg"
	 width="40px" height="40px" viewBox="0 0 40 40">
<g>
	<circle cx="15" cy="35" r="1.1"/>
</g>
<path d="M36.7,5l-9.7,0V3.4c0-1.9-1.5-3.4-3.4-3.4L6.4,0C4.5,0,3,1.6,3,3.4v33.1C3,38.5,4.5,40,6.4,40l17.2,0c1.9,0,3.4-1.5,3.4-3.4
	V20l9.7,0c0.7,0,1.3-0.6,1.3-1.3l0-12.3C38,5.6,37.4,5,36.7,5z M6.4,2l17.2,0c0.8,0,1.4,0.6,1.4,1.4V5l-4.6,0C19.6,5,19,5.6,19,6.3
	L19,24l5.9-3.7V30H5V3.4C5,2.7,5.6,2,6.4,2z M23.6,38L6.4,38C5.6,38,5,37.4,5,36.6V32h19.9v4.6C24.9,37.4,24.3,38,23.6,38z M36,18
	l-10.5,0l-0.6,0l-0.5,0.3L21,20.4L21,7l15,0L36,18z"/>
<g>
	<path d="M34,11H23c-0.6,0-1-0.4-1-1s0.4-1,1-1h11c0.6,0,1,0.4,1,1S34.6,11,34,11z"/>
</g>
<g>
	<path d="M34,16H23c-0.6,0-1-0.4-1-1s0.4-1,1-1h11c0.6,0,1,0.4,1,1S34.6,16,34,16z"/>
</g>
</svg>
