<svg width="55px" height="62px" viewBox="-612 370 55 62" fill-rule="evenodd" version="1.1" xmlns="http://www.w3.org/2000/svg" xmlns:xlink="http://www.w3.org/1999/xlink">
    <g transform="translate(-612.000000, 370.000000)">
        <path d="M24,39.3 L24,10.2 C24,8.7 25.2,7.5 26.7,7.5 L51.8,7.5 C53.3,7.5 54.5,8.7 54.5,10.2 L54.5,29 C54.5,30.5 53.3,31.7 51.8,31.7 L33.9,31.7 L24,39.3 L24,39.3 Z M26.7,9.5 C26.3,9.5 26,9.8 26,10.2 L26,35.2 L33.3,29.7 L51.9,29.7 C52.3,29.7 52.6,29.4 52.6,29 L52.6,10.2 C52.6,9.8 52.3,9.5 51.9,9.5 L26.7,9.5 L26.7,9.5 Z"></path>
        <path d="M47.3,16.6 L31.2,16.6 C30.6,16.6 30.2,16.2 30.2,15.6 C30.2,15 30.6,14.6 31.2,14.6 L47.3,14.6 C47.9,14.6 48.3,15 48.3,15.6 C48.3,16.2 47.8,16.6 47.3,16.6 L47.3,16.6 Z"></path>
        <path d="M47.3,23.9 L31.2,23.9 C30.6,23.9 30.2,23.5 30.2,22.9 C30.2,22.3 30.6,21.9 31.2,21.9 L47.3,21.9 C47.9,21.9 48.3,22.3 48.3,22.9 C48.3,23.5 47.8,23.9 47.3,23.9 L47.3,23.9 Z"></path>
        <rect x="1.4" y="46.2" width="33.9" height="2"></rect>
        <path d="M20.1,53.9 C20.1,52.9 19.3,52.1 18.3,52.1 C17.3,52.1 16.5,52.9 16.5,53.9 C16.5,54.9 17.3,55.7 18.3,55.7 C19.3,55.7 20.1,54.9 20.1,53.9"></path>
        <path d="M32.1,61.6 L4.5,61.6 C2.2,61.6 0.4,59.7 0.4,57.4 L0.4,4.3 C0.4,2 2.3,0.1 4.5,0.1 L32.1,0.1 C34.4,0.1 36.2,2 36.2,4.3 L36.2,8.4 L34.2,8.4 L34.2,4.3 C34.2,3.1 33.2,2.1 32.1,2.1 L4.5,2.1 C3.3,2.1 2.4,3.1 2.4,4.3 L2.4,57.4 C2.4,58.6 3.4,59.6 4.5,59.6 L32.1,59.6 C33.3,59.6 34.2,58.6 34.2,57.4 L34.2,30.8 L36.2,30.8 L36.2,57.4 C36.3,59.7 34.4,61.6 32.1,61.6 L32.1,61.6 Z"></path>
    </g>
</svg>
