<svg version="1.1" xmlns="http://www.w3.org/2000/svg" 
	 width="40px" height="40px" viewBox="0 0 40 40">
<path d="M36,30.1V18.7H21V9.9c2.3-0.5,4-2.5,4-4.9c0-2.8-2.2-5-5-5s-5,2.2-5,5c0,2.4,1.7,4.4,4,4.9v8.8H4v11.5c-2.3,0.5-4,2.5-4,4.9
	c0,2.8,2.2,5,5,5s5-2.2,5-5c0-2.4-1.7-4.4-4-4.9v-9.5h28v9.5c-2.3,0.5-4,2.5-4,4.9c0,2.8,2.2,5,5,5s5-2.2,5-5
	C40,32.6,38.3,30.6,36,30.1z M17,5c0-1.6,1.3-3,3-3s3,1.3,3,3s-1.3,3-3,3S17,6.6,17,5z M8,35c0,1.6-1.3,3-3,3s-3-1.3-3-3s1.3-3,3-3
	S8,33.4,8,35z M35,38c-1.6,0-3-1.3-3-3s1.3-3,3-3s3,1.3,3,3S36.7,38,35,38z"/>
</svg>
