<svg width="47px" height="47px" viewBox="0 0 47 47" fill-rule="evenodd" version="1.1" xmlns="http://www.w3.org/2000/svg" xmlns:xlink="http://www.w3.org/1999/xlink">
  <path d="M41.3,47 C38.3,47 35.9,44.6 35.9,41.6 C35.9,38.6 38.3,36.2 41.3,36.2 C44.3,36.2 46.7,38.6 46.7,41.6 C46.7,44.6 44.3,47 41.3,47 L41.3,47 Z M41.3,37.7 C39.2,37.7 37.4,39.5 37.4,41.6 C37.4,43.7 39.1,45.5 41.3,45.5 C43.5,45.5 45.2,43.7 45.2,41.6 C45.2,39.5 43.4,37.7 41.3,37.7 L41.3,37.7 Z M5.8,47 C2.8,47 0.4,44.6 0.4,41.6 C0.4,38.6 2.8,36.2 5.8,36.2 C8.8,36.2 11.2,38.6 11.2,41.6 C11.2,44.6 8.8,47 5.8,47 L5.8,47 Z M5.8,37.7 C3.7,37.7 1.9,39.5 1.9,41.6 C1.9,43.7 3.6,45.5 5.8,45.5 C7.9,45.5 9.7,43.7 9.7,41.6 C9.7,39.5 8,37.7 5.8,37.7 L5.8,37.7 Z M23.6,11.1 C20.6,11.1 18.2,8.7 18.2,5.7 C18.2,2.7 20.6,0.3 23.6,0.3 C26.6,0.3 29,2.7 29,5.7 C28.9,8.7 26.5,11.1 23.6,11.1 L23.6,11.1 Z M23.6,1.8 C21.5,1.8 19.7,3.6 19.7,5.7 C19.7,7.9 21.4,9.6 23.6,9.6 C25.8,9.6 27.5,7.8 27.5,5.7 C27.4,3.6 25.7,1.8 23.6,1.8 L23.6,1.8 Z"></path>
  <path d="M41.3,37.7 C40.9,37.7 40.5,37.4 40.5,36.9 L40.5,24.4 L6.5,24.4 L6.5,36.9 C6.5,37.3 6.2,37.7 5.7,37.7 C5.2,37.7 4.9,37.4 4.9,36.9 L4.9,22.9 L22.6,22.9 L22.6,10.4 C22.6,10 22.9,9.6 23.4,9.6 C23.9,9.6 24.1,9.9 24.1,10.4 L24.1,22.9 L41.8,22.9 L41.8,36.9 C42.1,37.3 41.7,37.7 41.3,37.7 L41.3,37.7 Z"></path>
</svg>
