<?xml version="1.0" encoding="UTF-8" standalone="no"?>
<svg width="47px" height="47px" viewBox="0 0 47 47" version="1.1" xmlns="http://www.w3.org/2000/svg" xmlns:xlink="http://www.w3.org/1999/xlink" xmlns:sketch="http://www.bohemiancoding.com/sketch/ns">
    <!-- Generator: Sketch 3.4 (15588) - http://www.bohemiancoding.com/sketch -->
    <title>Stroke 1 + Stroke 3</title>
    <desc>Created with Sketch.</desc>
    <defs></defs>
    <g id="Page-1" stroke="none" stroke-width="1" fill="none" fill-rule="evenodd" sketch:type="MSPage">
        <g id="Compute-Taxonomy" sketch:type="MSArtboardGroup" transform="translate(-311.000000, -131.000000)" stroke="#5AAAFA" stroke-width="1.5">
            <g id="Main-Menu" sketch:type="MSLayerGroup" transform="translate(23.000000, 62.000000)">
                <g id="Stroke-1-+-Stroke-3" transform="translate(289.000000, 70.000000)" sketch:type="MSShapeGroup">
                    <path d="M17.9694915,4.70490236 C17.9694915,7.27618621 20.0288136,9.36070764 22.5707242,9.36070764 C25.1126348,9.36070764 27.1719569,7.27618621 27.1719569,4.70490236 C27.1719569,2.13502128 25.1126348,0.0504998464 22.5707242,0.0504998464 C20.0288136,0.0504998464 17.9694915,2.13502128 17.9694915,4.70490236 L17.9694915,4.70490236 Z M0.237134052,40.5794321 C0.237134052,43.1493132 2.29784284,45.2338347 4.83975347,45.2338347 C7.38027735,45.2338347 9.44098613,43.1493132 9.44098613,40.5794321 C9.44098613,38.0081483 7.38027735,35.9236269 4.83975347,35.9236269 C2.29784284,35.9236269 0.237134052,38.0081483 0.237134052,40.5794321 L0.237134052,40.5794321 Z M35.7004622,40.5794321 C35.7004622,43.1493132 37.761171,45.2338347 40.3030817,45.2338347 C42.8436055,45.2338347 44.9043143,43.1493132 44.9043143,40.5794321 C44.9043143,38.0081483 42.8436055,35.9236269 40.3030817,35.9236269 C37.761171,35.9236269 35.7004622,38.0081483 35.7004622,40.5794321 L35.7004622,40.5794321 Z" id="Stroke-1"></path>
                    <path d="M22.5707242,9.36070764 L22.5707242,22.6421673 M4.83975347,35.9236269 L4.83975347,22.6421673 L40.3030817,22.6421673 L40.3030817,35.9236269" id="Stroke-3" stroke-linecap="round"></path>
                </g>
            </g>
        </g>
    </g>
</svg>