<svg width="46px" height="45px" viewBox="0 0 46 45" fill-rule="evenodd" version="1.1" xmlns="http://www.w3.org/2000/svg" xmlns:xlink="http://www.w3.org/1999/xlink">
  <path d="M44.4,44.2 L1,44.2 C0.7,44.2 0.4,43.9 0.4,43.6 C0.4,43.3 0.7,43 1,43 L44.4,43 C44.7,43 45,43.3 45,43.6 C45,43.9 44.7,44.2 44.4,44.2"></path>
  <path d="M42.6,33.5 L2.7,33.5 C1.4,33.5 0.3,32.5 0.3,31.2 L0.3,2.6 C0.3,1.3 1.4,0.3 2.7,0.3 L42.6,0.3 C43.9,0.3 45,1.3 45,2.6 L45,31.2 C45,32.5 43.9,33.5 42.6,33.5 L42.6,33.5 L42.6,33.5 Z M2.7,1.4 C2,1.4 1.5,1.9 1.5,2.6 L1.5,31.2 C1.5,31.8 2,32.4 2.7,32.4 L42.6,32.4 C43.3,32.4 43.8,31.9 43.8,31.2 L43.8,2.6 C43.8,2 43.3,1.4 42.6,1.4 L2.7,1.4 L2.7,1.4 L2.7,1.4 Z"></path>
  <path d="M20,22.2 C19.7,22.4 19.3,22.5 18.8,22.5 C18,22.5 17.4,22.1 17.4,21 C16.5,22 15.3,22.5 13.9,22.5 C12.1,22.5 10.7,21.7 10.7,19.8 C10.7,17.6 12.4,17.1 14,16.8 C15.8,16.4 17.3,16.6 17.3,15.4 C17.3,14 16.1,13.8 15.1,13.8 C13.7,13.8 12.7,14.2 12.7,15.6 L11.1,15.6 C11.2,13.2 13.1,12.4 15.3,12.4 C17.1,12.4 19,12.8 19,15.1 L19,20.1 C19,20.8 19,21.2 19.5,21.2 C19.7,21.2 19.8,21.2 20,21.1 L20,22.2 L20,22.2 L20,22.2 Z M17.4,17.2 C16.1,18.1 12.5,17.2 12.5,19.6 C12.5,20.6 13.4,21 14.4,21 C16.5,21 17.4,19.7 17.4,18.8 L17.4,17.2 L17.4,17.2 L17.4,17.2 Z"></path>
  <path d="M21.5,12.6 L23.1,12.6 L23.1,13.9 L23.1,13.9 C23.6,12.8 24.9,12.4 26.2,12.4 C29.2,12.4 30.7,14.8 30.7,17.5 C30.7,20.2 29.2,22.5 26.2,22.5 C25.2,22.5 23.7,22.1 23,21 L23,21 L23,26 L21.4,26 L21.4,12.6 L21.5,12.6 L21.5,12.6 Z M26.1,13.7 C23.9,13.7 23.1,15.6 23.1,17.3 C23.1,19.2 24,21 26.2,21 C28.4,21 29.1,19.1 29.1,17.3 C29.1,15.5 28.2,13.7 26.1,13.7 L26.1,13.7 L26.1,13.7 Z"></path>
  <path d="M32.4,8.9 L34,8.9 L34,10.8 L32.4,10.8 L32.4,8.9 L32.4,8.9 Z M32.4,12.6 L34,12.6 L34,22.3 L32.4,22.3 L32.4,12.6 L32.4,12.6 Z"></path>
</svg>
