<?xml version="1.0" encoding="UTF-8" standalone="no"?>
<svg width="45px" height="45px" viewBox="0 0 45 45" version="1.1" xmlns="http://www.w3.org/2000/svg" xmlns:xlink="http://www.w3.org/1999/xlink" xmlns:sketch="http://www.bohemiancoding.com/sketch/ns">
    <!-- Generator: Sketch 3.4 (15588) - http://www.bohemiancoding.com/sketch -->
    <title>Imported Layers</title>
    <desc>Created with Sketch.</desc>
    <defs></defs>
    <g id="Page-1" stroke="none" stroke-width="1" fill="none" fill-rule="evenodd" sketch:type="MSPage">
        <g id="Compute-Taxonomy" sketch:type="MSArtboardGroup" transform="translate(-658.000000, -275.000000)" fill="#BA8FF8">
            <g id="Main-Menu" sketch:type="MSLayerGroup" transform="translate(23.000000, 62.000000)">
                <g id="Imported-Layers" transform="translate(635.000000, 213.000000)" sketch:type="MSShapeGroup">
                    <path d="M44.3859868,44.1954017 L0.975789474,44.1954017 C0.648947368,44.1954017 0.383684211,43.9345775 0.383684211,43.6119024 C0.383684211,43.2892273 0.648947368,43.0284031 0.975789474,43.0284031 L44.3859868,43.0284031 C44.7134211,43.0284031 44.9780921,43.2892273 44.9780921,43.6119024 C44.9780921,43.9345775 44.7134211,44.1954017 44.3859868,44.1954017" id="Fill-1"></path>
                    <path d="M42.6120395,33.5004436 L2.74973684,33.5004436 C1.44473684,33.5004436 0.383684211,32.4548129 0.383684211,31.169364 L0.383684211,2.58140077 C0.383684211,1.29595188 1.44473684,0.250321187 2.74973684,0.250321187 L42.6120395,0.250321187 C43.9164474,0.250321187 44.9780921,1.29595188 44.9780921,2.58140077 L44.9780921,31.169364 C44.9780921,32.4548129 43.9164474,33.5004436 42.6120395,33.5004436 L42.6120395,33.5004436 Z M2.74973684,1.41731973 C2.09782895,1.41731973 1.56789474,1.93896807 1.56789474,2.58140077 L1.56789474,31.169364 C1.56789474,31.8117967 2.09782895,32.333445 2.74973684,32.333445 L42.6120395,32.333445 C43.2633553,32.333445 43.7938816,31.8117967 43.7938816,31.169364 L43.7938816,2.58140077 C43.7938816,1.93896807 43.2633553,1.41731973 42.6120395,1.41731973 L2.74973684,1.41731973 L2.74973684,1.41731973 Z" id="Fill-2"></path>
                    <path d="M19.9971711,22.1858092 C19.7123684,22.355024 19.3138816,22.4478004 18.8396053,22.4478004 C18.0047368,22.4478004 17.4742105,21.9990895 17.4742105,20.9522918 C16.5819079,21.9990895 15.3864474,22.4478004 14.0210526,22.4478004 C12.2370395,22.4478004 10.7763158,21.6810824 10.7763158,19.7368628 C10.7763158,17.549324 12.4265132,17.0632691 14.0968421,16.763934 C15.8607237,16.408583 17.3978289,16.5585423 17.3978289,15.3431133 C17.3978289,13.9403811 16.2213158,13.7349893 15.2159211,13.7349893 C13.8499342,13.7349893 12.8439474,14.1463563 12.7681579,15.5677605 L11.1558553,15.5677605 C11.2505921,13.1742465 13.1103947,12.3328406 15.3106579,12.3328406 C17.0751316,12.3328406 18.9917763,12.7249521 18.9917763,14.9877622 L18.9917763,19.96151 C18.9917763,20.7089726 18.9917763,21.0456517 19.5033553,21.0456517 C19.6555263,21.0456517 19.8260526,21.0083077 19.9971711,20.9522918 L19.9971711,22.1858092 L19.9971711,22.1858092 Z M17.3794737,17.2313169 C16.1265789,18.1474108 12.4839474,17.2499889 12.4839474,19.6242474 C12.4839474,20.6716286 13.3946053,21.0456517 14.3810526,21.0456517 C16.5061184,21.0456517 17.3794737,19.7555348 17.3794737,18.8581129 L17.3794737,17.2313169 L17.3794737,17.2313169 Z" id="Fill-3"></path>
                    <path d="M21.5141447,12.5569043 L23.1270395,12.5569043 L23.1270395,13.8656931 L23.1649342,13.8656931 C23.6960526,12.8002235 24.9294079,12.3328406 26.2953947,12.3328406 C29.3121711,12.3328406 30.8107895,14.6884271 30.8107895,17.4186202 C30.8107895,20.1674853 29.3311184,22.4478004 26.3332895,22.4478004 C25.3468421,22.4478004 23.8671711,22.0737774 23.1649342,20.9336198 L23.1270395,20.9336198 L23.1270395,25.9260396 L21.5141447,25.9260396 L21.5141447,12.5569043 L21.5141447,12.5569043 Z M26.0674342,13.7349893 C23.8855263,13.7349893 23.0701974,15.5864325 23.0701974,17.3812762 C23.0701974,19.2694799 23.9423684,21.0456517 26.1627632,21.0456517 C28.3630263,21.0456517 29.1031579,19.1942085 29.1031579,17.3060048 C29.1031579,15.4924891 28.1546053,13.7349893 26.0674342,13.7349893 L26.0674342,13.7349893 Z" id="Fill-4"></path>
                    <path d="M32.4420395,8.87385689 L34.0549342,8.87385689 L34.0549342,10.8180765 L32.4420395,10.8180765 L32.4420395,8.87385689 Z M32.4420395,12.5569043 L34.0549342,12.5569043 L34.0549342,22.2231532 L32.4420395,22.2231532 L32.4420395,12.5569043 Z" id="Fill-5"></path>
                </g>
            </g>
        </g>
    </g>
</svg>