<svg version="1.1" xmlns="http://www.w3.org/2000/svg" 
	 width="40px" height="40px" viewBox="0 0 40 40">
<g>
	<path d="M39,41H1c-0.6,0-1-0.4-1-1s0.4-1,1-1h38c0.6,0,1,0.4,1,1S39.6,41,39,41z"/>
</g>
<g>
	<path d="M37.4,31H2.6C1.2,31,0,29.8,0,28.4V2.7C0,1.2,1.2,0,2.6,0h34.7C38.8,0,40,1.2,40,2.7v25.7C40,29.8,38.8,31,37.4,31z M2.6,2
		C2.3,2,2,2.3,2,2.7v25.7C2,28.7,2.3,29,2.6,29h34.7c0.3,0,0.6-0.3,0.6-0.6V2.7C38,2.3,37.7,2,37.4,2H2.6z"/>
</g>
<g>
	<path d="M16.4,17.8c0,0.4,0.1,0.6,0.4,0.6H17c0.1,0,0.2,0,0.3,0v1.3c-0.3,0.1-0.8,0.2-1.2,0.2c-0.8,0-1.3-0.3-1.4-1
		c-0.7,0.7-1.9,1-2.9,1C10.4,19.8,9,19,9,17.4c0-2.1,1.6-2.4,3.2-2.6c1.3-0.3,2.5-0.1,2.5-1.2c0-1-1-1.1-1.7-1.1
		c-1,0-1.7,0.4-1.8,1.3H9.3c0.1-2.1,1.9-2.8,3.8-2.8c1.6,0,3.3,0.7,3.3,2.4V17.8z M14.6,15.5c-0.6,0.4-1.4,0.4-2.2,0.5
		c-0.8,0.1-1.5,0.4-1.5,1.4c0,0.8,1,1.1,1.7,1.1c0.8,0,2-0.4,2-1.6V15.5z"/>
	<path d="M19,11.3h1.7v1.1h0c0.5-1,1.5-1.3,2.6-1.3c2.6,0,3.9,2,3.9,4.4c0,2.2-1.1,4.3-3.6,4.3c-1.1,0-2.2-0.4-2.8-1.3h0v4.1H19
		V11.3z M23.1,12.6c-1.5,0-2.3,1.2-2.3,2.9c0,1.7,0.8,2.9,2.3,2.9c1.7,0,2.3-1.5,2.3-2.9C25.4,14,24.6,12.6,23.1,12.6z"/>
	<path d="M29.1,8.2h1.8v1.7h-1.8V8.2z M29.1,11.3h1.8v8.3h-1.8V11.3z"/>
</g>
</svg>
