<svg version="1.1" xmlns="http://www.w3.org/2000/svg"
	 width="40px" height="40px" viewBox="0 0 40 40">
<path d="M28.1,15.6v-8c0-4.2-3.7-7.7-8-7.7h-0.2c-4.3,0-7.7,3.5-7.7,7.7v7.8C8.4,17.9,6,22,6,26.6C6,34,12.3,40,20,40s14-6,14-13.4
	C34,22.1,31.7,18.1,28.1,15.6z M14.1,7.7c0-3.1,2.6-5.7,5.7-5.7h0.2c3.3,0,6,2.6,6,5.7v6.8c-1.8-0.9-3.9-1.4-6.1-1.4
	c-2.1,0-4.1,0.5-5.9,1.3V7.7z M20,38c-6.6,0-12-5.1-12-11.4s5.4-11.4,12-11.4c6.6,0,12,5.1,12,11.4S26.6,38,20,38z"/>
<g>
	<path d="M22.5,24.3c0-1.2-1.1-2.3-2.5-2.3s-2.5,1-2.5,2.3c0,0.9,0.6,1.7,1.5,2.1l0,3.7c0,0.5,0.5,1,1,1c0.6,0,1-0.5,1-1l0-3.7
		C21.9,26,22.5,25.2,22.5,24.3z"/>
</g>
</svg>
