<?xml version="1.0" encoding="UTF-8" standalone="no"?>
<svg width="32px" height="45px" viewBox="0 0 32 45" version="1.1" xmlns="http://www.w3.org/2000/svg" xmlns:xlink="http://www.w3.org/1999/xlink" xmlns:sketch="http://www.bohemiancoding.com/sketch/ns">
    <!-- Generator: Sketch 3.4 (15588) - http://www.bohemiancoding.com/sketch -->
    <title>Imported Layers</title>
    <desc>Created with Sketch.</desc>
    <defs></defs>
    <g id="Page-1" stroke="none" stroke-width="1" fill="none" fill-rule="evenodd" sketch:type="MSPage">
        <g id="Compute-Taxonomy" sketch:type="MSArtboardGroup" transform="translate(-555.000000, -274.000000)" fill="#5AAAFA">
            <g id="Main-Menu" sketch:type="MSLayerGroup" transform="translate(23.000000, 62.000000)">
                <g id="Imported-Layers" transform="translate(532.000000, 212.000000)" sketch:type="MSShapeGroup">
                    <path d="M15.9594351,44.8685526 C7.30547556,44.8685526 0.264493646,38.1386842 0.264493646,29.8663816 C0.264493646,21.5940789 7.30547556,14.8648026 15.9594351,14.8648026 C24.6133947,14.8648026 31.6531378,21.5940789 31.6531378,29.8663816 C31.6531378,38.1386842 24.6133947,44.8685526 15.9594351,44.8685526 L15.9594351,44.8685526 Z M15.9594351,16.0490132 C7.98807977,16.0490132 1.50272034,22.2471711 1.50272034,29.8663816 C1.50272034,37.4855921 7.98807977,43.6843421 15.9594351,43.6843421 C23.9301711,43.6843421 30.4142916,37.4855921 30.4142916,29.8663816 C30.4142916,22.2471711 23.9301711,16.0490132 15.9594351,16.0490132 L15.9594351,16.0490132 Z" id="Fill-1"></path>
                    <path d="M18.6632168,28.5400658 C18.6632168,27.1391447 17.4751633,26.0028947 16.008989,26.0028947 C14.543434,26.0028947 13.3547612,27.1391447 13.3547612,28.5400658 C13.3547612,29.6017105 14.0379848,30.5088158 15.0067625,30.8871711 L15.0067625,35.2575 C15.0067625,35.7868421 15.4552248,36.2161184 16.008989,36.2161184 C16.5627532,36.2161184 17.0118349,35.7868421 17.0118349,35.2575 L17.0118349,30.8871711 C17.9799931,30.5088158 18.6632168,29.6017105 18.6632168,28.5400658" id="Fill-2"></path>
                    <path d="M23.4699397,17.9153289 C23.1280182,17.9153289 22.8505167,17.6506579 22.8505167,17.3232237 L22.8505167,8.22730263 C22.8505167,4.59414474 19.7583567,1.63894737 15.9581963,1.63894737 C12.1580358,1.63894737 9.06649532,4.59414474 9.06649532,8.22730263 L9.06649532,17.3232237 C9.06649532,17.6506579 8.78961321,17.9153289 8.44707226,17.9153289 C8.10515073,17.9153289 7.82826862,17.6506579 7.82826862,17.3232237 L7.82826862,8.22730263 C7.82826862,3.94164474 11.4748122,0.454736842 15.9581963,0.454736842 C20.4415804,0.454736842 24.0893628,3.94164474 24.0893628,8.22730263 L24.0893628,17.3232237 C24.0893628,17.6506579 23.8124807,17.9153289 23.4699397,17.9153289" id="Fill-3"></path>
                </g>
            </g>
        </g>
    </g>
</svg>