<svg width="32px" height="45px" viewBox="0 0 32 45" fill-rule="evenodd" version="1.1" xmlns="http://www.w3.org/2000/svg" xmlns:xlink="http://www.w3.org/1999/xlink">
  <path d="M16,44.9 C7.3,44.9 0.3,38.2 0.3,29.9 C0.3,21.6 7.3,14.9 16,14.9 C24.7,14.9 31.7,21.6 31.7,29.9 C31.7,38.1 24.6,44.9 16,44.9 L16,44.9 L16,44.9 Z M16,16 C8,16 1.5,22.2 1.5,29.8 C1.5,37.4 8,43.6 16,43.6 C24,43.6 30.5,37.4 30.5,29.8 C30.4,22.2 23.9,16 16,16 L16,16 L16,16 Z"></path>
  <path d="M18.7,28.5 C18.7,27.1 17.5,26 16,26 C14.5,26 13.3,27.1 13.3,28.5 C13.3,29.6 14,30.5 15,30.8 L15,35.2 C15,35.7 15.4,36.2 16,36.2 C16.6,36.2 17,35.8 17,35.2 L17,30.8 C18,30.5 18.7,29.6 18.7,28.5"></path>
  <path d="M23.5,17.9 C23.2,17.9 22.9,17.6 22.9,17.3 L22.9,8.2 C22.9,4.6 19.8,1.6 16,1.6 C12.2,1.6 9.1,4.6 9.1,8.2 L9.1,17.3 C9.1,17.6 8.8,17.9 8.5,17.9 C8.2,17.9 7.9,17.6 7.9,17.3 L7.9,8.2 C7.9,3.9 11.5,0.4 16,0.4 C20.5,0.4 24.1,3.9 24.1,8.2 L24.1,17.3 C24.1,17.7 23.8,17.9 23.5,17.9"></path>
</svg>
