<svg version="1.1" xmlns="http://www.w3.org/2000/svg"
	 width="40px" height="40px" viewBox="0 0 40 40">
<g>
	<path d="M19.7,3c9.1,0,15.4,1.4,17.6,2.5C35.3,6.6,29.2,8,19.7,8C10.4,8,4.5,6.6,2.5,5.5C4.5,4.5,10.4,3,19.7,3 M19.7,1
		C8.6,1,0,3.2,0,5.5C0,7.9,8.6,10,19.7,10S40,7.9,40,5.5C40,3.2,30.9,1,19.7,1L19.7,1z"/>
</g>
<g>
	<path d="M20,29c-7.4,0-20-1.1-20-5.3V20h2v3.7C2,24.7,7.5,27,20,27c11.9,0,18-2.3,18-3.3V20h2v3.7C40,27.9,27.4,29,20,29z"/>
</g>
<g>
	<path d="M20,39c-7.4,0-20-1.1-20-5.3V30h2v3.7C2,34.6,7.5,37,20,37c11.9,0,18-2.3,18-3.3V30h2v3.7C40,37.9,27.4,39,20,39z"/>
</g>
<g>
	<path d="M20,19.1c-7.4,0-20-1.1-20-5.3v-3.7h2v3.7c0,0.9,5.5,3.3,18,3.3c12.5,0,18-2.4,18-3.3v-3.7h2v3.7C40,18,27.4,19.1,20,19.1z
		"/>
</g>
</svg>
