<svg width="47px" height="44px" viewBox="0 0 47 44" fill-rule="evenodd" version="1.1" xmlns="http://www.w3.org/2000/svg" xmlns:xlink="http://www.w3.org/1999/xlink">
  <path d="M23.5,21.7 C14.2,21.7 0.5,20.2 0.5,16 L0.5,11.8 L2,11.8 L2,16 C2,17.7 10.4,20.2 23.5,20.2 C36.6,20.2 45,17.7 45,16 L45,11.8 L46.5,11.8 L46.5,16 C46.5,20.2 32.8,21.7 23.5,21.7 L23.5,21.7 Z"></path>
  <path d="M23.5,11.7 C14.2,11.7 0.5,10.2 0.5,6 C0.5,1.8 14.3,0.3 23.5,0.3 C32.7,0.3 46.5,1.8 46.5,6 C46.5,10.2 32.8,11.7 23.5,11.7 L23.5,11.7 Z M23.5,1.8 C10.4,1.8 2,4.3 2,6 C2,7.7 10.4,10.2 23.5,10.2 C36.6,10.2 45,7.7 45,6 C45,4.3 36.7,1.8 23.5,1.8 L23.5,1.8 Z"></path>
  <path d="M23.5,32.8 C14.2,32.8 0.5,31.3 0.5,27.1 L0.5,22.9 L2,22.9 L2,27.1 C2,28.8 10.4,31.3 23.5,31.3 C36.6,31.3 45,28.8 45,27.1 L45,22.9 L46.5,22.9 L46.5,27.1 C46.5,31.3 32.8,32.8 23.5,32.8 L23.5,32.8 Z"></path>
  <path d="M23.5,43.9 C14.2,43.9 0.5,42.4 0.5,38.2 L0.5,34 L2,34 L2,38.2 C2,39.9 10.4,42.4 23.5,42.4 C36.6,42.4 45,39.9 45,38.2 L45,34 L46.5,34 L46.5,38.2 C46.5,42.3 32.8,43.9 23.5,43.9 L23.5,43.9 Z"></path>
</svg>
