<?xml version="1.0" encoding="UTF-8" standalone="no"?>
<svg width="47px" height="44px" viewBox="0 0 47 44" version="1.1" xmlns="http://www.w3.org/2000/svg" xmlns:xlink="http://www.w3.org/1999/xlink" xmlns:sketch="http://www.bohemiancoding.com/sketch/ns">
    <!-- Generator: Sketch 3.4 (15588) - http://www.bohemiancoding.com/sketch -->
    <title>Group</title>
    <desc>Created with Sketch.</desc>
    <defs></defs>
    <g id="Page-1" stroke="none" stroke-width="1" fill="none" fill-rule="evenodd" sketch:type="MSPage">
        <g id="Compute-Taxonomy" sketch:type="MSArtboardGroup" transform="translate(-193.000000, -131.000000)" stroke="#5AAAFA" stroke-width="1.5">
            <g id="Main-Menu" sketch:type="MSLayerGroup" transform="translate(23.000000, 62.000000)">
                <g id="Group" transform="translate(171.000000, 70.000000)" sketch:type="MSShapeGroup">
                    <path d="M0.21222973,10.7783395 L0.21222973,14.9591262 C0.21222973,17.7131821 10.1925,19.9455016 22.5036486,19.9455016 C34.8147973,19.9455016 44.7950676,17.7131821 44.7950676,14.9591262 L44.7950676,10.7783395" id="XMLID_1125_"></path>
                    <ellipse id="XMLID_1129_" cx="22.5042568" cy="4.98637541" rx="22.2914189" ry="4.98637541"></ellipse>
                    <path d="M0.21222973,21.8686865 L0.21222973,26.0494733 C0.21222973,28.8035292 10.1925,31.0358487 22.5036486,31.0358487 C34.8147973,31.0358487 44.7950676,28.8035292 44.7950676,26.0494733 L44.7950676,21.8686865" id="XMLID_1124_"></path>
                    <path d="M0.21222973,32.9590336 L0.21222973,37.1398203 C0.21222973,39.8938762 10.1925,42.1261957 22.5036486,42.1261957 C34.8147973,42.1261957 44.7950676,39.8938762 44.7950676,37.1398203 L44.7950676,32.9590336" id="XMLID_1123_"></path>
                </g>
            </g>
        </g>
    </g>
</svg>