<svg width="40px" height="40px" viewBox="0 0 40 40" version="1.1" xmlns="http://www.w3.org/2000/svg" fill-rule="evenodd">
    <path d="M20.2923077,12.1726852 C26.741181,12.1726852 31.9690256,17.334728 31.9690256,23.7024306 C31.9690256,30.0701331 26.741181,35.2321759 20.2923077,35.2321759 C13.8434344,35.2321759 8.61558974,30.0701331 8.61558974,23.7024306 C8.62417777,17.3382439 13.8469951,12.1811651 20.2923077,12.1726852 L20.2923077,12.1726852 L20.2923077,12.1726852 Z M20.2923077,10.6333333 C12.9824367,10.6333333 7.05661538,16.4845675 7.05661538,23.7024306 C7.05661538,30.9202936 12.9824367,36.7715278 20.2923077,36.7715278 C27.6021787,36.7715278 33.528,30.9202936 33.528,23.7024306 C33.5193971,16.4905798 27.5960949,10.6487218 20.2923077,10.6487269 L20.2923077,10.6333333 L20.2923077,10.6333333 Z M20.2923077,8.21655093 C19.8618088,8.21655093 19.5128205,7.87195527 19.5128205,7.446875 L19.5128205,2.99814815 C19.5128205,2.57306788 19.8618088,2.22847222 20.2923077,2.22847222 C20.7228066,2.22847222 21.0717949,2.57306788 21.0717949,2.99814815 L21.0717949,7.46226852 C21.0633052,7.88132527 20.7167912,8.21663476 20.2923077,8.21655093 L20.2923077,8.21655093 L20.2923077,8.21655093 Z M12.2012308,10.387037 C11.9244263,10.3853873 11.6692715,10.2389087 11.5308718,10.0021991 L9.27035897,6.13842593 C9.09535763,5.90082229 9.07260849,5.58557282 9.21172296,5.32586889 C9.35083742,5.06616496 9.62754672,4.9073124 9.9249425,4.91642565 C10.2223383,4.92553889 10.4885393,5.10102813 10.6110769,5.36875 L12.8715897,9.24791667 C13.0026349,9.48431117 12.9989206,9.77116431 12.8617975,10.0041734 C12.7246744,10.2371824 12.4741171,10.3824051 12.2012308,10.387037 L12.2012308,10.387037 L12.2012308,10.387037 Z M6.26153846,16.2519676 C6.12417514,16.2513037 5.98953463,16.2140789 5.87179487,16.144213 L1.97435897,13.9121528 C1.70322438,13.7911575 1.52549814,13.5283071 1.51626872,13.2346546 C1.50703931,12.9410021 1.66791681,12.6677757 1.93093125,12.5304122 C2.19394569,12.3930487 2.51321372,12.4155116 2.75384615,12.5883102 L6.65128205,14.8819444 C6.89969532,15.0743087 7.00607281,15.3956275 6.92069901,15.6957327 C6.83532521,15.9958379 6.5750601,16.2154635 6.26153846,16.2519676 L6.26153846,16.2519676 L6.26153846,16.2519676 Z M28.3833846,10.4178241 C28.1104983,10.4131921 27.859941,10.2679694 27.7228179,10.0349604 C27.5856949,9.80195135 27.5819806,9.51509821 27.7130256,9.2787037 L29.9735385,5.41493056 C30.208639,5.09572891 30.6501683,5.00385625 30.9957291,5.20223492 C31.34129,5.4006136 31.478876,5.82494337 31.3142564,6.18460648 L29.0537436,10.0329861 C28.9153439,10.2696957 28.6601891,10.4161743 28.3833846,10.4178241 L28.3833846,10.4178241 L28.3833846,10.4178241 Z M34.3230769,16.2673611 C34.0013971,16.2373566 33.7318127,16.0145009 33.6453337,15.7070954 C33.5588548,15.39969 33.6734118,15.0714714 33.9333333,14.8819444 L37.846359,12.6498843 C38.2106068,12.4873367 38.6403456,12.623191 38.8412531,12.9644023 C39.0421606,13.3056136 38.9491168,13.7415856 38.6258462,13.9737269 L34.6972308,16.1596065 C34.5840464,16.2268643 34.4551327,16.2639909 34.3230769,16.2673611 L34.3230769,16.2673611 L34.3230769,16.2673611 Z" id="Shape"></path>
    <path d="M25.0627692,13.4657407 C25.4386506,13.4557893 25.8102837,13.5461986 26.1384615,13.7274306 C27.1206154,14.2815972 27.6038974,15.8209491 27.4791795,17.9298611 C27.1908291,20.862365 26.2370221,23.6930313 24.6886154,26.2115741 C21.7109744,31.2914352 17.8291282,33.9083333 15.5374359,33.9083333 C15.1615546,33.9182848 14.7899214,33.8278754 14.4617436,33.6466435 C13.4795897,33.0924769 12.9963077,31.553125 13.1210256,29.444213 C13.4093761,26.511709 14.3631831,23.6810428 15.9115897,21.1625 C18.8892308,16.0826389 22.7710769,13.4657407 25.0627692,13.4657407 L25.0627692,13.4657407 L25.0627692,13.4657407 Z M25.0627692,11.9263889 C21.9448205,11.9263889 17.5796923,15.2821759 14.5708718,20.4390046 C10.9228718,26.6887731 10.5175385,33.215625 13.6822564,35.0166667 C14.2480278,35.3308316 14.8884467,35.4902496 15.5374359,35.4784722 C18.6553846,35.4784722 23.0205128,32.1226852 26.0293333,26.9658565 C29.6773333,20.716088 30.0826667,14.1892361 26.9179487,12.3881944 C26.3521773,12.0740295 25.7117584,11.9146115 25.0627692,11.9263889 L25.0627692,11.9263889 L25.0627692,11.9263889 Z" id="Shape"></path>
    <path d="M17.4705641,14.6510417 C19.9585715,14.6870117 22.3935594,15.3663835 24.5327179,16.621412 C30.0203077,19.7001157 32.6082051,25.4880787 30.3165128,29.4134259 C28.7624474,31.7225867 26.0707099,33.0279943 23.2699487,32.830787 C20.7819413,32.794817 18.3469534,32.1154453 16.2077949,30.8604167 C13.6082006,29.4501282 11.5408286,27.2467659 10.3148718,24.5798611 C9.30145966,22.5155295 9.34196773,20.0984945 10.424,18.0684028 C11.9780655,15.7592421 14.669803,14.4538344 17.4705641,14.6510417 L17.4705641,14.6510417 L17.4705641,14.6510417 Z M17.4705641,13.1116898 C14.1106779,12.9128861 10.9016978,14.5118773 9.06769231,17.2987269 C6.33948718,21.9167824 9.17682051,28.6283565 15.4127179,32.1842593 C17.7766124,33.5625301 20.4627115,34.3104758 23.2075897,34.3547454 C26.5620491,34.547884 29.7636838,32.9495874 31.5948718,30.1677083 C34.3230769,25.5496528 31.4857436,18.8380787 25.2498462,15.2821759 C22.8859517,13.9039051 20.1998526,13.1559594 17.4549744,13.1116898 L17.4705641,13.1116898 L17.4705641,13.1116898 Z" id="Shape"></path>
</svg>
