<svg width="25px" height="24px" viewBox="0 0 25 24" fill-rule="evenodd" version="1.1" xmlns="http://www.w3.org/2000/svg" xmlns:xlink="http://www.w3.org/1999/xlink">
    <g>
        <path d="M13,7.24 C17.1366128,7.24 20.49,10.5933872 20.49,14.73 C20.49,18.8666128 17.1366128,22.22 13,22.22 C8.86338722,22.22 5.51,18.8666128 5.51,14.73 C5.51550877,10.5956712 8.86567118,7.24550877 13,7.24 L13,7.24 Z M13,6.24 C8.31110247,6.24 4.51,10.0411025 4.51,14.73 C4.51,19.4188975 8.31110247,23.22 13,23.22 C17.6888975,23.22 21.49,19.4188975 21.49,14.73 C21.4844817,10.0450082 17.6849951,6.24999675 13,6.25 L13,6.24 Z M13,4.67 C12.7238576,4.67 12.5,4.44614237 12.5,4.17 L12.5,1.28 C12.5,1.00385763 12.7238576,0.78 13,0.78 C13.2761424,0.78 13.5,1.00385763 13.5,1.28 L13.5,4.18 C13.4945543,4.45222935 13.2722838,4.67005446 13,4.67 L13,4.67 Z M7.81,6.08 C7.63244447,6.07892827 7.46877615,5.98377227 7.38,5.83 L5.93,3.32 C5.81774585,3.16564696 5.80315347,2.96085332 5.89238808,2.7921434 C5.98162269,2.62343348 6.15911714,2.52023903 6.34988088,2.52615922 C6.54064462,2.5320794 6.71139857,2.64608143 6.79,2.82 L8.24,5.34 C8.32405854,5.49356756 8.32167604,5.67991426 8.23371879,5.83128254 C8.14576155,5.98265082 7.98504222,6.07699099 7.81,6.08 L7.81,6.08 Z M4,9.89 C3.91188866,9.88956872 3.82552386,9.86538658 3.75,9.82 L1.25,8.37 C1.07608143,8.29139857 0.962079401,8.12064462 0.956159215,7.92988088 C0.95023903,7.73911714 1.05343348,7.56162269 1.2221434,7.47238808 C1.39085332,7.38315347 1.59564696,7.39774585 1.75,7.51 L4.25,9 C4.40934404,9.12496442 4.4775796,9.33370085 4.4228168,9.5286564 C4.368054,9.72361196 4.20110763,9.86628605 4,9.89 L4,9.89 Z M18.19,6.1 C18.0149578,6.09699099 17.8542385,6.00265082 17.7662812,5.85128254 C17.678324,5.69991426 17.6759415,5.51356756 17.76,5.36 L19.21,2.85 C19.3608046,2.64263893 19.6440224,2.58295624 19.8656815,2.7118278 C20.0873406,2.84069936 20.1755948,3.11635419 20.07,3.35 L18.62,5.85 C18.5312239,6.00377227 18.3675555,6.09892827 18.19,6.1 L18.19,6.1 Z M22,9.9 C21.7936593,9.88050836 21.6207351,9.73573593 21.5652634,9.53603794 C21.5097917,9.33633995 21.583274,9.12312126 21.75,9 L24.26,7.55 C24.4936458,7.4444052 24.7693006,7.5326594 24.8981722,7.75431849 C25.0270438,7.97597757 24.9673611,8.25919544 24.76,8.41 L22.24,9.83 C22.1673982,9.87369229 22.0847068,9.89781061 22,9.9 L22,9.9 Z"></path>
        <path d="M16.06,8.08 C16.3011081,8.07353531 16.5394912,8.13226739 16.75,8.25 C17.38,8.61 17.69,9.61 17.61,10.98 C17.4250384,12.8850251 16.8132214,14.723894 15.82,16.36 C13.91,19.66 11.42,21.36 9.95,21.36 C9.7088919,21.3664647 9.47050877,21.3077326 9.26,21.19 C8.63,20.83 8.32,19.83 8.4,18.46 C8.58496163,16.5549749 9.19677861,14.716106 10.19,13.08 C12.1,9.78 14.59,8.08 16.06,8.08 L16.06,8.08 Z M16.06,7.08 C14.06,7.08 11.26,9.26 9.33,12.61 C6.99,16.67 6.73,20.91 8.76,22.08 C9.12291259,22.2840891 9.53370757,22.3876509 9.95,22.38 C11.95,22.38 14.75,20.2 16.68,16.85 C19.02,12.79 19.28,8.55 17.25,7.38 C16.8870874,7.17591087 16.4762924,7.07234911 16.06,7.08 L16.06,7.08 Z"></path>
        <path d="M11.19,8.85 C12.7859258,8.87336698 14.3478424,9.31470325 15.72,10.13 C19.24,12.13 20.9,15.89 19.43,18.44 C18.4331488,19.9400864 16.7065409,20.7881106 14.91,20.66 C13.3140742,20.636633 11.7521576,20.1952968 10.38,19.38 C8.71249707,18.4638427 7.38638678,17.0324855 6.6,15.3 C5.94994945,13.9589605 5.97593325,12.3887964 6.67,11.07 C7.66685121,9.56991364 9.39345914,8.7218894 11.19,8.85 L11.19,8.85 Z M11.19,7.85 C9.03480982,7.72085232 6.97641802,8.7595955 5.8,10.57 C4.05,13.57 5.87,17.93 9.87,20.24 C11.3863139,21.1353579 13.1093051,21.6212414 14.87,21.65 C17.0217091,21.7754675 19.0753893,20.7371756 20.25,18.93 C22,15.93 20.18,11.57 16.18,9.26 C14.6636861,8.36464213 12.9406949,7.8787586 11.18,7.85 L11.19,7.85 Z"></path>
    </g>
</svg>
