<?xml version="1.0" encoding="utf-8"?><svg xmlns="http://www.w3.org/2000/svg" xmlns:xlink="http://www.w3.org/1999/xlink"><symbol viewBox="0 0 24 24" fill-rule="evenodd" id="add"><path d="M14 0h-4v10H0v4h10v10h4V14h10v-4H14z"/></symbol><symbol viewBox="0 0 16 16" fill-rule="evenodd" id="add--glyph"><path d="M8 0C3.6 0 0 3.6 0 8s3.6 8 8 8 8-3.6 8-8-3.6-8-8-8zm4 9H9v3H7V9H4V7h3V4h2v3h3v2z"/></symbol><symbol viewBox="0 0 24 24" fill-rule="evenodd" id="add--outline"><path d="M13 6h-2v5H6v2h5v5h2v-5h5v-2h-5z"/><path d="M12 2c5.5 0 10 4.5 10 10s-4.5 10-10 10S2 17.5 2 12 6.5 2 12 2zm0-2C5.4 0 0 5.4 0 12s5.4 12 12 12 12-5.4 12-12S18.6 0 12 0z"/></symbol><symbol viewBox="0 0 25 24" fill-rule="evenodd" id="api"><path d="M23.4 24H.6c-.3 0-.6-.3-.6-.6s.3-.6.6-.6h22.8c.3 0 .6.3.6.6s-.3.6-.6.6zM9.5 9.7c0 .3.1.4.3.4h.3v.8c-.2 0-.6.1-.8.1-.5 0-.8-.2-.9-.6-.4.4-1.1.6-1.7.6-.9 0-1.7-.5-1.7-1.5C5 8.3 6 8.1 6.9 8c.8-.2 1.5 0 1.5-.7 0-.6-.6-.7-1-.7-.6 0-1.1.3-1.1.8H5.2c.1-1.3 1.2-1.7 2.3-1.7 1 0 2 .4 2 1.5v2.5zM8.4 8.3c-.4.3-.9.3-1.4.3-.5.1-.9.3-.9.9 0 .5.6.6 1 .6.5 0 1.2-.3 1.2-1v-.8h.1zM11 6h1.1v.7c.3-.6.9-.8 1.6-.8 1.6 0 2.4 1.2 2.4 2.7 0 1.4-.7 2.6-2.2 2.6-.6 0-1.3-.2-1.7-.8v2.5H11V6zm2.5.8c-.9 0-1.4.7-1.4 1.8 0 1 .5 1.8 1.4 1.8 1 0 1.4-.9 1.4-1.8 0-1-.5-1.8-1.4-1.8zM17 4h1v1h-1V4zm0 2h1v5h-1V6z"/><path d="M22 1.2c.4 0 .8.3.8.8v14c0 .4-.3.8-.8.8H2c-.4 0-.8-.3-.8-.8V2c0-.4.3-.8.8-.8h20zM22 0H2C.9 0 0 .9 0 2v14c0 1.1.9 2 2 2h20c1.1 0 2-.9 2-2V2c0-1.1-.9-2-2-2z"/></symbol><symbol viewBox="0 0 24 24" fill-rule="evenodd" id="app-services"><path d="M12 1.2l10.5 5.7L12 12.8 1.5 7.1 12 1.2zM12 0c-.2 0-.4.1-.6.2L.4 6.3c-.6.4-.6 1.2 0 1.5l11 6c.2.1.4.1.5.1.2 0 .4-.1.6-.2l11-6.1c.6-.4.6-1.2 0-1.6l-11-6H12z"/><path d="M12.1 18.9c-.3 0-.5-.1-.8-.2L.7 12.8c-.5-.2-.7-.7-.7-1.1 0-.5.2-.9.7-1.2l.6-.4c.2-.2.5-.1.7.1.2.2.1.5-.1.7l-.6.4c-.3.1-.3.3-.3.4 0 .1 0 .2.2.3l10.6 5.9c.2.1.4.1.6 0l10.5-6c.2-.1.2-.3.2-.3 0-.1 0-.2-.2-.3l-.6-.3c-.2-.1-.4-.4-.2-.7.1-.2.4-.3.7-.2l.5.3c.5.3.7.7.7 1.2s-.2.9-.7 1.2l-10.5 6c-.2 0-.5.1-.7.1z"/><path d="M12.1 24c-.3 0-.5-.1-.8-.2L.7 17.9c-.5-.2-.7-.7-.7-1.2s.2-.9.7-1.2l.6-.4c.2-.2.5-.1.7.1.1.3 0 .6-.2.8l-.6.4c-.2.1-.2.3-.2.3 0 .1 0 .2.2.3l10.6 5.9c.2.1.4.1.6 0l10.5-6c.2-.1.2-.3.2-.3 0-.1 0-.2-.2-.3l-.6-.3c-.2-.1-.4-.4-.2-.7.1-.2.4-.3.7-.2l.5.3c.5.3.7.7.7 1.2s-.2.9-.7 1.2l-10.5 6c-.2.1-.5.2-.7.2z"/></symbol><symbol viewBox="0 0 23 23" fill-rule="evenodd" id="applications"><path d="M5.8 1.2v4.7H1.2V1.2h4.6zM7 0H0v7h7V0zm6.8 1.2v4.7H9.2V1.2h4.6zM15 0H8v7h7V0zm6.8 1.2v4.7h-4.7V1.2h4.7zM23 0h-7v7h7V0zM5.8 9.2v4.7H1.2V9.2h4.6zM7 8H0v7h7V8zm6.8 1.2v4.7H9.2V9.2h4.6zM15 8H8v7h7V8zm6.8 1.2v4.7h-4.7V9.2h4.7zM23 8h-7v7h7V8zM5.8 17.2v4.7H1.2v-4.7h4.6zM7 16H0v7h7v-7zm6.8 1.2v4.7H9.2v-4.7h4.6zM15 16H8v7h7v-7zm6.8 1.2v4.7h-4.7v-4.7h4.7zM23 16h-7v7h7v-7z"/></symbol><symbol viewBox="0 0 14 16" fill-rule="evenodd" id="arrow--down"><path d="M8 12.6V0H6v12.7l-4.7-5L0 9l7 7 7-7-1.3-1.3z"/></symbol><symbol viewBox="0 0 16 14" fill-rule="evenodd" id="arrow--left"><path d="M3.4 8H16V6H3.3l5-4.7L7 0 0 7l7 7 1.3-1.3z"/></symbol><symbol viewBox="0 0 16 14" fill-rule="evenodd" id="arrow--right"><path d="M12.6 6H0v2h12.7l-5 4.7L9 14l7-7-7-7-1.3 1.3z"/></symbol><symbol viewBox="0 0 14 16" fill-rule="evenodd" id="arrow--up"><path d="M6 3.4V16h2V3.4l4.7 4.9L14 7 7 0 0 7l1.3 1.3z"/></symbol><symbol viewBox="0 0 24 22" fill-rule="evenodd" id="arrows"><path d="M20 14V0h-4v14h-4l6 8 6-8zM4 8v14h4V8h4L6 0 0 8z"/></symbol><symbol viewBox="0 0 14 17" fill-rule="evenodd" id="asleep--glyph"><path d="M12.043 3.505c-1.5-2.3-4.1-3.6-6.8-3.5-.3 0-.5.1-.6.4-.1.2 0 .4.2.6.3.3.5.6.7.9 1.2 1.9 1.5 4.3.8 6.4-1 2.5-3.2 4.3-5.8 4.7-.2 0-.4.2-.5.4-.1.2 0 .4.1.6 1.5 1.3 3.4 2 5.3 2 .6 0 1.3-.1 1.9-.2 2.6-.7 4.6-2.5 5.6-5s.7-5.2-.9-7.3z"/></symbol><symbol viewBox="0 0 21 24" fill-rule="evenodd" id="block-chain"><path d="M9.5 1c.9 0 1.5.7 1.5 1.5S10.4 4 9.5 4C8.7 4 8 3.3 8 2.5S8.7 1 9.5 1zm0-1C8.2 0 7 1.1 7 2.5S8.2 5 9.5 5 12 3.9 12 2.5 10.9 0 9.5 0zM17 4l-3 1.7v2.4L10.3 6 5 9v3.6l-2-1.1-3 1.7v3.5l3 1.7 3-1.7v-1.1l4.5 2.4 5-3v-4.9l1.5.9 3-1.7V5.8L17 4zm-6.7 3.2l3.8 2.1-3.5 1.8-4-1.8 3.7-2.1zM5 16.1l-2 1.2-2-1.1v-2.3l2-1.2 2 1.1v2.3zm1-5.9l4 1.8v4.6l-4-2.2v-4.2zm5 6.3V12l3.5-1.8v4.2L11 16.5zm8-7.8l-2 1.2-2-1.2V6.3l2-1.2 2 1.2v2.4zM2.5 4C3.4 4 4 4.7 4 5.5S3.4 7 2.5 7 1 6.3 1 5.5 1.7 4 2.5 4zm0-1C1.1 3 0 4.1 0 5.5S1.1 8 2.5 8 5 6.9 5 5.5 3.9 3 2.5 3zm9 17c.8 0 1.5.7 1.5 1.5s-.6 1.5-1.5 1.5-1.5-.7-1.5-1.5.7-1.5 1.5-1.5zm0-1C10.1 19 9 20.1 9 21.5s1.1 2.5 2.5 2.5 2.5-1.1 2.5-2.5-1.1-2.5-2.5-2.5zm7-3c.8 0 1.5.7 1.5 1.5s-.7 1.5-1.5 1.5-1.5-.7-1.5-1.5.7-1.5 1.5-1.5zm0-1c-1.4 0-2.5 1.1-2.5 2.5s1.1 2.5 2.5 2.5 2.5-1.1 2.5-2.5-1.1-2.5-2.5-2.5z"/></symbol><symbol viewBox="0 0 10 5" fill-rule="evenodd" id="caret--down"><path d="M10 0L5 5 0 0z"/></symbol><symbol viewBox="0 0 5 10" fill-rule="evenodd" id="caret--left"><path d="M5 0L0 5l5 5z"/></symbol><symbol viewBox="0 0 5 10" fill-rule="evenodd" id="caret--right"><path d="M0 0l5 5-5 5z"/></symbol><symbol viewBox="0 0 10 5" fill-rule="evenodd" id="caret--up"><path d="M10 5L5 0 0 5z"/></symbol><symbol viewBox="0 0 12 9" fill-rule="evenodd" id="checkmark"><path d="M4.1 6.1L1.4 3.4 0 4.9 4.1 9l7.6-7.6L10.3 0z"/></symbol><symbol viewBox="0 0 16 16" fill-rule="evenodd" id="checkmark--glyph"><path d="M8 0C3.6 0 0 3.6 0 8s3.6 8 8 8 8-3.6 8-8-3.6-8-8-8zM6.7 11.5L3.4 8.1l1.4-1.4 1.9 1.9 4.1-4.1 1.4 1.4-5.5 5.6z"/></symbol><symbol viewBox="0 0 24 24" fill-rule="evenodd" id="checkmark--outline"><path d="M12 2c5.5 0 10 4.5 10 10s-4.5 10-10 10S2 17.5 2 12 6.5 2 12 2zm0-2C5.4 0 0 5.4 0 12s5.4 12 12 12 12-5.4 12-12S18.6 0 12 0z"/><path d="M10.3 13.6L7.7 11l-1.4 1.4 4 4L17.8 9l-1.4-1.4z"/></symbol><symbol viewBox="0 0 12 8" fill-rule="evenodd" id="chevron--down"><path d="M10.6 0L6 4.7 1.4 0 0 1.4l6 6.1 6-6.1z"/></symbol><symbol viewBox="0 0 8 12" fill-rule="evenodd" id="chevron--left"><path d="M7.5 10.6L2.8 6l4.7-4.6L6.1 0 0 6l6.1 6z"/></symbol><symbol viewBox="0 0 8 12" fill-rule="evenodd" id="chevron--right"><path d="M0 10.6L4.7 6 0 1.4 1.4 0l6.1 6-6.1 6z"/></symbol><symbol viewBox="0 0 12 8" fill-rule="evenodd" id="chevron--up"><path d="M1.4 7.5L6 2.8l4.6 4.7L12 6.1 6 0 0 6.1z"/></symbol><symbol viewBox="0 0 10 10" fill-rule="evenodd" id="close"><path d="M9.8 8.6L8.4 10 5 6.4 1.4 10 0 8.6 3.6 5 .1 1.4 1.5 0 5 3.6 8.6 0 10 1.4 6.4 5z"/></symbol><symbol viewBox="0 0 16 16" fill-rule="evenodd" id="close--glyph"><path d="M8 0C3.6 0 0 3.6 0 8s3.6 8 8 8 8-3.6 8-8-3.6-8-8-8zm3.5 10.1l-1.4 1.4L8 9.4l-2.1 2.1-1.4-1.4L6.6 8 4.5 5.9l1.4-1.4L8 6.6l2.1-2.1 1.4 1.4L9.4 8l2.1 2.1z"/></symbol><symbol viewBox="0 0 24 24" fill-rule="evenodd" id="close--outline"><path d="M17.1 15.8l-1.5 1.5-3.7-3.8-3.8 3.8-1.5-1.5 3.8-3.8-3.7-3.8 1.5-1.5 3.8 3.8 3.9-3.8 1.5 1.5-4 3.8z"/><path d="M12 2c5.5 0 10 4.5 10 10s-4.5 10-10 10S2 17.5 2 12 6.5 2 12 2zm0-2C5.4 0 0 5.4 0 12s5.4 12 12 12 12-5.4 12-12S18.6 0 12 0z"/></symbol><symbol viewBox="0 0 24 18" fill-rule="evenodd" id="cloud-foundry"><path d="M12.2 10.5c-.1-.5-.6-.9-1.2-.9-1.1 0-1.5.9-1.5 1.9 0 .9.4 1.8 1.5 1.8.7 0 1.1-.5 1.2-1.2h1.2c-.1 1.4-1 2.2-2.4 2.2-1.7 0-2.7-1.3-2.7-2.8 0-1.6 1-2.9 2.7-2.9 1.2 0 2.2.7 2.3 2h-1.1v-.1zm1.9-1.8h3.8v1h-2.6V11h2.3v.9h-2.3v2.2h-1.2V8.7z"/><path d="M13.6 1.2c3 0 5.4 2.4 5.5 5.4v.8l.7.3c1.8.7 2.9 2.4 2.9 4.4 0 2.6-2 4.7-4.5 4.7H5.6c-2.5-.1-4.5-2.2-4.5-4.7 0-2.6 2.1-4.8 4.7-4.8.3 0 .6 0 .9.1l1.3.2.1-1.3c.3-2.9 2.6-5.1 5.5-5.1zm0-1.2c-3.5 0-6.4 2.7-6.7 6.2-.3-.1-.7-.1-1-.1C2.6 6.1 0 8.7 0 12c0 3.2 2.5 5.8 5.6 5.9h12.7c3.2 0 5.7-2.6 5.7-5.9 0-2.5-1.5-4.6-3.7-5.5-.1-3.6-3.1-6.5-6.7-6.5z"/></symbol><symbol viewBox="0 0 24 22" fill-rule="evenodd" id="containers"><path d="M24 22H0v-4h1v3h22v-3h1zM10 1v7H3V1h7zm1-1H2v9h9V0zm10 1v7h-7V1h7zm1-1h-9v9h9V0z"/><path d="M10 11v7H3v-7h7zm1-1H2v9h9v-9zm10 1v7h-7v-7h7zm1-1h-9v9h9v-9zM4 2h1v5H4zm2 0h1v5H6zm2 0h1v5H8zm7 0h1v5h-1zm2 0h1v5h-1zm2 0h1v5h-1z"/><path d="M4 12h1v5H4zm2 0h1v5H6zm2 0h1v5H8zm7 0h1v5h-1zm2 0h1v5h-1zm2 0h1v5h-1z"/></symbol><symbol viewBox="0 0 18 24" fill-rule="evenodd" id="copy"><path d="M13 4V0H0v20h4v4h14V4h-5zM4 18H2V2h9v2H4v14zm12 4H6V6h10v16z"/><path d="M8 9h6v1H8zm0 2h6v1H8zm0 3v-1h6v1m-6 1h3v1H8z"/></symbol><symbol viewBox="0 0 24 12" fill-rule="evenodd" id="copy--code"><path d="M5.4 0L0 6l5.4 6 2.1-2.2L4.2 6l3.3-3.8zm13.2 0l-2.1 2.2L19.8 6l-3.3 3.8 2.1 2.2L24 6z"/></symbol><symbol viewBox="0 0 18 24" fill-rule="evenodd" id="copy--new"><path d="M13 5V0H0v19h5v5h13V5h-5zM2 17V2h9v3H5v12H2zm14 5H7V7h9v15z"/><path d="M9 9h5v2H9zm0 3h5v2H9zm0 3h3v2H9z"/></symbol><symbol viewBox="0 0 24 24" fill-rule="evenodd" id="dashboard"><path d="M0 0v24h24V0H0zm1 23V7h8v16H1zm22 0H10v-8h13v8zm0-9H10V7h13v7zM1 6V1h22v5H1z"/></symbol><symbol viewBox="0 0 24 24" fill-rule="evenodd" id="data"><path d="M0 0v24h24V0H0zm22.1 7l-7.2 8.9-9.2-3.8c-.2-.1-.4 0-.6.1L1 16.6V7h21.1zm.9 16H1v-4.9l4.6-5 9.2 3.8c.2.1.4 0 .6-.1L23 7.5V23zm0-17H1V1h22v5z"/></symbol><symbol viewBox="0 0 16 24" fill-rule="evenodd" id="delete"><path d="M4 0h8v2H4zM0 3v4h1v17h14V7h1V3H0zm13 18H3V8h10v13z"/><path d="M5 10h2v9H5zm4 0h2v9H9z"/></symbol><symbol viewBox="0 0 24 23" fill-rule="evenodd" id="devices"><path d="M20.5 17c1.4 0 2.5 1.1 2.5 2.5S21.9 22 20.5 22h-17C2.1 22 1 20.9 1 19.5S2.1 17 3.5 17h17zm0-1h-17C1.6 16 0 17.6 0 19.5S1.6 23 3.5 23h17c1.9 0 3.5-1.6 3.5-3.5S22.4 16 20.5 16z"/><path d="M19.5 20h-15c-.3 0-.5-.2-.5-.5s.2-.5.5-.5h15c.3 0 .5.2.5.5s-.2.5-.5.5zm1-11c1.4 0 2.5 1.1 2.5 2.5S21.9 14 20.5 14h-17C2.1 14 1 12.9 1 11.5S2.1 9 3.5 9h17zm0-1h-17C1.6 8 0 9.6 0 11.5S1.6 15 3.5 15h17c1.9 0 3.5-1.6 3.5-3.5S22.4 8 20.5 8z"/><path d="M19.5 12h-15c-.3 0-.5-.2-.5-.5s.2-.5.5-.5h15c.3 0 .5.2.5.5s-.2.5-.5.5zm1-11C21.9 1 23 2.1 23 3.5S21.9 6 20.5 6h-17C2.1 6 1 4.9 1 3.5S2.1 1 3.5 1h17zm0-1h-17C1.6 0 0 1.6 0 3.5S1.6 7 3.5 7h17C22.4 7 24 5.4 24 3.5S22.4 0 20.5 0z"/><path d="M19.5 4h-15c-.3 0-.5-.2-.5-.5s.2-.5.5-.5h15c.3 0 .5.2.5.5s-.2.5-.5.5z"/></symbol><symbol viewBox="0 0 24 24" fill-rule="evenodd" id="devops"><path d="M21 13V3h-3v1h2v9h-3v11h7V13h-3zm2 10h-5v-9h5v9zM17 3.5L11 0v3H3v13h1V4h7v3l6-3.5zm-5-1.8l3 1.8-3 1.8V1.7zM16 20H6.4c-.3-1.4-1.6-2.5-3.2-2.5C1.4 17.5 0 19 0 20.7 0 22.5 1.5 24 3.2 24c1.7 0 3.1-1.3 3.2-3h9.5l.1-1zM3.2 23C2 23 1 22 1 20.7c0-1.2 1-2.2 2.2-2.2 1.2 0 2.2 1 2.2 2.2.1 1.3-.9 2.3-2.2 2.3z"/></symbol><symbol viewBox="0 0 24 24" fill-rule="evenodd" id="download"><path d="M19 9.4l-1.2-1.1L13 13V0h-2v13L6.2 8.3 5 9.4l7 6.6z"/><path d="M22 14v6H2v-6H0v10h24V14z"/></symbol><symbol viewBox="0 0 29 29" fill-rule="evenodd" id="edit"><path d="M20.297 2.932l2.9-2.9 5.806 5.805-2.9 2.9zM3.867 19.385l5.8 5.807 14.5-14.517-5.8-5.806-14.5 14.515zm5.8 3.07L6.6 19.384 18.367 7.607l3.066 3.068-11.766 11.78zM0 29.062l4.833-1.936-2.9-2.903z"/></symbol><symbol viewBox="0 0 16 16" fill-rule="evenodd" id="edit--glyph"><path d="M2.032 10.924l7.99-7.99 2.97 2.97-7.99 7.99zm9.014-8.91l1.98-1.98 2.97 2.97-1.98 1.98zM0 16l3-1-2-2z"/></symbol><symbol viewBox="0 0 24 24" fill-rule="evenodd" id="error"><path d="M12 0C5.4 0 0 5.4 0 12s5.4 12 12 12 12-5.4 12-12S18.6 0 12 0zm0 22c-1.8 0-3.5-.5-5-1.4l.1-.1 12-15 .2-.4C21 7 22 9.4 22 12c0 5.5-4.5 10-10 10zm0-20c1.8 0 3.5.5 5 1.4v.1l-12 15-.2.4C3 17 2 14.6 2 12 2 6.5 6.5 2 12 2z"/></symbol><symbol viewBox="0 0 16 16" fill-rule="evenodd" id="error--glyph"><path d="M8 0C3.6 0 0 3.6 0 8s3.6 8 8 8 8-3.6 8-8-3.6-8-8-8zM5.1 13.3L3.5 12 11 2.6l1.5 1.2-7.4 9.5z"/></symbol><symbol viewBox="0 0 16 15" fill-rule="evenodd" id="favorite"><path d="M8.11 11.75l-4.5 3.2c-.2.1-.5 0-.4-.3l1.5-5.1-4.6-3.2c-.2-.2-.1-.5.1-.5l5.5-.5 2-5.2c.1-.2.4-.2.5 0l2 5.2 5.5.5c.2 0 .3.3.1.4l-4.5 3.3 1.5 5.1c.1.2-.2.4-.4.3l-4.3-3.2z"/></symbol><symbol viewBox="0 0 24 24" fill-rule="evenodd" id="filter"><path d="M10.9 3c-.4-1.7-2-3-3.9-3S3.6 1.3 3.1 3H0v2h3.1c.4 1.7 2 3 3.9 3s3.4-1.3 3.9-3H24V3H10.9zM7 5c-.6 0-1-.4-1-1s.4-1 1-1 1 .4 1 1-.4 1-1 1zm10 3c-1.9 0-3.4 1.3-3.9 3H0v2h13.1c.4 1.7 2 3 3.9 3s3.4-1.3 3.9-3H24v-2h-3.1c-.5-1.7-2-3-3.9-3zm0 5c-.6 0-1-.4-1-1s.4-1 1-1 1 .4 1 1-.4 1-1 1zM7 16c-1.9 0-3.4 1.3-3.9 3H0v2h3.1c.4 1.7 2 3 3.9 3s3.4-1.3 3.9-3H24v-2H10.9c-.5-1.7-2-3-3.9-3zm0 5c-.6 0-1-.4-1-1s.4-1 1-1 1 .4 1 1-.4 1-1 1z"/></symbol><symbol viewBox="0 0 16 16" fill-rule="evenodd" id="filter--glyph"><path d="M5 0C3.7 0 2.6.8 2.2 2H0v2h2.2C2.6 5.2 3.7 6 5 6c1.3 0 2.4-.8 2.8-2H16V2H7.8C7.4.8 6.3 0 5 0zm0 4c-.6 0-1-.4-1-1s.4-1 1-1 1 .4 1 1-.4 1-1 1zm0 6c-1.3 0-2.4.8-2.8 2H0v2h2.2c.4 1.2 1.5 2 2.8 2 1.3 0 2.4-.8 2.8-2H16v-2H7.8c-.4-1.2-1.5-2-2.8-2zm0 4c-.6 0-1-.4-1-1s.4-1 1-1 1 .4 1 1-.4 1-1 1z"/><path d="M11 5c-1.3 0-2.4.8-2.8 2H0v2h8.2c.4 1.2 1.5 2 2.8 2 1.3 0 2.4-.8 2.8-2H16V7h-2.2c-.4-1.2-1.5-2-2.8-2zm0 4c-.6 0-1-.4-1-1s.4-1 1-1 1 .4 1 1-.4 1-1 1z"/></symbol><symbol viewBox="0 0 16 12" fill-rule="evenodd" id="folder--glyph"><path d="M0 12h16V2H8V0H0z"/></symbol><symbol viewBox="0 0 16 16" fill-rule="evenodd" id="grid"><path d="M0 0h7v7H0zm9 0h7v7H9zM0 9h7v7H0zm9 0h7v7H9z"/></symbol><symbol viewBox="0 0 12 12" fill-rule="evenodd" id="header--contact"><path d="M10.563 1.4c-1-.9-2.2-1.4-3.5-1.4-1.3 0-2.5.5-3.4 1.4-.9.9-1.3 2-1.4 3.2-.5.1-1 .4-1.4.8-1.2 1.2-1.1 3 0 4.2.5.7 2.1 2.4 2.1 2.4v-1.5c.8 0 1.5-.3 2.1-.9.1-.1.1-.2.2-.2.5.2 1 .3 1.4.4V12l3.8-3.7c2-1.9 2-5 .1-6.9zm-1.1 5.9c-.6.6-1.5 1-2.4 1-.4 0-.8-.1-1.2-.2.2-.9-.1-1.9-.8-2.6-.4-.4-.8-.6-1.3-.8.1-.8.4-1.6 1-2.1.6-.6 1.5-1 2.4-1 .9 0 1.7.4 2.4 1 .6.6 1 1.5 1 2.4-.1.8-.5 1.6-1.1 2.3z"/></symbol><symbol viewBox="0 0 12 11" fill-rule="evenodd" id="header--docs"><path d="M1 9V1h2.8S6 1 6 2.5v7.1S5.7 9 3.7 9H1zm6.5-9C6.4 0 6 .8 6 .8S5.6 0 3.8 0H0v10h3.7S6 10 6 11c0-1 2.2-1 2.2-1H12V0H7.5z"/></symbol><symbol viewBox="0 0 12 12" fill-rule="evenodd" id="header--help"><path d="M6 0C2.7 0 0 2.7 0 6s2.7 6 6 6 6-2.7 6-6-2.7-6-6-6zm.8 10H5.2V8h1.5l.1 2zm-.1-3.4V7H5.3v-.5C5.5 4.9 6.9 5 6.8 4c.1-.6-.2-.9-.8-.9-.6 0-1 .6-1 1.3H3.6C3.7 3 4.6 2 6 2c1.8 0 2.4 1.1 2.4 1.8 0 1.9-1.6 1.6-1.7 2.8z"/></symbol><symbol viewBox="0 0 12 9" fill-rule="evenodd" id="header--notifciation"><path d="M6 7.9H3v-2l3 .7v1.3zM12 0L1 3V2H0v4.9h1v-1h1v2.3c0 .4.3.8.8.8h3.5c.3-.1.7-.4.7-.9V6.9l5 1V0z"/></symbol><symbol viewBox="0 0 14 14" fill-rule="evenodd" id="header--ticket"><path d="M5.5 3l3-3 1.4 1.4c-.8.8-.8 2 0 2.8.8.8 2 .8 2.8 0L14 5.6 5.6 14l-1.4-1.3c.8-.8.8-2 0-2.8-.8-.8-2-.8-2.8 0L0 8.5l5-5c0 .3.2.5.5.5s.5-.2.5-.5-.2-.5-.5-.5zm2 3c.3 0 .5-.2.5-.5S7.8 5 7.5 5s-.5.2-.5.5.2.5.5.5zm-1-1c.3 0 .5-.2.5-.5S6.8 4 6.5 4s-.5.2-.5.5.2.5.5.5zm2 2c.3 0 .5-.2.5-.5S8.8 6 8.5 6s-.5.2-.5.5.2.5.5.5zm1 1c.3 0 .5-.2.5-.5S9.8 7 9.5 7s-.5.2-.5.5.2.5.5.5zm1 1c.3 0 .5-.2.5-.5s-.2-.5-.5-.5-.5.2-.5.5.2.5.5.5z"/></symbol><symbol viewBox="0 0 24 24" fill-rule="evenodd" id="help"><path d="M12 2c5.5 0 10 4.5 10 10s-4.5 10-10 10S2 17.5 2 12 6.5 2 12 2zm0-2C5.4 0 0 5.4 0 12s5.4 12 12 12 12-5.4 12-12S18.6 0 12 0z"/><path d="M8.3 10c.2-2 1.5-3.5 3.7-3.5 2.8 0 3.7 1.8 3.7 2.9 0 2.9-2.5 2.5-2.7 4.3V15h-2v-1c.2-2.6 2.4-2.8 2.3-4.4 0-.9-.5-1.3-1.3-1.3-1 0-1.5.8-1.5 1.7H8.3zm2.7 6h2v2h-2v-2z"/></symbol><symbol viewBox="0 0 16 16" fill-rule="evenodd" id="help--glyph"><path d="M8 0C3.6 0 0 3.6 0 8s3.6 8 8 8 8-3.6 8-8-3.6-8-8-8zm.9 13H7v-1.8h1.9V13zm-.1-3.6v.5H7.1v-.6c.2-2.1 2-1.9 1.9-3.2.1-.7-.3-1.1-1-1.1-.8 0-1.2.7-1.2 1.6H5c0-1.7 1.2-3 2.9-3 2.3 0 3 1.4 3 2.3.1 2.3-1.9 2-2.1 3.5z"/></symbol><symbol viewBox="0 0 24 24" fill-rule="evenodd" id="info"><path d="M12 2c5.5 0 10 4.5 10 10s-4.5 10-10 10S2 17.5 2 12 6.5 2 12 2zm0-2C5.4 0 0 5.4 0 12s5.4 12 12 12 12-5.4 12-12S18.6 0 12 0z"/><path d="M14 10H9v2h2v4H9v2h7v-2h-2z"/><circle cx="12.5" cy="7.5" r="1.5"/></symbol><symbol viewBox="0 0 16 16" fill-rule="evenodd" id="info--glyph"><path d="M8 0C3.6 0 0 3.6 0 8s3.6 8 8 8 8-3.6 8-8-3.6-8-8-8zm0 4c.6 0 1 .4 1 1s-.4 1-1 1-1-.4-1-1 .4-1 1-1zm2 8H6v-1h1V8H6V7h3v4h1v1z"/></symbol><symbol viewBox="0 0 24 24" fill-rule="evenodd" id="infrastructure"><path d="M14 1v22H1V1h13zm1-1H0v24h15V0zm8 1v22h-5V1h5zm1-1h-7v24h7V0z"/><path d="M12 4v4H3V4h9zm1-1H2v6h11V3zm8 0v1h-1V3h1zm1-1h-3v3h3V2zm-1 5v1h-1V7h1zm1-1h-3v3h3V6zm-1 5v1h-1v-1h1zm1-1h-3v3h3v-3zm-1 5v1h-1v-1h1zm1-1h-3v3h3v-3zm-1 5v1h-1v-1h1zm1-1h-3v3h3v-3z"/></symbol><symbol viewBox="0 0 24 21" fill-rule="evenodd" id="integration"><path d="M18 0H6L0 10.5 6 21h12l6-10.5L18 0zm4.5 10h-9.7l4.8-8.5 4.9 8.5zM6.3 19.4L1.4 11H11l-4.7 8.4zm5.6-7.8l4.8 8.4H7.2l4.7-8.4zm0-2.1L7 1h9.7l-4.8 8.5zM6.2 1.6L11 10H1.5l4.7-8.4zm11.5 18L12.8 11h9.8l-4.9 8.6z"/></symbol><symbol viewBox="0 0 24 24" fill-rule="evenodd" id="iot"><path d="M12 10c1.1 0 2 .9 2 2s-.9 2-2 2-2-.9-2-2 .9-2 2-2zm0-1c-1.6 0-3 1.3-3 3s1.3 3 3 3 3-1.3 3-3-1.3-3-3-3z"/><path d="M17 7v10H7V7h10zm1-1H6v12h12V6zm-7-1h-1V2.1C10 1.5 9.5 1 8.9 1c-.6 0-.9.6-.9 1.1V5H7V2.1C7 .9 7.8 0 8.9 0H9c1.1 0 2 1 2 2.1V5zm6 0h-1V2.1c0-.6-.5-1.1-1.1-1.1-.6 0-.9.6-.9 1.1V5h-1V2.1c0-1.2.8-2.1 1.9-2.1h.1c1.1 0 2 1 2 2.1V5zm-1.9 19s-.1 0 0 0c-1.2 0-2.1-1-2.1-2.1V19h1v2.9c0 .6.5 1.1 1.1 1.1.7 0 .9-.6.9-1.1V19h1v2.9c0 1.2-.8 2.1-1.9 2.1zm-6 0s-.1 0 0 0C7.9 24 7 23 7 21.9V19h1v2.9c0 .6.5 1.1 1.1 1.1.7 0 .9-.6.9-1.1V19h1v2.9c0 1.2-.8 2.1-1.9 2.1zM5 17H2.1C.9 17 0 16.2 0 15.1c0-1.1 1-2 2.1-2H5v1H2.1c-.6-.1-1.1.4-1.1 1s.6.9 1.1.9H5v1zm0-6H2.1C.9 11 0 10.2 0 9.1c0-1.1 1-2 2.1-2H5v1H2.1C1.5 8 1 8.5 1 9.1s.6.9 1.1.9H5v1zm16.9 0H19v-1h2.9c.6 0 1.1-.4 1.1-1 0-.7-.6-1-1.1-1H19V7h2.9c1.2 0 2.1.8 2.1 1.9 0 1.2-1 2.1-2.1 2.1zm0 6H19v-1h2.9c.6 0 1.1-.5 1.1-1.1 0-.7-.6-.9-1.1-.9H19v-1h2.9c1.2 0 2.1.8 2.1 1.9 0 1.2-1 2.1-2.1 2.1z"/></symbol><symbol viewBox="0 0 24 20" fill-rule="evenodd" id="launch"><path d="M0 0v20h24V0H0zm22 18H2V4h20v14z"/><path d="M11.7 15.7L18 9.4V14h2V6h-8v2h4.6l-6.3 6.3z"/></symbol><symbol viewBox="0 0 16 16" fill-rule="evenodd" id="launch--glyph"><path d="M0 0v16h16V0H0zm2 14V4h12v10H2z"/><path d="M6.474 12.952L10 9.412V12h1.938V6H6v2h2.573l-3.515 3.54z"/></symbol><symbol viewBox="0 0 18 18" fill-rule="evenodd" id="light"><path d="M9 0c.3 0 .6.3.6.6v2.5c0 .3-.3.6-.6.6s-.6-.3-.6-.6V.6c0-.3.3-.6.6-.6zm0 14.4c.3 0 .6.3.6.6v2.5c0 .3-.3.6-.6.6s-.6-.3-.6-.6V15c0-.4.3-.6.6-.6z"/><circle cx="9" cy="9" r="4"/><path d="M14.4 9c0-.3.3-.6.6-.6h2.5c.2.1.5.3.5.6s-.3.6-.6.6h-2.5c-.3 0-.5-.3-.5-.6zM0 9c0-.3.3-.6.6-.6h2.5c.3 0 .6.3.6.6s-.3.6-.6.6H.6C.3 9.6 0 9.3 0 9zm2.1-6.6c.2-.2.6-.2.8 0l1.8 1.8c.2.2.2.6 0 .8-.2.2-.6.2-.8 0L2.1 3.2c-.2-.2-.2-.6 0-.8zm11 2.6c-.2-.2-.2-.6 0-.8l1.8-1.8c.2-.2.6-.2.8 0 .2.2.2.6 0 .8L13.9 5c-.2.2-.6.2-.8 0zm2.6 10.7c-.2.2-.6.2-.8 0l-1.8-1.8c-.2-.2-.2-.6 0-.8.2-.2.6-.2.8 0l1.8 1.8c.2.2.2.6 0 .8zm-11-2.6c.2.2.2.6 0 .8l-1.8 1.8c-.2.2-.6.2-.8 0-.2-.2-.2-.6 0-.8l1.8-1.8c.2-.2.6-.2.8 0z"/></symbol><symbol viewBox="0 0 18 18" fill-rule="evenodd" id="light--glyph"><circle cx="9.1" cy="9" r="4"/><path d="M9.1 18h-.2c-.5 0-.9-.4-.9-.9V15c0-.6.4-1 .9-1H9c.6 0 1 .4 1 .9V17c0 .6-.4 1-.9 1zm7-2.3c-.5.5-1 .5-1.4.1l-1.5-1.5c-.4-.4-.4-1 0-1.3l.1-.1c.4-.4 1-.4 1.3 0l1.5 1.5c.3.4.3 1 0 1.3zm-13.8.1c-.5-.5-.5-1-.1-1.4l1.5-1.5c.4-.4 1-.4 1.3 0l.1.1c.4.4.4 1 0 1.3l-1.5 1.5c-.4.4-1 .4-1.3 0zM8.9 0c.7 0 1.1.4 1.1.9V3c0 .6-.4 1-.9 1h-.2c-.5 0-.9-.4-.9-.9V.9c0-.5.4-.9.9-.9zM2.2 2.2c.5-.5 1-.5 1.4-.1l1.5 1.5c.4.4.4 1 0 1.3L5 5c-.4.4-1 .4-1.3 0L2.2 3.5c-.4-.4-.4-1 0-1.3zm13.7-.1c.5.5.5 1 .1 1.4L14.6 5c-.4.4-1 .4-1.3 0l-.1-.1c-.4-.4-.4-1 0-1.3l1.5-1.5c.2-.4.9-.4 1.2 0zM.1 9.1V9c0-.5.4-.9.9-.9h2.1c.6-.1 1 .3 1 .8V9c0 .6-.4 1-.9 1H1.1c-.6 0-1-.4-1-.9zm14 0V9c0-.5.4-.9.9-.9h2.1c.5 0 .9.4.9.9v.1c0 .5-.4.9-.9.9H15c-.6 0-.9-.4-.9-.9z"/></symbol><symbol viewBox="0 0 24 24" fill-rule="evenodd" id="link"><path d="M22.3 1.7C21.2.7 19.8 0 18.2 0c-1.6 0-3.1.7-4.1 1.7l-2.5 2.5c-1.1 1.1-1.7 2.5-1.7 4.1 0 .6.1 1.2.3 1.8-.7-.2-1.2-.3-1.9-.3-1.6 0-3.1.7-4.1 1.7L1.7 14C.7 15.1 0 16.5 0 18.2c0 1.6.6 3.1 1.7 4.2 1 1 2.5 1.6 4.1 1.6 1.6 0 3.1-.7 4.1-1.7l2.5-2.5c1.1-1.1 1.7-2.5 1.7-4.1 0-.6-.1-1.2-.3-1.8.6.2 1.2.3 1.8.3 1.6 0 3.1-.7 4.1-1.7l2.5-2.5C23.3 8.9 24 7.5 24 5.8c0-1.6-.7-3-1.7-4.1zM10.9 18.2l-2.5 2.5c-.7.7-1.6 1.1-2.6 1.1s-2-.4-2.6-1c-.7-.7-1-1.6-1-2.6s.4-1.9 1.1-2.6l2.5-2.5c.6-.7 1.6-1.1 2.5-1.1.6 0 1.2.2 1.7.4l-3.2 3.2 1.5 1.5 3.2-3.2c.3.5.4 1.1.4 1.7.1 1-.3 2-1 2.6zm9.8-9.8l-2.5 2.5c-.7.7-1.6 1.1-2.6 1.1-.6 0-1.2-.2-1.7-.4l3.2-3.2-1.5-1.5-3.2 3.2c-.2-.6-.4-1.1-.4-1.8 0-1 .4-1.9 1.1-2.6l2.5-2.5c.7-.7 1.6-1.1 2.6-1.1s1.9.4 2.6 1.1c.7.7 1.1 1.6 1.1 2.6-.1 1-.5 1.9-1.2 2.6z"/></symbol><symbol viewBox="0 0 16 14" fill-rule="evenodd" id="list"><path d="M0 0h16v2H0zm0 4h16v2H0zm0 4h16v2H0zm0 4h16v2H0z"/></symbol><symbol viewBox="0 0 18 24" fill-rule="evenodd" id="locked"><path d="M15.5 6.5C15.5 3 12.5 0 9 0S2.5 3 2.5 6.5v3C1.1 11 .3 13 .3 15.3.3 20.1 4.2 24 9 24c4.8 0 8.7-3.9 8.7-8.7 0-2.2-.8-4.2-2.2-5.8v-3zm-10.9 0c0-2.3 2-4.4 4.4-4.4 2.4 0 4.4 2 4.4 4.4v1.2C12.1 7 10.6 6.5 9 6.5c-1.6 0-3.1.4-4.4 1.2V6.5zm2.8 13.6l-4-4 1.5-1.5 2.5 2.5 5.8-5.8 1.5 1.5-7.3 7.3z"/></symbol><symbol viewBox="0 0 20 14" fill-rule="evenodd" id="menu"><path d="M0 0h20v2H0zm0 6h20v2H0zm0 6h20v2H0z"/></symbol><symbol viewBox="0 0 24 24" fill-rule="evenodd" id="mobile"><path d="M22.9 3.6H14V2.1C14 .9 12.9 0 11.8 0H2C.9 0 0 .9 0 2.1v19.8C0 23 .9 24 2 24h9.5c1.1 0 2.4-1 2.4-2.1V13h9c.6 0 1-.3 1-.8V4.4c.1-.4-.4-.8-1-.8zM1 2.1C1 1.5 1.5 1 2 1h10c.6 0 1 .5 1 1.1v1.5h-3c-.6 0-1 .3-1 .8V15l4-1.7V18H1V2.1zm12 19.8c0 .6-.9 1.1-1.4 1.1H2c-.6 0-1-.5-1-1.1V19h12v2.9zM23 12h-9.5L10 13.5V4.6h13V12z"/><path d="M20.5 6h-8c-.3 0-.5.2-.5.5s.2.5.5.5h8c.3 0 .5-.2.5-.5s-.2-.5-.5-.5zm0 3h-8c-.3 0-.5.2-.5.5s.2.5.5.5h8c.3 0 .5-.2.5-.5s-.2-.5-.5-.5z"/></symbol><symbol viewBox="0 0 23 24" fill-rule="evenodd" id="network"><path d="M20.5 18v-6h-9V5.9C12.9 5.7 14 4.5 14 3c0-1.7-1.3-3-3-3S8 1.3 8 3c0 1.5 1.1 2.7 2.5 2.9V12h-8v6.1C1.1 18.4 0 19.6 0 21c0 1.7 1.3 3 3 3s3-1.3 3-3c0-1.5-1.1-2.7-2.5-2.9V13h16v5.1c-1.4.2-2.5 1.5-2.5 2.9 0 1.7 1.3 3 3 3s3-1.3 3-3c0-1.5-1-2.8-2.5-3zM9 3c0-1.1.9-2 2-2s2 .9 2 2-.9 2-2 2-2-.9-2-2zM5 21c0 1.1-.9 2-2 2s-2-.9-2-2 .9-2 2-2 2 .9 2 2zm15 2c-1.1 0-2-.9-2-2s.9-2 2-2 2 .9 2 2-.9 2-2 2z"/></symbol><symbol viewBox="0 0 25 16" fill-rule="evenodd" id="open-whisk"><path d="M9.9 9.7L4.5 0 0 8l4.5 8h8l.5-.8 3-5.5H9.9zm-4.7 5.1L1.4 8l3.1-5.5 6.9 12.3H5.2zm7.2-1.1l-1.6-2.8h3.1l-1.5 2.8z"/><path d="M19.5 0h-7.8l-.6 1.1-3 5.5h6l5.3 9.5L24 8l-4.5-8zm-9.3 5.3l1.5-2.8 1.6 2.8h-3.1zm2.4-4.1h6.2L22.6 8l-3.1 5.5-6.9-12.3z"/></symbol><symbol viewBox="0 0 4 20" fill-rule="evenodd" id="overflow-menu"><circle cx="2" cy="2" r="2"/><circle cx="2" cy="10" r="2"/><circle cx="2" cy="18" r="2"/></symbol><symbol viewBox="0 0 24 17" fill-rule="evenodd" id="purchase"><path d="M0 0v17h24V0H0zm22 15H2V8h20v7zM2 4V2h20v2H2z"/><path d="M3 13h4v1H3zm5 0h5v1H8z"/></symbol><symbol viewBox="0 0 18 24" fill-rule="evenodd" id="restart"><path d="M10.9 9.5l1.3 1.3 2.4-2.4L16 7l1.6-1.6L12.2 0l-1.3 1.3 3.3 3.1H9.5c-2.2 0-4.2.8-5.8 2C1.5 8.1 0 10.8 0 13.9c0 5.2 4.3 9.5 9.5 9.5 2.4 0 4.5-.9 6.2-2.3l-1.4-1.4c-1.3 1.1-3 1.7-4.8 1.7C5.4 21.4 2 18 2 13.9s3.4-7.5 7.5-7.5h4.8l-1.1 1-2.3 2.1z"/></symbol><symbol viewBox="0 0 12 16" fill-rule="evenodd" id="restart--glyph"><path d="M6 8l1.3 1.3 1.9-1.9L10.6 6 12 4.7 7.3 0 6 1.2l2.6 2.4H5.9c-1.7 0-3.3.8-4.4 2C.5 6.7 0 8.1 0 9.6c0 3.3 2.7 6 6 6 1.6 0 3-.6 4-1.6l-1.4-1.4c-.7.6-1.6 1-2.6 1-2.2 0-4-1.8-4-4s1.8-4 4-4h2.8l-.6.6L6 8z"/></symbol><symbol viewBox="0 0 25 25" fill-rule="evenodd" id="search"><path d="M16.036 18.455l2.404-2.405 5.586 5.587-2.404 2.404z"/><circle cx="16" cy="16" r="1"/><path d="M8.5 2C12.1 2 15 4.9 15 8.5S12.1 15 8.5 15 2 12.1 2 8.5 4.9 2 8.5 2zm0-2C3.8 0 0 3.8 0 8.5S3.8 17 8.5 17 17 13.2 17 8.5 13.2 0 8.5 0z"/></symbol><symbol viewBox="0 0 16 16" fill-rule="evenodd" id="search--glyph"><path d="M6 2c2.2 0 4 1.8 4 4s-1.8 4-4 4-4-1.8-4-4 1.8-4 4-4zm0-2C2.7 0 0 2.7 0 6s2.7 6 6 6 6-2.7 6-6-2.7-6-6-6zm10 13.8L13.8 16l-3.6-3.6 2.2-2.2z"/><path d="M16 13.8L13.8 16l-3.6-3.6 2.2-2.2z"/></symbol><symbol viewBox="0 0 16 24" fill-rule="evenodd" id="security"><path d="M13 9.8V5c0-2.8-2.2-5-5-5S3 2.2 3 5v4.8c-1.8 1.5-3 3.7-3 6.2 0 4.4 3.6 8 8 8s8-3.6 8-8c0-2.5-1.2-4.8-3-6.2zM4 5c0-2.2 1.8-4 4-4s4 1.8 4 4v4.1C10.8 8.4 9.5 8 8 8s-2.8.4-4 1.1V5zm4 18c-3.9 0-7-3.1-7-7s3.1-7 7-7 7 3.1 7 7-3.1 7-7 7z"/><path d="M9.6 14.4c0-.9-.7-1.6-1.6-1.6-.9 0-1.6.7-1.6 1.6 0 .5.2.9.6 1.2V18c0 .6.4 1 1 1s1-.5 1-1v-2.4c.3-.2.6-.7.6-1.2z"/></symbol><symbol viewBox="0 0 23 23" fill-rule="evenodd" id="services"><path d="M20.5 9c-1.4 0-2.5 1.1-2.5 2.5s1.1 2.5 2.5 2.5 2.5-1.1 2.5-2.5S21.9 9 20.5 9zm0 4c-.8 0-1.5-.7-1.5-1.5s.7-1.5 1.5-1.5 1.5.7 1.5 1.5c0 .9-.7 1.5-1.5 1.5zM5 11.5C5 10.1 3.9 9 2.5 9S0 10.1 0 11.5 1.1 14 2.5 14 5 12.9 5 11.5zM2.5 13c-.8 0-1.5-.6-1.5-1.5 0-.8.7-1.5 1.5-1.5s1.5.7 1.5 1.5c0 .9-.7 1.5-1.5 1.5zm9.5 5v-4c1.1-.2 2-1.2 2-2.5 0-1.2-.9-2.2-2-2.5V5c1.1-.2 2-1.2 2-2.5C14 1.1 12.9 0 11.5 0S9 1.1 9 2.5c0 1.2.9 2.2 2 2.5v4c-1.1.2-2 1.2-2 2.5 0 1.2.9 2.2 2 2.5v4c-1.1.2-2 1.2-2 2.5 0 1.4 1.1 2.5 2.5 2.5s2.5-1.1 2.5-2.5c0-1.2-.8-2.2-2-2.5zM10 2.5c0-.8.7-1.5 1.5-1.5s1.5.7 1.5 1.5S12.3 4 11.5 4 10 3.3 10 2.5zm0 9c0-.8.7-1.5 1.5-1.5s1.5.7 1.5 1.5-.7 1.5-1.5 1.5-1.5-.7-1.5-1.5zM11.5 22c-.8 0-1.5-.7-1.5-1.5s.7-1.5 1.5-1.5 1.5.7 1.5 1.5-.7 1.5-1.5 1.5z"/><path d="M9 6.5C9 5.1 7.9 4 6.5 4S4 5.1 4 6.5c0 1.2.9 2.2 2 2.5v5.1c-1.1.2-2 1.2-2 2.5S5.1 19 6.5 19 9 17.9 9 16.5c0-1.2-.9-2.2-2-2.5V8.9c1.1-.2 2-1.2 2-2.4zm-4 0C5 5.7 5.7 5 6.5 5S8 5.7 8 6.5 7.3 8 6.5 8 5 7.3 5 6.5zm3 10c0 .9-.7 1.5-1.5 1.5S5 17.4 5 16.5 5.7 15 6.5 15s1.5.7 1.5 1.5zm9-2.4V8.9c1.1-.2 2-1.2 2-2.5S17.9 4 16.5 4 14 5.1 14 6.5c0 1.2.9 2.2 2 2.5v5.1c-1.1.2-2 1.2-2 2.5 0 1.4 1.1 2.5 2.5 2.5S19 18 19 16.6c0-1.3-.8-2.3-2-2.5zm-2-7.6c0-.8.7-1.5 1.5-1.5s1.5.7 1.5 1.5S17.3 8 16.5 8 15 7.3 15 6.5zM16.5 18c-.8 0-1.5-.7-1.5-1.5s.7-1.5 1.5-1.5 1.5.7 1.5 1.5-.7 1.5-1.5 1.5z"/></symbol><symbol viewBox="0 0 24 24" fill-rule="evenodd" id="settings"><path d="M21.2 12c0-.5 0-1-.1-1.4L24 8l-2.5-4.1L18 5.1c-.8-.7-1.8-1.3-2.9-1.7L14.4 0H9.6l-.8 3.4c-1.1.4-2 1-2.9 1.7L2.5 3.9 0 8l2.9 2.6c-.1.4-.1.9-.1 1.4 0 .5 0 1 .1 1.4L0 16l2.5 4.1L6 18.9c.8.7 1.8 1.3 2.9 1.7l.7 3.4h4.8l.8-3.4c1.1-.4 2-1 2.9-1.7l3.5 1.1 2.4-4-2.9-2.6c.1-.4.1-.9.1-1.4zM12 15c-1.7 0-3-1.3-3-3s1.3-3 3-3 3 1.3 3 3-1.3 3-3 3z"/></symbol><symbol viewBox="0 0 24 24" fill-rule="evenodd" id="start"><path d="M8 17l9-5-9-5z"/><path d="M12 2c5.5 0 10 4.5 10 10s-4.5 10-10 10S2 17.5 2 12 6.5 2 12 2zm0-2C5.4 0 0 5.4 0 12s5.4 12 12 12 12-5.4 12-12S18.6 0 12 0z"/></symbol><symbol viewBox="0 0 24 24" fill-rule="evenodd" id="stop"><path d="M8 8h8v8H8z"/><path d="M12 2c5.5 0 10 4.5 10 10s-4.5 10-10 10S2 17.5 2 12 6.5 2 12 2zm0-2C5.4 0 0 5.4 0 12s5.4 12 12 12 12-5.4 12-12S18.6 0 12 0z"/></symbol><symbol viewBox="0 0 24 24" fill-rule="evenodd" id="storage"><path d="M11.9 1.3c5.4 0 9.3 1 10.6 1.7-1.3.7-4.9 1.6-10.6 1.6-5.6 0-9.1-1-10.3-1.6 1.1-.7 4.7-1.7 10.3-1.7zm0-1.3C5.1 0 0 1.4 0 3s5.1 3 11.9 3C18.7 6 24 4.6 24 3s-5.4-3-12.1-3zm.1 18c-4.5 0-12-.7-12-3.2V12h1.2v2.9c0 .5 3.3 2 10.8 2 7.1 0 10.8-1.4 10.8-2V12H24v2.9c0 2.4-7.5 3.1-12 3.1zm0 6c-4.5 0-12-.7-12-3.2V18h1.2v2.8c0 .5 3.3 2 10.8 2 7.1 0 10.8-1.4 10.8-2V18H24v2.8c0 2.5-7.5 3.2-12 3.2zm0-12c-4.4 0-12-.7-12-3.2V6h1.2v2.8c0 .5 3.3 2 10.8 2 7.5 0 10.8-1.4 10.8-2V6H24v2.8c0 2.5-7.5 3.2-12 3.2z"/></symbol><symbol viewBox="0 0 16 16" fill-rule="evenodd" id="subtract--glyph"><path d="M8 0C3.6 0 0 3.6 0 8s3.6 8 8 8 8-3.6 8-8-3.6-8-8-8zm4 7v2H4V7"/></symbol><symbol viewBox="0 0 18 24" fill-rule="evenodd" id="unlocked"><path d="M9 6.5c-1.6 0-3.1.4-4.4 1.2V6.5c0-2.3 2-4.4 4.4-4.4 1.2 0 2.3.5 3.1 1.3l1.5-1.5C12.4.8 10.8 0 9 0 5.5 0 2.5 3 2.5 6.5v3C1.1 11 .3 13 .3 15.3.3 20.1 4.2 24 9 24c4.8 0 8.7-3.9 8.7-8.7 0-4.8-3.9-8.8-8.7-8.8zm4 11.3l-1.5 1.5L9 16.8l-2.5 2.5L5 17.8l2.5-2.5L5 12.8l1.5-1.5L9 13.7l2.5-2.5 1.5 1.6-2.5 2.5 2.5 2.5z"/></symbol><symbol viewBox="0 0 24 24" fill-rule="evenodd" id="upload"><path d="M5 6.6l1.2 1.1L11 3v13h2V3l4.8 4.7L19 6.6 12 0z"/><path d="M22 14v6H2v-6H0v10h24V14z"/></symbol><symbol viewBox="0 0 32 32" fill-rule="evenodd" id="user"><path d="M16 6.4c3.9 0 7 3.1 7 7s-3.1 7-7 7-7-3.1-7-7 3.1-7 7-7zm0-2c-5 0-9 4-9 9s4 9 9 9 9-4 9-9-4-9-9-9z"/><path d="M16 0C7.2 0 0 7.2 0 16s7.2 16 16 16 16-7.2 16-16S24.8 0 16 0zm7.3 24.3H8.7c-1.2 0-2.2.5-2.8 1.3C3.5 23.1 2 19.7 2 16 2 8.3 8.3 2 16 2s14 6.3 14 14c0 3.7-1.5 7.1-3.9 9.6-.6-.8-1.7-1.3-2.8-1.3z"/></symbol><symbol viewBox="0 0 24 21" fill-rule="evenodd" id="warning"><path d="M12 0L0 21h24L12 0zm0 3l9 16H3l9-16z"/><path d="M11.2 8.4V10l.4 4h.8l.4-4V8.4z"/><circle cx="12" cy="16" r=".8"/></symbol><symbol viewBox="0 0 16 16" fill-rule="evenodd" id="warning--glyph"><path d="M8 1L0 15h16L8 1zm-.8 5h1.5v1.4L8.3 11h-.8l-.4-3.6V6h.1zm.8 8c-.6 0-1-.4-1-1s.4-1 1-1 1 .4 1 1-.4 1-1 1z"/></symbol><symbol viewBox="0 0 24 23" fill-rule="evenodd" id="watson"><path d="M15.9 8c-1.2-.7-2.6-1-3.9-1-2.8 0-5.5 1.5-7 4.1-2.2 3.8-.8 8.7 3.1 10.9 1.2.7 2.6 1 3.9 1 2.8 0 5.5-1.5 7-4.1 2.2-3.9.8-8.7-3.1-10.9zm-9.5 3.2c.7-1 1.9-1.7 3.4-1.8h.4c.4 0 .7 0 1.1.1-.9.9-1.8 2.1-2.7 3.5-.7 1.3-1.2 2.5-1.6 3.6-1.3-1.8-1.6-3.9-.6-5.4zm2 9.5c-.4-.2-.6-.8-.6-1.6.3.3.7.6 1.1.8.3.2.7.4 1.1.6-.7.3-1.3.4-1.6.2zm1.1-1.8c-.6-.4-1.1-.8-1.5-1.2.2-1.2.8-2.6 1.6-4.1.9-1.6 2-2.9 3-3.7.7.2 1.4.6 2 1 .4.2.7.5 1 .7-.2 1.4-.8 3-1.7 4.5-.9 1.6-1.9 2.8-2.9 3.6-.5-.2-1-.5-1.5-.8zm5.7-10c.3.2.5.6.5 1.3-.1-.1-.3-.2-.4-.3-.5-.3-1-.6-1.5-.8.3-.2.7-.3.9-.3.2 0 .4.1.5.1zm-.2 7.8c.8-1.4 1.4-2.8 1.7-4.1 1.7 1.9 2.3 4.3 1.2 6-.7 1-1.9 1.7-3.4 1.8-.7 0-1.4-.1-2.1-.2.8-1 1.8-2.1 2.6-3.5zm3.6-3.6c0 .1.1.3.1.4-.4-.8-1.1-1.6-1.8-2.4v-.9c.8.8 1.4 1.8 1.7 2.9zm-6.6-5c.4 0 .7 0 1.1.1-.2.1-.4.2-.6.4-.7-.2-1.3-.3-1.9-.3.4-.1.9-.2 1.4-.2zm-6.6 8.7c-.1-.5-.2-.9-.2-1.4.4.9.9 1.8 1.6 2.6-.1.5-.1.9-.1 1.3-.6-.7-1.1-1.5-1.3-2.5zm4.8 4.8c.3-.2.7-.4 1-.6.9.3 1.9.5 2.8.5h.1c-.7.2-1.4.4-2.2.4-.5 0-1.1-.1-1.7-.3zM12 5c-.3 0-.6-.3-.6-.6V.6c0-.3.3-.6.6-.6s.6.3.6.6v3.8c0 .3-.2.6-.6.6zM3.8 9c-.1 0-.2 0-.3-.1L.3 7.1c-.3-.2-.4-.6-.2-.9.1-.2.5-.3.8-.2l3.2 1.9c.3.2.4.5.2.8-.1.2-.3.3-.5.3zm16.4 0c-.2 0-.4-.1-.5-.3-.2-.3-.1-.7.2-.8L23.1 6c.3-.2.7-.1.8.2.2.3.1.7-.2.8l-3.2 1.9c-.1.1-.2.1-.3.1zM7.4 6c-.2 0-.4-.1-.5-.3l-2.1-3c-.2-.3-.2-.7.1-.9.3-.1.6-.1.8.2l2.1 3c.3.3.2.7-.1.9-.1.1-.2.1-.3.1zm9.2 0c-.1 0-.2 0-.3-.1-.3-.2-.4-.6-.2-.9l2.1-3c.2-.3.6-.3.8-.1.3.2.3.6.1.8l-2.1 3c0 .2-.2.3-.4.3z"/></symbol></svg>