<svg xmlns="http://www.w3.org/2000/svg" width="20" height="20" fill-rule="evenodd" viewBox="0 0 20 20">
  <path fill="#242424" d="M4.093 16.706C2.25 16.498.695 15.22.183 13.493-.377 11.61.386 9.577 2.06 8.5c.236-.15.696-.392.764-.4.004 0 .03-.216.056-.48.164-1.595 1.016-2.984 2.362-3.853C7.224 2.49 9.726 2.61 11.62 4.08c.197.153.482.423.634.6l.276.325.37-.026c2.158-.16 4.166 1.21 4.774 3.24.09.3.205 1 .205 1.25 0 .03.12.13.27.22.35.21.88.7 1.14 1.04.78 1.07.93 2.56.35 3.76-.5 1.04-1.46 1.81-2.63 2.112l-.38.097-6.11.006c-3.36.005-6.26-.01-6.45-.03zm12.62-1.405c.878-.22 1.582-.9 1.816-1.76.08-.3.08-.9 0-1.21-.25-.89-1.04-1.61-1.95-1.78l-.3-.05.08-.3c.12-.44.08-1.22-.07-1.68-.32-.94-1.1-1.7-2.08-2.02-.31-.1-.42-.11-1-.11-.59 0-.69.01-1.01.12-.2.065-.36.11-.36.108l-.13-.25c-.53-1.035-1.56-1.8-2.71-2.03-.44-.086-1.15-.086-1.6 0-1.52.304-2.76 1.5-3.07 2.98-.11.506-.087 1.33.043 1.73.02.057-.02.077-.21.1-1.18.15-2.24 1.015-2.62 2.136-.16.49-.19 1.206-.06 1.707.3 1.14 1.18 2.006 2.33 2.296.33.08.56.083 6.49.084 5.24 0 6.19-.008 6.4-.06z"/>
</svg>
