<svg xmlns="http://www.w3.org/2000/svg" width="20" height="20" fill-rule="evenodd" viewBox="0 0 20 20">
  <path fill="#242424" d="M10 0A10 10 0 0 0 0 10a10 10 0 0 0 10 10 10 10 0 0 0 10-10A10 10 0 0 0 10 0zm-.96 5.285c.693.037 1.38.308 1.972.81.122.103.3.288.394.41l.172.22.23-.018c1.347-.104 2.6.825 2.98 2.21.055.204.126.685.126.856 0 .023.08.093.174.155.22.143.552.477.71.713.492.73.58 1.75.223 2.568-.307.71-.906 1.234-1.64 1.44l-.233.064-3.81.01c-2.096.002-3.906-.01-4.022-.023-1.15-.143-2.12-1.013-2.44-2.19-.348-1.284.13-2.667 1.173-3.4.147-.104.434-.268.476-.274.003 0 .02-.147.036-.326.1-1.088.63-2.035 1.47-2.627.62-.435 1.32-.632 2.01-.595z" paint-order="stroke fill markers"/>
</svg>
