<?xml version="1.0" encoding="utf-8"?><!DOCTYPE svg PUBLIC "-//W3C//DTD SVG 1.1//EN" "http://www.w3.org/Graphics/SVG/1.1/DTD/svg11.dtd"><svg xmlns="http://www.w3.org/2000/svg" xmlns:xlink="http://www.w3.org/1999/xlink"><symbol viewBox="-631 392 17 17" id="app-actions--favorite_icon"><title>Shape</title><path d="M-614.9 398.8c0-.2-.2-.4-.5-.5l-4.7-.7-2.1-4.5c-.1-.3-.3-.4-.5-.4s-.3.1-.5.4l-2.1 4.5-4.7.7c-.3.1-.5.2-.5.5 0 .1.1.3.2.5l3.4 3.5-.8 5v.2c0 .1 0 .3.1.4.1.1.2.1.3.1.1 0 .2 0 .4-.1l4.2-2.4 4.2 2.4c.1.1.3.1.4.1.1 0 .2 0 .3-.1.1-.1.1-.2.1-.4v-.2l-.8-5 3.4-3.5c.1-.2.2-.4.2-.5z"/></symbol><symbol viewBox="-630 393 18 16" id="app-actions--go_to_icon"><title>goto</title><path d="M-619.6 393.6v1.9h4.2l-1.1 1.2h-13.1v11.7h14.4V398l1.1-1.2v4.3h1.8v-7.5h-7.3zm3.1 13.9h-12.2v-9.8h11.2l-3.7 3.8 1.3 1.3 3.4-3.5v8.2z"/></symbol><symbol viewBox="0 0 12 60" id="app-actions--overflow_menu_icon"><g transform="rotate(90 6 6)" fill="#000" fill-rule="evenodd"><circle cx="6" cy="6" r="6"/><circle cx="30" cy="6" r="6"/><circle cx="54" cy="6" r="6"/></g></symbol><symbol viewBox="-633 392 13 17" id="app-actions--restart_icon"><title>reset-revert</title><path d="M-632.097 401.978c0-3.4 2.8-6.2 6.3-6.2h3.5l-2.3-2.2.7-.7 3.5 3.5-3.5 3.5-.7-.7 2.3-2.2h-3.5c-2.9 0-5.3 2.3-5.3 5.2 0 2.9 2.4 5.2 5.3 5.2 1.4 0 2.7-.5 3.7-1.5l.7.7c-1.2 1.2-2.8 1.8-4.5 1.8-3.4-.2-6.2-3-6.2-6.4z"/></symbol><symbol viewBox="0 0 32 32" id="common--add"><path d="M17 9h-2v6H9v2h6v6h2v-6h6v-2h-6z"/><path d="M16 2C8.27 2 2 8.27 2 16s6.27 14 14 14 14-6.27 14-14S23.73 2 16 2zm0 26C9.383 28 4 22.617 4 16S9.383 4 16 4s12 5.383 12 12-5.383 12-12 12z"/></symbol><symbol viewBox="-632 394 15 14" id="common--arrows"><title>Triangle 1 + Rectangle 914 + Triangle 1 Copy + Rectangle 914 Copy</title><path d="M-628.2 394.8l3.8 4.3h-7.5m2.4.1h2.5v8.7h-2.5v-8.7zM-621.1 407.8l-3.8-4.3h7.5m-2.5 0h-2.5v-8.7h2.5v8.7z"/></symbol><symbol viewBox="0 0 32 32" id="common--cancel"><path d="M20.293 10.293L16 14.586l-4.293-4.293-1.414 1.414L14.586 16l-4.293 4.293 1.414 1.414L16 17.414l4.293 4.293 1.414-1.414L17.414 16l4.293-4.293z"/><path d="M16 2C8.27 2 2 8.27 2 16s6.27 14 14 14 14-6.27 14-14S23.73 2 16 2zm0 26C9.383 28 4 22.617 4 16S9.383 4 16 4s12 5.383 12 12-5.383 12-12 12z"/></symbol><symbol viewBox="0 0 56 56" id="common--close"><path fill-rule="evenodd" d="M39.314 19.515l-2.83-2.83L28 25.173l-8.485-8.486-2.83 2.83L25.173 28l-8.486 8.485 2.83 2.83L28 30.827l8.485 8.486 2.83-2.83L30.827 28z"/></symbol><symbol viewBox="0 0 32 32" id="common--configure"><path d="M12.858 7C12.412 5.278 10.86 4 9 4S5.588 5.278 5.142 7H1v2h4.142C5.588 10.722 7.14 12 9 12s3.412-1.278 3.858-3H31V7H12.858zM9 9a1 1 0 1 1 0-2 1 1 0 0 1 0 2zM23 12a3.99 3.99 0 0 0-3.858 3H1v2h18.142c.446 1.722 1.997 3 3.858 3s3.412-1.278 3.858-3H31v-2h-4.142A3.99 3.99 0 0 0 23 12zm0 5a1 1 0 1 1 0-2 1 1 0 0 1 0 2zM9 20a3.99 3.99 0 0 0-3.858 3H1v2h4.142C5.588 26.722 7.14 28 9 28s3.412-1.278 3.858-3H31v-2H12.858A3.99 3.99 0 0 0 9 20zm0 5a1 1 0 1 1 0-2 1 1 0 0 1 0 2z"/></symbol><symbol viewBox="0 0 44 60" id="common--copy"><title>copy_64 12.08.19 PM</title><g fill="#000" fill-rule="evenodd"><path d="M32 12V0H0v48h12v12h32V12H32zM12 46H2V2h28v10H12v34zm30 12H14V14h28v44z"/><path d="M20 24h16v2H20zM20 28h16v2H20zM20 32h16v2H20zM20 36h8v2h-8z"/></g></symbol><symbol viewBox="0 0 56 56" id="common--create"><title>Shape</title><path d="M32 0h-8v24H0v8h24v24h8V32h24v-8H32V0z" fill="#000" fill-rule="evenodd"/></symbol><symbol viewBox="0 0 32 32" id="common--delete"><path d="M12 2h8v2h-8zM6 5v5h1v20h18V10h1V5H6zm17 23H9V12h14v16z"/><path d="M11 14h1v12h-1zM14 14h1v12h-1zM17 14h1v12h-1zM20 14h1v12h-1z"/></symbol><symbol viewBox="0 0 32 32" id="common--deploy"><path d="M30.707 8.293L24 1.586l-6.707 6.707 1.414 1.414L23 5.414V19c0 5.514-4.486 10-10 10S3 24.514 3 19c0-2.67 1.04-5.182 2.93-7.07l-1.415-1.415A11.92 11.92 0 0 0 1 19c0 6.617 5.383 12 12 12s12-5.383 12-12V5.414l4.293 4.293 1.414-1.414z"/><circle cx="13" cy="19" r="3"/></symbol><symbol viewBox="0 0 32 32" id="common--download"><path d="M24.708 13.707l-1.414-1.415L17 18.587V2h-2v16.585l-6.292-6.293-1.414 1.415L16 22.414z"/><path d="M29 19v8H3v-8H1v12h30V19z"/></symbol><symbol viewBox="0 0 32 32" id="common--edit"><path d="M22 4l3-3 6 6-3 3zM5 21l6 6 15-15-6-6L5 21zm6 3.17L7.828 21 20 8.83 23.172 12 11 24.17zM1 31l5-2-3-3z"/></symbol><symbol viewBox="-632 393 15 15" id="common--grid"><title>Group</title><path d="M-632 393h7v7h-7v-7zm0 8h7v7h-7v-7zm8-8h7v7h-7v-7zm0 8h7v7h-7v-7z"/></symbol><symbol viewBox="0 0 32 32" id="common--group"><path d="M8 23c2.762 0 5-2.238 5-5s-2.238-5-5-5-5 2.238-5 5 2.238 5 5 5zm0-8c1.654 0 3 1.346 3 3s-1.346 3-3 3-3-1.346-3-3 1.346-3 3-3zM19 18c0 2.762 2.238 5 5 5s5-2.238 5-5-2.238-5-5-5-5 2.238-5 5zm5-3c1.654 0 3 1.346 3 3s-1.346 3-3 3-3-1.346-3-3 1.346-3 3-3zM21 7c0-2.762-2.238-5-5-5s-5 2.238-5 5 2.238 5 5 5 5-2.238 5-5zm-5 3c-1.654 0-3-1.346-3-3s1.346-3 3-3 3 1.346 3 3-1.346 3-3 3zM12 25H4a2 2 0 0 0-2 2v3h12v-3a2 2 0 0 0-2-2zM28 25h-8a2 2 0 0 0-2 2v3h12v-3a2 2 0 0 0-2-2z"/></symbol><symbol viewBox="0 0 32 32" id="common--healthy"><path d="M14 18.586l-3.293-3.293-1.414 1.414L14 21.414l8.707-8.707-1.414-1.414z"/><path d="M16 2C8.27 2 2 8.27 2 16s6.27 14 14 14 14-6.27 14-14S23.73 2 16 2zm0 26C9.383 28 4 22.617 4 16S9.383 4 16 4s12 5.383 12 12-5.383 12-12 12z"/></symbol><symbol viewBox="0 0 32 32" id="common--help"><path d="M16 2C8.27 2 2 8.27 2 16s6.27 14 14 14 14-6.27 14-14S23.73 2 16 2zm7 14a7.02 7.02 0 0 1-7 7 7.022 7.022 0 0 1-7-7 7.025 7.025 0 0 1 7-7 7.022 7.022 0 0 1 7 7zm-3.714-7.286C18.282 8.26 17.172 8 16 8s-2.282.26-3.286.714L9.766 5.766C11.586 4.653 13.716 4 16 4s4.414.653 6.234 1.766l-2.948 2.948zM8.714 19.286l-2.948 2.948C4.653 20.414 4 18.284 4 16s.653-4.415 1.766-6.234l2.948 2.948C8.26 13.718 8 14.828 8 16s.26 2.282.714 3.286zm4 4C13.718 23.74 14.828 24 16 24s2.282-.26 3.286-.714l2.948 2.948C20.414 27.347 18.284 28 16 28s-4.414-.653-6.234-1.766l2.948-2.948zm10.572-10.572l2.948-2.948C27.347 11.586 28 13.716 28 16s-.653 4.415-1.766 6.234l-2.948-2.948C23.74 18.282 24 17.172 24 16s-.26-2.282-.714-3.286z"/></symbol><symbol viewBox="0 0 32 32" id="common--link"><path d="M28.95 3.05C27.683 1.784 25.933 1 24 1s-3.683.784-4.95 2.05l-3 3A6.982 6.982 0 0 0 14 11c0 1.206.286 2.36.808 3.364l-.443.443A7.316 7.316 0 0 0 11 14a6.982 6.982 0 0 0-4.95 2.05l-3 3C1.784 20.317 1 22.067 1 24s.784 3.683 2.05 4.95S6.067 31 8 31s3.683-.784 4.95-2.05l3-3A6.982 6.982 0 0 0 18 21c0-1.206-.286-2.36-.808-3.364l.443-.443c1.006.52 2.16.807 3.365.807a6.982 6.982 0 0 0 4.95-2.05l3-3C30.216 11.683 31 9.933 31 8s-.784-3.683-2.05-4.95zM16 21a4.97 4.97 0 0 1-1.464 3.536l-3 3C10.59 28.48 9.336 29 8 29s-2.59-.52-3.536-1.464C3.52 26.59 3 25.336 3 24s.52-2.59 1.464-3.536l3-3A4.97 4.97 0 0 1 11 16c.642 0 1.264.122 1.84.332l-4.254 4.254 2.828 2.828 4.254-4.254c.21.576.332 1.198.332 1.84zm11.536-9.464l-3 3A4.97 4.97 0 0 1 21 16a5.376 5.376 0 0 1-1.84-.332l4.254-4.254-2.828-2.828-4.254 4.254A5.376 5.376 0 0 1 16 11c0-1.335.52-2.59 1.464-3.536l3-3C21.41 3.52 22.664 3 24 3s2.59.52 3.536 1.464C28.48 5.41 29 6.664 29 8s-.52 2.59-1.464 3.536z"/></symbol><symbol viewBox="0 0 32 32" id="common--monitor"><path d="M1 4v24h30V4H1zm28 22H3V10h26v16z"/><path d="M16 24c4.484 0 7.9-2.417 10-6-2.1-3.583-5.516-6-10-6s-7.9 2.417-10 6c2.1 3.583 5.516 6 10 6zm0-11c3.627 0 6.74 1.77 8.826 5-2.086 3.23-5.2 5-8.826 5s-6.74-1.77-8.826-5c2.086-3.23 5.2-5 8.826-5z"/><path d="M16 21.5c1.934 0 3.5-1.566 3.5-3.5s-1.566-3.5-3.5-3.5a3.5 3.5 0 0 0 0 7zm0-4.667c.646 0 1.166.522 1.166 1.167a1.165 1.165 0 0 1-2.332 0c0-.645.52-1.167 1.166-1.167z"/></symbol><symbol viewBox="0 0 62 54" id="common--previous"><title>Shape</title><path d="M32.486 5.658L26.828 0 0 26.83l26.828 26.828L32.486 48 15.314 30.83h46.343v-8H15.314L32.486 5.657z" fill="#000" fill-rule="evenodd"/></symbol><symbol viewBox="0 0 32 32" id="common--purchase"><path d="M1 6v20h30V6H1zm28 2v2H3V8h26zM3 24V13h26v11H3z"/><path d="M5 21h4v1H5zM10 21h4v1h-4z"/></symbol><symbol viewBox="0 0 32 32" id="common--restart"><path d="M17 29c-5.514 0-10-4.486-10-10S11.486 9 17 9h6.586l-4.293 4.293 1.414 1.414L27.414 8l-6.707-6.707-1.414 1.414L23.586 7H17C10.383 7 5 12.383 5 19s5.383 12 12 12a11.92 11.92 0 0 0 8.485-3.515L24.07 26.07A9.934 9.934 0 0 1 17 29z"/></symbol><symbol viewBox="0 0 32 32" id="common--running"><path d="M11 11a5 5 0 1 0 0 10 5 5 0 0 0 0-10zm0 7a2 2 0 1 1 0-4 2 2 0 0 1 0 4z"/><path d="M30.12 6.88A2.995 2.995 0 0 0 28 6H11C8.24 6 5.74 7.12 3.93 8.93 2.12 10.737 1 13.237 1 16s1.12 5.262 2.93 7.07A9.968 9.968 0 0 0 11 26a9.992 9.992 0 0 0 7.07-2.93.018.018 0 0 0 .005-.004C21.085 20.068 30.12 11.12 30.12 11.12c.545-.54.88-1.29.88-2.12s-.335-1.58-.88-2.12zM16.66 21.65A7.973 7.973 0 0 1 11 24a7.948 7.948 0 0 1-5.657-2.343C3.833 20.147 3 18.137 3 16s.832-4.146 2.343-5.657A7.948 7.948 0 0 1 11 8c2.05 0 4.097.783 5.657 2.343 3.117 3.118 3.118 8.19.004 11.31zm4.222-4.19c.444-3.023-.485-6.207-2.81-8.534A10.09 10.09 0 0 0 16.98 8h8.2a2.99 2.99 0 0 0 .697 3.12c.245.247.527.43.823.572a9370.67 9370.67 0 0 0-5.82 5.77zM28 10a1 1 0 1 1 0-2 1 1 0 0 1 0 2z"/></symbol><symbol viewBox="0 0 32 32" id="common--search"><path d="M12 1C5.926 1 1 5.926 1 12s4.926 11 11 11 11-4.926 11-11S18.074 1 12 1zm0 20c-4.962 0-9-4.038-9-9s4.038-9 9-9 9 4.038 9 9-4.038 9-9 9zM21 24l3-3 7 7-3 3z"/><circle cx="21" cy="21" r="1"/></symbol><symbol viewBox="-627 389 24 24" id="common--search-sm"><path d="M-618 392c3.3 0 6 2.7 6 6s-2.7 6-6 6-6-2.7-6-6 2.7-6 6-6m0-2c-4.4 0-8 3.6-8 8s3.6 8 8 8 8-3.6 8-8-3.6-8-8-8zm6 17l3-3 5 5-3 3-5-5z"/></symbol><symbol viewBox="0 0 32 32" id="common--settings"><path d="M20.433 12c0-.45-.045-.89-.114-1.322L23 8.333l-2.277-3.738-3.197 1.044A8.407 8.407 0 0 0 14.91 4.09L14.2 1H9.8l-.71 3.092A8.42 8.42 0 0 0 6.475 5.64L3.277 4.595 1 8.333l2.68 2.346c-.068.43-.113.87-.113 1.32s.045.89.113 1.32L1 15.668l2.278 3.738 3.196-1.044a8.393 8.393 0 0 0 2.618 1.548L9.8 23h4.4l.708-3.092a8.388 8.388 0 0 0 2.617-1.547l3.196 1.045L23 15.667l-2.68-2.345c.068-.432.113-.87.113-1.322zM12 15a3 3 0 0 1 0-6 3 3 0 0 1 0 6z"/></symbol><symbol viewBox="0 0 32 32" id="common--start"><path d="M16 2C8.27 2 2 8.27 2 16s6.27 14 14 14 14-6.27 14-14S23.73 2 16 2zm0 26C9.383 28 4 22.617 4 16S9.383 4 16 4s12 5.383 12 12-5.383 12-12 12z"/><path d="M11 22l12-6-12-6z"/></symbol><symbol viewBox="0 0 32 32" id="common--stop"><path d="M16 2C8.27 2 2 8.27 2 16s6.27 14 14 14 14-6.27 14-14S23.73 2 16 2zm0 26C9.383 28 4 22.617 4 16S9.383 4 16 4s12 5.383 12 12-5.383 12-12 12z"/><path d="M11 11h10v10H11z"/></symbol><symbol viewBox="0 0 32 32" id="common--tile-view"><path d="M19 3h10v10H19z"/><path d="M17 3H3v26h26V15H17V3zm-2 24H5V17h10v10zm12-10v10H17V17h10zM5 15V5h10v10H5z"/></symbol><symbol viewBox="0 0 32 32" id="common--user"><path d="M16 21c5.523 0 10-4.477 10-10S21.523 1 16 1 6 5.477 6 11s4.477 10 10 10zm0-18c4.41 0 8 3.59 8 8s-3.59 8-8 8-8-3.59-8-8 3.59-8 8-8zm8 20H8a4 4 0 0 0-4 4v4h24v-4a4 4 0 0 0-4-4z"/></symbol><symbol viewBox="0 0 60 52" id="common--warning"><title>warning_64</title><g fill="#000" fill-rule="evenodd"><path d="M30 0L0 52h60L30 0zm0 4.002L56.537 50H3.463L30 4.002z"/><path d="M28 22v4l1 10h2l1-10v-4h-4z"/><circle cx="30" cy="40" r="2"/></g></symbol><symbol id="runtime--go" viewBox="-607 369 64 64"><style>.bhst0{fill:none}.bhst1{enable-background:new}.bhst2{fill:#734098}</style><path class="bhst0" d="M-607.8 385.3h64.8v47h-64.8z"/><g class="bhst1"><path class="bhst2" d="M-599.4 405.5h5.7v5.5h-5.7v-5.5zM-573.5 409.8c0 3.1-1.1 8.2-9.6 8.2-3.7 0-7.9-1.8-8.2-6h5.1c.5 1.9 2 2.6 3.8 2.6 2.8 0 4.1-1.9 4.1-4.6v-2.4h-.1c-1.1 2-3.3 2.9-5.6 2.9-5.6 0-8-4.2-8-9.4 0-4.8 2.8-9.2 8-9.2 2.4 0 4.3.8 5.5 3h.1v-2.5h4.9v17.4zm-4.8-8.3c0-3-1-5.7-4.4-5.7-2.9 0-4.1 2.5-4.1 5.3 0 2.7 1 5.6 4.1 5.6 2.9-.1 4.4-2.6 4.4-5.2zM-561.2 391.9c5.9 0 9.6 3.9 9.6 9.8s-3.8 9.8-9.6 9.8-9.6-3.9-9.6-9.8 3.7-9.8 9.6-9.8zm0 15.8c3.5 0 4.5-3 4.5-5.9 0-3-1-6-4.5-6s-4.5 3-4.5 6c0 2.9 1 5.9 4.5 5.9z"/></g></symbol><symbol id="runtime--java" viewBox="-607 369 64 64"><style>.bist0{fill:none}.bist1{enable-background:new}.bist2{fill:#5596e6}</style><path class="bist0" d="M-608.5 389.3h64.8v47h-64.8z"/><g class="bist1"><path class="bist2" d="M-605.7 406.1h4.7v4.6h-4.7v-4.6zM-600.7 412.6c.2.1.5.1.9.1.9 0 1.6-.2 1.6-1.4v-16.1h4.3v16.3c0 3.2-1.2 4.7-5.5 4.7-.4 0-.9 0-1.4-.1v-3.5zm6.8-19.8h-4.3v-3.5h4.3v3.5zM-591.2 400c.2-4 3.8-5.2 7.3-5.2 3.1 0 6.8.7 6.8 4.4v8.1c0 1.4.1 2.8.5 3.5h-4.3c-.1-.5-.3-1-.3-1.5-1.4 1.4-3.3 1.9-5.2 1.9-3 0-5.3-1.5-5.3-4.6.1-7 10.5-3.3 10.3-6.8 0-1.8-1.3-2.1-2.8-2.1-1.6 0-2.7.7-2.8 2.3h-4.2zm9.9 3.1c-.7.6-2.2.7-3.5.9-1.3.2-2.5.7-2.5 2.3 0 1.6 1.2 2 2.6 2 3.3 0 3.4-2.6 3.4-3.6v-1.6zM-566.1 410.7h-4.7l-5.3-15.5h4.5l3.3 10.6h.1l3.3-10.6h4.2l-5.4 15.5zM-560.3 400c.2-4 3.8-5.2 7.3-5.2 3.1 0 6.8.7 6.8 4.4v8.1c0 1.4.1 2.8.5 3.5h-4.3c-.1-.5-.3-1-.3-1.5-1.3 1.4-3.3 1.9-5.2 1.9-3 0-5.3-1.5-5.3-4.6.1-7 10.5-3.3 10.3-6.8 0-1.8-1.3-2.1-2.8-2.1-1.7 0-2.7.7-2.8 2.3h-4.2zm9.8 3.1c-.7.6-2.2.7-3.5.9-1.3.2-2.5.7-2.5 2.3 0 1.6 1.2 2 2.6 2 3.3 0 3.5-2.6 3.5-3.6v-1.6z"/></g></symbol><symbol viewBox="0 0 64 64" id="runtime--javaliberty"><g fill="#5596E6"><path d="M2.1 30.3h4.7v4.6H2.1v-4.6zM7.1 36.8c.2.1.5.1.9.1.9 0 1.6-.2 1.6-1.4V19.4h4.3v16.3c0 3.2-1.2 4.7-5.5 4.7-.5 0-.9 0-1.4-.1v-3.5zM13.9 17H9.7v-3.5H14V17zM16.6 24.2c.2-4 3.8-5.2 7.3-5.2 3.1 0 6.8.7 6.8 4.4v8.1c0 1.4.1 2.8.5 3.5h-4.3c-.2-.5-.3-1-.3-1.5-1.4 1.4-3.3 1.9-5.2 1.9-3 0-5.3-1.5-5.3-4.6.1-7 10.5-3.3 10.3-6.8 0-1.8-1.3-2.1-2.8-2.1-1.6 0-2.7.7-2.8 2.3h-4.2zm9.9 3.1c-.7.6-2.2.7-3.5.9-1.3.2-2.5.7-2.5 2.3 0 1.6 1.2 2 2.6 2 3.3 0 3.4-2.6 3.4-3.6v-1.6zM41.7 34.9H37l-5.3-15.5h4.5L39.4 30h.1l3.3-10.6H47l-5.3 15.5zM47.5 24.2c.2-4 3.8-5.2 7.3-5.2 3.1 0 6.8.7 6.8 4.4v8.1c0 1.4.1 2.8.5 3.5h-4.3c-.2-.5-.3-1-.3-1.5-1.4 1.4-3.3 1.9-5.2 1.9-3 0-5.3-1.5-5.3-4.6.1-7 10.5-3.3 10.3-6.8 0-1.8-1.3-2.1-2.8-2.1-1.6 0-2.7.7-2.8 2.3h-4.2zm9.8 3.1c-.7.6-2.2.7-3.5.9-1.3.2-2.5.7-2.5 2.3 0 1.6 1.2 2 2.6 2 3.3 0 3.5-2.6 3.5-3.6v-1.6zM16 39.5h2.3v11.4H16V39.5zM22.1 41.4h-2.3v-1.9h2.3v1.9zm-2.3 1.2h2.3v8.3h-2.3v-8.3zM23.7 39.5H26v4.2c.6-.8 1.6-1.2 2.6-1.2 1.6 0 3.4 1.3 3.4 4.4s-1.8 4.4-3.4 4.4c-1.2 0-2.2-.4-2.7-1.3v1.1h-2.2V39.5zm4.1 4.6c-1.3 0-1.9 1.2-1.9 2.7 0 1.4.6 2.6 1.9 2.6s1.9-1.3 1.9-2.6c.1-1.4-.5-2.7-1.9-2.7zM35.1 47.3c.1 1.5.8 2.1 2 2.1.9 0 1.6-.6 1.8-1.1h2c-.6 2-2 2.8-3.9 2.8-2.6 0-4.2-1.8-4.2-4.4 0-2.5 1.7-4.4 4.2-4.4 2.8 0 4.2 2.4 4 4.9h-5.9zm3.7-1.4c-.2-1.2-.7-1.8-1.8-1.8-1.5 0-1.8 1.1-1.9 1.8h3.7zM42.3 42.6h2.2v1.5c.4-1 1.5-1.8 2.6-1.8.2 0 .3 0 .5.1v2.1c-.2 0-.5-.1-.8-.1-1.7 0-2.2 1.2-2.2 2.7v3.7h-2.3v-8.2zM52.2 42.6h1.7v1.5h-1.7v4.1c0 .8.2 1 1 1 .3 0 .5 0 .7-.1v1.8c-.4.1-.9.1-1.4.1-1.4 0-2.6-.3-2.6-2v-4.9h-1.4v-1.5h1.4v-2.5h2.3v2.5zM59.6 52c-.5 1.3-1.3 1.9-2.8 1.9-.5 0-.9 0-1.4-.1v-1.9c.4 0 .9.1 1.3.1.6-.1.9-.5.9-1 0-.2 0-.4-.1-.5l-2.9-7.8H57l1.9 5.7 1.8-5.7h2.4L59.6 52z"/></g></symbol><symbol id="runtime--net" viewBox="-607 369 64 64"><style>.bkst0{fill:none}.bkst1{enable-background:new}.bkst2{fill:#008571}</style><path class="bkst0" d="M-604.8 386.7h64.8v47h-64.8z"/><g class="bkst1"><path class="bkst2" d="M-603.5 405.7h5.3v5.2h-5.3v-5.2zM-595.3 393.4h4.6v2.4h.1c1.2-2 3.3-2.9 5.4-2.9 5.1 0 6.4 2.9 6.4 7.2V411h-4.8v-10c0-2.9-.8-4.3-3.1-4.3-2.6 0-3.7 1.5-3.7 5v9.2h-4.8v-17.5zM-571.8 403.3c.1 3.1 1.6 4.5 4.3 4.5 1.9 0 3.5-1.2 3.8-2.3h4.2c-1.4 4.2-4.2 5.9-8.2 5.9-5.5 0-9-3.8-9-9.2 0-5.3 3.6-9.3 9-9.3 6 0 8.9 5 8.5 10.4h-12.6zm7.8-3c-.4-2.4-1.5-3.7-3.8-3.7-3.1 0-3.9 2.4-4 3.7h7.8zM-550.8 393.4h3.5v3.2h-3.5v8.7c0 1.6.4 2 2 2 .5 0 1.1 0 1.5-.1v3.8c-.8.1-1.9.2-2.8.2-3 0-5.5-.6-5.5-4.2v-10.4h-2.9v-3.2h2.9v-5.3h4.8v5.3z"/></g></symbol><symbol id="runtime--nodejs" viewBox="-607 369 64 64"><style>.blst0{fill:none}.blst1{enable-background:new}.blst2{fill:#ff7832}</style><path class="blst0" d="M-607 385.3h64.6v30.2H-607z"/><path class="blst1 blst2" d="M-592.1 405.5h5.7v5.5h-5.7v-5.5z"/><g class="blst1"><path class="blst2" d="M-585.1 413.2c.3.1.6.1 1.1.1 1 0 2-.3 2-1.7v-19.3h5.1V412c0 3.8-1.4 5.6-6.6 5.6-.5 0-1.1 0-1.7-.1v-4.3zm8.3-23.7h-5.1v-4.2h5.1v4.2zM-569.4 405c0 2.2 1.9 3.1 3.9 3.1 1.4 0 3.3-.6 3.3-2.4 0-1.5-2.2-2.1-5.8-2.9-3-.7-5.9-1.7-5.9-5 0-4.8 4.1-6 8.1-6s7.8 1.4 8.2 5.9h-4.9c-.1-2-1.7-2.5-3.5-2.5-1.2 0-2.8.2-2.8 1.7 0 1.8 2.9 2.1 5.8 2.8 3 .7 5.9 1.8 5.9 5.2 0 4.9-4.3 6.5-8.5 6.5-4.3 0-8.6-1.6-8.7-6.6h4.9z"/></g></symbol><symbol id="runtime--nodejsmean" viewBox="-607 369 64 64"><style>.bmst0{fill:none}.bmst1{enable-background:new}.bmst2{fill:#00b4a0}</style><path class="bmst0" d="M-607.7 378h64.8v47h-64.8z"/><path class="bmst1 bmst2" d="M-592.8 398.2h5.7v5.5h-5.7v-5.5z"/><g class="bmst1"><path class="bmst2" d="M-585.7 405.9c.3.1.6.1 1.1.1 1 0 2-.3 2-1.7V385h5.1v19.5c0 3.8-1.4 5.6-6.6 5.6-.5 0-1.1 0-1.7-.1v-4.1zm8.2-23.7h-5.1V378h5.1v4.2zM-570.1 397.7c0 2.2 1.9 3.1 3.9 3.1 1.4 0 3.3-.6 3.3-2.4 0-1.5-2.2-2.1-5.8-2.9-3-.7-5.9-1.7-5.9-5 0-4.8 4.1-6 8.1-6s7.8 1.4 8.2 5.9h-4.9c-.1-2-1.7-2.5-3.5-2.5-1.2 0-2.8.2-2.8 1.7 0 1.8 2.9 2.1 5.8 2.8 3 .7 5.9 1.8 5.9 5.2 0 4.9-4.3 6.5-8.5 6.5-4.3 0-8.6-1.6-8.7-6.6h4.9z"/></g><path class="bmst0" d="M-607 409.8h64v14.3h-64z"/><g class="bmst1"><path class="bmst2" d="M-594.9 412.9h2.1v1.1c.6-.8 1.4-1.3 2.5-1.3 1 0 2 .4 2.4 1.4.5-.7 1.3-1.4 2.5-1.4 1.8 0 3 .8 3 3v5.5h-2.3v-4.7c0-1.1-.1-2-1.4-2-1.3 0-1.5 1.1-1.5 2.1v4.6h-2.3v-4.6c0-1 .1-2.1-1.4-2.1-.4 0-1.5.3-1.5 1.9v4.8h-2.3v-8.3zM-578.9 417.6c.1 1.5.8 2.1 2 2.1.9 0 1.6-.6 1.8-1.1h2c-.6 2-2 2.8-3.9 2.8-2.6 0-4.2-1.8-4.2-4.4 0-2.5 1.7-4.4 4.2-4.4 2.8 0 4.2 2.4 4 4.9h-5.9zm3.7-1.5c-.2-1.2-.7-1.8-1.8-1.8-1.5 0-1.8 1.1-1.9 1.8h3.7zM-571.9 415.4c.1-2.1 2-2.8 3.9-2.8 1.6 0 3.6.4 3.6 2.4v4.3c0 .8.1 1.5.3 1.8h-2.3c-.1-.3-.1-.5-.2-.8-.7.8-1.8 1-2.8 1-1.6 0-2.8-.8-2.8-2.5 0-3.8 5.6-1.7 5.5-3.6 0-1-.7-1.1-1.5-1.1-.9 0-1.4.4-1.5 1.2h-2.2zm5.3 1.7c-.4.3-1.2.4-1.9.5-.7.1-1.3.4-1.3 1.2 0 .8.7 1.1 1.4 1.1 1.8 0 1.8-1.4 1.8-1.9v-.9zM-562.7 412.9h2.2v1.2c.6-.9 1.6-1.4 2.5-1.4 2.4 0 3 1.4 3 3.4v5.1h-2.3v-4.7c0-1.4-.4-2-1.5-2-1.2 0-1.8.7-1.8 2.4v4.3h-2.3v-8.3z"/></g></symbol><symbol id="runtime--php" viewBox="-607 369 64 64"><style>.bnst0{fill:none}.bnst1{enable-background:new}.bnst2{fill:#ff5050}</style><path class="bnst0" d="M-607.8 388.2h64.8v47h-64.8z"/><g class="bnst1"><path class="bnst2" d="M-606.2 406.1h5v4.9h-5v-4.9zM-598.5 394.5h4.3v2.1h.1c1.1-1.8 2.9-2.6 4.9-2.6 5.2 0 7.5 4.2 7.5 8.9 0 4.4-2.4 8.5-7.3 8.5-2 0-3.8-.9-5-2.5h-.1v7.9h-4.5v-22.3zm12.2 8.3c0-2.7-1.1-5.3-4-5.3-3 0-3.9 2.7-3.9 5.3 0 2.7 1 5.2 4 5.2 3 .1 3.9-2.5 3.9-5.2zM-579.4 388.2h4.5v8.6h.1c1.2-1.9 3.1-2.8 4.8-2.8 4.8 0 6 2.7 6 6.8V411h-4.5v-9.3c0-2.7-.8-4.1-2.9-4.1-2.5 0-3.5 1.4-3.5 4.7v8.7h-4.5v-22.8zM-560.9 394.5h4.3v2.1h.1c1.1-1.8 2.9-2.6 4.9-2.6 5.2 0 7.5 4.2 7.5 8.9 0 4.4-2.4 8.5-7.3 8.5-2 0-3.8-.9-5-2.5h-.1v7.9h-4.5v-22.3zm12.3 8.3c0-2.7-1.1-5.3-4-5.3-3 0-3.9 2.7-3.9 5.3 0 2.7 1 5.2 4 5.2 2.9.1 3.9-2.5 3.9-5.2z"/></g></symbol><symbol id="runtime--python" viewBox="-607 369 64 64"><style>.bost0{fill:none}.bost1{enable-background:new}.bost2{fill:#af6ee8}</style><path class="bost0" d="M-607.8 385.2h64.8v47h-64.8z"/><g class="bost1"><path class="bost2" d="M-598 405.4h5.7v5.5h-5.7v-5.5zM-589.4 392.3h4.9v2.4h.1c1.3-2 3.2-2.9 5.5-2.9 5.8 0 8.5 4.7 8.5 10 0 5-2.7 9.6-8.2 9.6-2.3 0-4.3-1-5.6-2.8h-.1v8.9h-5.1v-25.2zm13.9 9.4c0-3-1.2-6-4.5-6s-4.4 3-4.4 6 1.2 5.9 4.5 5.9 4.4-2.9 4.4-5.9zM-559.1 413.3c-1.1 3-2.9 4.2-6.4 4.2-1 0-2.1-.1-3.1-.2v-4.2c1 .1 2 .2 3 .2 1.3-.1 2-1.2 2-2.3 0-.4-.1-.8-.2-1.2l-6.6-17.5h5.5l4.2 12.7h.1l4.1-12.7h5.3l-7.9 21z"/></g></symbol><symbol id="runtime--pythonflask" viewBox="-607 369 64 64"><style>.bpst0{fill:none}.bpst1{enable-background:new}.bpst2{fill:#734098}</style><path class="bpst0" d="M-607.7 374.3h64.8v47h-64.8z"/><g class="bpst1"><path class="bpst2" d="M-598 394.5h5.7v5.5h-5.7v-5.5zM-589.4 381.4h4.9v2.4h.1c1.3-2 3.2-2.9 5.5-2.9 5.8 0 8.5 4.7 8.5 10 0 5-2.7 9.6-8.2 9.6-2.3 0-4.3-1-5.6-2.8h-.1v8.9h-5.1v-25.2zm13.9 9.4c0-3-1.2-6-4.5-6s-4.4 3-4.4 6 1.2 5.9 4.5 5.9 4.4-2.9 4.4-5.9zM-559.1 402.4c-1.1 3-2.9 4.2-6.4 4.2-1 0-2.1-.1-3.1-.2v-4.2c1 .1 2 .2 3 .2 1.3-.1 2-1.2 2-2.3 0-.4-.1-.8-.2-1.2l-6.6-17.5h5.5l4.2 12.7h.1l4.1-12.7h5.3l-7.9 21z"/></g><path class="bpst0" d="M-607 409.8h64v14.3h-64z"/><g class="bpst1"><path class="bpst2" d="M-591.6 414.4h-1.4v-1.5h1.4v-.6c0-1.5.9-2.5 2.8-2.5.4 0 .8 0 1.2.1v1.7h-.8c-.6 0-.9.3-.9.9v.5h1.6v1.5h-1.6v6.8h-2.3v-6.9zm5.2-4.7h2.3v11.4h-2.3v-11.4zM-582.7 415.4c.1-2.1 2-2.8 3.9-2.8 1.6 0 3.6.4 3.6 2.4v4.3c0 .8.1 1.5.3 1.8h-2.3c-.1-.3-.1-.5-.2-.8-.7.8-1.8 1-2.8 1-1.6 0-2.8-.8-2.8-2.5 0-3.8 5.6-1.7 5.5-3.6 0-1-.7-1.1-1.5-1.1-.9 0-1.4.4-1.5 1.2h-2.2zm5.3 1.7c-.4.3-1.2.4-1.9.5-.7.1-1.3.4-1.3 1.2 0 .8.7 1.1 1.4 1.1 1.8 0 1.8-1.4 1.8-1.9v-.9zM-571.9 418.5c0 1 .9 1.4 1.7 1.4.6 0 1.5-.3 1.5-1.1 0-.7-1-.9-2.6-1.3-1.3-.3-2.6-.7-2.6-2.2 0-2.1 1.8-2.7 3.6-2.7s3.5.6 3.6 2.6h-2.2c-.1-.9-.7-1.1-1.6-1.1-.5 0-1.3.1-1.3.8 0 .8 1.3.9 2.6 1.2 1.3.3 2.6.8 2.6 2.3 0 2.2-1.9 2.9-3.8 2.9s-3.8-.7-3.9-2.9h2.4zM-565.2 409.7h2.3v6.1l2.9-3h2.7l-3.1 3 3.5 5.2h-2.8l-2.3-3.7-.9.8v2.8h-2.3v-11.2z"/></g></symbol><symbol id="runtime--ruby" viewBox="-607 369 64 64"><style>.bqst0{fill:none}.bqst1{enable-background:new}.bqst2{fill:#6eb400}</style><path class="bqst0" d="M-607.8 385.3h64.8v47h-64.8z"/><path class="bqst1 bqst2" d="M-596.1 405.5h5.7v5.5h-5.7v-5.5z"/><g class="bqst1"><path class="bqst2" d="M-586.7 392.4h4.9v3.5h.1c1-2.3 3.4-4 5.9-4 .4 0 .8.1 1.1.2v4.8c-.5-.1-1.2-.2-1.8-.2-3.8 0-5 2.7-5 6v8.4h-5.1v-18.7zM-572.3 385.3h5.1v9.4h.1c1.3-1.9 3.6-2.8 5.9-2.8 3.7 0 7.7 3 7.7 9.8 0 6.8-4 9.8-7.7 9.8-2.7 0-5-.8-6.1-2.9h-.1v2.4h-4.9v-25.7zm9.3 10.5c-3 0-4.4 2.8-4.4 6 0 3.1 1.3 5.9 4.4 5.9s4.4-2.8 4.4-5.9c0-3.2-1.4-6-4.4-6z"/></g></symbol><symbol id="runtime--rubyonrails" viewBox="-607 369 64 64"><style>.brst0{fill:none}.brst1{enable-background:new}.brst2{fill:#6eb400}</style><path class="brst0" d="M-607.4 376.9h64.8v47h-64.8z"/><path class="brst1 brst2" d="M-595.7 397.1h5.7v5.5h-5.7v-5.5z"/><g class="brst1"><path class="brst2" d="M-586.4 384h4.9v3.5h.1c1-2.3 3.4-4 5.9-4 .4 0 .8.1 1.1.2v4.8c-.5-.1-1.2-.2-1.8-.2-3.8 0-5 2.7-5 6v8.4h-5.1V384zM-571.9 376.9h5.1v9.4h.1c1.3-1.9 3.6-2.8 5.9-2.8 3.7 0 7.7 3 7.7 9.8 0 6.8-4 9.8-7.7 9.8-2.7 0-5-.8-6.1-2.9h-.1v2.4h-4.9v-25.7zm9.3 10.5c-3 0-4.4 2.8-4.4 6 0 3.1 1.3 5.9 4.4 5.9s4.4-2.8 4.4-5.9c0-3.2-1.4-6-4.4-6z"/></g><g class="brst1"><path class="brst2" d="M-597 410.1c2.6 0 4.3 1.7 4.3 4.4 0 2.6-1.7 4.4-4.3 4.4-2.6 0-4.3-1.7-4.3-4.4 0-2.6 1.7-4.4 4.3-4.4zm0 7.1c1.6 0 2-1.3 2-2.6s-.5-2.7-2-2.7-2 1.3-2 2.7c0 1.2.5 2.6 2 2.6zM-591.6 410.4h2.2v1.2c.6-.9 1.6-1.4 2.5-1.4 2.4 0 3 1.4 3 3.4v5.1h-2.3V414c0-1.4-.4-2-1.5-2-1.2 0-1.8.7-1.8 2.4v4.3h-2.3v-8.3zM-578.5 410.4h2.2v1.5c.4-1 1.5-1.8 2.6-1.8.2 0 .3 0 .5.1v2.1c-.2 0-.5-.1-.8-.1-1.7 0-2.2 1.2-2.2 2.7v3.7h-2.3v-8.2zM-572.6 412.9c.1-2.1 2-2.8 3.9-2.8 1.6 0 3.6.4 3.6 2.4v4.3c0 .8.1 1.5.3 1.8h-2.3c-.1-.3-.1-.5-.2-.8-.7.8-1.8 1-2.8 1-1.6 0-2.8-.8-2.8-2.5 0-3.8 5.6-1.7 5.5-3.6 0-1-.7-1.1-1.5-1.1-.9 0-1.4.4-1.5 1.2h-2.2zm5.2 1.7c-.4.3-1.2.4-1.9.5-.7.1-1.3.4-1.3 1.2 0 .8.7 1.1 1.4 1.1 1.8 0 1.8-1.4 1.8-1.9v-.9zM-561.2 409.1h-2.3v-1.9h2.3v1.9zm-2.3 1.3h2.3v8.3h-2.3v-8.3zM-559.7 407.2h2.3v11.4h-2.3v-11.4zM-554.1 416c0 1 .9 1.4 1.7 1.4.6 0 1.5-.3 1.5-1.1 0-.7-1-.9-2.6-1.3-1.3-.3-2.6-.7-2.6-2.2 0-2.1 1.8-2.7 3.6-2.7s3.5.6 3.6 2.6h-2.2c-.1-.9-.7-1.1-1.6-1.1-.5 0-1.3.1-1.3.8 0 .8 1.3.9 2.6 1.2 1.3.3 2.6.8 2.6 2.3 0 2.2-1.9 2.9-3.8 2.9s-3.8-.7-3.9-2.9h2.4z"/></g></symbol><symbol id="runtime--rubysinatra" viewBox="-607 369 64 64"><style>.bsst0{fill:none}.bsst1{enable-background:new}.bsst2{fill:#325c80}</style><path class="bsst0" d="M-607.8 378.5h64.8v47h-64.8z"/><path class="bsst1 bsst2" d="M-596.1 398.7h5.7v5.5h-5.7v-5.5z"/><g class="bsst1"><path class="bsst2" d="M-586.7 385.6h4.9v3.5h.1c1-2.3 3.4-4 5.9-4 .4 0 .8.1 1.1.2v4.8c-.5-.1-1.2-.2-1.8-.2-3.8 0-5 2.7-5 6v8.4h-5.1v-18.7zM-572.3 378.5h5.1v9.4h.1c1.3-1.9 3.6-2.8 5.9-2.8 3.7 0 7.7 3 7.7 9.8 0 6.8-4 9.8-7.7 9.8-2.7 0-5-.8-6.1-2.9h-.1v2.4h-4.9v-25.7zm9.3 10.4c-3 0-4.4 2.8-4.4 6 0 3.1 1.3 5.9 4.4 5.9s4.4-2.8 4.4-5.9c0-3.2-1.4-6-4.4-6z"/></g><g class="bsst1"><path class="bsst2" d="M-598.4 417.5c0 1 .9 1.4 1.7 1.4.6 0 1.5-.3 1.5-1.1 0-.7-1-.9-2.6-1.3-1.3-.3-2.6-.7-2.6-2.2 0-2.1 1.8-2.7 3.6-2.7s3.5.6 3.6 2.6h-2.2c-.1-.9-.7-1.1-1.6-1.1-.5 0-1.3.1-1.3.8 0 .8 1.3.9 2.6 1.2 1.3.3 2.6.8 2.6 2.3 0 2.2-1.9 2.9-3.8 2.9s-3.8-.7-3.9-2.9h2.4zM-589.5 410.6h-2.3v-1.9h2.3v1.9zm-2.3 1.3h2.3v8.3h-2.3v-8.3zM-587.9 411.9h2.2v1.2c.6-.9 1.6-1.4 2.5-1.4 2.4 0 3 1.4 3 3.4v5.1h-2.3v-4.7c0-1.4-.4-2-1.5-2-1.2 0-1.8.7-1.8 2.4v4.3h-2.3v-8.3zM-578.8 414.5c.1-2.1 2-2.8 3.9-2.8 1.6 0 3.6.4 3.6 2.4v4.3c0 .8.1 1.5.3 1.8h-2.3c-.1-.3-.1-.5-.2-.8-.7.8-1.8 1-2.8 1-1.6 0-2.8-.8-2.8-2.5 0-3.8 5.6-1.7 5.5-3.6 0-1-.7-1.1-1.5-1.1-.9 0-1.4.4-1.5 1.2h-2.2zm5.2 1.7c-.4.3-1.2.4-1.9.5-.7.1-1.3.4-1.3 1.2 0 .8.7 1.1 1.4 1.1 1.8 0 1.8-1.4 1.8-1.9v-.9zM-566.8 411.9h1.7v1.5h-1.7v4.1c0 .8.2 1 1 1 .3 0 .5 0 .7-.1v1.8c-.4.1-.9.1-1.3.1-1.4 0-2.6-.3-2.6-2v-4.9h-1.4v-1.5h1.4v-2.5h2.3v2.5zM-564 411.9h2.2v1.5c.4-1 1.5-1.8 2.6-1.8.2 0 .3 0 .5.1v2.1c-.2 0-.5-.1-.8-.1-1.7 0-2.2 1.2-2.2 2.7v3.7h-2.3v-8.2zM-558.1 414.5c.1-2.1 2-2.8 3.9-2.8 1.6 0 3.6.4 3.6 2.4v4.3c0 .8.1 1.5.3 1.8h-2.3c-.1-.3-.1-.5-.2-.8-.7.8-1.8 1-2.8 1-1.6 0-2.8-.8-2.8-2.5 0-3.8 5.6-1.7 5.5-3.6 0-1-.7-1.1-1.5-1.1-.9 0-1.4.4-1.5 1.2h-2.2zm5.3 1.7c-.4.3-1.2.4-1.9.5-.7.1-1.3.4-1.3 1.2 0 .8.7 1.1 1.4 1.1 1.8 0 1.8-1.4 1.8-1.9v-.9z"/></g></symbol><symbol viewBox="0 0 18 18" id="service--add-filled"><title>plus-round</title><g fill="none" fill-rule="evenodd"><path d="M9.02.52a8.5 8.5 0 1 0 .002 17.002 8.5 8.5 0 0 0 0-17" fill="#5596E6"/><path d="M8.414 4.728v3.686H4.728v1.214h3.686v3.686h1.214V9.628h3.686V8.414H9.628V4.728H8.414z" fill="#FFF"/></g></symbol><symbol viewBox="0 0 15 13" id="service--back"><title>back</title><path d="M3.435 5.556H14.41V7.14H3.434l4.338 4.21-1.138 1.12-5.49-5.33H.93v-.205l-.358-.347.243-.24-.243-.24.358-.347v-.204h.21L6.635.226l1.138 1.12-4.337 4.21z" fill="#5596E6" fill-rule="evenodd"/></symbol><symbol viewBox="0 0 8 12" id="service--chevron"><title>Imported Layers Copy</title><path d="M.286 1.265L4.846 6l-4.56 4.735L1.504 12l5.782-6-5.782-6L.286 1.265z" fill="#94A3AB" fill-rule="evenodd"/></symbol><symbol viewBox="0 0 64 64" id="service--default"><path fill="#5596E6" d="M32.2 37.7l-16.3-9.4V9.4L32.2 0l16.3 9.4v18.9l-16.3 9.4zM19.1 26.5l13.1 7.6 13.1-7.6V11.2L32.2 3.6l-13.1 7.6v15.3z"/><path fill="#5596E6" d="M46.9 63.2l-16.3-9.4V34.9l16.3-9.4 16.3 9.4v18.9l-16.3 9.4zM33.8 52l13.1 7.6L60 52V36.7l-13.1-7.6-13.1 7.6V52z"/><path fill="#5596E6" d="M17.5 63.4L1.2 53.9V35.1l16.3-9.4 16.3 9.4V54l-16.3 9.4zM4.4 52.1l13.1 7.6 13.1-7.6V36.9l-13.1-7.6-13.1 7.6v15.2z"/><path fill="#5596E6" d="M32.2 54.8l-16.3-9.4V26.5l16.3-9.4 16.3 9.4v18.9l-16.3 9.4zM19.1 43.5l13.1 7.6 13.1-7.6V28.3l-13.1-7.6-13.1 7.6v15.2z"/></symbol><symbol viewBox="0 0 8 5" id="service--down-arrow"><title>arrow-small copy</title><path d="M7.5.5h-7l3.5 4 3.5-4z" fill="#94A3AB" fill-rule="evenodd"/></symbol><symbol viewBox="0 0 32 32" id="service--gear"><path d="M20.433 12c0-.45-.045-.89-.114-1.322L23 8.333l-2.277-3.738-3.197 1.044A8.407 8.407 0 0 0 14.91 4.09L14.2 1H9.8l-.71 3.092A8.42 8.42 0 0 0 6.475 5.64L3.277 4.595 1 8.333l2.68 2.346c-.068.43-.113.87-.113 1.32s.045.89.113 1.32L1 15.668l2.278 3.738 3.196-1.044a8.393 8.393 0 0 0 2.618 1.548L9.8 23h4.4l.708-3.092a8.388 8.388 0 0 0 2.617-1.547l3.196 1.045L23 15.667l-2.68-2.345c.068-.432.113-.87.113-1.322zM12 15a3 3 0 0 1 0-6 3 3 0 0 1 0 6z"/></symbol><symbol viewBox="0 0 25 20" id="service--logsLink"><title>Imported Layers Copy 2</title><g fill="#5294E9" fill-rule="evenodd"><path d="M0 19.706h24.632V0H0v19.706zm1.642-14.78H22.99v13.137H1.642V4.926z"/><path d="M14.54 14.54l5.166-5.168v3.765h1.642V6.57h-6.57v1.64h3.767l-5.167 5.168 1.16 1.16"/></g></symbol><symbol viewBox="0 0 16 16" id="service--status-complete"><path class="cast4" d="M8 2c3.3 0 6 2.7 6 6s-2.7 6-6 6-6-2.7-6-6 2.7-6 6-6m0-2C3.6 0 0 3.6 0 8s3.6 8 8 8 8-3.6 8-8-3.6-8-8-8z"/><path class="cast4" d="M6.9 9.3L5 7.4l-.8.8 2.7 2.7 4.9-5-.8-.8z"/></symbol><symbol viewBox="0 0 18 18" id="service--status-error"><title>status-error</title><g fill="none" fill-rule="evenodd"><path d="M9 0a9 9 0 1 0 0 18A9 9 0 0 0 9 0"/><path d="M11.76 5.33L9 8.09 6.24 5.33l-.91.91L8.09 9l-2.76 2.76.91.91L9 9.91l2.76 2.76.91-.91L9.91 9l2.76-2.76-.91-.91z" fill="#FFF"/></g></symbol><symbol viewBox="0 0 16 16" id="service--status-initializing"><path class="ccst0" d="M8 2c3.3 0 6 2.7 6 6s-2.7 6-6 6-6-2.7-6-6 2.7-6 6-6m0-2C3.6 0 0 3.6 0 8s3.6 8 8 8 8-3.6 8-8-3.6-8-8-8z"/><path class="ccst0" d="M7 5.5h2v5H7z"/></symbol><symbol viewBox="0 0 16 16" id="service--status-paused"><path class="cdst3" d="M5.5 5.5h2v5h-2zM8.5 5.5h2v5h-2z"/><g><path class="cdst3" d="M8 2c3.3 0 6 2.7 6 6s-2.7 6-6 6-6-2.7-6-6 2.7-6 6-6m0-2C3.6 0 0 3.6 0 8s3.6 8 8 8 8-3.6 8-8-3.6-8-8-8z"/></g></symbol><symbol viewBox="0 0 18 18" id="service--status-pending"><title>status-pending</title><g fill="none" fill-rule="evenodd"><path d="M9 0a9 9 0 1 0 0 18A9 9 0 0 0 9 0"/><path d="M8.357 13.5h1.688v-9H8.357v9z" fill="#FFF"/></g></symbol><symbol viewBox="0 0 16 16" id="service--status-running"><path class="cfst7" d="M8 2c3.3 0 6 2.7 6 6s-2.7 6-6 6-6-2.7-6-6 2.7-6 6-6m0-2C3.6 0 0 3.6 0 8s3.6 8 8 8 8-3.6 8-8-3.6-8-8-8z"/><circle class="cfst7" cx="4.8" cy="8.3" r="1.1"/><circle class="cfst7" cx="8" cy="8.3" r="1.1"/><circle class="cfst7" cx="11.2" cy="8.3" r="1.1"/></symbol><symbol viewBox="0 0 16 16" id="service--status-scheduled"><path class="cgst5" d="M8.4 9.2c-.1.2-.3.3-.5.4-.2.2-.4.3-.6.4-.4.3-.7.6-.9 1-.3.4-.4.8-.4 1.3h4v-.9H7.1c0-.1.1-.3.2-.4.1-.1.2-.2.4-.3.1-.1.3-.2.5-.3.2-.1.3-.2.5-.3.2-.2.3-.3.5-.4.2-.1.3-.3.4-.4.1-.2.2-.3.3-.5.1-.3.1-.5.1-.7 0-.2 0-.4-.1-.6 0-.2-.1-.4-.3-.6-.1-.2-.3-.4-.6-.5-.2-.1-.5-.1-.9-.1-.3 0-.6.1-.9.2-.2 0-.4.2-.6.4-.2.2-.3.4-.4.7-.1.3-.1.6-.1.9h1c0-.2 0-.4.1-.6 0-.2.1-.3.2-.5l.3-.3c.1-.1.3-.1.5-.1s.4 0 .5.1l.3.3c-.1.1 0 .2 0 .4v.3c0 .2 0 .4-.1.6-.1.2-.3.4-.5.5z"/><path class="cgst5" d="M1 1v14h14V1H1zm12.2 12.2l-10.4.1V5.4l10.5-.1v7.9z"/></symbol><symbol viewBox="-630 392 18 18" id="service--status-success"><title>status-success</title><path d="M-621 392c-5 0-9 4-9 9s4 9 9 9 9-4 9-9-4-9-9-9zm-1.3 12.5l-3-3 .9-.9 2.1 2.1 4.7-4.7.9.9-5.6 5.6z"/></symbol><symbol viewBox="-607 391 7.4 12" id="support--arrow-right"><path d="M-605.6 391l-1.4 1.4 4.6 4.6-4.6 4.6 1.4 1.4 6-6z"/></symbol><symbol viewBox="-602 388.4 17.6 17.6" id="support--bluemix-padding"><path d="M-589.4 402.5h-3l-1.4-2.4-.1-.1s.1 0 .1.1c.5.2.9.3 1.4.3 1.6 0 2.9-1.2 3.1-2.8v-.1l1.4 2.5-1.5 2.5zM-589.5 397s0 .1 0 0l-2.9.1-1.4-2.5h.1l4.2 2.4zM-593.4 394.5c.3-.1.7-.2 1-.2.4 0 .8.1 1.1.2s.7.4.9.6c.3.3.5.6.6.9.1.2.1.4.2.6l-3.8-2.1zM-592.4 397.3h2.8v.1l-4.2 2.4h-.1l1.5-2.5z"/><path d="M-589.6 397.7c0 .2-.1.4-.2.6-.1.3-.4.7-.6.9-.3.3-.6.5-.9.6-.4.2-.7.2-1.1.2-.3 0-.7-.1-1-.2l3.8-2.1zM-592.4 391.9h3l1.5 2.6-1.4 2.5v-.1c-.2-1.6-1.5-2.8-3.1-2.8-.4 0-.9.1-1.2.3 0 0-.1 0-.1.1l1.3-2.6zM-594.1 394.8s.1 0 0 0l1.5 2.4-1.4 2.5s-.1 0-.1-.1v-4.8zM-597.1 394.6h2.9l-.1.1c-.8.6-1.3 1.5-1.3 2.5s.5 1.9 1.3 2.5l.1.1h-2.9l-1.5-2.6 1.5-2.6z"/><path d="M-594.3 395v4.5l-.2-.2c-.2-.3-.5-.6-.6-.9-.2-.4-.2-.8-.2-1.2 0-.4 0-.8.2-1.1.1-.4.4-.7.6-.9.1-.1.1-.2.2-.2z"/></symbol><symbol viewBox="0 0 8 8" id="support--check-fill-circle"><path d="M4 0C1.8 0 0 1.8 0 4s1.8 4 4 4 4-1.8 4-4-1.8-4-4-4zm-.6 5.5L2.1 4.2l.4-.4.9.9 2.1-2.1.4.4-2.5 2.5z"/></symbol><symbol viewBox="8 8 32 27" id="support--check-padding"><path fill-rule="evenodd" d="M19.13 36L8 23.077l3.246-4.04 7.884 9.155L36.754 8 40 11.77z"/></symbol><symbol viewBox="-606 394.7 10.5 5.3" id="support--chevron-down"><path d="M-606 394.7l5.3 5.3 5.3-5.3H-606z"/></symbol><symbol viewBox="-596 382 30 30" id="support--chevron-down-padding"><path d="M-586.3 394.4l5.3 5.3 5.3-5.3h-10.6z"/></symbol><symbol viewBox="-606 394.7 10.5 5.3" id="support--chevron-up"><path d="M-595.5 400l-5.3-5.3-5.3 5.3h10.6z"/></symbol><symbol viewBox="-602 388 18 18" id="support--close-stroke-circle"><path d="M-599.3 390.6c-3.5 3.5-3.5 9.2 0 12.7s9.2 3.5 12.7 0 3.5-9.2 0-12.7-9.2-3.5-12.7 0zm11.9 11.9c-3 3-7.9 3-10.9 0s-3-7.9 0-10.9 7.9-3 10.9 0 3 7.8 0 10.9z"/><path d="M-595.2 400.8l-1.5-1.5 2.3-2.3-2.3-2.3 1.5-1.5 2.3 2.3 2.3-2.3 1.5 1.5-2.3 2.3 2.3 2.3-1.5 1.5-2.3-2.3-2.3 2.3z"/></symbol><symbol viewBox="-598 384.9 25.1 25.1" id="support--help-fill-circle-with-outline"><path d="M-585.5 384.8c-7 0-12.6 5.6-12.6 12.6s5.6 12.6 12.6 12.6 12.6-5.6 12.6-12.6-5.6-12.6-12.6-12.6zm0 24c-6.3 0-11.5-5.1-11.5-11.4s5.1-11.5 11.5-11.5 11.4 5.2 11.4 11.5-5 11.4-11.4 11.4z"/><path d="M-585.5 388.7c-4.8 0-8.7 3.9-8.7 8.7 0 4.8 3.9 8.7 8.7 8.7s8.7-3.9 8.7-8.7c0-4.8-3.8-8.7-8.7-8.7zm1.2 14.5h-2.5v-2.4h2.5v2.4zm-.2-4v.6h-2.2v-.7c.2-2.8 2.6-2.5 2.6-4.2 0-1-.5-1.4-1.4-1.4-1.2 0-1.6.9-1.6 2.1h-2.4c0-2.3 1.5-4 3.9-4 3 0 4 1.9 4 3.1.1 3-2.5 2.6-2.9 4.5z"/></symbol><symbol viewBox="-598 384.9 25.1 25.1" id="support--idea-fill-circle-with-outline"><path d="M-585.5 384.8c-7 0-12.6 5.6-12.6 12.6s5.6 12.6 12.6 12.6 12.6-5.6 12.6-12.6-5.6-12.6-12.6-12.6zm0 24c-6.3 0-11.5-5.1-11.5-11.4s5.1-11.5 11.5-11.5 11.4 5.2 11.4 11.5-5 11.4-11.4 11.4z"/><path d="M-585.5 406c4.8 0 8.6-3.8 8.7-8.6-.1-4.8-3.9-8.7-8.7-8.7s-8.7 3.9-8.7 8.7c.1 4.7 4 8.6 8.7 8.6zm.7-2.4c-.1.4-.4.6-.7.6-.4 0-.7-.3-.7-.6-.5 0-.9-.4-.9-.9h3.3c0 .4-.4.8-1 .9zm.8-1.6h-2.9c-.2 0-.4-.2-.4-.4s.2-.4.4-.4h2.9c.2 0 .4.2.4.4s-.2.4-.4.4zm-1.5-10.9c2.2 0 3.9 1.8 3.9 3.9 0 .9-.3 1.8-.8 2.4-.4.6-.9 1.3-1.3 1.9v1.3h-3.6v-1.3c-.4-.7-.9-1.3-1.3-1.9-.5-.7-.8-1.5-.8-2.4.1-2.2 1.9-3.9 3.9-3.9z"/></symbol><symbol viewBox="-605 391 12 12" id="support--info-stroke-circle"><path class="csst0" d="M-598.1 396.1h-2.6v.9h.8v2.6h-.8v.8h3.4v-.8h-.8z"/><circle class="csst0" cx="-599" cy="394.4" r=".9"/><path class="csst0" d="M-599 391c-3.3 0-6 2.7-6 6s2.7 6 6 6 6-2.7 6-6-2.7-6-6-6zm0 11.1c-2.8 0-5.1-2.3-5.1-5.1s2.3-5.1 5.1-5.1 5.1 2.3 5.1 5.1-2.3 5.1-5.1 5.1z"/></symbol><symbol viewBox="-590 388 18 18" id="support--left-arrow-stroke-circle"><path d="M-587.4 390.6c-3.5 3.5-3.5 9.2 0 12.7s9.2 3.5 12.7 0 3.5-9.2 0-12.7-9.1-3.5-12.7 0zm11.9 11.9c-3 3-7.9 3-10.9 0s-3-7.9 0-10.9 7.9-3 10.9 0 3 7.8 0 10.9z"/><path d="M-579.8 400.8l1.5-1.5-2.4-2.3 2.4-2.3-1.5-1.5-2.4 2.3-1.5 1.5h.1-.1l1.5 1.5z"/></symbol><symbol viewBox="-1192 764 30 30" id="support--search-padding"><path d="M-1179.4 770.1c-3.6 0-6.5 2.9-6.5 6.5s2.9 6.5 6.5 6.5 6.5-2.9 6.5-6.5c.1-3.6-2.9-6.5-6.5-6.5zm0 11.9c-3 0-5.4-2.4-5.4-5.4s2.4-5.4 5.4-5.4 5.4 2.4 5.4 5.4-2.4 5.4-5.4 5.4zM-1172.236 781.98l4.172 4.173-1.768 1.768-4.172-4.17zM-1173.4 782c0-.3-.3-.6-.6-.6-.4 0-.6.2-.6.6 0 .3.3.6.6.6s.6-.3.6-.6z"/></symbol><symbol viewBox="-602 388.4 17.6 17.6" id="support--stackoverflow-padding"><path d="M-590.225 396.663l-3.69-3.223.657-.753 3.69 3.223zM-590.786 397.814l-4.364-2.23.455-.89 4.364 2.23zM-591.163 398.976l-4.762-1.155.236-.97 4.763 1.154zM-591.325 400.227l-4.892-.267.054-.998 4.893.267zM-596.3 400.5h5v1h-5z"/><path d="M-598.2 403.5v-5.1h1v4.1h6.9v-4.1h1v5.1zM-591.198 390.93l2.75 4.056-.826.56-2.752-4.053z"/></symbol><symbol viewBox="-596 382 30 30" id="support--upload-padding"><path class="cwst0" d="M-585.4 394.1l.8.7 3.1-3.1v8.3h1v-8.3l3.1 3.1.8-.7-4.4-4.3z"/><path class="cwst0" d="M-574 398.2v4h-14v-4h-.5v6h15v-6z"/></symbol><symbol viewBox="-1605.7 980.1 63 63" id="support--user-stroke-circle"><path class="cxst0" d="M-1574.2 988.9c-10 0-18.1 8.1-18.1 18.1s8.1 18.1 18.1 18.1 18.1-8.1 18.1-18.1-8.1-18.1-18.1-18.1zm0 34.4c-9 0-16.3-7.3-16.3-16.3s7.3-16.3 16.3-16.3 16.3 7.3 16.3 16.3-7.3 16.3-16.3 16.3z"/><path class="cxst0" d="M-1574.2 980.1c-17.3 0-31.5 14.2-31.5 31.5 0 17.4 14.1 31.5 31.5 31.5s31.5-14.1 31.5-31.5c0-17.3-14.1-31.5-31.5-31.5zm14.5 48.6h-29c-2.8 0-5.2 1.6-6.4 3.9-5.3-5.4-8.7-12.8-8.7-21 0-16.3 13.3-29.6 29.6-29.6s29.6 13.3 29.6 29.6c0 8.2-3.3 15.6-8.7 20.9-1.2-2.2-3.6-3.8-6.4-3.8z"/></symbol><symbol viewBox="-618 380 42 41" id="taxonomy--allcategories"><title>Imported Layers</title><path d="M-581.6 420.6c-2.8 0-5.2-2.4-5.2-5.3s2.3-5.3 5.2-5.3 5.2 2.4 5.2 5.3-2.3 5.3-5.2 5.3zm0-9.3c-2.1 0-3.9 1.8-3.9 4s1.7 4 3.9 4 3.9-1.8 3.9-4-1.8-4-3.9-4zm-15.4 9.3c-2.8 0-5.2-2.4-5.2-5.3s2.3-5.3 5.2-5.3c2.8 0 5.2 2.4 5.2 5.3-.1 2.9-2.4 5.3-5.2 5.3zm0-9.3c-2.1 0-3.9 1.8-3.9 4s1.7 4 3.9 4 3.9-1.8 3.9-4c-.1-2.2-1.8-4-3.9-4zm-15.5 9.3c-2.8 0-5.2-2.4-5.2-5.3s2.3-5.3 5.2-5.3c2.8 0 5.2 2.4 5.2 5.3s-2.3 5.3-5.2 5.3zm0-9.3c-2.1 0-3.9 1.8-3.9 4s1.7 4 3.9 4c2.1 0 3.9-1.8 3.9-4s-1.8-4-3.9-4zm30.9-5.6c-2.8 0-5.2-2.4-5.2-5.3s2.3-5.3 5.2-5.3 5.2 2.4 5.2 5.3-2.3 5.3-5.2 5.3zm0-9.2c-2.1 0-3.9 1.8-3.9 4s1.7 4 3.9 4 3.9-1.8 3.9-4-1.8-4-3.9-4zm-15.4 9.2c-2.8 0-5.2-2.4-5.2-5.3s2.3-5.3 5.2-5.3c2.8 0 5.2 2.4 5.2 5.3s-2.4 5.3-5.2 5.3zm0-9.2c-2.1 0-3.9 1.8-3.9 4s1.7 4 3.9 4 3.9-1.8 3.9-4c-.1-2.2-1.8-4-3.9-4zm-15.5 9.2c-2.8 0-5.2-2.4-5.2-5.3s2.3-5.3 5.2-5.3c2.8 0 5.2 2.4 5.2 5.3s-2.3 5.3-5.2 5.3zm0-9.2c-2.1 0-3.9 1.8-3.9 4s1.7 4 3.9 4c2.1 0 3.9-1.8 3.9-4s-1.8-4-3.9-4zm30.9-5.6c-2.8 0-5.2-2.4-5.2-5.3s2.3-5.3 5.2-5.3 5.2 2.4 5.2 5.3-2.3 5.3-5.2 5.3zm0-9.3c-2.1 0-3.9 1.8-3.9 4s1.7 4 3.9 4 3.9-1.8 3.9-4-1.8-4-3.9-4zm-15.4 9.3c-2.8 0-5.2-2.4-5.2-5.3s2.3-5.3 5.2-5.3c2.8 0 5.2 2.4 5.2 5.3s-2.4 5.3-5.2 5.3zm0-9.3c-2.1 0-3.9 1.8-3.9 4s1.7 4 3.9 4 3.9-1.8 3.9-4-1.8-4-3.9-4zm-15.5 9.3c-2.8 0-5.2-2.4-5.2-5.3s2.3-5.3 5.2-5.3c2.8 0 5.2 2.4 5.2 5.3s-2.3 5.3-5.2 5.3zm0-9.3c-2.1 0-3.9 1.8-3.9 4s1.7 4 3.9 4c2.1 0 3.9-1.8 3.9-4s-1.8-4-3.9-4z"/></symbol><symbol viewBox="-618 378 43 45" id="taxonomy--app-services"><title>Fill 1 + Fill 2 + Fill 3</title><g><path d="M-596.8 404.6c-.4 0-.8-.1-1.2-.3l-18.6-10.6c-.8-.4-1.2-1.2-1.2-2.1 0-.9.4-1.6 1.2-2.1l18.4-10.6c.7-.4 1.7-.4 2.4 0l18.6 10.6c.8.4 1.2 1.2 1.2 2.1 0 .9-.4 1.6-1.2 2.1l-18.4 10.6c-.3.2-.8.3-1.2.3zm-.1-24.9c-.2 0-.4.1-.6.2l-18.4 10.6c-.4.2-.6.6-.6 1s.2.8.6 1l18.6 10.6c.2.1.4.2.6.2.2 0 .4-.1.6-.2l18.4-10.6c.4-.2.6-.6.6-1s-.2-.8-.6-1l-18.6-10.6c-.2-.1-.4-.2-.6-.2z"/><path d="M-596.8 413.7c-.4 0-.8-.1-1.2-.3l-18.5-10.6c-.8-.4-1.2-1.2-1.2-2.1 0-.9.5-1.7 1.2-2.1l1.2-.7c.3-.2.7-.1.8.2.2.3.1.7-.2.8l-1.2.7c-.4.2-.6.6-.6 1s.2.8.6 1.1l18.5 10.6c.4.2.8.2 1.2 0l18.4-10.6c.4-.2.6-.6.6-1.1 0-.4-.2-.8-.6-1l-1.2-.7c-.3-.2-.4-.5-.2-.8.2-.3.5-.4.8-.2l1.2.7c.8.4 1.2 1.2 1.2 2.1 0 .9-.4 1.7-1.2 2.1l-18.4 10.6c-.3.2-.8.3-1.2.3"/><path d="M-596.8 423c-.4 0-.8-.1-1.2-.3l-18.6-10.6c-.8-.4-1.2-1.2-1.2-2.1 0-.9.4-1.6 1.2-2.1l1.3-.8c.3-.2.7-.1.8.2.2.3.1.7-.2.8l-1.3.8c-.4.2-.6.6-.6 1s.2.8.6 1l18.6 10.6c.4.2.8.2 1.2 0l18.4-10.6c.4-.2.6-.6.6-1s-.2-.8-.6-1l-1.3-.8c-.3-.2-.4-.5-.2-.8.2-.3.5-.4.8-.2l1.3.8c.8.4 1.2 1.2 1.2 2.1 0 .9-.4 1.6-1.2 2.1l-18.4 10.6c-.3.2-.8.3-1.2.3"/></g></symbol><symbol viewBox="-624 378 31 46" id="taxonomy--cognitive"><title>Imported Layers</title><path d="M-605.1 423.5h-6.8c-.4 0-.6-.3-.6-.7s.3-.7.6-.7h6.8c.4 0 .7.3.7.7s-.4.7-.7.7zm1.7-3.1h-10.3c-.4 0-.6-.3-.6-.7s.3-.7.6-.7h10.3c.4 0 .7.3.7.7s-.3.7-.7.7zm0-3.1h-10.3c-.4 0-.6-.3-.6-.7s.3-.7.6-.7h10.3c.4 0 .7.3.7.7s-.3.7-.7.7zm1.1-3.5h-12.4v-2.7c0-2.3-.7-4.4-3.9-7.7-3.2-3.2-5-7-5-10.7 0-8 6.8-14.5 15.1-14.5s15.1 6.5 15.1 14.5c0 3.7-1.8 7.5-5 10.7-3.3 3.2-3.9 5.3-3.9 7.7v2.7zm-11.1-1.3h9.8v-1.4c0-2.6.7-5.1 4.3-8.6 2.9-2.9 4.6-6.4 4.6-9.7 0-7.3-6.2-13.2-13.8-13.2s-13.8 5.9-13.8 13.2c0 3.3 1.7 6.8 4.6 9.7 3.6 3.5 4.3 6 4.3 8.6v1.4z"/></symbol><symbol viewBox="-616 379 46 44" id="taxonomy--compute"><title>Imported Layers</title><g><path d="M-574.5 385c0-.7-.6-1.3-1.3-1.3-.7 0-1.3.6-1.3 1.3s.6 1.3 1.3 1.3c.7 0 1.3-.6 1.3-1.3M-574.5 416.5c0-.7-.6-1.3-1.3-1.3-.7 0-1.3.6-1.3 1.3 0 .7.6 1.3 1.3 1.3.7 0 1.3-.6 1.3-1.3M-574.5 400.8c0-.7-.6-1.3-1.3-1.3-.7 0-1.3.6-1.3 1.3 0 .7.6 1.3 1.3 1.3.7-.1 1.3-.6 1.3-1.3"/><path d="M-570.7 422.3H-615c-.3 0-.6-.3-.6-.6v-10.5c0-.3.3-.6.6-.6h44.3c.3 0 .6.3.6.6v10.5c0 .4-.2.6-.6.6zm-43.7-1.1h43.1v-9.3h-43.1v9.3zM-570.7 406.6H-615c-.3 0-.6-.3-.6-.6v-10.5c0-.3.3-.6.6-.6h44.3c.3 0 .6.3.6.6V406c0 .3-.2.6-.6.6zm-43.7-1.2h43.1v-9.3h-43.1v9.3zM-570.7 390.8H-615c-.3 0-.6-.3-.6-.6v-10.5c0-.3.3-.6.6-.6h44.3c.3 0 .6.3.6.6v10.5c0 .4-.2.6-.6.6zm-43.7-1.1h43.1v-9.3h-43.1v9.3z"/></g></symbol><symbol viewBox="-617 380 45 42" id="taxonomy--data"><title>Imported Layers</title><g><path d="M-573 391.5h-42.8c-.3 0-.6-.2-.6-.6 0-.3.3-.6.6-.6h42.8c.3 0 .6.2.6.6 0 .4-.3.6-.6.6"/><path d="M-573 421.9h-42.8c-.3 0-.6-.2-.6-.6v-40.5c0-.3.3-.6.6-.6h42.8c.3 0 .6.2.6.6v40.5c0 .3-.3.6-.6.6zm-42.3-1.1h41.7v-39.4h-41.7v39.4z"/><path d="M-588.2 411.7c-.1 0-.2 0-.3-.1l-18-9.8-8.8 9.6c-.2.2-.6.3-.8.1-.2-.2-.3-.5-.1-.8l9.1-10c.2-.2.5-.2.7-.1l18 9.7 14.9-19.8c.2-.2.6-.3.8-.1.3.2.3.5.1.8l-15.2 20.2c-.1.3-.3.3-.4.3"/></g></symbol><symbol viewBox="-617 379 45 43" id="taxonomy--devops"><title>Imported Layers</title><g><path d="M-572.7 421.2h-10.8c-.3 0-.6-.3-.6-.6v-20.5c0-.3.3-.6.6-.6h10.8c.3 0 .6.3.6.6v20.5c0 .3-.3.6-.6.6zm-10.2-1.2h9.6v-19.3h-9.6V420zM-597.2 390.5c-.1 0-.2 0-.3-.1-.2-.1-.3-.3-.3-.5v-10.2c0-.2.1-.4.3-.5.2-.1.4-.1.6 0l9.4 5.1c.2.1.3.3.3.5s-.1.4-.3.5l-9.4 5.1c-.1 0-.2.1-.3.1zm.6-9.9v8.3l7.6-4.1-7.6-4.2z"/><path d="M-610.6 406.3c-.3 0-.6-.3-.6-.6v-21c0-.3.3-.6.6-.6h13.4c.3 0 .6.3.6.6s-.3.6-.6.6H-610v20.4c0 .4-.3.6-.6.6M-610.6 421.2c-3.3 0-6-2.5-6-5.7 0-3.1 2.7-5.7 6-5.7s6 2.5 6 5.7c0 3.1-2.7 5.7-6 5.7zm0-10.3c-2.7 0-4.8 2-4.8 4.6 0 2.5 2.2 4.6 4.8 4.6 2.7 0 4.8-2 4.8-4.6 0-2.5-2.1-4.6-4.8-4.6z"/><path d="M-588.4 416h-16.8c-.3 0-.6-.3-.6-.6s.3-.6.6-.6h16.8c.3 0 .6.3.6.6 0 .4-.2.6-.6.6zm10.3-15.3c-.3 0-.6-.3-.6-.6v-14.8h-4.2c-.3 0-.6-.3-.6-.6s.3-.6.6-.6h4.8c.3 0 .6.3.6.6V400c0 .4-.3.7-.6.7z"/></g></symbol><symbol viewBox="-616 378 46 46" id="taxonomy--home"><title>Imported Layers</title><path d="M-593.3 423.2c-12.4 0-22.5-10.1-22.5-22.5s10.1-22.5 22.5-22.5 22.5 10.1 22.5 22.5-10.1 22.5-22.5 22.5zm0-43.4c-11.6 0-21 9.4-21 21s9.4 21 21 21 21-9.4 21-21-9.4-21-21-21zm11.2 31.9h-22.4c-.8 0-1.4-.6-1.4-1.4v-15.6c0-.6.4-1.3.9-1.6l10.7-6.2c.5-.3 1.3-.3 1.9 0l10.7 6.2c.5.3.9 1 .9 1.6v15.6c.1.8-.6 1.4-1.3 1.4zm-22.3-1.5h22.2v-15.5c0-.1-.1-.3-.2-.3l-10.7-6.2h-.4l-10.7 6.2c-.1 0-.2.2-.2.3v15.5z"/></symbol><symbol viewBox="-616 381 46 40" id="taxonomy--integration"><title>Imported Layers</title><path d="M-581.7 420.9h-22.7l-11.3-19.8 11.3-19.8h22.7l11.3 19.8-11.3 19.8zm-21.2-1.3h19.5l-9.7-17.1-9.8 17.1zm10.8-17.8l9.8 17.4 9.9-17.4h-19.7zm-21.8 0l9.8 17.2 9.8-17.2h-19.6zm21.9-1.3h19.7l-9.8-17.2-9.9 17.2zm-21.9 0h19.6l-9.7-17.2-9.9 17.2zm11-17.9l9.8 17.3 9.9-17.3h-19.7z"/></symbol><symbol viewBox="-601 362 77 77" id="taxonomy--iot"><title>Page 1</title><g transform="translate(1 1)"><path d="M-544 419.9h-39.6v-40.1h39.6v40.1zm-36.6-3h33.6v-34.1h-33.6v34.1z"/><path d="M-563.8 407.2c-4.1 0-7.4-3.3-7.4-7.4 0-4.1 3.3-7.4 7.4-7.4s7.4 3.3 7.4 7.4c-.1 4.1-3.4 7.4-7.4 7.4zm0-11.8c-2.4 0-4.4 2-4.4 4.4 0 2.4 2 4.4 4.4 4.4s4.4-2 4.4-4.4c-.1-2.4-2-4.4-4.4-4.4zM-586.6 396.6h-10c-3 0-5.4-2.4-5.4-5.4v-1.5c0-3 2.4-5.4 5.4-5.4h10v3h-10c-1.3 0-2.4 1.1-2.4 2.4v1.5c0 1.3 1.1 2.4 2.4 2.4h10v3zM-586.6 413.4h-10c-3 0-5.4-2.4-5.4-5.4v-1.5c0-3 2.4-5.4 5.4-5.4h10v3h-10c-1.3 0-2.4 1.1-2.4 2.4v1.5c0 1.3 1.1 2.4 2.4 2.4h10v3zM-531.1 414.4h-10v-3h10c1.3 0 2.4-1.1 2.4-2.4v-1.5c0-1.3-1.1-2.4-2.4-2.4h-10v-3h10c3 0 5.4 2.4 5.4 5.4v1.5c0 3-2.4 5.4-5.4 5.4zM-531.1 397.6h-10v-3h10c1.3 0 2.4-1.1 2.4-2.4v-1.5c0-1.3-1.1-2.4-2.4-2.4h-10v-3h10c3 0 5.4 2.4 5.4 5.4v1.5c0 3-2.4 5.4-5.4 5.4zM-571.5 438h-1.5c-3 0-5.4-2.4-5.4-5.4v-10h3v10c0 1.3 1.1 2.4 2.4 2.4h1.5c1.3 0 2.4-1.1 2.4-2.4v-10h3v10c0 3-2.4 5.4-5.4 5.4zM-554.6 438h-1.5c-3 0-5.4-2.4-5.4-5.4v-10h3v10c0 1.3 1.1 2.4 2.4 2.4h1.5c1.3 0 2.4-1.1 2.4-2.4v-10h3v10c0 3-2.4 5.4-5.4 5.4zM-549.2 376.8h-3v-10c0-1.3-1.1-2.4-2.4-2.4h-1.5c-1.3 0-2.4 1.1-2.4 2.4v10h-3v-10c0-3 2.4-5.4 5.4-5.4h1.5c3 0 5.4 2.4 5.4 5.4v10zM-566.1 376.8h-3v-10c0-1.3-1.1-2.4-2.4-2.4h-1.5c-1.3 0-2.4 1.1-2.4 2.4v10h-3v-10c0-3 2.4-5.4 5.4-5.4h1.5c3 0 5.4 2.4 5.4 5.4v10z"/></g></symbol><symbol viewBox="-617 378 45 45" id="taxonomy--media-cdn"><title>Group</title><g><path d="M-594.3 422.8c-12.3 0-22.3-10-22.3-22.3s10-22.3 22.3-22.3 22.3 10 22.3 22.3-10 22.3-22.3 22.3zm0-43.4c-11.6 0-21.1 9.5-21.1 21.1s9.5 21.1 21.1 21.1c11.6 0 21.1-9.5 21.1-21.1s-9.5-21.1-21.1-21.1z"/><path d="M-600.6 421.6l-.8-.9 11-10.4c.4-.4.5-1 .2-1.5l-8.3-14.5c-.6-1-.4-2.2.4-2.9l5.8-5.4c.4-.4.5-1 .2-1.5l-3.2-5.6 1-.6 3.2 5.6c.6 1 .4 2.2-.4 2.9l-5.8 5.4c-.4.4-.5 1-.2 1.5l8.3 14.5c.5 1 .4 2.1-.4 2.9l-11 10.5"/><path d="M-604.7 419.6l-1-.6 3.8-6.6c.2-.4.2-.8 0-1.2l-2.1-3.6c-.6-1-.4-2.2.4-2.9l3.2-3c.4-.4.5-1 .2-1.5l-2.4-4.1c-.2-.4-.6-.6-1-.6h-5.7c-.8 0-1.6-.5-2-1.2l-2.5-4.3 1-.6 2.5 4.3c.2.4.6.6 1 .6h5.7c.8 0 1.6.5 2 1.2l2.4 4.1c.6 1 .4 2.2-.4 2.9l-3.2 3c-.4.4-.5 1-.2 1.5l2.1 3.6c.4.7.4 1.6 0 2.4l-3.8 6.6M-572.9 404h-4.1c-.8 0-1.6-.5-2.1-1.2l-3.5-6c-.4-.7-.4-1.6 0-2.4l4.5-7.8 1 .6-4.5 7.8c-.2.4-.2.8 0 1.2l3.5 6c.2.4.6.6 1 .6h4.1v1.2"/></g></symbol><symbol viewBox="-622 370 65 62" id="taxonomy--mobile"><title>Page 1</title><g transform="translate(1 1)"><path d="M-589 408.3v-29.1c0-1.5 1.2-2.7 2.7-2.7h25.1c1.5 0 2.7 1.2 2.7 2.7V398c0 1.5-1.2 2.7-2.7 2.7h-17.9l-9.9 7.6zm2.7-29.8c-.4 0-.7.3-.7.7v25l7.3-5.5h18.6c.4 0 .7-.3.7-.7v-18.8c0-.4-.3-.7-.7-.7h-25.2z"/><path d="M-565.7 385.6h-16.1c-.6 0-1-.4-1-1s.4-1 1-1h16.1c.6 0 1 .4 1 1s-.5 1-1 1zM-565.7 392.9h-16.1c-.6 0-1-.4-1-1s.4-1 1-1h16.1c.6 0 1 .4 1 1s-.5 1-1 1zM-611.6 415.2h33.9v2h-33.9zM-592.9 422.9c0-1-.8-1.8-1.8-1.8s-1.8.8-1.8 1.8.8 1.8 1.8 1.8 1.8-.8 1.8-1.8"/><path d="M-580.9 430.6h-27.6c-2.3 0-4.1-1.9-4.1-4.2v-53.1c0-2.3 1.9-4.2 4.1-4.2h27.6c2.3 0 4.1 1.9 4.1 4.2v4.1h-2v-4.1c0-1.2-1-2.2-2.1-2.2h-27.6c-1.2 0-2.1 1-2.1 2.2v53.1c0 1.2 1 2.2 2.1 2.2h27.6c1.2 0 2.1-1 2.1-2.2v-26.6h2v26.6c.1 2.3-1.8 4.2-4.1 4.2z"/></g></symbol><symbol viewBox="-616 377 47 47" id="taxonomy--network"><title>Stroke 1 + Stroke 3</title><g transform="translate(1 1)"><path d="M-575.7 423c-3 0-5.4-2.4-5.4-5.4 0-3 2.4-5.4 5.4-5.4s5.4 2.4 5.4 5.4c0 3-2.4 5.4-5.4 5.4zm0-9.3c-2.1 0-3.9 1.8-3.9 3.9s1.7 3.9 3.9 3.9 3.9-1.8 3.9-3.9-1.8-3.9-3.9-3.9zm-35.5 9.3c-3 0-5.4-2.4-5.4-5.4 0-3 2.4-5.4 5.4-5.4 3 0 5.4 2.4 5.4 5.4 0 3-2.4 5.4-5.4 5.4zm0-9.3c-2.1 0-3.9 1.8-3.9 3.9s1.7 3.9 3.9 3.9c2.1 0 3.9-1.8 3.9-3.9s-1.7-3.9-3.9-3.9zm17.8-26.6c-3 0-5.4-2.4-5.4-5.4 0-3 2.4-5.4 5.4-5.4s5.4 2.4 5.4 5.4c-.1 3-2.5 5.4-5.4 5.4zm0-9.3c-2.1 0-3.9 1.8-3.9 3.9 0 2.2 1.7 3.9 3.9 3.9s3.9-1.8 3.9-3.9c-.1-2.1-1.8-3.9-3.9-3.9z"/><path d="M-575.7 413.7c-.4 0-.8-.3-.8-.8v-12.5h-34v12.5c0 .4-.3.8-.8.8s-.8-.3-.8-.8v-14h17.7v-12.5c0-.4.3-.8.8-.8s.7.3.7.8v12.5h17.7v14c.3.4-.1.8-.5.8z"/></g></symbol><symbol viewBox="-617 378 45 45" id="taxonomy--private-apis"><title>Imported Layers</title><g><path d="M-572.6 422.2H-616c-.3 0-.6-.3-.6-.6s.3-.6.6-.6h43.4c.3 0 .6.3.6.6s-.3.6-.6.6M-574.4 411.5h-39.9c-1.3 0-2.4-1-2.4-2.3v-28.6c0-1.3 1.1-2.3 2.4-2.3h39.9c1.3 0 2.4 1 2.4 2.3v28.6c0 1.3-1.1 2.3-2.4 2.3zm-39.9-32.1c-.7 0-1.2.5-1.2 1.2v28.6c0 .6.5 1.2 1.2 1.2h39.9c.7 0 1.2-.5 1.2-1.2v-28.6c0-.6-.5-1.2-1.2-1.2h-39.9z"/><path d="M-597 400.2c-.3.2-.7.3-1.2.3-.8 0-1.4-.4-1.4-1.5-.9 1-2.1 1.5-3.5 1.5-1.8 0-3.2-.8-3.2-2.7 0-2.2 1.7-2.7 3.3-3 1.8-.4 3.3-.2 3.3-1.4 0-1.4-1.2-1.6-2.2-1.6-1.4 0-2.4.4-2.4 1.8h-1.6c.1-2.4 2-3.2 4.2-3.2 1.8 0 3.7.4 3.7 2.7v5c0 .7 0 1.1.5 1.1.2 0 .3 0 .5-.1v1.1zm-2.6-5c-1.3.9-4.9 0-4.9 2.4 0 1 .9 1.4 1.9 1.4 2.1 0 3-1.3 3-2.2v-1.6zM-595.5 390.6h1.6v1.3c.5-1.1 1.8-1.5 3.1-1.5 3 0 4.5 2.4 4.5 5.1 0 2.7-1.5 5-4.5 5-1 0-2.5-.4-3.2-1.5v5h-1.6v-13.4h.1zm4.6 1.1c-2.2 0-3 1.9-3 3.6 0 1.9.9 3.7 3.1 3.7s2.9-1.9 2.9-3.7c0-1.8-.9-3.6-3-3.6zM-584.6 386.9h1.6v1.9h-1.6v-1.9zm0 3.7h1.6v9.7h-1.6v-9.7z"/></g></symbol><symbol viewBox="-623 378 32 45" id="taxonomy--security"><title>Imported Layers</title><g><path d="M-607 422.9c-8.7 0-15.7-6.7-15.7-15s7-15 15.7-15 15.7 6.7 15.7 15c0 8.2-7.1 15-15.7 15zm0-28.9c-8 0-14.5 6.2-14.5 13.8 0 7.6 6.5 13.8 14.5 13.8s14.5-6.2 14.5-13.8c-.1-7.6-6.6-13.8-14.5-13.8z"/><path d="M-604.3 406.5c0-1.4-1.2-2.5-2.7-2.5-1.5 0-2.7 1.1-2.7 2.5 0 1.1.7 2 1.7 2.3v4.4c0 .5.4 1 1 1s1-.4 1-1v-4.4c1-.3 1.7-1.2 1.7-2.3M-599.5 395.9c-.3 0-.6-.3-.6-.6v-9.1c0-3.6-3.1-6.6-6.9-6.6s-6.9 3-6.9 6.6v9.1c0 .3-.3.6-.6.6s-.6-.3-.6-.6v-9.1c0-4.3 3.6-7.8 8.1-7.8s8.1 3.5 8.1 7.8v9.1c0 .4-.3.6-.6.6"/></g></symbol><symbol viewBox="-616 379 47 44" id="taxonomy--storage"><title>Group</title><g transform="translate(1 1)"><path d="M-593.5 399.7c-9.3 0-23-1.5-23-5.7v-4.2h1.5v4.2c0 1.7 8.4 4.2 21.5 4.2s21.5-2.5 21.5-4.2v-4.2h1.5v4.2c0 4.2-13.7 5.7-23 5.7zM-593.5 389.7c-9.3 0-23-1.5-23-5.7s13.8-5.7 23-5.7 23 1.5 23 5.7-13.7 5.7-23 5.7zm0-9.9c-13.1 0-21.5 2.5-21.5 4.2s8.4 4.2 21.5 4.2 21.5-2.5 21.5-4.2-8.3-4.2-21.5-4.2zM-593.5 410.8c-9.3 0-23-1.5-23-5.7v-4.2h1.5v4.2c0 1.7 8.4 4.2 21.5 4.2s21.5-2.5 21.5-4.2v-4.2h1.5v4.2c0 4.2-13.7 5.7-23 5.7zM-593.5 421.9c-9.3 0-23-1.5-23-5.7V412h1.5v4.2c0 1.7 8.4 4.2 21.5 4.2s21.5-2.5 21.5-4.2V412h1.5v4.2c0 4.1-13.7 5.7-23 5.7z"/></g></symbol><symbol viewBox="0 0 32 32" fill-rule="evenodd" id="watson--Alchemy"><path d="M28.06 23.384h-8.09a.635.635 0 0 0-.553.32l-4.07 7.01a13.91 13.91 0 0 1-5.017-1.072l6.472-11.086h12.83a13.76 13.76 0 0 1-1.573 4.828m2.283-6.108h-13.91a.64.64 0 0 0-.552.317L8.867 29.61a.647.647 0 0 0-.06.512.65.65 0 0 0 .336.39c2.06.982 4.27 1.484 6.57 1.487h.002c.228 0 .44-.12.554-.32l4.072-7.017h8.093c.23 0 .44-.122.554-.32a15.112 15.112 0 0 0 1.995-6.376.638.638 0 0 0-.638-.692M5.896 4.805l6.407 11.21-6.485 11.12a14.213 14.213 0 0 1-3.423-3.794l4.036-7.02a.637.637 0 0 0 0-.64l-4.047-7a14.217 14.217 0 0 1 3.514-3.873zM5.138 16l-4.04 7.03a.642.642 0 0 0 .002.64 15.473 15.473 0 0 0 4.55 4.924.64.64 0 0 0 .916-.204l7.03-12.05a.644.644 0 0 0 .002-.64L6.655 3.553a.642.642 0 0 0-.917-.212 15.456 15.456 0 0 0-4.652 5.015.642.642 0 0 0 0 .64L5.14 16zM15.37 1.284l4.044 7.02a.64.64 0 0 0 .554.32h8.096a13.81 13.81 0 0 1 1.573 4.863l-12.83-.006-6.383-11.157a13.907 13.907 0 0 1 4.946-1.038zm.508 13.155c.114.2.327.32.557.32l13.912.006a.64.64 0 0 0 .64-.69 15.16 15.16 0 0 0-1.994-6.414.64.64 0 0 0-.554-.32h-8.103L16.292.32a.646.646 0 0 0-.557-.32 15.19 15.19 0 0 0-6.49 1.443.642.642 0 0 0-.285.897l6.918 12.1z"/></symbol><symbol viewBox="0 0 32 32" id="watson--Dialog"><path d="M23.846 0H8.212C3.684 0 0 3.67 0 8.182v7.956c0 4.512 3.684 8.182 8.212 8.182h6.842a.64.64 0 0 0 0-1.28H8.212c-3.822 0-6.932-3.095-6.932-6.902V8.182c0-3.806 3.11-6.902 6.932-6.902h15.634c3.79 0 6.874 3.096 6.874 6.902v7.956c0 3.807-3.084 6.902-6.874 6.902h-3.782l-4.617 8a.638.638 0 1 0 1.107.64l4.25-7.36h3.042c4.497 0 8.154-3.67 8.154-8.182V8.182C32 3.672 28.343 0 23.846 0"/><path d="M7.884 12.16a1.458 1.458 0 1 0 2.917 0 1.458 1.458 0 0 0-2.917 0M16 10.702a1.458 1.458 0 1 0 0 2.917 1.458 1.458 0 0 0 0-2.918m8.11 1.458a1.46 1.46 0 0 0-1.458-1.46 1.46 1.46 0 0 0 0 2.917c.805 0 1.458-.653 1.458-1.458"/></symbol><symbol fill-rule="evenodd" viewBox="0 0 32 32" id="watson--concept-insights"><path d="M26.5 20.22a4.223 4.223 0 0 1-4.218-4.187c0-.012.006-.02.006-.032s-.006-.02-.006-.032A4.224 4.224 0 0 1 26.5 11.78c2.325 0 4.22 1.892 4.22 4.22s-1.895 4.22-4.22 4.22m-4.59 8.13c0 1.307-1.064 2.37-2.37 2.37s-2.37-1.063-2.37-2.37a2.374 2.374 0 0 1 2.37-2.372 2.375 2.375 0 0 1 2.37 2.372M3.65 30.72a2.372 2.372 0 0 1-2.37-2.37 2.374 2.374 0 0 1 2.37-2.372 2.375 2.375 0 0 1 2.372 2.372 2.374 2.374 0 0 1-2.372 2.37m0-12.35A2.372 2.372 0 0 1 1.28 16a2.373 2.373 0 0 1 2.37-2.37A2.374 2.374 0 0 1 6.022 16a2.374 2.374 0 0 1-2.372 2.37M20.8 5.653c-.02.01-.044.01-.063.02-.017.01-.026.026-.04.036a2.335 2.335 0 0 1-1.157.313 2.373 2.373 0 0 1-2.37-2.37 2.372 2.372 0 0 1 4.742 0c0 .843-.447 1.58-1.11 2M26.5 10.5c-.724 0-1.408.148-2.04.4l-2.563-4.484A3.63 3.63 0 0 0 23.19 3.65c0-2.01-1.64-3.65-3.65-3.65a3.655 3.655 0 0 0-3.65 3.65 3.655 3.655 0 0 0 3.65 3.653c.442 0 .862-.09 1.255-.236l2.54 4.448a5.486 5.486 0 0 0-2.273 3.847H7.237a3.65 3.65 0 0 0-3.587-3.01C1.638 12.35 0 13.987 0 16s1.638 3.65 3.65 3.65a3.65 3.65 0 0 0 3.587-3.01h13.826a5.4 5.4 0 0 0 .292 1.255L6.51 26.107c-.67-.85-1.695-1.41-2.86-1.41A3.657 3.657 0 0 0 0 28.35 3.654 3.654 0 0 0 3.65 32a3.656 3.656 0 0 0 3.652-3.65c0-.39-.078-.76-.192-1.112l14.813-8.194a5.547 5.547 0 0 0 1.392 1.425l-2.546 4.455a3.6 3.6 0 0 0-1.23-.228 3.657 3.657 0 0 0-3.65 3.652A3.655 3.655 0 0 0 19.54 32a3.656 3.656 0 0 0 3.65-3.65c0-1.12-.52-2.114-1.315-2.784l2.557-4.476c.64.26 1.335.41 2.066.41 3.033 0 5.5-2.467 5.5-5.5s-2.467-5.5-5.5-5.5"/></symbol><symbol fill-rule="evenodd" viewBox="0 0 32 32" id="watson--document-conversion"><path d="M21.083 3.675h9.637V1.28h-9.637v2.395zM1.28 23.058h11.817V8.96H1.28v14.098zm19.803-5.86h9.637V14.8h-9.637v2.395zm0 13.522h9.637v-2.395h-9.637v2.395zm-.64-25.765H31.36a.64.64 0 0 0 .64-.64V.64a.64.64 0 0 0-.64-.64H20.443a.64.64 0 0 0-.64.64v1.194H7.195a.64.64 0 0 0-.64.64V7.68H.64a.64.64 0 0 0-.64.64v15.378c0 .353.287.64.64.64h5.915v5.188c0 .353.285.64.64.64h12.608v1.194c0 .353.287.64.64.64H31.36a.64.64 0 0 0 .64-.64v-3.675a.64.64 0 0 0-.64-.64H20.443a.64.64 0 0 0-.64.64v1.2H7.835V24.34h5.902a.64.64 0 0 0 .64-.64v-7.06h5.426v1.198c0 .353.287.64.64.64H31.36a.64.64 0 0 0 .64-.64v-3.676a.64.64 0 0 0-.64-.64H20.443a.64.64 0 0 0-.64.64v1.198h-5.426V8.32a.64.64 0 0 0-.64-.64H7.835V3.114h11.968v1.2c0 .354.285.64.64.64z"/><path d="M3.18 20.323h8.028a.64.64 0 0 0 0-1.28H3.18a.64.64 0 0 0 0 1.28m0-3.683h8.028a.64.64 0 0 0 0-1.28H3.18a.64.64 0 0 0 0 1.28m0-3.683h8.028a.64.64 0 0 0 0-1.28H3.18a.64.64 0 0 0 0 1.28"/></symbol><symbol fill-rule="evenodd" viewBox="0 0 32 32" id="watson--language-translation"><path d="M25.59 1.28c2.828 0 5.13 2.3 5.13 5.13s-2.302 5.13-5.13 5.13c-2.83 0-5.132-2.3-5.132-5.13s2.302-5.13 5.13-5.13zm0 11.54A6.417 6.417 0 0 0 32 6.41 6.42 6.42 0 0 0 25.59 0a6.418 6.418 0 0 0-6.412 6.41 6.416 6.416 0 0 0 6.41 6.41z"/><path d="M25.594 4.663l.86 2.05H24.73l.864-2.05zm-2.76 4.903a.64.64 0 0 0 .838-.342l.52-1.23h2.798l.515 1.23c.136.326.51.48.838.342a.643.643 0 0 0 .343-.838l-2.5-5.965a.642.642 0 0 0-1.18 0l-2.514 5.964c-.137.326.015.7.34.84zM1.28 30.72h10.208V20.51H1.28v10.21zm10.848-11.49H.64a.64.64 0 0 0-.64.64v11.49c0 .353.287.64.64.64h11.488a.64.64 0 0 0 .64-.64V19.87a.64.64 0 0 0-.64-.64z"/><path d="M3.333 24.513H7.33c-.015.63-.154 1.676-.854 2.476-.027.03-.066.05-.094.08a3.218 3.218 0 0 1-.767-1.37.64.64 0 0 0-1.23.352 4.62 4.62 0 0 0 .926 1.73c-.54.22-1.18.337-1.927.337a.64.64 0 0 0 0 1.28c1.19 0 2.174-.258 2.982-.724.73.43 1.71.723 3.024.723a.64.64 0 0 0 0-1.28c-.746 0-1.386-.11-1.924-.327.94-1.098 1.126-2.46 1.142-3.28h.828a.64.64 0 0 0 0-1.28H7.023v-.762a.64.64 0 0 0-1.28 0v.76h-2.41a.64.64 0 0 0 0 1.28M.64 16.668a.64.64 0 0 0 .64-.64V6.52c0-.76.62-1.38 1.38-1.38h11.808L11.7 7.908a.64.64 0 0 0 .904.905l3.86-3.86c.06-.06.107-.13.14-.208a.65.65 0 0 0 0-.49.63.63 0 0 0-.14-.208l-3.86-3.86a.64.64 0 1 0-.904.906l2.768 2.767H2.66A2.663 2.663 0 0 0 0 6.52v9.507c0 .353.287.64.64.64m30.72-1.334a.64.64 0 0 0-.64.64v9.507c0 .76-.62 1.38-1.382 1.38H17.532l2.766-2.768a.64.64 0 0 0-.905-.905l-3.858 3.86a.652.652 0 0 0-.14.208.65.65 0 0 0 0 .49.63.63 0 0 0 .14.208l3.858 3.86a.644.644 0 0 0 .905 0 .64.64 0 0 0 0-.906l-2.766-2.767h11.806a2.663 2.663 0 0 0 2.66-2.66v-9.507a.64.64 0 0 0-.64-.64"/></symbol><symbol fill-rule="evenodd" viewBox="0 0 32 32" id="watson--natural-language-classifier"><path d="M1.28 17.087h7.448v-2.163H1.28v2.163zM2.715 3.572a2.294 2.294 0 0 1 2.29-2.292 2.294 2.294 0 0 1 2.292 2.292 2.295 2.295 0 0 1-2.29 2.292 2.296 2.296 0 0 1-2.292-2.292zm6.653 10.072H5.646V7.078a3.57 3.57 0 0 0 2.93-3.506c0-1.97-1.6-3.572-3.57-3.572a3.574 3.574 0 0 0-3.57 3.572 3.57 3.57 0 0 0 2.93 3.506v6.566H.64a.64.64 0 0 0-.64.64v3.443c0 .353.287.64.64.64h8.728a.64.64 0 0 0 .64-.64v-3.443a.638.638 0 0 0-.64-.64zm2.907 3.443h7.45v-2.163h-7.45v2.163zM13.78 30.72h4.44v-4.44h-4.44v4.44zm6.585-17.076h-8.73a.64.64 0 0 0-.64.64v3.443c0 .353.286.64.64.64h3.725V25h-2.22a.64.64 0 0 0-.64.64v5.72c0 .353.286.64.64.64h5.72a.64.64 0 0 0 .64-.64v-5.72a.64.64 0 0 0-.64-.64h-2.22v-6.633h3.725a.64.64 0 0 0 .64-.64v-3.443a.64.64 0 0 0-.64-.64zm2.907 3.443h7.448v-2.163h-7.448v2.163zM26.994 1.92l2.07 3.587h-4.14l2.07-3.587zm4.366 11.724h-3.726V6.787h2.54a.638.638 0 0 0 .554-.96L27.548.32c-.228-.397-.88-.397-1.108 0l-3.18 5.507a.642.642 0 0 0 .554.96h2.54v6.857h-3.722a.638.638 0 0 0-.64.64v3.443c0 .353.285.64.64.64h8.728a.64.64 0 0 0 .64-.64v-3.443a.64.64 0 0 0-.64-.64z"/></symbol><symbol fill-rule="evenodd" viewBox="0 0 32 32" id="watson--personality-insights"><path d="M26.3 6.024l2.008-3.967 2.01 3.967H26.3zM1.28 3.652A2.375 2.375 0 0 1 3.652 1.28a2.375 2.375 0 0 1 2.372 2.372 2.375 2.375 0 0 1-2.372 2.372A2.375 2.375 0 0 1 1.28 3.652zm12.342 2.372h4.743V1.28h-4.743v4.744zm18.31.35L28.878.35c-.218-.43-.924-.43-1.143 0l-3.05 6.024a.64.64 0 0 0 .572.93h2.412V9.51c0 1.116-.498 1.636-1.564 1.636h-9.47V7.304H19a.64.64 0 0 0 .64-.64V.64A.64.64 0 0 0 19 0H12.98a.64.64 0 0 0-.64.64v6.024c0 .353.286.64.64.64h2.378v3.842H5.842c-1.057 0-1.55-.52-1.55-1.637V7.24a3.652 3.652 0 0 0 3.012-3.588A3.657 3.657 0 0 0 3.652 0 3.656 3.656 0 0 0 0 3.652 3.652 3.652 0 0 0 3.013 7.24v2.27c0 1.826 1.057 2.916 2.83 2.916h9.517v3a3.836 3.836 0 0 0-3.2 3.775c0 1.05.426 2.03 1.148 2.74a6.227 6.227 0 0 0-3.563 5.65v3.77h1.28v-3.77a4.953 4.953 0 0 1 3.823-4.84.64.64 0 0 0 .114-1.208 2.562 2.562 0 0 1-1.523-2.34c0-1.41 1.147-2.56 2.56-2.56 1.41 0 2.56 1.15 2.56 2.56 0 1.01-.598 1.93-1.52 2.34a.642.642 0 0 0 .11 1.208 4.956 4.956 0 0 1 3.824 4.84v3.772h1.28v-3.77a6.225 6.225 0 0 0-3.563-5.65 3.846 3.846 0 0 0 1.15-2.74c0-1.897-1.39-3.468-3.2-3.775v-3h9.47c1.78 0 2.84-1.09 2.84-2.916V7.304h2.41a.64.64 0 0 0 .57-.93z"/></symbol><symbol fill-rule="evenodd" viewBox="0 0 32 32" id="watson--relationship-extraction"><path d="M1.28 7.48h7.544v-2.2H1.28v2.2zM.64 8.76h8.824c.354 0 .64-.284.64-.64V4.64a.64.64 0 0 0-.64-.64H.64a.64.64 0 0 0-.64.64v3.48c0 .356.287.64.64.64zm11.666-1.28H30.72v-2.2H12.306v2.2zM31.36 4H11.666a.64.64 0 0 0-.64.64v3.48c0 .356.285.64.64.64H31.36a.64.64 0 0 0 .64-.64V4.64a.64.64 0 0 0-.64-.64zm-8.186 12.905h7.546v-2.202h-7.546v2.202zm8.186-3.483h-8.826a.64.64 0 0 0-.64.64v3.483c0 .353.287.64.64.64h8.826a.64.64 0 0 0 .64-.64v-3.483a.64.64 0 0 0-.64-.64zM1.28 16.904h18.414v-2.202H1.28v2.202zm-.64 1.28h19.694a.64.64 0 0 0 .64-.64v-3.482a.64.64 0 0 0-.64-.64H.64a.64.64 0 0 0-.64.64v3.483c0 .353.287.64.64.64zm.64 8.14h7.544v-2.2H1.28v2.2zm8.184-3.48H.64a.64.64 0 0 0-.64.64v3.48c0 .354.287.64.64.64h8.824a.64.64 0 0 0 .64-.64v-3.48a.638.638 0 0 0-.64-.64zm2.842 3.48H30.72v-2.2H12.306v2.2zm19.054-3.48H11.666a.637.637 0 0 0-.64.64v3.48c0 .354.285.64.64.64H31.36a.64.64 0 0 0 .64-.64v-3.48a.64.64 0 0 0-.64-.64z"/></symbol><symbol fill-rule="evenodd" viewBox="0 0 32 32" id="watson--retrieve-and-rank"><path d="M6.447 13.767h4.133v-1.294H6.447v1.294zm5.413.64v-2.574a.64.64 0 0 0-.64-.64H5.807a.64.64 0 0 0-.64.64v2.574c0 .353.287.64.64.64h5.413a.64.64 0 0 0 .64-.64zM8.804 20.14h4.872v-1.295H8.804v1.294zm-.64-2.575a.64.64 0 0 0-.64.64v2.574c0 .352.287.64.64.64h6.152a.64.64 0 0 0 .64-.64v-2.576a.64.64 0 0 0-.64-.64H8.164zm.64-10.17h4.872V6.1H8.804v1.295zm-.64 1.28h6.152a.64.64 0 0 0 .64-.64V5.46a.64.64 0 0 0-.64-.64H8.164a.64.64 0 0 0-.64.64v2.575c0 .353.287.64.64.64z"/><path d="M24.086 13.784h-9.13V12.49h9.173c0 .074.01.146.01.22 0 .363-.02.72-.055 1.074zm-1.044 3.78h-5.794a.64.64 0 0 0-.64.64v2.576c0 .353.285.64.64.64h2.846a11.373 11.373 0 0 1-7.384 2.72c-6.303 0-11.43-5.128-11.43-11.43S6.407 1.28 12.71 1.28c3.242 0 6.168 1.364 8.25 3.54h-3.673a.64.64 0 0 0-.64.64v2.575c0 .354.287.64.64.64h6.103a11.3 11.3 0 0 1 .64 2.535h-9.715a.64.64 0 0 0-.64.64v2.574c0 .354.286.64.64.64h9.58a11.38 11.38 0 0 1-.853 2.5zm-1.664 2.576h-3.49v-1.295h4.45c-.29.454-.61.886-.96 1.295zm.64-14.04c.295.414.565.844.803 1.295H17.93V6.1h4.09zM32 9.917a.64.64 0 0 0-.64-.64h-6.423c-.14-.5-.302-.99-.5-1.463-.006-.015-.01-.03-.016-.043-.06-.145-.14-.285-.205-.43h7.146a.64.64 0 0 0 0-1.28h-7.84a12.25 12.25 0 0 0-.57-.844.604.604 0 0 0-.17-.23C20.455 1.96 16.81 0 12.71 0 5.7 0 0 5.702 0 12.71c0 7.008 5.7 12.71 12.71 12.71 3.274 0 6.253-1.255 8.51-3.296l9.688 9.688a.64.64 0 1 0 .905-.906l-9.676-9.675c.034-.032.053-.076.078-.114a12.815 12.815 0 0 0 1.776-2.578.615.615 0 0 0 .073-.148c.227-.45.425-.918.598-1.398h6.697a.64.64 0 0 0 0-1.28h-6.31c.153-.63.264-1.276.32-1.94h5.994a.64.64 0 0 0 0-1.28h-5.95c-.004-.2-.02-.395-.03-.592 0-.02.01-.035.01-.054 0-.032-.013-.06-.017-.09-.03-.406-.08-.807-.15-1.203h6.138a.64.64 0 0 0 .64-.64z"/></symbol><symbol fill-rule="evenodd" viewBox="0 0 32 32" id="watson--speech-to-text"><path d="M14.593 21.083H30.72V1.28H14.593v19.803zM31.36 0H13.953a.64.64 0 0 0-.64.64v14.886a4.48 4.48 0 0 0-1.17-.166H4.466C2.003 15.36 0 17.37 0 19.84v3.77c0 2.47 2.003 4.48 4.466 4.48h1.368l2.073 3.59a.643.643 0 0 0 .875.234.64.64 0 0 0 .233-.874l-2.442-4.23H4.466a3.196 3.196 0 0 1-3.186-3.2v-3.77c0-1.795 1.4-3.2 3.186-3.2h7.677c.404 0 .797.1 1.17.247v4.836c0 .353.287.64.64.64h1.407v1.247c0 1.765-1.443 3.2-3.217 3.2h-3.2a.64.64 0 0 0 0 1.28h3.2c2.48 0 4.497-2.01 4.497-4.48v-1.247h14.72a.64.64 0 0 0 .64-.64V.64a.64.64 0 0 0-.64-.64z"/><path d="M17.318 17.216h10.677a.64.64 0 0 0 0-1.28H17.318a.64.64 0 0 0 0 1.28m.006-5.286H28a.64.64 0 0 0 0-1.28H17.324a.64.64 0 0 0 0 1.28m0-5.535h10.678a.64.64 0 0 0 0-1.28H17.325a.64.64 0 0 0 0 1.28M2.673 10.87a.64.64 0 0 0 .64-.64 5.15 5.15 0 0 1 5.143-5.143h.89l-.844.846a.64.64 0 0 0 .905.905L11.345 4.9a.64.64 0 0 0 0-.905l-1.938-1.94a.64.64 0 0 0-.905.906l.846.848h-.892a6.43 6.43 0 0 0-6.423 6.423c0 .354.287.64.64.64m9.92 10.714a.743.743 0 1 0-1.483-.002.743.743 0 0 0 1.483.003m-3.39 0a.742.742 0 0 0-1.483 0 .744.744 0 0 0 1.484 0m-4.87 0a.743.743 0 1 0 1.486-.003.743.743 0 0 0-1.486.004"/></symbol><symbol fill-rule="evenodd" viewBox="0 0 32 32" id="watson--text-to-speech"><path d="M29.54 15.992h-8.453a5.46 5.46 0 0 0-.78-2.47c.063.023.13.04.202.04h7.663a.615.615 0 0 0 0-1.23H20.51a.616.616 0 0 0-.616.616 5.467 5.467 0 0 0-1.16-1.103V2.462H29.54v13.53zm.614-14.76H18.12a.613.613 0 0 0-.615.614v9.38a5.416 5.416 0 0 0-1.88-.353H5.5a5.506 5.506 0 0 0-5.5 5.5v5.11c0 3.032 2.467 5.5 5.5 5.5h1.907l2.6 4.698a.61.61 0 0 0 .837.24.612.612 0 0 0 .24-.833l-2.95-5.334H5.5a4.275 4.275 0 0 1-4.27-4.27v-5.11a4.273 4.273 0 0 1 4.27-4.268h10.125a4.273 4.273 0 0 1 4.27 4.27v5.108a4.275 4.275 0 0 1-4.27 4.27h-4.43a.615.615 0 0 0-.002 1.23h4.43a5.507 5.507 0 0 0 5.502-5.5v-4.26h9.028c.34 0 .616-.275.616-.615V1.848a.615.615 0 0 0-.617-.617zm-1.686 20.294a.615.615 0 0 0-.615.616 4.94 4.94 0 0 1-4.934 4.934h-.855l.81-.81a.616.616 0 0 0-.87-.87l-1.86 1.86a.6.6 0 0 0-.133.673.61.61 0 0 0 .133.2l1.86 1.86a.614.614 0 0 0 .87 0c.24-.24.24-.63 0-.87l-.81-.81h.854a6.173 6.173 0 0 0 6.163-6.167.616.616 0 0 0-.616-.616"/><path d="M15.703 18.933a1.008 1.008 0 1 0-2.014 0 1.008 1.008 0 0 0 2.014 0m-4.133 0a1.007 1.007 0 1 0-2.017 0 1.007 1.007 0 0 0 2.018 0m-6.147 0a1.008 1.008 0 1 0 2.016-.002 1.008 1.008 0 0 0-2.017.003m15.085-9.09h7.666a.615.615 0 0 0 0-1.23h-7.667a.615.615 0 0 0 0 1.23m0-3.72h7.667a.615.615 0 0 0 0-1.23h-7.667a.615.615 0 0 0 0 1.23"/></symbol><symbol fill-rule="evenodd" viewBox="0 0 32 32" id="watson--tone-analyzer"><path d="M8.042 15.58a.605.605 0 0 0 0-1.212.605.605 0 0 0 0 1.213m6.49 0a.606.606 0 0 0 0-1.212.606.606 0 0 0 0 1.213M22.005 4.22a.606.606 0 0 0-1.213 0 .608.608 0 0 0 1.215 0m4.85 0a.607.607 0 1 0-1.21 0 .607.607 0 0 0 1.21 0"/><path d="M27.6 0h-7.84a4.406 4.406 0 0 0-4.4 4.4v5.027H5.867a5.877 5.877 0 0 0-5.87 5.868v5.47a5.876 5.876 0 0 0 5.87 5.867H7.92l2.788 5.038a.64.64 0 0 0 1.12-.62l-3.153-5.698H5.868c-2.53 0-4.59-2.06-4.59-4.588v-5.47c0-2.53 2.06-4.587 4.59-4.587h10.837a4.592 4.592 0 0 1 4.587 4.588v5.47a4.593 4.593 0 0 1-4.587 4.587h-4.743a.64.64 0 0 0 0 1.28h4.743a5.875 5.875 0 0 0 5.867-5.868v-5.47c0-.92-.232-1.78-.612-2.557h2.016a.64.64 0 0 0 0-1.28h-2.868c-1.077-1.232-2.642-2.03-4.403-2.03h-.066V4.4c0-1.72 1.4-3.12 3.12-3.12h7.84c1.72 0 3.12 1.4 3.12 3.12v3.937c0 1.72-1.4 3.12-3.12 3.12h-.846l-2.44 4.223a.64.64 0 1 0 1.108.64l2.07-3.583h.106c2.426 0 4.4-1.975 4.4-4.4V4.4A4.404 4.404 0 0 0 27.6 0"/><path d="M21.398 8.94a.64.64 0 0 0 .64-.64c0-.984.8-1.786 1.786-1.786A1.79 1.79 0 0 1 25.61 8.3a.64.64 0 0 0 1.28 0 3.07 3.07 0 0 0-3.067-3.066A3.07 3.07 0 0 0 20.757 8.3c0 .353.286.64.64.64m-10.11 12.41a3.888 3.888 0 0 0 3.885-3.885.64.64 0 0 0-1.28 0 2.607 2.607 0 0 1-2.604 2.606 2.608 2.608 0 0 1-2.607-2.604.64.64 0 0 0-1.28 0 3.892 3.892 0 0 0 3.89 3.886"/></symbol><symbol fill-rule="evenodd" viewBox="0 0 32 32" id="watson--tradeoff-analytics"><path d="M31.36 15.096H.64a.64.64 0 0 0 0 1.28h14.72v11.958h-3.695a.64.64 0 0 0 0 1.28h8.67a.64.64 0 0 0 0-1.28H16.64V16.376h14.72a.64.64 0 0 0 0-1.28M24.484 4.363a4.182 4.182 0 0 1 4.178 4.177c0 2.303-1.874 4.177-4.178 4.177s-4.178-1.874-4.178-4.177a4.182 4.182 0 0 1 4.178-4.177m0 9.634c3.01 0 5.458-2.45 5.458-5.457 0-3.01-2.45-5.457-5.458-5.457a5.463 5.463 0 0 0-5.458 5.457 5.464 5.464 0 0 0 5.458 5.457M8.027 4.28c.776 0 1.407.63 1.407 1.405a1.407 1.407 0 0 1-2.813 0c0-.775.633-1.405 1.408-1.405m0 4.09a2.69 2.69 0 0 0 2.687-2.685A2.69 2.69 0 0 0 8.027 3 2.69 2.69 0 0 0 5.34 5.685 2.69 2.69 0 0 0 8.027 8.37m3.285 1.458c.774 0 1.405.63 1.405 1.405 0 .774-.63 1.405-1.405 1.405s-1.406-.63-1.406-1.405c0-.776.63-1.405 1.406-1.405m-2.686 1.405a2.69 2.69 0 0 0 2.686 2.685 2.688 2.688 0 0 0 2.685-2.685 2.688 2.688 0 0 0-2.685-2.685 2.69 2.69 0 0 0-2.686 2.685M4.743 9.828c.775 0 1.406.63 1.406 1.405a1.407 1.407 0 0 1-2.813 0c0-.776.63-1.405 1.405-1.405m0 4.09a2.69 2.69 0 0 0 2.686-2.685A2.69 2.69 0 0 0 4.74 8.548a2.69 2.69 0 0 0-2.685 2.685 2.69 2.69 0 0 0 2.686 2.685"/></symbol><symbol fill-rule="evenodd" viewBox="0 0 32 32" id="watson--visual-recognition"><path d="M31.36 32H8.31a.64.64 0 0 1-.64-.64V16.004h1.28V30.72h21.77V8.818H16v-1.28h15.36a.64.64 0 0 1 .64.64V31.36a.64.64 0 0 1-.64.64"/><path d="M31.36 32a.64.64 0 0 1-.54-.296l-5.013-7.877-4.06 2.343a.634.634 0 0 1-.487.064.646.646 0 0 1-.39-.3l-4.56-8-7.686 4.34a.643.643 0 0 1-.872-.24.642.642 0 0 1 .242-.874l8.242-4.656a.644.644 0 0 1 .87.24l4.56 7.996 4.032-2.326a.638.638 0 0 1 .86.21l5.342 8.392a.642.642 0 0 1-.54.984m-7.637-19.768c-.676 0-1.225.55-1.225 1.225s.55 1.225 1.225 1.225c.676 0 1.226-.55 1.226-1.225 0-.674-.55-1.225-1.228-1.225m0 3.73a2.508 2.508 0 0 1-2.505-2.505 2.51 2.51 0 0 1 2.505-2.505 2.508 2.508 0 0 1 2.506 2.505 2.508 2.508 0 0 1-2.507 2.505M8.32 1.28c-3.88 0-7.04 3.16-7.04 7.04 0 3.884 3.16 7.043 7.04 7.043 3.884 0 7.043-3.16 7.043-7.042 0-3.88-3.16-7.04-7.042-7.04m0 15.364C3.736 16.644 0 12.91 0 8.32 0 3.733 3.734 0 8.32 0c4.59 0 8.323 3.732 8.323 8.32 0 4.59-3.734 8.323-8.322 8.323"/><path d="M15.77 7.167H8.323a.64.64 0 0 1-.64-.64v-2.48a.64.64 0 0 1 .64-.64h6.19a.64.64 0 0 1 0 1.28h-5.55v1.2h6.81a.64.64 0 0 1 0 1.28m-.953 5.887H4.484a.64.64 0 0 1-.64-.64v-2.48a.64.64 0 0 1 .64-.64H15.77a.64.64 0 0 1 .64.64c0 .355-.284.64-.64.64H5.124v1.2h9.698a.64.64 0 0 1 0 1.28"/></symbol></svg>