<?xml version="1.0" encoding="utf-8"?>
<!-- Generator: Adobe Illustrator 19.1.0, SVG Export Plug-In . SVG Version: 6.00 Build 0)  -->
<!DOCTYPE svg PUBLIC "-//W3C//DTD SVG 1.1//EN" "http://www.w3.org/Graphics/SVG/1.1/DTD/svg11.dtd">
<svg version="1.1" id="Layer_1" xmlns="http://www.w3.org/2000/svg" xmlns:xlink="http://www.w3.org/1999/xlink" x="0px" y="0px"
	 width="24px" height="24px" viewBox="12 -4 24 24" style="enable-background:new 12 -4 24 24;" xml:space="preserve">
<title>Artboard 1</title>
<desc>Created with Sketch.</desc>
<path d="M24-4C17.4-4,12,1.4,12,8s5.4,12,12,12s12-5.4,12-12S30.6-4,24-4z M24,18c-1.8,0-3.5-0.5-5-1.4l0.1-0.1l12-15l0.2-0.4
	C33,3,34,5.4,34,8C34,13.5,29.5,18,24,18z M24-2c1.8,0,3.5,0.5,5,1.4L29-0.5l-12,15l-0.2,0.4C15,13,14,10.6,14,8C14,2.5,18.5-2,24-2
	z"/>
</svg>
