<?xml version="1.0" encoding="UTF-8" standalone="no"?>
<svg width="32px" height="32px" viewBox="0 0 32 32" version="1.1" xmlns="http://www.w3.org/2000/svg" xmlns:xlink="http://www.w3.org/1999/xlink">
    <!-- Generator: Sketch 3.8.3 (29802) - http://www.bohemiancoding.com/sketch -->
    <title>Artboard 1</title>
    <desc>Created with Sketch.</desc>
    <defs></defs>
    <g id="Page-1" stroke="none" stroke-width="1" fill="none" fill-rule="evenodd">
        <g id="Artboard-1" fill="#000000">
            <path d="M16,0 C7.2,0 0,7.2 0,16 C0,24.8 7.2,32 16,32 C24.8,32 32,24.8 32,16 C32,7.2 24.8,0 16,0 L16,0 L16,0 Z M2.2,16 C2.2,8.4 8.4,2.2 16,2.2 C18.6,2.2 20.8,2.8 23,4 L22.6,4.6 L6.6,24.6 L6.2,25.2 C3.6,22.8 2.2,19.6 2.2,16 L2.2,16 L2.2,16 Z M16,29.8 C13.4,29.8 11.2,29.2 9,28 L9.4,27.4 L25.4,7.4 L25.8,6.8 C28,9.2 29.4,12.6 29.4,16.2 C29.8,23.6 23.6,29.8 16,29.8 L16,29.8 L16,29.8 Z" id="Shape"></path>
        </g>
    </g>
</svg>