<svg width="16px" height="16px" viewBox="0 0 16 16" fill-rule="evenodd" version="1.1" xmlns="http://www.w3.org/2000/svg" xmlns:xlink="http://www.w3.org/1999/xlink">
  <path d="M8,0 C3.6,0 0,3.6 0,8 C0,12.4 3.6,16 8,16 C12.4,16 16,12.4 16,8 C16,3.6 12.4,0 8,0 L8,0 Z M1.1,8 C1.1,4.2 4.2,1.1 8,1.1 C9.3,1.1 10.4,1.4 11.5,2 L11.3,2.3 L3.3,12.3 L3.1,12.6 C1.8,11.4 1.1,9.8 1.1,8 L1.1,8 Z M8,14.9 C6.7,14.9 5.6,14.6 4.5,14 L4.7,13.7 L12.7,3.7 L12.9,3.4 C14,4.6 14.7,6.3 14.7,8.1 C14.9,11.8 11.8,14.9 8,14.9 L8,14.9 Z"></path>
</svg>
