<?xml version="1.0" encoding="UTF-8" standalone="no"?>
<svg width="32px" height="32px" viewBox="0 0 32 32" version="1.1" xmlns="http://www.w3.org/2000/svg" xmlns:xlink="http://www.w3.org/1999/xlink">
    <!-- Generator: Sketch 3.8.3 (29802) - http://www.bohemiancoding.com/sketch -->
    <title>Artboard 1</title>
    <desc>Created with Sketch.</desc>
    <defs></defs>
    <g id="Page-1" stroke="none" stroke-width="1" fill="none" fill-rule="evenodd">
        <path d="M18.2103529,13.9072941 L11.7557647,13.9072941 L11.7557647,16.0588235 L13.9072941,16.0588235 L13.9072941,22.5134118 L11.7557647,22.5134118 L11.7557647,24.6630588 L20.3618824,24.6630588 L20.3618824,22.5152941 L18.2103529,22.5152941 L18.2103529,13.9072941 Z M16.0588235,11.7557647 C17.2470804,11.7557647 18.2103529,10.7924922 18.2103529,9.60423529 C18.2103529,8.41597841 17.2470804,7.45270588 16.0588235,7.45270588 C14.8705666,7.45270588 13.9072941,8.41597841 13.9072941,9.60423529 C13.9072941,10.7924922 14.8705666,11.7557647 16.0588235,11.7557647 L16.0588235,11.7557647 Z" id="Shape"></path>
        <path d="M16.0588235,28.9661176 C8.9337619,28.9578194 3.15982764,23.1838852 3.15152941,16.0588235 C3.15982764,8.9337619 8.9337619,3.15982764 16.0588235,3.15152941 C23.1838852,3.15982764 28.9578194,8.9337619 28.9661176,16.0588235 C28.9578194,23.1838852 23.1838852,28.9578194 16.0588235,28.9661176 M16.0588235,1 C7.74154515,1.0005198 0.999480203,7.7434275 1,16.0607059 C1.0005198,24.3779843 7.7434275,31.1200492 16.0607059,31.1195294 C24.3779843,31.1190096 31.1200492,24.3761019 31.1195294,16.0588235 C31.1190096,7.74154515 24.3761019,0.999480203 16.0588235,1" id="Shape"></path>
    </g>
</svg>
