<svg width="32px" height="32px" viewBox="0 0 32 32" version="1.1" xmlns="http://www.w3.org/2000/svg" xmlns:xlink="http://www.w3.org/1999/xlink" fill-rule="evenodd">
  <polygon points="13.6946216 18.5674569 10.0861608 14.8892765 8.5372549 16.4702157 13.6946216 21.727451 23.234902 12.0006235 21.6859961 10.4215686"></polygon>
  <path d="M16.0745098,1 C7.74856759,1.00052034 0.999479661,7.7504519 1,16.0763941 C1.00052034,24.4023363 7.7504519,31.1514243 16.0763941,31.1509039 C24.4023363,31.1503836 31.1514243,24.400452 31.1509039,16.0745098 C31.1503836,7.74856759 24.400452,0.999479661 16.0745098,1 L16.0745098,1 Z M16.0745098,28.995249 C8.94202623,28.9869421 3.16207746,23.2069934 3.15377059,16.0745098 C3.16207746,8.94202623 8.94202623,3.16207746 16.0745098,3.15377059 C23.2069934,3.16207746 28.9869421,8.94202623 28.995249,16.0745098 C28.9869421,23.2069934 23.2069934,28.9869421 16.0745098,28.995249 L16.0745098,28.995249 Z"></path>
</svg>
