<svg width="24" height="24" viewBox="0 0 24 24" fill-rule="evenodd"><path d="M10.9 3c-.4-1.7-2-3-3.9-3S3.6 1.3 3.1 3H0v2h3.1c.4 1.7 2 3 3.9 3s3.4-1.3 3.9-3H24V3H10.9zM7 5c-.6 0-1-.4-1-1s.4-1 1-1 1 .4 1 1-.4 1-1 1zM17 8c-1.9 0-3.4 1.3-3.9 3H0v2h13.1c.4 1.7 2 3 3.9 3s3.4-1.3 3.9-3H24v-2h-3.1c-.5-1.7-2-3-3.9-3zm0 5c-.6 0-1-.4-1-1s.4-1 1-1 1 .4 1 1-.4 1-1 1zM7 16c-1.9 0-3.4 1.3-3.9 3H0v2h3.1c.4 1.7 2 3 3.9 3s3.4-1.3 3.9-3H24v-2H10.9c-.5-1.7-2-3-3.9-3zm0 5c-.6 0-1-.4-1-1s.4-1 1-1 1 .4 1 1-.4 1-1 1z"></path></svg>