<svg width="24" height="24" viewBox="0 0 24 24" fill-rule="evenodd"><path d="M22.3 1.7C21.2.7 19.8 0 18.2 0c-1.6 0-3.1.7-4.1 1.7l-2.5 2.5c-1.1 1.1-1.7 2.5-1.7 4.1 0 .6.1 1.2.3 1.8-.7-.2-1.2-.3-1.9-.3-1.6 0-3.1.7-4.1 1.7L1.7 14C.7 15.1 0 16.5 0 18.2c0 1.6.6 3.1 1.7 4.2 1 1 2.5 1.6 4.1 1.6 1.6 0 3.1-.7 4.1-1.7l2.5-2.5c1.1-1.1 1.7-2.5 1.7-4.1 0-.6-.1-1.2-.3-1.8.6.2 1.2.3 1.8.3 1.6 0 3.1-.7 4.1-1.7l2.5-2.5C23.3 8.9 24 7.5 24 5.8c0-1.6-.7-3-1.7-4.1zM10.9 18.2l-2.5 2.5c-.7.7-1.6 1.1-2.6 1.1s-2-.4-2.6-1c-.7-.7-1-1.6-1-2.6s.4-1.9 1.1-2.6l2.5-2.5c.6-.7 1.6-1.1 2.5-1.1.6 0 1.2.2 1.7.4l-3.2 3.2 1.5 1.5 3.2-3.2c.3.5.4 1.1.4 1.7.1 1-.3 2-1 2.6zm9.8-9.8l-2.5 2.5c-.7.7-1.6 1.1-2.6 1.1-.6 0-1.2-.2-1.7-.4l3.2-3.2-1.5-1.5-3.2 3.2c-.2-.6-.4-1.1-.4-1.8 0-1 .4-1.9 1.1-2.6l2.5-2.5c.7-.7 1.6-1.1 2.6-1.1s1.9.4 2.6 1.1c.7.7 1.1 1.6 1.1 2.6-.1 1-.5 1.9-1.2 2.6z"></path></svg>