<svg width="32" height="32" viewBox="0 0 32 32" xmlns="http://www.w3.org/2000/svg" fill-rule="evenodd">
  <path d="M28.06 23.384h-8.09c-.228 0-.438.12-.553.32l-4.07 7.01c-1.743-.047-3.426-.407-5.017-1.072l6.472-11.086h12.83c-.223 1.7-.75 3.32-1.573 4.828m2.284-6.108h-13.91c-.227 0-.437.12-.552.317L8.866 29.61c-.09.156-.112.34-.06.512.053.17.175.312.336.39 2.06.982 4.27 1.484 6.57 1.487h.002c.228 0 .44-.12.554-.32l4.072-7.016h8.093c.23 0 .44-.122.554-.32 1.137-1.964 1.808-4.11 1.995-6.376.014-.18-.046-.354-.168-.486-.12-.132-.292-.206-.47-.206M5.896 4.806l6.407 11.208-6.485 11.12c-1.355-1.04-2.524-2.337-3.423-3.793l4.036-7.02c.115-.2.115-.443 0-.64l-4.048-7c.917-1.493 2.12-2.818 3.514-3.874zM5.138 16l-4.04 7.03c-.114.198-.112.443.002.64 1.13 1.944 2.703 3.648 4.55 4.924.108.075.236.114.364.114.046 0 .093-.005.14-.014.173-.04.323-.15.412-.304l7.03-12.05c.114-.198.115-.443.002-.64L6.655 3.553c-.09-.154-.238-.266-.412-.305-.174-.04-.357-.007-.505.093-1.894 1.29-3.503 3.025-4.652 5.014-.114.198-.114.443 0 .64L5.14 16zM15.37 1.284l4.044 7.02c.113.197.325.32.554.32h8.096c.825 1.52 1.354 3.15 1.573 4.863l-12.83-.006-6.383-11.158c1.576-.646 3.233-.994 4.946-1.038zm.508 13.155c.114.2.327.32.557.32l13.912.007c.18 0 .35-.075.47-.205.122-.132.182-.307.17-.485-.183-2.277-.852-4.436-1.994-6.414-.114-.198-.325-.32-.554-.32h-8.102L16.292.32c-.114-.198-.33-.32-.557-.32-2.263 0-4.447.486-6.49 1.443-.162.076-.285.215-.34.387-.054.17-.034.355.055.51l6.918 12.1z"/>
</svg>
