<svg fill-rule="evenodd" width="32" height="32" viewBox="0 0 32 32" xmlns="http://www.w3.org/2000/svg" xmlns:xlink="http://www.w3.org/1999/xlink">
  <path d="M26.5 20.22c-2.317 0-4.2-1.875-4.218-4.187 0-.012.006-.02.006-.032s-.006-.02-.006-.033c.018-2.31 1.9-4.188 4.217-4.188 2.326 0 4.22 1.892 4.22 4.22s-1.894 4.22-4.22 4.22m-4.588 8.13c0 1.307-1.065 2.37-2.372 2.37s-2.37-1.063-2.37-2.37c0-1.308 1.063-2.372 2.37-2.372 1.307 0 2.372 1.064 2.372 2.372M3.65 30.72c-1.307 0-2.37-1.063-2.37-2.37 0-1.308 1.063-2.372 2.37-2.372 1.308 0 2.372 1.064 2.372 2.372 0 1.307-1.064 2.37-2.372 2.37m0-12.35c-1.307 0-2.37-1.063-2.37-2.37 0-1.306 1.063-2.37 2.37-2.37 1.308 0 2.372 1.064 2.372 2.37 0 1.307-1.064 2.37-2.372 2.37M20.8 5.653c-.02.01-.044.01-.063.02-.017.01-.026.026-.04.036-.344.195-.735.314-1.157.314-1.307 0-2.37-1.064-2.37-2.37 0-1.308 1.063-2.37 2.37-2.37 1.307 0 2.372 1.062 2.372 2.37 0 .843-.447 1.58-1.11 2m5.697 4.847c-.723 0-1.407.148-2.04.4l-2.562-4.484c.784-.67 1.294-1.654 1.294-2.765 0-2.012-1.64-3.65-3.652-3.65-2.012 0-3.65 1.638-3.65 3.65 0 2.015 1.638 3.652 3.65 3.652.443 0 .863-.09 1.256-.236l2.54 4.448c-1.242.88-2.086 2.26-2.273 3.847H7.237c-.304-1.708-1.792-3.01-3.587-3.01C1.638 12.35 0 13.987 0 16s1.638 3.65 3.65 3.65c1.795 0 3.283-1.302 3.587-3.01h13.826c.05.436.145.856.292 1.255L6.51 26.107c-.67-.85-1.695-1.41-2.86-1.41-2.012 0-3.65 1.64-3.65 3.653C0 30.362 1.637 32 3.65 32c2.013 0 3.652-1.638 3.652-3.65 0-.39-.078-.76-.192-1.112l14.813-8.194c.372.557.848 1.036 1.392 1.425l-2.546 4.456c-.388-.14-.796-.228-1.23-.228-2.012 0-3.65 1.64-3.65 3.652 0 2.012 1.638 3.65 3.65 3.65 2.013 0 3.652-1.638 3.652-3.65 0-1.12-.52-2.113-1.316-2.783l2.557-4.476c.64.26 1.335.41 2.066.41 3.033 0 5.5-2.467 5.5-5.5s-2.467-5.5-5.5-5.5" />
</svg>
