<svg fill-rule="evenodd" width="32" height="32" viewBox="0 0 32 32" xmlns="http://www.w3.org/2000/svg">
  <path d="M21.083 3.675h9.637V1.28h-9.637v2.395zM1.28 23.058h11.817V8.96H1.28v14.098zm19.803-5.86h9.637V14.8h-9.637v2.395zm0 13.522h9.637v-2.395h-9.637v2.395zm-.64-25.765H31.36c.353 0 .64-.287.64-.64V.64c0-.353-.287-.64-.64-.64H20.443c-.355 0-.64.287-.64.64v1.194H7.195c-.355 0-.64.287-.64.64V7.68H.64c-.353 0-.64.287-.64.64v15.378c0 .353.287.64.64.64h5.915v5.188c0 .353.285.64.64.64h12.608v1.194c0 .353.287.64.64.64H31.36c.353 0 .64-.287.64-.64v-3.675c0-.353-.287-.64-.64-.64H20.443c-.353 0-.64.287-.64.64v1.2H7.835V24.34h5.902c.353 0 .64-.287.64-.64V16.64h5.426v1.198c0 .353.287.64.64.64H31.36c.353 0 .64-.287.64-.64v-3.676c0-.353-.287-.64-.64-.64H20.443c-.353 0-.64.287-.64.64v1.198h-5.426V8.32c0-.353-.287-.64-.64-.64H7.835V3.114h11.968v1.2c0 .354.285.64.64.64z"/>
  <path d="M3.18 20.323h8.028c.355 0 .64-.287.64-.64 0-.353-.285-.64-.64-.64H3.18c-.353 0-.64.287-.64.64 0 .353.287.64.64.64M3.18 16.64h8.028c.355 0 .64-.287.64-.64 0-.353-.285-.64-.64-.64H3.18c-.353 0-.64.287-.64.64 0 .353.287.64.64.64M3.18 12.957h8.028c.355 0 .64-.287.64-.64 0-.353-.285-.64-.64-.64H3.18c-.353 0-.64.287-.64.64 0 .353.287.64.64.64"/>
</svg>
