<svg fill-rule="evenodd" width="32" height="32" viewBox="0 0 32 32" xmlns="http://www.w3.org/2000/svg" xmlns:xlink="http://www.w3.org/1999/xlink">
  <path d="M25.59 1.28c2.828 0 5.13 2.3 5.13 5.13s-2.302 5.13-5.13 5.13c-2.83 0-5.132-2.3-5.132-5.13s2.302-5.13 5.13-5.13zm0 11.54c3.534 0 6.41-2.874 6.41-6.41C32 2.876 29.123 0 25.59 0c-3.537 0-6.412 2.876-6.412 6.41 0 3.536 2.875 6.41 6.41 6.41z" />
  <path d="M25.594 4.663l.86 2.05H24.73l.864-2.05zm-2.76 4.903c.08.033.165.05.248.05.25 0 .486-.147.59-.392l.52-1.23h2.798l.515 1.23c.136.326.51.48.838.342.325-.137.478-.512.343-.838l-2.5-5.965c-.1-.237-.332-.393-.59-.393-.258 0-.49.155-.59.392l-2.514 5.965c-.137.326.015.7.34.84z" />
  <path d="M1.28 30.72h10.208V20.51H1.28v10.21zm10.848-11.49H.64c-.353 0-.64.287-.64.64v11.49c0 .353.287.64.64.64h11.488c.353 0 .64-.287.64-.64V19.87c0-.353-.287-.64-.64-.64z" />
  <path d="M3.333 24.513H7.33c-.015.63-.154 1.676-.854 2.476-.027.03-.066.05-.094.08-.348-.364-.61-.817-.767-1.37-.097-.34-.45-.534-.79-.44-.34.097-.538.45-.44.792.142.504.424 1.144.926 1.73-.54.22-1.18.338-1.928.338-.355 0-.64.287-.64.64 0 .353.285.64.64.64 1.19 0 2.174-.257 2.982-.723.73.43 1.71.723 3.024.723.353 0 .64-.287.64-.64 0-.353-.287-.64-.64-.64-.745 0-1.385-.11-1.923-.326.94-1.098 1.126-2.46 1.142-3.28h.828c.353 0 .64-.288.64-.64 0-.354-.287-.64-.64-.64H7.023v-.762c0-.354-.285-.64-.64-.64-.353 0-.64.286-.64.64v.76h-2.41c-.353 0-.64.288-.64.64 0 .354.287.64.64.64M.64 16.667c.353 0 .64-.287.64-.64V6.52c0-.76.62-1.38 1.38-1.38h11.808L11.7 7.908c-.25.25-.25.654 0 .905.126.124.29.187.454.187.163 0 .326-.063.45-.187l3.86-3.86c.06-.06.107-.13.14-.208.064-.157.064-.333 0-.49-.033-.078-.08-.15-.14-.208l-3.86-3.86c-.248-.25-.654-.25-.904 0s-.25.655 0 .906l2.768 2.767H2.66C1.193 3.86 0 5.053 0 6.52v9.507c0 .353.287.64.64.64M31.36 15.333c-.354 0-.64.287-.64.64v9.507c0 .76-.62 1.38-1.382 1.38H17.532l2.766-2.768c.25-.25.25-.654 0-.905-.25-.25-.654-.25-.905 0l-3.858 3.86c-.06.06-.107.13-.14.208-.064.157-.064.333 0 .49.033.078.08.15.14.208l3.858 3.86c.125.124.29.187.453.187.164 0 .327-.063.452-.187.25-.25.25-.655 0-.906l-2.766-2.767h11.806c1.467 0 2.66-1.193 2.66-2.66v-9.507c0-.353-.285-.64-.64-.64" />
</svg>
