<svg fill-rule="evenodd" width="32" height="32" viewBox="0 0 32 32" xmlns="http://www.w3.org/2000/svg">
  <path d="M1.28 17.087h7.448v-2.163H1.28v2.163zM2.715 3.572c0-1.264 1.028-2.292 2.29-2.292 1.264 0 2.292 1.028 2.292 2.292 0 1.263-1.028 2.292-2.29 2.292-1.264 0-2.292-1.03-2.292-2.292zm6.653 10.072H5.646V7.078c1.664-.303 2.93-1.756 2.93-3.506 0-1.97-1.6-3.572-3.57-3.572-1.97 0-3.57 1.603-3.57 3.572 0 1.75 1.267 3.203 2.93 3.506v6.566H.64c-.353 0-.64.285-.64.64v3.443c0 .353.287.64.64.64h8.728c.355 0 .64-.287.64-.64v-3.443c0-.355-.285-.64-.64-.64zM12.275 17.087h7.45v-2.163h-7.45v2.163zM13.78 30.72h4.44v-4.44h-4.44v4.44zm6.585-17.076h-8.73c-.354 0-.64.285-.64.64v3.443c0 .353.286.64.64.64h3.725V25h-2.22c-.354 0-.64.286-.64.64v5.72c0 .353.286.64.64.64h5.72c.354 0 .64-.287.64-.64v-5.72c0-.354-.286-.64-.64-.64h-2.22v-6.633h3.725c.354 0 .64-.287.64-.64v-3.443c0-.355-.286-.64-.64-.64zM23.272 17.087h7.448v-2.163h-7.448v2.163zM26.994 1.92l2.07 3.587h-4.14l2.07-3.587zm4.366 11.724h-3.726V6.787h2.54c.23 0 .44-.122.554-.32.115-.2.115-.442 0-.64L27.548.32c-.228-.397-.88-.397-1.108 0l-3.18 5.507c-.114.198-.114.44 0 .64.115.198.327.32.554.32h2.54v6.857h-3.722c-.355 0-.64.285-.64.64v3.443c0 .353.285.64.64.64h8.728c.353 0 .64-.287.64-.64v-3.443c0-.355-.287-.64-.64-.64z"/>
</svg>
