<svg fill-rule="evenodd" width="32" height="32" viewBox="0 0 32 32" xmlns="http://www.w3.org/2000/svg">
  <path d="M26.3 6.024l2.008-3.967 2.01 3.967H26.3zM1.28 3.652c0-1.308 1.064-2.372 2.372-2.372 1.308 0 2.372 1.064 2.372 2.372 0 1.308-1.064 2.372-2.372 2.372-1.308 0-2.372-1.064-2.372-2.372zm12.342 2.372h4.743V1.28h-4.743v4.744zm18.31.35L28.878.35c-.218-.43-.924-.43-1.143 0l-3.05 6.024c-.1.2-.09.436.027.625.117.188.323.304.545.304h2.412V9.51c0 1.116-.497 1.636-1.563 1.636h-9.47V7.304h2.365c.355 0 .64-.287.64-.64V.64c0-.353-.285-.64-.64-.64h-6.023c-.354 0-.64.287-.64.64v6.024c0 .353.286.64.64.64h2.378v3.842H5.842c-1.057 0-1.55-.52-1.55-1.637V7.24c1.71-.305 3.012-1.794 3.012-3.588C7.304 1.638 5.664 0 3.652 0 1.638 0 0 1.638 0 3.652 0 5.448 1.304 6.935 3.013 7.24v2.27c0 1.826 1.057 2.916 2.83 2.916h9.517v3c-1.813.306-3.2 1.877-3.2 3.775 0 1.048.426 2.03 1.148 2.74-2.15 1.017-3.563 3.186-3.563 5.65v3.77h1.28v-3.77c0-2.318 1.57-4.308 3.823-4.842.267-.063.465-.29.49-.563.026-.273-.127-.533-.376-.644-.926-.41-1.523-1.33-1.523-2.34 0-1.41 1.148-2.56 2.56-2.56 1.412 0 2.56 1.15 2.56 2.56 0 1.01-.597 1.93-1.52 2.34-.252.112-.403.372-.378.645.025.272.222.5.49.563 2.25.534 3.823 2.524 3.823 4.84v3.772h1.28v-3.77c0-2.465-1.414-4.635-3.563-5.65.722-.71 1.15-1.693 1.15-2.74 0-1.897-1.39-3.468-3.202-3.775v-3h9.47c1.78 0 2.842-1.09 2.842-2.916V7.303h2.408c.222 0 .43-.116.545-.305.117-.19.127-.427.026-.626z" />
</svg>
