<svg fill-rule="evenodd" width="32" height="32" viewBox="0 0 32 32" xmlns="http://www.w3.org/2000/svg">
  <path d="M1.28 7.48h7.544v-2.2H1.28v2.2zM.64 8.76h8.824c.354 0 .64-.284.64-.64V4.64c0-.353-.286-.64-.64-.64H.64C.287 4 0 4.287 0 4.64v3.48c0 .356.287.64.64.64zM12.306 7.48H30.72v-2.2H12.306v2.2zM31.36 4H11.666c-.355 0-.64.287-.64.64v3.48c0 .356.285.64.64.64H31.36c.353 0 .64-.284.64-.64V4.64c0-.353-.287-.64-.64-.64zM23.174 16.905h7.546v-2.202h-7.546v2.202zm8.186-3.483h-8.826c-.353 0-.64.287-.64.64v3.483c0 .353.287.64.64.64h8.826c.353 0 .64-.287.64-.64v-3.483c0-.353-.287-.64-.64-.64zM1.28 16.904h18.414v-2.202H1.28v2.202zm-.64 1.28h19.694c.353 0 .64-.286.64-.64v-3.482c0-.353-.287-.64-.64-.64H.64c-.353 0-.64.287-.64.64v3.483c0 .353.287.64.64.64zM1.28 26.324h7.544v-2.2H1.28v2.2zm8.184-3.48H.64c-.353 0-.64.284-.64.64v3.48c0 .354.287.64.64.64h8.824c.354 0 .64-.286.64-.64v-3.48c0-.356-.286-.64-.64-.64zM12.306 26.324H30.72v-2.2H12.306v2.2zm19.054-3.48H11.666c-.355 0-.64.284-.64.64v3.48c0 .354.285.64.64.64H31.36c.353 0 .64-.286.64-.64v-3.48c0-.356-.287-.64-.64-.64z"/>
</svg>
