<svg fill-rule="evenodd" width="32" height="32" viewBox="0 0 32 32" xmlns="http://www.w3.org/2000/svg" xmlns:xlink="http://www.w3.org/1999/xlink">
  <path d="M6.447 13.767h4.133v-1.294H6.447v1.294zm5.413.64v-2.574c0-.355-.286-.64-.64-.64H5.807c-.353 0-.64.285-.64.64v2.574c0 .353.287.64.64.64h5.413c.354 0 .64-.287.64-.64zM8.804 20.14h4.872v-1.295H8.804v1.294zm-.64-2.575c-.353 0-.64.287-.64.64v2.574c0 .353.287.64.64.64h6.152c.353 0 .64-.287.64-.64v-2.575c0-.353-.287-.64-.64-.64H8.164zM8.804 7.395h4.872V6.1H8.804v1.295zm-.64 1.28h6.152c.353 0 .64-.287.64-.64V5.46c0-.353-.287-.64-.64-.64H8.164c-.353 0-.64.287-.64.64v2.575c0 .353.287.64.64.64z" />
  <path d="M24.086 13.784h-9.13V12.49h9.173c0 .074.01.146.01.22 0 .363-.02.72-.054 1.074zm-1.044 3.78h-5.794c-.355 0-.64.287-.64.64v2.576c0 .353.285.64.64.64h2.846c-1.994 1.693-4.57 2.72-7.384 2.72-6.303 0-11.43-5.128-11.43-11.43S6.407 1.28 12.71 1.28c3.242 0 6.168 1.364 8.25 3.54h-3.673c-.353 0-.64.287-.64.64v2.575c0 .354.287.64.64.64h6.103c.306.806.524 1.655.64 2.535h-9.715c-.354 0-.64.286-.64.64v2.574c0 .354.286.64.64.64h9.58c-.186.877-.48 1.71-.853 2.5zm-1.664 2.576h-3.49v-1.295h4.45c-.29.454-.61.886-.96 1.295zm.64-14.04c.295.414.565.844.803 1.295h-4.893V6.1h4.09zM32 9.917c0-.353-.286-.64-.64-.64h-6.423c-.14-.5-.302-.99-.5-1.463-.006-.015-.01-.03-.016-.043-.062-.146-.14-.286-.206-.43h7.146c.354 0 .64-.286.64-.64 0-.354-.286-.64-.64-.64h-7.84c-.178-.29-.368-.57-.57-.845-.036-.09-.097-.167-.17-.23C20.454 1.96 16.81 0 12.71 0 5.7 0 0 5.702 0 12.71c0 7.008 5.7 12.71 12.71 12.71 3.274 0 6.253-1.255 8.51-3.296l9.688 9.688c.124.125.288.187.452.187.164 0 .327-.063.453-.188.25-.25.25-.656 0-.905l-9.676-9.674c.034-.032.053-.076.078-.114.692-.782 1.29-1.644 1.776-2.578.03-.046.055-.095.072-.148.227-.45.425-.918.598-1.398h6.696c.354 0 .64-.287.64-.64 0-.355-.286-.64-.64-.64h-6.31c.153-.63.264-1.276.32-1.94h5.994c.354 0 .64-.285.64-.64 0-.353-.286-.64-.64-.64h-5.95c-.005-.2-.02-.395-.03-.592 0-.02.01-.035.01-.054 0-.032-.014-.06-.018-.09-.03-.406-.08-.807-.15-1.203h6.138c.354 0 .64-.285.64-.64z" />
</svg>
