<svg fill-rule="evenodd" width="32" height="32" viewBox="0 0 32 32" xmlns="http://www.w3.org/2000/svg">
  <path d="M14.593 21.083H30.72V1.28H14.593v19.803zM31.36 0H13.953c-.353 0-.64.287-.64.64v14.886c-.38-.103-.773-.166-1.17-.166H4.466C2.003 15.36 0 17.37 0 19.84v3.77c0 2.47 2.003 4.48 4.466 4.48h1.368l2.073 3.59c.12.205.334.32.555.32.11 0 .22-.027.32-.086.306-.176.41-.568.233-.874l-2.442-4.23H4.466c-1.758 0-3.186-1.435-3.186-3.2v-3.77c0-1.795 1.4-3.2 3.186-3.2h7.677c.404 0 .797.1 1.17.247v4.836c0 .353.287.64.64.64h1.407v1.247c0 1.765-1.443 3.2-3.217 3.2h-3.2c-.354 0-.64.286-.64.64 0 .354.286.64.64.64h3.2c2.48 0 4.497-2.01 4.497-4.48v-1.247h14.72c.353 0 .64-.287.64-.64V.64c0-.353-.287-.64-.64-.64z"/>
  <path d="M17.318 17.216h10.677c.354 0 .64-.286.64-.64 0-.353-.286-.64-.64-.64H17.318c-.353 0-.64.287-.64.64 0 .354.287.64.64.64M17.324 11.93H28c.355 0 .64-.285.64-.64 0-.352-.285-.64-.64-.64H17.324c-.354 0-.64.288-.64.64 0 .355.286.64.64.64M17.325 6.395h10.677c.354 0 .64-.287.64-.64 0-.353-.286-.64-.64-.64H17.325c-.353 0-.64.287-.64.64 0 .353.287.64.64.64M2.673 10.87c.353 0 .64-.287.64-.64 0-2.835 2.308-5.143 5.143-5.143h.89l-.844.846c-.25.25-.25.654 0 .905.124.124.288.187.452.187.164 0 .328-.063.453-.187L11.345 4.9c.06-.058.106-.128.138-.206.032-.077.05-.16.05-.247 0-.085-.018-.17-.05-.246-.032-.077-.08-.147-.138-.206L9.407 2.056c-.25-.25-.655-.25-.905 0s-.25.655 0 .905l.846.847h-.892c-3.542 0-6.423 2.88-6.423 6.423 0 .353.287.64.64.64M12.594 21.584c0-.41-.333-.743-.742-.743-.41 0-.743.334-.743.744s.332.742.742.742.742-.333.742-.742M9.204 21.584c0-.41-.333-.743-.743-.743s-.74.334-.74.744.33.742.74.742.744-.333.744-.742M4.332 21.583c0 .41.333.743.742.743.41 0 .743-.333.743-.743s-.333-.742-.743-.742-.742.334-.742.743"/>
</svg>
