<svg fill-rule="evenodd" width="32" height="32" viewBox="0 0 32 32" xmlns="http://www.w3.org/2000/svg">
  <path d="M29.54 15.992h-8.453c-.064-.9-.334-1.74-.78-2.47.063.023.13.04.202.04h7.664c.34 0 .616-.274.616-.615 0-.34-.276-.616-.616-.616H20.51c-.342 0-.616.277-.616.617-.336-.42-.717-.798-1.16-1.103V2.462H29.54v13.53zm.614-14.76H18.12c-.34 0-.615.273-.615.614v9.38c-.59-.217-1.216-.353-1.88-.353H5.5c-3.033 0-5.5 2.467-5.5 5.5v5.11c0 3.032 2.467 5.5 5.5 5.5h1.907l2.6 4.698c.112.204.322.32.54.32.1 0 .202-.027.297-.08.296-.162.405-.536.24-.834l-2.95-5.334H5.5c-2.354 0-4.27-1.916-4.27-4.27v-5.11c0-2.355 1.916-4.268 4.27-4.268h10.125c2.355 0 4.27 1.913 4.27 4.27v5.108c0 2.354-1.915 4.27-4.27 4.27h-4.43c-.34 0-.616.274-.616.615 0 .34.275.615.614.615h4.43c3.034 0 5.502-2.467 5.502-5.5v-4.26h9.028c.34 0 .616-.275.616-.615V1.847c0-.342-.276-.616-.616-.616zM28.468 21.526c-.34 0-.615.276-.615.616 0 2.72-2.213 4.934-4.934 4.934h-.854l.81-.81c.24-.24.24-.63 0-.87s-.63-.24-.87 0l-1.86 1.86c-.057.056-.102.123-.133.198-.032.075-.048.155-.048.237 0 .084.016.164.048.238.03.075.076.142.133.2l1.86 1.86c.12.12.278.18.435.18.157 0 .315-.06.436-.18.24-.24.24-.63 0-.87l-.81-.81h.853c3.398 0 6.164-2.767 6.164-6.166 0-.34-.276-.616-.616-.616"/>
  <path d="M15.703 18.933c0-.556-.452-1.008-1.008-1.008s-1.007.452-1.007 1.008.45 1.007 1.007 1.007c.556 0 1.008-.45 1.008-1.007M11.57 18.933c0-.556-.45-1.008-1.007-1.008-.557 0-1.007.452-1.007 1.008s.45 1.007 1.007 1.007c.556 0 1.008-.45 1.008-1.007M5.423 18.933c0 .556.452 1.007 1.007 1.007.556 0 1.008-.45 1.008-1.007 0-.556-.452-1.008-1.008-1.008-.555 0-1.007.452-1.007 1.008M20.508 9.842h7.666c.34 0 .615-.275.615-.615 0-.34-.277-.615-.616-.615h-7.666c-.34 0-.615.275-.615.615 0 .34.276.615.615.615M20.508 6.123h7.666c.34 0 .615-.276.615-.616 0-.34-.277-.615-.616-.615h-7.666c-.34 0-.615.276-.615.615 0 .34.276.616.615.616"/>
</svg>
