<svg fill-rule="evenodd" width="32" height="32" viewBox="0 0 32 32" xmlns="http://www.w3.org/2000/svg" xmlns:xlink="http://www.w3.org/1999/xlink">
  <path d="M8.042 15.58c.335 0 .606-.27.606-.606 0-.335-.27-.606-.606-.606-.336 0-.607.27-.607.606 0 .336.27.607.607.607M14.533 15.58c.335 0 .607-.27.607-.606 0-.335-.272-.606-.607-.606-.335 0-.607.27-.607.606 0 .336.272.607.607.607M22.004 4.218c0-.335-.27-.607-.606-.607-.336 0-.607.273-.607.608 0 .335.272.607.608.607.335 0 .606-.272.606-.607M26.856 4.218c0-.335-.272-.607-.607-.607-.336 0-.608.273-.608.608 0 .335.272.607.607.607.334 0 .606-.272.606-.607" />
  <path d="M27.6 0h-7.84c-2.426 0-4.4 1.975-4.4 4.4v5.027H5.867c-3.236 0-5.87 2.633-5.87 5.868v5.47c0 3.234 2.634 5.867 5.87 5.867H7.92l2.788 5.038c.116.21.334.33.56.33.104 0 .21-.027.31-.08.31-.17.42-.56.25-.87l-3.153-5.698H5.868c-2.53 0-4.59-2.06-4.59-4.588v-5.47c0-2.53 2.06-4.587 4.59-4.587h10.837c2.53 0 4.587 2.058 4.587 4.588v5.47c0 2.528-2.057 4.587-4.587 4.587h-4.743c-.353 0-.64.285-.64.64 0 .353.287.64.64.64h4.743c3.235 0 5.867-2.633 5.867-5.868v-5.47c0-.92-.232-1.78-.612-2.557h2.016c.354 0 .64-.285.64-.64 0-.353-.286-.64-.64-.64h-2.868c-1.077-1.232-2.642-2.03-4.403-2.03h-.066V4.4c0-1.72 1.4-3.12 3.12-3.12h7.84c1.72 0 3.12 1.4 3.12 3.12v3.937c0 1.72-1.4 3.12-3.12 3.12h-.845l-2.44 4.223c-.177.306-.072.698.233.874.102.06.212.086.32.086.22 0 .436-.115.555-.32l2.07-3.583h.106c2.426 0 4.4-1.975 4.4-4.4V4.4C32 1.976 30.025 0 27.6 0" />
  <path d="M21.398 8.94c.353 0 .64-.287.64-.64 0-.984.8-1.786 1.786-1.786.983 0 1.785.802 1.785 1.786 0 .353.285.64.64.64.352 0 .64-.287.64-.64 0-1.69-1.376-3.066-3.066-3.066-1.692 0-3.066 1.376-3.066 3.066 0 .353.286.64.64.64M11.288 21.35c2.142 0 3.884-1.742 3.884-3.885 0-.354-.285-.64-.64-.64-.353 0-.64.286-.64.64 0 1.438-1.168 2.606-2.604 2.606-1.438 0-2.607-1.167-2.607-2.605 0-.354-.285-.64-.64-.64-.353 0-.64.286-.64.64 0 2.143 1.745 3.886 3.888 3.886" />
</svg>
