<svg fill-rule="evenodd" width="32" height="32" viewBox="0 0 32 32" xmlns="http://www.w3.org/2000/svg" xmlns:xlink="http://www.w3.org/1999/xlink">
  <path transform="translate(0 14.254)" d="M31.36.842H.64c-.353 0-.64.287-.64.64 0 .354.287.64.64.64h14.72V14.08h-3.695c-.354 0-.64.286-.64.64 0 .354.286.64.64.64h8.67c.352 0 .64-.286.64-.64 0-.354-.288-.64-.64-.64H16.64V2.122h14.72c.353 0 .64-.286.64-.64 0-.353-.287-.64-.64-.64" />
  <path d="M24.484 4.363c2.304 0 4.178 1.873 4.178 4.177 0 2.303-1.874 4.177-4.178 4.177s-4.178-1.874-4.178-4.177c0-2.304 1.874-4.177 4.178-4.177m0 9.634c3.01 0 5.458-2.45 5.458-5.457 0-3.01-2.45-5.457-5.458-5.457-3.01 0-5.458 2.448-5.458 5.457 0 3.008 2.448 5.457 5.458 5.457M8.027 4.28c.776 0 1.407.63 1.407 1.405S8.804 7.09 8.027 7.09c-.775 0-1.406-.63-1.406-1.405S7.253 4.28 8.028 4.28m0 4.09c1.48 0 2.687-1.204 2.687-2.685C10.714 4.205 9.508 3 8.027 3 6.547 3 5.34 4.204 5.34 5.685c0 1.48 1.206 2.686 2.687 2.686M11.312 9.828c.774 0 1.405.63 1.405 1.405 0 .774-.63 1.405-1.405 1.405s-1.406-.63-1.406-1.405c0-.776.63-1.405 1.406-1.405m-2.686 1.405c0 1.48 1.205 2.685 2.686 2.685 1.48 0 2.685-1.204 2.685-2.685 0-1.48-1.204-2.685-2.685-2.685-1.48 0-2.686 1.204-2.686 2.685M4.743 9.828c.775 0 1.406.63 1.406 1.405 0 .774-.632 1.405-1.407 1.405s-1.406-.63-1.406-1.405c0-.776.63-1.405 1.406-1.405m0 4.09c1.48 0 2.686-1.204 2.686-2.685 0-1.48-1.207-2.685-2.687-2.685-1.48 0-2.686 1.204-2.686 2.685 0 1.48 1.205 2.685 2.686 2.685" />
</svg>
