<svg fill-rule="evenodd" width="32" height="32" viewBox="0 0 32 32" xmlns="http://www.w3.org/2000/svg">
  <path d="M31.36 32H8.31c-.354 0-.64-.287-.64-.64V16.004h1.28V30.72h21.77V8.818H16v-1.28h15.36c.353 0 .64.285.64.64V31.36c0 .353-.287.64-.64.64"/>
  <path d="M31.36 32c-.212 0-.418-.105-.54-.296l-5.013-7.877-4.06 2.343c-.148.087-.322.108-.487.064-.165-.044-.304-.153-.39-.3l-4.56-8-7.686 4.34c-.307.173-.698.065-.872-.24-.174-.31-.065-.7.242-.874l8.242-4.656c.307-.17.696-.064.87.24l4.56 7.996 4.032-2.326c.298-.173.674-.08.86.21l5.342 8.392c.19.3.1.693-.196.884-.107.068-.226.1-.345.1M23.723 12.232c-.676 0-1.225.55-1.225 1.225s.55 1.225 1.225 1.225c.676 0 1.226-.55 1.226-1.225 0-.674-.55-1.225-1.227-1.225m0 3.73c-1.38 0-2.505-1.123-2.505-2.505 0-1.38 1.124-2.505 2.505-2.505 1.383 0 2.506 1.124 2.506 2.505 0 1.382-1.124 2.505-2.507 2.505M8.32 1.28c-3.88 0-7.04 3.16-7.04 7.04 0 3.884 3.16 7.043 7.04 7.043 3.884 0 7.043-3.16 7.043-7.042 0-3.88-3.16-7.04-7.042-7.04m0 15.363C3.735 16.643 0 12.91 0 8.32 0 3.733 3.734 0 8.32 0c4.59 0 8.323 3.732 8.323 8.32 0 4.59-3.734 8.323-8.322 8.323"/>
  <path d="M15.77 7.167H8.323c-.355 0-.64-.286-.64-.64v-2.48c0-.353.285-.64.64-.64h6.19c.353 0 .64.287.64.64 0 .354-.287.64-.64.64h-5.55v1.2h6.81c.353 0 .64.287.64.64 0 .354-.287.64-.64.64M14.82 13.054H4.484c-.354 0-.64-.287-.64-.64v-2.48c0-.353.286-.64.64-.64H15.77c.356 0 .64.287.64.64 0 .355-.284.64-.64.64H5.124v1.2h9.698c.355 0 .64.286.64.64 0 .353-.285.64-.64.64"/>
</svg>
