<?xml version="1.0" encoding="utf-8"?>
<!-- Generator: Adobe Illustrator 19.0.0, SVG Export Plug-In . SVG Version: 6.00 Build 0)  -->
<!DOCTYPE svg PUBLIC "-//W3C//DTD SVG 1.1//EN" "http://www.w3.org/Graphics/SVG/1.1/DTD/svg11.dtd">
<svg version="1.1" id="Layer_1" xmlns="http://www.w3.org/2000/svg" xmlns:xlink="http://www.w3.org/1999/xlink" x="0px" y="0px"
	 viewBox="-607 369 64 64" style="enable-background:new -607 369 64 64;" xml:space="preserve">
<style type="text/css">
	.st0{fill:none;}
	.st1{enable-background:new    ;}
	.st2{fill:#734098;}
</style>
<rect x="-607.8" y="385.3" class="st0" width="64.8" height="47"/>
<g class="st1">
	<path class="st2" d="M-599.4,405.5h5.7v5.5h-5.7V405.5z"/>
	<path class="st2" d="M-573.5,409.8c0,3.1-1.1,8.2-9.6,8.2c-3.7,0-7.9-1.8-8.2-6h5.1c0.5,1.9,2,2.6,3.8,2.6c2.8,0,4.1-1.9,4.1-4.6
		v-2.4h-0.1c-1.1,2-3.3,2.9-5.6,2.9c-5.6,0-8-4.2-8-9.4c0-4.8,2.8-9.2,8-9.2c2.4,0,4.3,0.8,5.5,3h0.1v-2.5h4.9V409.8z M-578.3,401.5
		c0-3-1-5.7-4.4-5.7c-2.9,0-4.1,2.5-4.1,5.3c0,2.7,1,5.6,4.1,5.6C-579.8,406.6-578.3,404.1-578.3,401.5z"/>
	<path class="st2" d="M-561.2,391.9c5.9,0,9.6,3.9,9.6,9.8c0,5.9-3.8,9.8-9.6,9.8c-5.8,0-9.6-3.9-9.6-9.8
		C-570.8,395.8-567.1,391.9-561.2,391.9z M-561.2,407.7c3.5,0,4.5-3,4.5-5.9c0-3-1-6-4.5-6c-3.5,0-4.5,3-4.5,6
		C-565.7,404.7-564.7,407.7-561.2,407.7z"/>
</g>
</svg>
