<?xml version="1.0" encoding="utf-8"?>
<!-- Generator: Adobe Illustrator 19.0.0, SVG Export Plug-In . SVG Version: 6.00 Build 0)  -->
<!DOCTYPE svg PUBLIC "-//W3C//DTD SVG 1.1//EN" "http://www.w3.org/Graphics/SVG/1.1/DTD/svg11.dtd">
<svg version="1.1" id="Layer_1" xmlns="http://www.w3.org/2000/svg" xmlns:xlink="http://www.w3.org/1999/xlink" x="0px" y="0px"
	 viewBox="-607 369 64 64" style="enable-background:new -607 369 64 64;" xml:space="preserve">
<style type="text/css">
	.st0{fill:none;}
	.st1{enable-background:new    ;}
	.st2{fill:#5596E6;}
</style>
<rect x="-608.5" y="389.3" class="st0" width="64.8" height="47"/>
<g class="st1">
	<path class="st2" d="M-605.7,406.1h4.7v4.6h-4.7V406.1z"/>
	<path class="st2" d="M-600.7,412.6c0.2,0.1,0.5,0.1,0.9,0.1c0.9,0,1.6-0.2,1.6-1.4v-16.1h4.3v16.3c0,3.2-1.2,4.7-5.5,4.7
		c-0.4,0-0.9,0-1.4-0.1V412.6z M-593.9,392.8h-4.3v-3.5h4.3V392.8z"/>
	<path class="st2" d="M-591.2,400c0.2-4,3.8-5.2,7.3-5.2c3.1,0,6.8,0.7,6.8,4.4v8.1c0,1.4,0.1,2.8,0.5,3.5h-4.3
		c-0.1-0.5-0.3-1-0.3-1.5c-1.4,1.4-3.3,1.9-5.2,1.9c-3,0-5.3-1.5-5.3-4.6c0.1-7,10.5-3.3,10.3-6.8c0-1.8-1.3-2.1-2.8-2.1
		c-1.6,0-2.7,0.7-2.8,2.3H-591.2z M-581.3,403.1c-0.7,0.6-2.2,0.7-3.5,0.9c-1.3,0.2-2.5,0.7-2.5,2.3c0,1.6,1.2,2,2.6,2
		c3.3,0,3.4-2.6,3.4-3.6V403.1z"/>
	<path class="st2" d="M-566.1,410.7h-4.7l-5.3-15.5h4.5l3.3,10.6h0.1l3.3-10.6h4.2L-566.1,410.7z"/>
	<path class="st2" d="M-560.3,400c0.2-4,3.8-5.2,7.3-5.2c3.1,0,6.8,0.7,6.8,4.4v8.1c0,1.4,0.1,2.8,0.5,3.5h-4.3
		c-0.1-0.5-0.3-1-0.3-1.5c-1.3,1.4-3.3,1.9-5.2,1.9c-3,0-5.3-1.5-5.3-4.6c0.1-7,10.5-3.3,10.3-6.8c0-1.8-1.3-2.1-2.8-2.1
		c-1.7,0-2.7,0.7-2.8,2.3H-560.3z M-550.5,403.1c-0.7,0.6-2.2,0.7-3.5,0.9c-1.3,0.2-2.5,0.7-2.5,2.3c0,1.6,1.2,2,2.6,2
		c3.3,0,3.5-2.6,3.5-3.6V403.1z"/>
</g>
</svg>
