<?xml version="1.0" encoding="utf-8"?>
<!-- Generator: Adobe Illustrator 19.0.0, SVG Export Plug-In . SVG Version: 6.00 Build 0)  -->
<!DOCTYPE svg PUBLIC "-//W3C//DTD SVG 1.1//EN" "http://www.w3.org/Graphics/SVG/1.1/DTD/svg11.dtd">
<svg version="1.1" id="Layer_1" xmlns="http://www.w3.org/2000/svg" xmlns:xlink="http://www.w3.org/1999/xlink" x="0px" y="0px"
	 viewBox="-607 369 64 64" style="enable-background:new -607 369 64 64;" xml:space="preserve">
<style type="text/css">
	.st0{fill:none;}
	.st1{enable-background:new    ;}
	.st2{fill:#FF7832;}
</style>
<rect x="-607" y="385.3" class="st0" width="64.6" height="30.2"/>
<g class="st1">
	<path class="st2" d="M-592.1,405.5h5.7v5.5h-5.7V405.5z"/>
</g>
<g class="st1">
	<path class="st2" d="M-585.1,413.2c0.3,0.1,0.6,0.1,1.1,0.1c1,0,2-0.3,2-1.7v-19.3h5.1V412c0,3.8-1.4,5.6-6.6,5.6
		c-0.5,0-1.1,0-1.7-0.1V413.2z M-576.8,389.5h-5.1v-4.2h5.1V389.5z"/>
	<path class="st2" d="M-569.4,405c0,2.2,1.9,3.1,3.9,3.1c1.4,0,3.3-0.6,3.3-2.4c0-1.5-2.2-2.1-5.8-2.9c-3-0.7-5.9-1.7-5.9-5
		c0-4.8,4.1-6,8.1-6c4,0,7.8,1.4,8.2,5.9h-4.9c-0.1-2-1.7-2.5-3.5-2.5c-1.2,0-2.8,0.2-2.8,1.7c0,1.8,2.9,2.1,5.8,2.8
		c3,0.7,5.9,1.8,5.9,5.2c0,4.9-4.3,6.5-8.5,6.5c-4.3,0-8.6-1.6-8.7-6.6H-569.4z"/>
</g>
</svg>
