<?xml version="1.0" encoding="utf-8"?>
<!-- Generator: Adobe Illustrator 19.0.0, SVG Export Plug-In . SVG Version: 6.00 Build 0)  -->
<!DOCTYPE svg PUBLIC "-//W3C//DTD SVG 1.1//EN" "http://www.w3.org/Graphics/SVG/1.1/DTD/svg11.dtd">
<svg version="1.1" id="Layer_1" xmlns="http://www.w3.org/2000/svg" xmlns:xlink="http://www.w3.org/1999/xlink" x="0px" y="0px"
	 viewBox="-607 369 64 64" style="enable-background:new -607 369 64 64;" xml:space="preserve">
<style type="text/css">
	.st0{fill:none;}
	.st1{enable-background:new    ;}
	.st2{fill:#00B4A0;}
</style>
<g>
	<rect x="-607.7" y="378" class="st0" width="64.8" height="47"/>
	<g class="st1">
		<path class="st2" d="M-592.8,398.2h5.7v5.5h-5.7V398.2z"/>
	</g>
	<g class="st1">
		<path class="st2" d="M-585.7,405.9c0.3,0.1,0.6,0.1,1.1,0.1c1,0,2-0.3,2-1.7v-19.3h5.1v19.5c0,3.8-1.4,5.6-6.6,5.6
			c-0.5,0-1.1,0-1.7-0.1V405.9z M-577.5,382.2h-5.1V378h5.1V382.2z"/>
		<path class="st2" d="M-570.1,397.7c0,2.2,1.9,3.1,3.9,3.1c1.4,0,3.3-0.6,3.3-2.4c0-1.5-2.2-2.1-5.8-2.9c-3-0.7-5.9-1.7-5.9-5
			c0-4.8,4.1-6,8.1-6c4,0,7.8,1.4,8.2,5.9h-4.9c-0.1-2-1.7-2.5-3.5-2.5c-1.2,0-2.8,0.2-2.8,1.7c0,1.8,2.9,2.1,5.8,2.8
			c3,0.7,5.9,1.8,5.9,5.2c0,4.9-4.3,6.5-8.5,6.5c-4.3,0-8.6-1.6-8.7-6.6H-570.1z"/>
	</g>
	<rect x="-607" y="409.8" class="st0" width="64" height="14.3"/>
	<g class="st1">
		<path class="st2" d="M-594.9,412.9h2.1v1.1h0c0.6-0.8,1.4-1.3,2.5-1.3c1,0,2,0.4,2.4,1.4c0.5-0.7,1.3-1.4,2.5-1.4c1.8,0,3,0.8,3,3
			v5.5h-2.3v-4.7c0-1.1-0.1-2-1.4-2c-1.3,0-1.5,1.1-1.5,2.1v4.6h-2.3v-4.6c0-1,0.1-2.1-1.4-2.1c-0.4,0-1.5,0.3-1.5,1.9v4.8h-2.3
			V412.9z"/>
		<path class="st2" d="M-578.9,417.6c0.1,1.5,0.8,2.1,2,2.1c0.9,0,1.6-0.6,1.8-1.1h2c-0.6,2-2,2.8-3.9,2.8c-2.6,0-4.2-1.8-4.2-4.4
			c0-2.5,1.7-4.4,4.2-4.4c2.8,0,4.2,2.4,4,4.9H-578.9z M-575.2,416.1c-0.2-1.2-0.7-1.8-1.8-1.8c-1.5,0-1.8,1.1-1.9,1.8H-575.2z"/>
		<path class="st2" d="M-571.9,415.4c0.1-2.1,2-2.8,3.9-2.8c1.6,0,3.6,0.4,3.6,2.4v4.3c0,0.8,0.1,1.5,0.3,1.8h-2.3
			c-0.1-0.3-0.1-0.5-0.2-0.8c-0.7,0.8-1.8,1-2.8,1c-1.6,0-2.8-0.8-2.8-2.5c0-3.8,5.6-1.7,5.5-3.6c0-1-0.7-1.1-1.5-1.1
			c-0.9,0-1.4,0.4-1.5,1.2H-571.9z M-566.6,417.1c-0.4,0.3-1.2,0.4-1.9,0.5c-0.7,0.1-1.3,0.4-1.3,1.2c0,0.8,0.7,1.1,1.4,1.1
			c1.8,0,1.8-1.4,1.8-1.9V417.1z"/>
		<path class="st2" d="M-562.7,412.9h2.2v1.2h0c0.6-0.9,1.6-1.4,2.5-1.4c2.4,0,3,1.4,3,3.4v5.1h-2.3v-4.7c0-1.4-0.4-2-1.5-2
			c-1.2,0-1.8,0.7-1.8,2.4v4.3h-2.3V412.9z"/>
	</g>
</g>
</svg>
