<?xml version="1.0" encoding="utf-8"?>
<!-- Generator: Adobe Illustrator 19.0.0, SVG Export Plug-In . SVG Version: 6.00 Build 0)  -->
<!DOCTYPE svg PUBLIC "-//W3C//DTD SVG 1.1//EN" "http://www.w3.org/Graphics/SVG/1.1/DTD/svg11.dtd">
<svg version="1.1" id="Layer_1" xmlns="http://www.w3.org/2000/svg" xmlns:xlink="http://www.w3.org/1999/xlink" x="0px" y="0px"
	 viewBox="-607 369 64 64" style="enable-background:new -607 369 64 64;" xml:space="preserve">
<style type="text/css">
	.st0{fill:none;}
	.st1{enable-background:new    ;}
	.st2{fill:#FF5050;}
</style>
<rect x="-607.8" y="388.2" class="st0" width="64.8" height="47"/>
<g class="st1">
	<path class="st2" d="M-606.2,406.1h5v4.9h-5V406.1z"/>
	<path class="st2" d="M-598.5,394.5h4.3v2.1h0.1c1.1-1.8,2.9-2.6,4.9-2.6c5.2,0,7.5,4.2,7.5,8.9c0,4.4-2.4,8.5-7.3,8.5
		c-2,0-3.8-0.9-5-2.5h-0.1v7.9h-4.5V394.5z M-586.3,402.8c0-2.7-1.1-5.3-4-5.3c-3,0-3.9,2.7-3.9,5.3c0,2.7,1,5.2,4,5.2
		C-587.2,408.1-586.3,405.5-586.3,402.8z"/>
	<path class="st2" d="M-579.4,388.2h4.5v8.6h0.1c1.2-1.9,3.1-2.8,4.8-2.8c4.8,0,6,2.7,6,6.8V411h-4.5v-9.3c0-2.7-0.8-4.1-2.9-4.1
		c-2.5,0-3.5,1.4-3.5,4.7v8.7h-4.5V388.2z"/>
	<path class="st2" d="M-560.9,394.5h4.3v2.1h0.1c1.1-1.8,2.9-2.6,4.9-2.6c5.2,0,7.5,4.2,7.5,8.9c0,4.4-2.4,8.5-7.3,8.5
		c-2,0-3.8-0.9-5-2.5h-0.1v7.9h-4.5V394.5z M-548.6,402.8c0-2.7-1.1-5.3-4-5.3c-3,0-3.9,2.7-3.9,5.3c0,2.7,1,5.2,4,5.2
		C-549.6,408.1-548.6,405.5-548.6,402.8z"/>
</g>
</svg>
