<?xml version="1.0" encoding="utf-8"?>
<!-- Generator: Adobe Illustrator 19.0.0, SVG Export Plug-In . SVG Version: 6.00 Build 0)  -->
<!DOCTYPE svg PUBLIC "-//W3C//DTD SVG 1.1//EN" "http://www.w3.org/Graphics/SVG/1.1/DTD/svg11.dtd">
<svg version="1.1" id="Layer_1" xmlns="http://www.w3.org/2000/svg" xmlns:xlink="http://www.w3.org/1999/xlink" x="0px" y="0px"
	 viewBox="-607 369 64 64" style="enable-background:new -607 369 64 64;" xml:space="preserve">
<style type="text/css">
	.st0{fill:none;}
	.st1{enable-background:new    ;}
	.st2{fill:#AF6EE8;}
</style>
<rect x="-607.8" y="385.2" class="st0" width="64.8" height="47"/>
<g class="st1">
	<path class="st2" d="M-598,405.4h5.7v5.5h-5.7V405.4z"/>
	<path class="st2" d="M-589.4,392.3h4.9v2.4h0.1c1.3-2,3.2-2.9,5.5-2.9c5.8,0,8.5,4.7,8.5,10c0,5-2.7,9.6-8.2,9.6
		c-2.3,0-4.3-1-5.6-2.8h-0.1v8.9h-5.1V392.3z M-575.5,401.7c0-3-1.2-6-4.5-6c-3.3,0-4.4,3-4.4,6s1.2,5.9,4.5,5.9
		C-576.6,407.6-575.5,404.7-575.5,401.7z"/>
	<path class="st2" d="M-559.1,413.3c-1.1,3-2.9,4.2-6.4,4.2c-1,0-2.1-0.1-3.1-0.2v-4.2c1,0.1,2,0.2,3,0.2c1.3-0.1,2-1.2,2-2.3
		c0-0.4-0.1-0.8-0.2-1.2l-6.6-17.5h5.5l4.2,12.7h0.1l4.1-12.7h5.3L-559.1,413.3z"/>
</g>
</svg>
