<?xml version="1.0" encoding="utf-8"?>
<!-- Generator: Adobe Illustrator 19.0.0, SVG Export Plug-In . SVG Version: 6.00 Build 0)  -->
<!DOCTYPE svg PUBLIC "-//W3C//DTD SVG 1.1//EN" "http://www.w3.org/Graphics/SVG/1.1/DTD/svg11.dtd">
<svg version="1.1" id="Layer_1" xmlns="http://www.w3.org/2000/svg" xmlns:xlink="http://www.w3.org/1999/xlink" x="0px" y="0px"
	 viewBox="-607 369 64 64" style="enable-background:new -607 369 64 64;" xml:space="preserve">
<style type="text/css">
	.st0{fill:none;}
	.st1{enable-background:new    ;}
	.st2{fill:#734098;}
</style>
<g>
	<rect x="-607.7" y="374.3" class="st0" width="64.8" height="47"/>
	<g class="st1">
		<path class="st2" d="M-598,394.5h5.7v5.5h-5.7V394.5z"/>
		<path class="st2" d="M-589.4,381.4h4.9v2.4h0.1c1.3-2,3.2-2.9,5.5-2.9c5.8,0,8.5,4.7,8.5,10c0,5-2.7,9.6-8.2,9.6
			c-2.3,0-4.3-1-5.6-2.8h-0.1v8.9h-5.1V381.4z M-575.5,390.8c0-3-1.2-6-4.5-6c-3.3,0-4.4,3-4.4,6s1.2,5.9,4.5,5.9
			C-576.6,396.7-575.5,393.8-575.5,390.8z"/>
		<path class="st2" d="M-559.1,402.4c-1.1,3-2.9,4.2-6.4,4.2c-1,0-2.1-0.1-3.1-0.2v-4.2c1,0.1,2,0.2,3,0.2c1.3-0.1,2-1.2,2-2.3
			c0-0.4-0.1-0.8-0.2-1.2l-6.6-17.5h5.5l4.2,12.7h0.1l4.1-12.7h5.3L-559.1,402.4z"/>
	</g>
	<rect x="-607" y="409.8" class="st0" width="64" height="14.3"/>
	<g class="st1">
		<path class="st2" d="M-591.6,414.4h-1.4v-1.5h1.4v-0.6c0-1.5,0.9-2.5,2.8-2.5c0.4,0,0.8,0,1.2,0.1v1.7c-0.3,0-0.6,0-0.8,0
			c-0.6,0-0.9,0.3-0.9,0.9v0.5h1.6v1.5h-1.6v6.8h-2.3V414.4z M-586.4,409.7h2.3v11.4h-2.3V409.7z"/>
		<path class="st2" d="M-582.7,415.4c0.1-2.1,2-2.8,3.9-2.8c1.6,0,3.6,0.4,3.6,2.4v4.3c0,0.8,0.1,1.5,0.3,1.8h-2.3
			c-0.1-0.3-0.1-0.5-0.2-0.8c-0.7,0.8-1.8,1-2.8,1c-1.6,0-2.8-0.8-2.8-2.5c0-3.8,5.6-1.7,5.5-3.6c0-1-0.7-1.1-1.5-1.1
			c-0.9,0-1.4,0.4-1.5,1.2H-582.7z M-577.4,417.1c-0.4,0.3-1.2,0.4-1.9,0.5c-0.7,0.1-1.3,0.4-1.3,1.2c0,0.8,0.7,1.1,1.4,1.1
			c1.8,0,1.8-1.4,1.8-1.9V417.1z"/>
		<path class="st2" d="M-571.9,418.5c0,1,0.9,1.4,1.7,1.4c0.6,0,1.5-0.3,1.5-1.1c0-0.7-1-0.9-2.6-1.3c-1.3-0.3-2.6-0.7-2.6-2.2
			c0-2.1,1.8-2.7,3.6-2.7c1.8,0,3.5,0.6,3.6,2.6h-2.2c-0.1-0.9-0.7-1.1-1.6-1.1c-0.5,0-1.3,0.1-1.3,0.8c0,0.8,1.3,0.9,2.6,1.2
			c1.3,0.3,2.6,0.8,2.6,2.3c0,2.2-1.9,2.9-3.8,2.9c-1.9,0-3.8-0.7-3.9-2.9H-571.9z"/>
		<path class="st2" d="M-565.2,409.7h2.3v6.1l2.9-3h2.7l-3.1,3l3.5,5.2h-2.8l-2.3-3.7l-0.9,0.8v2.8h-2.3V409.7z"/>
	</g>
</g>
</svg>
