<?xml version="1.0" encoding="utf-8"?>
<!-- Generator: Adobe Illustrator 19.0.0, SVG Export Plug-In . SVG Version: 6.00 Build 0)  -->
<!DOCTYPE svg PUBLIC "-//W3C//DTD SVG 1.1//EN" "http://www.w3.org/Graphics/SVG/1.1/DTD/svg11.dtd">
<svg version="1.1" id="Layer_1" xmlns="http://www.w3.org/2000/svg" xmlns:xlink="http://www.w3.org/1999/xlink" x="0px" y="0px"
	 viewBox="-607 369 64 64" style="enable-background:new -607 369 64 64;" xml:space="preserve">
<style type="text/css">
	.st0{fill:none;}
	.st1{enable-background:new    ;}
	.st2{fill:#6EB400;}
</style>
<rect x="-607.4" y="376.9" class="st0" width="64.8" height="47"/>
<g class="st1">
	<path class="st2" d="M-595.7,397.1h5.7v5.5h-5.7V397.1z"/>
</g>
<g class="st1">
	<path class="st2" d="M-586.4,384h4.9v3.5h0.1c1-2.3,3.4-4,5.9-4c0.4,0,0.8,0.1,1.1,0.2v4.8c-0.5-0.1-1.2-0.2-1.8-0.2
		c-3.8,0-5,2.7-5,6v8.4h-5.1V384z"/>
	<path class="st2" d="M-571.9,376.9h5.1v9.4h0.1c1.3-1.9,3.6-2.8,5.9-2.8c3.7,0,7.7,3,7.7,9.8c0,6.8-4,9.8-7.7,9.8
		c-2.7,0-5-0.8-6.1-2.9h-0.1v2.4h-4.9V376.9z M-562.6,387.4c-3,0-4.4,2.8-4.4,6c0,3.1,1.3,5.9,4.4,5.9s4.4-2.8,4.4-5.9
		C-558.2,390.2-559.6,387.4-562.6,387.4z"/>
</g>
<g class="st1">
	<path class="st2" d="M-597,410.1c2.6,0,4.3,1.7,4.3,4.4c0,2.6-1.7,4.4-4.3,4.4c-2.6,0-4.3-1.7-4.3-4.4
		C-601.3,411.9-599.6,410.1-597,410.1z M-597,417.2c1.6,0,2-1.3,2-2.6c0-1.3-0.5-2.7-2-2.7c-1.5,0-2,1.3-2,2.7
		C-599,415.8-598.5,417.2-597,417.2z"/>
	<path class="st2" d="M-591.6,410.4h2.2v1.2h0c0.6-0.9,1.6-1.4,2.5-1.4c2.4,0,3,1.4,3,3.4v5.1h-2.3V414c0-1.4-0.4-2-1.5-2
		c-1.2,0-1.8,0.7-1.8,2.4v4.3h-2.3V410.4z"/>
	<path class="st2" d="M-578.5,410.4h2.2v1.5h0c0.4-1,1.5-1.8,2.6-1.8c0.2,0,0.3,0,0.5,0.1v2.1c-0.2,0-0.5-0.1-0.8-0.1
		c-1.7,0-2.2,1.2-2.2,2.7v3.7h-2.3V410.4z"/>
	<path class="st2" d="M-572.6,412.9c0.1-2.1,2-2.8,3.9-2.8c1.6,0,3.6,0.4,3.6,2.4v4.3c0,0.8,0.1,1.5,0.3,1.8h-2.3
		c-0.1-0.3-0.1-0.5-0.2-0.8c-0.7,0.8-1.8,1-2.8,1c-1.6,0-2.8-0.8-2.8-2.5c0-3.8,5.6-1.7,5.5-3.6c0-1-0.7-1.1-1.5-1.1
		c-0.9,0-1.4,0.4-1.5,1.2H-572.6z M-567.4,414.6c-0.4,0.3-1.2,0.4-1.9,0.5c-0.7,0.1-1.3,0.4-1.3,1.2c0,0.8,0.7,1.1,1.4,1.1
		c1.8,0,1.8-1.4,1.8-1.9V414.6z"/>
	<path class="st2" d="M-561.2,409.1h-2.3v-1.9h2.3V409.1z M-563.5,410.4h2.3v8.3h-2.3V410.4z"/>
	<path class="st2" d="M-559.7,407.2h2.3v11.4h-2.3V407.2z"/>
	<path class="st2" d="M-554.1,416c0,1,0.9,1.4,1.7,1.4c0.6,0,1.5-0.3,1.5-1.1c0-0.7-1-0.9-2.6-1.3c-1.3-0.3-2.6-0.7-2.6-2.2
		c0-2.1,1.8-2.7,3.6-2.7c1.8,0,3.5,0.6,3.6,2.6h-2.2c-0.1-0.9-0.7-1.1-1.6-1.1c-0.5,0-1.3,0.1-1.3,0.8c0,0.8,1.3,0.9,2.6,1.2
		c1.3,0.3,2.6,0.8,2.6,2.3c0,2.2-1.9,2.9-3.8,2.9c-1.9,0-3.8-0.7-3.9-2.9H-554.1z"/>
</g>
</svg>
