<?xml version="1.0" encoding="utf-8"?>
<!-- Generator: Adobe Illustrator 19.1.0, SVG Export Plug-In . SVG Version: 6.00 Build 0)  -->
<!DOCTYPE svg PUBLIC "-//W3C//DTD SVG 1.1//EN" "http://www.w3.org/Graphics/SVG/1.1/DTD/svg11.dtd">
<svg version="1.1" id="Layer_1" xmlns="http://www.w3.org/2000/svg" xmlns:xlink="http://www.w3.org/1999/xlink" x="0px" y="0px"
	 width="24px" height="24px" viewBox="12 -4 24 24" style="enable-background:new 12 -4 24 24;" xml:space="preserve">
<desc>Created with Sketch.</desc>
<title>brian</title>
<polygon id="Shape" points="25,2 23,2 23,7 18,7 18,9 23,9 23,14 25,14 25,9 30,9 30,7 25,7 "/>
<g>
	<path d="M24-2c5.5,0,10,4.5,10,10s-4.5,10-10,10S14,13.5,14,8S18.5-2,24-2 M24-4C17.4-4,12,1.4,12,8s5.4,12,12,12s12-5.4,12-12
		S30.6-4,24-4L24-4z"/>
</g>
</svg>
