<svg width="30px" height="30px" viewBox="0 0 30 30" version="1.1" xmlns="http://www.w3.org/2000/svg" xmlns:xlink="http://www.w3.org/1999/xlink" fill-rule="evenodd">
    <polygon id="Shape" points="16.0714286 7.5 13.9285714 7.5 13.9285714 13.9285714 7.5 13.9285714 7.5 16.0714286 13.9285714 16.0714286 13.9285714 22.5 16.0714286 22.5 16.0714286 16.0714286 22.5 16.0714286 22.5 13.9285714 16.0714286 13.9285714"></polygon>
    <path d="M15,0 C6.71678571,0 0,6.71678571 0,15 C0,23.2832143 6.71678571,30 15,30 C23.2832143,30 30,23.2832143 30,15 C30,6.71678571 23.2832143,0 15,0 L15,0 L15,0 Z M15,27.8571429 C7.91035714,27.8571429 2.14285714,22.0896429 2.14285714,15 C2.14285714,7.91035714 7.91035714,2.14285714 15,2.14285714 C22.0896429,2.14285714 27.8571429,7.91035714 27.8571429,15 C27.8571429,22.0896429 22.0896429,27.8571429 15,27.8571429 L15,27.8571429 L15,27.8571429 Z" id="Shape"></path>
</svg>