<svg width="28px" height="28px" viewBox="0 0 28 28" version="1.1" xmlns="http://www.w3.org/2000/svg" xmlns:xlink="http://www.w3.org/1999/xlink" fill-rule="evenodd">
  <polygon points="18.293 8.293 14 12.586 9.707 8.293 8.293 9.707 12.586 14 8.293 18.293 9.707 19.707 14 15.414 18.293 19.707 19.707 18.293 15.414 14 19.707 9.707"></polygon>
  <path d="M14,0 C6.269,0 0,6.269 0,14 C0,21.731 6.269,28 14,28 C21.731,28 28,21.731 28,14 C28,6.269 21.731,0 14,0 L14,0 Z M14,26 C7.383,26 2,20.617 2,14 C2,7.383 7.383,2 14,2 C20.617,2 26,7.383 26,14 C26,20.617 20.617,26 14,26 L14,26 Z"></path>
</svg>
