<svg width="30px" height="24px" viewBox="0 0 30 24" version="1.1" xmlns="http://www.w3.org/2000/svg" xmlns:xlink="http://www.w3.org/1999/xlink" fill-rule="evenodd">
    <path d="M11.858,3 C11.412,1.278 9.861,0 8,0 C6.139,0 4.588,1.278 4.142,3 L0,3 L0,5 L4.142,5 C4.588,6.722 6.139,8 8,8 C9.861,8 11.412,6.722 11.858,5 L30,5 L30,3 L11.858,3 L11.858,3 Z M8,5 C7.448,5 7,4.552 7,4 C7,3.448 7.448,3 8,3 C8.552,3 9,3.448 9,4 C9,4.552 8.552,5 8,5 L8,5 Z" id="Shape"></path>
    <path d="M22,8 C20.139,8 18.588,9.278 18.142,11 L0,11 L0,13 L18.142,13 C18.588,14.722 20.139,16 22,16 C23.861,16 25.412,14.722 25.858,13 L30,13 L30,11 L25.858,11 C25.412,9.278 23.861,8 22,8 L22,8 Z M22,13 C21.448,13 21,12.552 21,12 C21,11.448 21.448,11 22,11 C22.552,11 23,11.448 23,12 C23,12.552 22.552,13 22,13 L22,13 Z" id="Shape"></path>
    <path d="M8,16 C6.139,16 4.588,17.278 4.142,19 L0,19 L0,21 L4.142,21 C4.588,22.722 6.139,24 8,24 C9.861,24 11.412,22.722 11.858,21 L30,21 L30,19 L11.858,19 C11.412,17.278 9.861,16 8,16 L8,16 Z M8,21 C7.448,21 7,20.552 7,20 C7,19.448 7.448,19 8,19 C8.552,19 9,19.448 9,20 C9,20.552 8.552,21 8,21 L8,21 Z" id="Shape"></path>
</svg>