<?xml version="1.0" encoding="UTF-8" standalone="no"?>
<svg width="44px" height="60px" viewBox="0 0 44 60" version="1.1" xmlns="http://www.w3.org/2000/svg" xmlns:xlink="http://www.w3.org/1999/xlink" xmlns:sketch="http://www.bohemiancoding.com/sketch/ns">
    <!-- Generator: Sketch 3.4.3 (16618) - http://www.bohemiancoding.com/sketch -->
    <title>copy_64 12.08.19 PM</title>
    <desc>Created with Sketch.</desc>
    <defs></defs>
    <g id="IBM-Design-Icons" stroke="none" stroke-width="1" fill="none" fill-rule="evenodd" sketch:type="MSPage">
        <g id="Iconography" sketch:type="MSArtboardGroup" transform="translate(-1379.000000, -759.000000)" fill="#000000">
            <g id="64" sketch:type="MSLayerGroup" transform="translate(1041.000000, 350.000000)">
                <g id="copy_64-12.08.19-PM" transform="translate(338.000000, 409.000000)" sketch:type="MSShapeGroup">
                    <path d="M32,12 L32,0 L0,0 L0,48 L12,48 L12,60 L44,60 L44,12 L32,12 L32,12 Z M12,46 L2,46 L2,2 L30,2 L30,12 L12,12 L12,46 L12,46 Z M42,58 L14,58 L14,14 L42,14 L42,58 L42,58 Z" id="Shape"></path>
                    <rect id="Rectangle-path" x="20" y="24" width="16" height="2"></rect>
                    <rect id="Rectangle-path" x="20" y="28" width="16" height="2"></rect>
                    <rect id="Rectangle-path" x="20" y="32" width="16" height="2"></rect>
                    <rect id="Rectangle-path" x="20" y="36" width="8" height="2"></rect>
                </g>
            </g>
        </g>
    </g>
</svg>