<svg width="23px" height="32px" viewBox="0 0 23 32" version="1.1" xmlns="http://www.w3.org/2000/svg" xmlns:xlink="http://www.w3.org/1999/xlink" fill-rule="evenodd">
    <path d="M16.7272727,6.4 L16.7272727,0 L0,0 L0,25.6 L6.27272727,25.6 L6.27272727,32 L23,32 L23,6.4 L16.7272727,6.4 L16.7272727,6.4 L16.7272727,6.4 L16.7272727,6.4 L16.7272727,6.4 L16.7272727,6.4 L16.7272727,6.4 Z M6.27272727,24.5333333 L1.04545455,24.5333333 L1.04545455,1.06666667 L15.6818182,1.06666667 L15.6818182,6.4 L6.27272727,6.4 L6.27272727,24.5333333 L6.27272727,24.5333333 L6.27272727,24.5333333 L6.27272727,24.5333333 L6.27272727,24.5333333 L6.27272727,24.5333333 L6.27272727,24.5333333 Z M21.9545455,30.9333333 L7.31818182,30.9333333 L7.31818182,7.46666667 L21.9545455,7.46666667 L21.9545455,30.9333333 L21.9545455,30.9333333 L21.9545455,30.9333333 L21.9545455,30.9333333 L21.9545455,30.9333333 L21.9545455,30.9333333 L21.9545455,30.9333333 Z"></path>
    <rect id="Rectangle-path" x="10.4545455" y="12.8" width="8.36363636" height="1.06666667"></rect>
    <rect id="Rectangle-path" x="10.4545455" y="14.9333333" width="8.36363636" height="1.06666667"></rect>
    <rect id="Rectangle-path" x="10.4545455" y="17.0666667" width="8.36363636" height="1.06666667"></rect>
    <rect id="Rectangle-path" x="10.4545455" y="19.2" width="4.18181818" height="1.06666667"></rect>
</svg>