<svg width="22px" height="30px" viewBox="0 0 22 30" fill-rule="evenodd" version="1.1" xmlns="http://www.w3.org/2000/svg" xmlns:xlink="http://www.w3.org/1999/xlink">
  <path d="M16,6 L16,0 L0,0 L0,24 L6,24 L6,30 L22,30 L22,6 L16,6 L16,6 L16,6 L16,6 L16,6 Z M6,23 L1,23 L1,1 L15,1 L15,6 L6,6 L6,23 L6,23 L6,23 L6,23 L6,23 Z M21,29 L7,29 L7,7 L21,7 L21,29 L21,29 L21,29 L21,29 L21,29 Z"></path>
  <rect x="10" y="12" width="8" height="1"></rect>
  <rect x="10" y="14" width="8" height="1"></rect>
  <rect x="10" y="16" width="8" height="1"></rect>
  <rect x="10" y="18" width="4" height="1"></rect>
</svg>
