<?xml version="1.0" encoding="UTF-8" standalone="no"?>
<svg width="32px" height="32px" viewBox="0 0 32 32" version="1.1" xmlns="http://www.w3.org/2000/svg" xmlns:xlink="http://www.w3.org/1999/xlink" fill-rule="evenodd">
    <!-- Generator: Sketch 3.8.3 (29802) - http://www.bohemiancoding.com/sketch -->
    <title>Artboard 1</title>
    <desc>Created with Sketch.</desc>
    <defs></defs>
    <rect id="Rectangle-path" x="12" y="2" width="8" height="2.07142857"></rect>
    <path d="M6,5.10714286 L6,10.2857143 L7,10.2857143 L7,31 L25,31 L25,10.2857143 L26,10.2857143 L26,5.10714286 L6,5.10714286 L6,5.10714286 L6,5.10714286 L6,5.10714286 Z M23,28.9285714 L9,28.9285714 L9,12.3571429 L23,12.3571429 L23,28.9285714 L23,28.9285714 L23,28.9285714 L23,28.9285714 Z" id="Shape"></path>
    <rect id="Rectangle-path" x="11" y="14.4285714" width="1" height="12.4285714"></rect>
    <rect id="Rectangle-path" x="14" y="14.4285714" width="1" height="12.4285714"></rect>
    <rect id="Rectangle-path" x="17" y="14.4285714" width="1" height="12.4285714"></rect>
    <rect id="Rectangle-path" x="20" y="14.4285714" width="1" height="12.4285714"></rect>
</svg>
