<svg width="20px" height="29px" viewBox="0 0 20 29" version="1.1" xmlns="http://www.w3.org/2000/svg" xmlns:xlink="http://www.w3.org/1999/xlink" fill-rule="evenodd">
    <rect id="Rectangle-path" x="6" y="0" width="8" height="2.07142857"></rect>
    <path d="M0,3.10714286 L0,8.2857143 L1,8.2857143 L1,29 L19,29 L19,8.2857143 L20,8.2857143 L20,3.10714286 L0,3.10714286 L0,3.10714286 L0,3.10714286 L0,3.10714286 L0,3.10714286 Z M17,26.9285714 L3,26.9285714 L3,10.3571429 L17,10.3571429 L17,26.9285714 L17,26.9285714 L17,26.9285714 L17,26.9285714 L17,26.9285714 Z" id="Shape"></path>
    <rect id="Rectangle-path" x="5" y="12.4285714" width="1" height="12.4285714"></rect>
    <rect id="Rectangle-path" x="8" y="12.4285714" width="1" height="12.4285714"></rect>
    <rect id="Rectangle-path" x="11" y="12.4285714" width="1" height="12.4285714"></rect>
    <rect id="Rectangle-path" x="14" y="12.4285714" width="1" height="12.4285714"></rect>
</svg>