<?xml version="1.0" encoding="UTF-8" standalone="no"?>
<svg width="32px" height="32px" viewBox="0 0 32 32" version="1.1" xmlns="http://www.w3.org/2000/svg" xmlns:xlink="http://www.w3.org/1999/xlink" fill-rule="evenodd">
    <!-- Generator: Sketch 3.8.3 (29802) - http://www.bohemiancoding.com/sketch -->
    <title>Artboard 1</title>
    <desc>Created with Sketch.</desc>
    <defs></defs>
    <path d="M1,1 L15,1 L15,15 L1,15 L1,1 L1,1 L1,1 L1,1 Z M1,17 L15,17 L15,31 L1,31 L1,17 L1,17 L1,17 L1,17 Z M17,1 L31,1 L31,15 L17,15 L17,1 L17,1 L17,1 L17,1 Z M17,17 L31,17 L31,31 L17,31 L17,17 L17,17 L17,17 L17,17 Z" id="Shape"></path>
</svg>
