<svg width="30px" height="30px" viewBox="0 0 30 30" version="1.1" xmlns="http://www.w3.org/2000/svg" xmlns:xlink="http://www.w3.org/1999/xlink" fill-rule="evenodd">
    <path d="M6.42857143,22.5 C9.3878571,22.5 11.7857143,20.1021429 11.7857143,17.1428571 C11.7857143,14.1835714 9.3878571,11.7857143 6.42857143,11.7857143 C3.46928571,11.7857143 1.07142857,14.1835714 1.07142857,17.1428571 C1.07142857,20.1021429 3.46928571,22.5 6.42857143,22.5 L6.42857143,22.5 L6.42857143,22.5 L6.42857143,22.5 Z M6.42857143,13.9285714 C8.20071429,13.9285714 9.6428571,15.3707143 9.6428571,17.1428571 C9.6428571,18.915 8.20071429,20.3571429 6.42857143,20.3571429 C4.65642857,20.3571429 3.21428571,18.915 3.21428571,17.1428571 C3.21428571,15.3707143 4.65642857,13.9285714 6.42857143,13.9285714 L6.42857143,13.9285714 L6.42857143,13.9285714 L6.42857143,13.9285714 Z" id="Shape"></path>
    <path d="M18.2142857,17.1428571 C18.2142857,20.1021429 20.6121429,22.5 23.5714286,22.5 C26.5307143,22.5 28.9285714,20.1021429 28.9285714,17.1428571 C28.9285714,14.1835714 26.5307143,11.7857143 23.5714286,11.7857143 C20.6121429,11.7857143 18.2142857,14.1835714 18.2142857,17.1428571 L18.2142857,17.1428571 L18.2142857,17.1428571 L18.2142857,17.1428571 Z M23.5714286,13.9285714 C25.3435714,13.9285714 26.7857143,15.3707143 26.7857143,17.1428571 C26.7857143,18.915 25.3435714,20.3571429 23.5714286,20.3571429 C21.7992857,20.3571429 20.3571429,18.915 20.3571429,17.1428571 C20.3571429,15.3707143 21.7992857,13.9285714 23.5714286,13.9285714 L23.5714286,13.9285714 L23.5714286,13.9285714 L23.5714286,13.9285714 Z" id="Shape"></path>
    <path d="M20.3571429,5.35714286 C20.3571429,2.39785714 17.9592857,0 15,0 C12.0407143,0 9.6428571,2.39785714 9.6428571,5.35714286 C9.6428571,8.31642857 12.0407143,10.7142857 15,10.7142857 C17.9592857,10.7142857 20.3571429,8.31642857 20.3571429,5.35714286 L20.3571429,5.35714286 L20.3571429,5.35714286 L20.3571429,5.35714286 Z M15,8.57142857 C13.2278571,8.57142857 11.7857143,7.12928571 11.7857143,5.35714286 C11.7857143,3.585 13.2278571,2.14285714 15,2.14285714 C16.7721429,2.14285714 18.2142857,3.585 18.2142857,5.35714286 C18.2142857,7.12928571 16.7721429,8.57142857 15,8.57142857 L15,8.57142857 L15,8.57142857 L15,8.57142857 Z" id="Shape"></path>
    <path d="M10.7142857,24.6428571 L2.14285714,24.6428571 C0.95892857,24.6428571 0,25.6028571 0,26.7857143 L0,30 L12.8571429,30 L12.8571429,26.7857143 C12.8571429,25.6028571 11.8971429,24.6428571 10.7142857,24.6428571 L10.7142857,24.6428571 L10.7142857,24.6428571 L10.7142857,24.6428571 Z" id="Shape"></path>
    <path d="M27.8571429,24.6428571 L19.2857143,24.6428571 C18.1028571,24.6428571 17.1428571,25.6028571 17.1428571,26.7857143 L17.1428571,30 L30,30 L30,26.7857143 C30,25.6028571 29.04,24.6428571 27.8571429,24.6428571 L27.8571429,24.6428571 L27.8571429,24.6428571 L27.8571429,24.6428571 Z" id="Shape"></path>
</svg>