<svg width="28px" height="28px" viewBox="0 0 28 28" fill-rule="evenodd" version="1.1" xmlns="http://www.w3.org/2000/svg" xmlns:xlink="http://www.w3.org/1999/xlink">
  <path d="M6,21 C8.762,21 11,18.762 11,16 C11,13.238 8.762,11 6,11 C3.238,11 1,13.238 1,16 C1,18.762 3.238,21 6,21 L6,21 Z M6,13 C7.654,13 9,14.346 9,16 C9,17.654 7.654,19 6,19 C4.346,19 3,17.654 3,16 C3,14.346 4.346,13 6,13 L6,13 Z"></path>
  <path d="M17,16 C17,18.762 19.238,21 22,21 C24.762,21 27,18.762 27,16 C27,13.238 24.762,11 22,11 C19.238,11 17,13.238 17,16 L17,16 Z M22,13 C23.654,13 25,14.346 25,16 C25,17.654 23.654,19 22,19 C20.346,19 19,17.654 19,16 C19,14.346 20.346,13 22,13 L22,13 Z"></path>
  <path d="M19,5 C19,2.238 16.762,0 14,0 C11.238,0 9,2.238 9,5 C9,7.762 11.238,10 14,10 C16.762,10 19,7.762 19,5 L19,5 Z M14,8 C12.346,8 11,6.654 11,5 C11,3.346 12.346,2 14,2 C15.654,2 17,3.346 17,5 C17,6.654 15.654,8 14,8 L14,8 Z"></path>
  <path d="M10,23 L2,23 C0.895,23 0,23.896 0,25 L0,28 L12,28 L12,25 C12,23.896 11.104,23 10,23 L10,23 Z"></path>
  <path d="M26,23 L18,23 C16.896,23 16,23.896 16,25 L16,28 L28,28 L28,25 C28,23.896 27.104,23 26,23 L26,23 Z"></path>
</svg>
