<svg width="24px" height="24px" viewBox="0 0 24 24" version="1.1" xmlns="http://www.w3.org/2000/svg" xmlns:xlink="http://www.w3.org/1999/xlink" fill-rule="evenodd">
  <path d="M5,18.5 C7.5,18.5 9.5,16.5 9.5,14 C9.5,11.5 7.5,9.5 5,9.5 C2.5,9.5 0.5,11.5 0.5,14 C0.5,16.5 2.5,18.5 5,18.5 L5,18.5 L5,18.5 L5,18.5 L5,18.5 Z M5,11.3 C6.5,11.3 7.7,12.5 7.7,14 C7.7,15.5 6.5,16.7 5,16.7 C3.5,16.7 2.3,15.5 2.3,14 C2.3,12.5 3.5,11.3 5,11.3 L5,11.3 L5,11.3 L5,11.3 L5,11.3 Z"></path>
  <path d="M12,9.5 C14.5,9.5 16.5,7.5 16.5,5 C16.5,2.5 14.5,0.5 12,0.5 C9.5,0.5 7.5,2.5 7.5,5 C7.5,7.5 9.5,9.5 12,9.5 L12,9.5 L12,9.5 L12,9.5 L12,9.5 Z M12,2.3 C13.5,2.3 14.7,3.5 14.7,5 C14.7,6.5 13.5,7.7 12,7.7 C10.5,7.7 9.3,6.5 9.3,5 C9.3,3.5 10.5,2.3 12,2.3 L12,2.3 L12,2.3 L12,2.3 L12,2.3 Z"></path>
  <path d="M19,18.5 C21.5,18.5 23.5,16.5 23.5,14 C23.5,11.5 21.5,9.5 19,9.5 C16.5,9.5 14.5,11.5 14.5,14 C14.5,16.5 16.5,18.5 19,18.5 L19,18.5 L19,18.5 L19,18.5 L19,18.5 Z M19,11.3 C20.5,11.3 21.7,12.5 21.7,14 C21.7,15.5 20.5,16.7 19,16.7 C17.5,16.7 16.3,15.5 16.3,14 C16.3,12.5 17.5,11.3 19,11.3 L19,11.3 L19,11.3 L19,11.3 L19,11.3 Z"></path>
  <path d="M22,20 L16,20 C15.1,20 14,21 14,22 L14,24 L24,24 L24,22 C24,21.1 22.9,20 22,20 L22,20 L22,20 L22,20 L22,20 Z"></path>
  <path d="M8,20 L2,20 C1.1,20 0,21 0,22 L0,24 L10,24 L10,22 C10,21.1 8.9,20 8,20 L8,20 L8,20 L8,20 L8,20 Z"></path>
</svg>
