<?xml version="1.0" encoding="UTF-8" standalone="no"?>
<svg width="32px" height="32px" viewBox="0 0 32 32" version="1.1" xmlns="http://www.w3.org/2000/svg" xmlns:xlink="http://www.w3.org/1999/xlink" fill-rule="evenodd">
    <!-- Generator: Sketch 3.8.3 (29802) - http://www.bohemiancoding.com/sketch -->
    <title>Artboard 1</title>
    <desc>Created with Sketch.</desc>
    <defs></defs>
        <g id="Artboard-1" fill="#000000">
            <path d="M7.42857143,23.5 C10.3878571,23.5 12.7857143,21.1021429 12.7857143,18.1428571 C12.7857143,15.1835714 10.3878571,12.7857143 7.42857143,12.7857143 C4.46928571,12.7857143 2.07142857,15.1835714 2.07142857,18.1428571 C2.07142857,21.1021429 4.46928571,23.5 7.42857143,23.5 L7.42857143,23.5 L7.42857143,23.5 Z M7.42857143,14.9285714 C9.20071429,14.9285714 10.6428571,16.3707143 10.6428571,18.1428571 C10.6428571,19.915 9.20071429,21.3571429 7.42857143,21.3571429 C5.65642857,21.3571429 4.21428571,19.915 4.21428571,18.1428571 C4.21428571,16.3707143 5.65642857,14.9285714 7.42857143,14.9285714 L7.42857143,14.9285714 L7.42857143,14.9285714 Z" id="Shape"></path>
            <path d="M19.2142857,18.1428571 C19.2142857,21.1021429 21.6121429,23.5 24.5714286,23.5 C27.5307143,23.5 29.9285714,21.1021429 29.9285714,18.1428571 C29.9285714,15.1835714 27.5307143,12.7857143 24.5714286,12.7857143 C21.6121429,12.7857143 19.2142857,15.1835714 19.2142857,18.1428571 L19.2142857,18.1428571 L19.2142857,18.1428571 Z M24.5714286,14.9285714 C26.3435714,14.9285714 27.7857143,16.3707143 27.7857143,18.1428571 C27.7857143,19.915 26.3435714,21.3571429 24.5714286,21.3571429 C22.7992857,21.3571429 21.3571429,19.915 21.3571429,18.1428571 C21.3571429,16.3707143 22.7992857,14.9285714 24.5714286,14.9285714 L24.5714286,14.9285714 L24.5714286,14.9285714 Z" id="Shape"></path>
            <path d="M21.3571429,6.35714286 C21.3571429,3.39785714 18.9592857,1 16,1 C13.0407143,1 10.6428571,3.39785714 10.6428571,6.35714286 C10.6428571,9.31642857 13.0407143,11.7142857 16,11.7142857 C18.9592857,11.7142857 21.3571429,9.31642857 21.3571429,6.35714286 L21.3571429,6.35714286 L21.3571429,6.35714286 Z M16,9.57142857 C14.2278571,9.57142857 12.7857143,8.12928571 12.7857143,6.35714286 C12.7857143,4.585 14.2278571,3.14285714 16,3.14285714 C17.7721429,3.14285714 19.2142857,4.585 19.2142857,6.35714286 C19.2142857,8.12928571 17.7721429,9.57142857 16,9.57142857 L16,9.57142857 L16,9.57142857 Z" id="Shape"></path>
            <path d="M11.7142857,25.6428571 L3.14285714,25.6428571 C1.95892857,25.6428571 1,26.6028571 1,27.7857143 L1,31 L13.8571429,31 L13.8571429,27.7857143 C13.8571429,26.6028571 12.8971429,25.6428571 11.7142857,25.6428571 L11.7142857,25.6428571 L11.7142857,25.6428571 Z" id="Shape"></path>
            <path d="M28.8571429,25.6428571 L20.2857143,25.6428571 C19.1028571,25.6428571 18.1428571,26.6028571 18.1428571,27.7857143 L18.1428571,31 L31,31 L31,27.7857143 C31,26.6028571 30.04,25.6428571 28.8571429,25.6428571 L28.8571429,25.6428571 L28.8571429,25.6428571 Z" id="Shape"></path>
        </g>
</svg>
