<?xml version="1.0" encoding="UTF-8" standalone="no"?>
<svg width="32px" height="32px" viewBox="0 0 32 32" version="1.1" xmlns="http://www.w3.org/2000/svg" xmlns:xlink="http://www.w3.org/1999/xlink" fill-rule="evenodd">
    <!-- Generator: Sketch 3.8.3 (29802) - http://www.bohemiancoding.com/sketch -->
    <title>Artboard 1</title>
    <desc>Created with Sketch.</desc>
    <defs></defs>
    <g id="Artboard-1" fill="#000000">
        <polygon id="Shape" points="13.8571429 18.7707143 10.3289286 15.2425 8.81392857 16.7575 13.8571429 21.8007143 23.1860714 12.4717857 21.6710714 10.9567857"></polygon>
        <path d="M16,1 C7.71678571,1 1,7.71678571 1,16 C1,24.2832143 7.71678571,31 16,31 C24.2832143,31 31,24.2832143 31,16 C31,7.71678571 24.2832143,1 16,1 L16,1 L16,1 Z M16,28.8571429 C8.91035714,28.8571429 3.14285714,23.0896429 3.14285714,16 C3.14285714,8.91035714 8.91035714,3.14285714 16,3.14285714 C23.0896429,3.14285714 28.8571429,8.91035714 28.8571429,16 C28.8571429,23.0896429 23.0896429,28.8571429 16,28.8571429 L16,28.8571429 L16,28.8571429 Z" id="Shape"></path>
    </g>
</svg>
