<svg width="28px" height="28px" viewBox="0 0 28 28" fill-rule="evenodd" version="1.1" xmlns="http://www.w3.org/2000/svg" xmlns:xlink="http://www.w3.org/1999/xlink">
  <path d="M14,0 C6.269,0 0,6.269 0,14 C0,21.731 6.269,28 14,28 C21.731,28 28,21.731 28,14 C28,6.269 21.731,0 14,0 L14,0 Z M21,14 C21,14.893 20.826,15.743 20.521,16.528 C19.81,18.357 18.357,19.809 16.529,20.52 C15.744,20.826 14.893,21 14,21 C13.107,21 12.256,20.826 11.471,20.521 C9.643,19.81 8.19,18.357 7.479,16.529 C7.174,15.743 7,14.893 7,14 C7,13.107 7.174,12.257 7.479,11.473 C8.19,9.644 9.644,8.19 11.471,7.479 C12.257,7.174 13.107,7 14,7 C14.893,7 15.743,7.174 16.529,7.479 C18.356,8.189 19.81,9.644 20.521,11.473 C20.826,12.257 21,13.107 21,14 L21,14 Z M17.286,6.714 C16.282,6.259 15.172,6 14,6 C12.828,6 11.718,6.259 10.714,6.714 L7.766,3.766 C9.586,2.653 11.715,2 14,2 C16.285,2 18.414,2.653 20.234,3.766 L17.286,6.714 L17.286,6.714 Z M6.714,17.286 L3.766,20.234 C2.653,18.415 2,16.285 2,14 C2,11.715 2.653,9.585 3.766,7.766 L6.714,10.714 C6.26,11.718 6,12.828 6,14 C6,15.172 6.26,16.282 6.714,17.286 L6.714,17.286 Z M10.714,21.286 C11.718,21.741 12.828,22 14,22 C15.172,22 16.282,21.741 17.286,21.286 L20.234,24.234 C18.414,25.347 16.285,26 14,26 C11.715,26 9.586,25.347 7.766,24.234 L10.714,21.286 L10.714,21.286 Z M21.286,10.714 L24.234,7.766 C25.347,9.585 26,11.715 26,14 C26,16.285 25.347,18.415 24.234,20.234 L21.286,17.286 C21.74,16.282 22,15.172 22,14 C22,12.828 21.74,11.718 21.286,10.714 L21.286,10.714 Z"></path>
</svg>
