<?xml version="1.0" encoding="UTF-8" standalone="no"?>
<svg width="32px" height="32px" viewBox="0 0 32 32" version="1.1" xmlns="http://www.w3.org/2000/svg" xmlns:xlink="http://www.w3.org/1999/xlink" fill-rule="evenodd">
    <!-- Generator: Sketch 3.8.3 (29802) - http://www.bohemiancoding.com/sketch -->
    <title>Artboard 1</title>
    <desc>Created with Sketch.</desc>
    <defs></defs>
    <g id="Artboard-1" fill="#000000">
        <path d="M16,1 C7.71678571,1 1,7.71678571 1,16 C1,24.2832143 7.71678571,31 16,31 C24.2832143,31 31,24.2832143 31,16 C31,7.71678571 24.2832143,1 16,1 L16,1 L16,1 Z M23.5,16 C23.5,16.9567857 23.3135714,17.8675 22.9867857,18.7085714 C22.225,20.6682143 20.6682143,22.2239286 18.7096429,22.9857143 C17.8685714,23.3135714 16.9567857,23.5 16,23.5 C15.0432143,23.5 14.1314286,23.3135714 13.2903571,22.9867857 C11.3317857,22.225 9.775,20.6682143 9.01321429,18.7096429 C8.68642857,17.8675 8.5,16.9567857 8.5,16 C8.5,15.0432143 8.68642857,14.1325 9.01321429,13.2925 C9.775,11.3328571 11.3328571,9.775 13.2903571,9.01321429 C14.1325,8.68642857 15.0432143,8.5 16,8.5 C16.9567857,8.5 17.8675,8.68642857 18.7096429,9.01321429 C20.6671429,9.77392857 22.225,11.3328571 22.9867857,13.2925 C23.3135714,14.1325 23.5,15.0432143 23.5,16 L23.5,16 L23.5,16 Z M19.5207143,8.19357143 C18.445,7.70607143 17.2557143,7.42857143 16,7.42857143 C14.7442857,7.42857143 13.555,7.70607143 12.4792857,8.19357143 L9.32071429,5.035 C11.2707143,3.8425 13.5517857,3.14285714 16,3.14285714 C18.4482143,3.14285714 20.7292857,3.8425 22.6792857,5.035 L19.5207143,8.19357143 L19.5207143,8.19357143 L19.5207143,8.19357143 Z M8.19357143,19.5207143 L5.035,22.6792857 C3.8425,20.7303571 3.14285714,18.4482143 3.14285714,16 C3.14285714,13.5517857 3.8425,11.2696429 5.035,9.32071429 L8.19357143,12.4792857 C7.70714286,13.555 7.42857143,14.7442857 7.42857143,16 C7.42857143,17.2557143 7.70714286,18.445 8.19357143,19.5207143 L8.19357143,19.5207143 L8.19357143,19.5207143 Z M12.4792857,23.8064286 C13.555,24.2939286 14.7442857,24.5714286 16,24.5714286 C17.2557143,24.5714286 18.445,24.2939286 19.5207143,23.8064286 L22.6792857,26.965 C20.7292857,28.1575 18.4482143,28.8571429 16,28.8571429 C13.5517857,28.8571429 11.2707143,28.1575 9.32071429,26.965 L12.4792857,23.8064286 L12.4792857,23.8064286 L12.4792857,23.8064286 Z M23.8064286,12.4792857 L26.965,9.32071429 C28.1575,11.2696429 28.8571429,13.5517857 28.8571429,16 C28.8571429,18.4482143 28.1575,20.7303571 26.965,22.6792857 L23.8064286,19.5207143 C24.2928571,18.445 24.5714286,17.2557143 24.5714286,16 C24.5714286,14.7442857 24.2928571,13.555 23.8064286,12.4792857 L23.8064286,12.4792857 L23.8064286,12.4792857 Z" id="Shape"></path>
    </g>
</svg>
