<svg width="30px" height="30px" viewBox="0 0 30 30" version="1.1" xmlns="http://www.w3.org/2000/svg" xmlns:xlink="http://www.w3.org/1999/xlink" fill-rule="evenodd">
    <path d="M15,0 C6.71678571,0 0,6.71678571 0,15 C0,23.2832143 6.71678571,30 15,30 C23.2832143,30 30,23.2832143 30,15 C30,6.71678571 23.2832143,0 15,0 L15,0 L15,0 L15,0 Z M22.5,15 C22.5,15.9567857 22.3135714,16.8675 21.9867857,17.7085714 C21.225,19.6682143 19.6682143,21.2239286 17.7096429,21.9857143 C16.8685714,22.3135714 15.9567857,22.5 15,22.5 C14.0432143,22.5 13.1314286,22.3135714 12.2903571,21.9867857 C10.3317857,21.225 8.775,19.6682143 8.01321429,17.7096429 C7.68642857,16.8675 7.5,15.9567857 7.5,15 C7.5,14.0432143 7.68642857,13.1325 8.01321429,12.2925 C8.775,10.3328571 10.3328571,8.775 12.2903571,8.01321429 C13.1325,7.68642857 14.0432143,7.5 15,7.5 C15.9567857,7.5 16.8675,7.68642857 17.7096429,8.01321429 C19.6671429,8.77392857 21.225,10.3328571 21.9867857,12.2925 C22.3135714,13.1325 22.5,14.0432143 22.5,15 L22.5,15 L22.5,15 L22.5,15 Z M18.5207143,7.19357143 C17.445,6.70607143 16.2557143,6.42857143 15,6.42857143 C13.7442857,6.42857143 12.555,6.70607143 11.4792857,7.19357143 L8.32071429,4.035 C10.2707143,2.8425 12.5517857,2.14285714 15,2.14285714 C17.4482143,2.14285714 19.7292857,2.8425 21.6792857,4.035 L18.5207143,7.19357143 L18.5207143,7.19357143 L18.5207143,7.19357143 L18.5207143,7.19357143 Z M7.19357143,18.5207143 L4.035,21.6792857 C2.8425,19.7303571 2.14285714,17.4482143 2.14285714,15 C2.14285714,12.5517857 2.8425,10.2696429 4.035,8.32071429 L7.19357143,11.4792857 C6.70714286,12.555 6.42857143,13.7442857 6.42857143,15 C6.42857143,16.2557143 6.70714286,17.445 7.19357143,18.5207143 L7.19357143,18.5207143 L7.19357143,18.5207143 L7.19357143,18.5207143 Z M11.4792857,22.8064286 C12.555,23.2939286 13.7442857,23.5714286 15,23.5714286 C16.2557143,23.5714286 17.445,23.2939286 18.5207143,22.8064286 L21.6792857,25.965 C19.7292857,27.1575 17.4482143,27.8571429 15,27.8571429 C12.5517857,27.8571429 10.2707143,27.1575 8.32071429,25.965 L11.4792857,22.8064286 L11.4792857,22.8064286 L11.4792857,22.8064286 L11.4792857,22.8064286 Z M22.8064286,11.4792857 L25.965,8.32071429 C27.1575,10.2696429 27.8571429,12.5517857 27.8571429,15 C27.8571429,17.4482143 27.1575,19.7303571 25.965,21.6792857 L22.8064286,18.5207143 C23.2928571,17.445 23.5714286,16.2557143 23.5714286,15 C23.5714286,13.7442857 23.2928571,12.555 22.8064286,11.4792857 L22.8064286,11.4792857 L22.8064286,11.4792857 L22.8064286,11.4792857 Z" id="Shape"></path>
</svg>