<?xml version="1.0" encoding="UTF-8" standalone="no"?>
<svg width="32px" height="32px" viewBox="0 0 32 32" version="1.1" xmlns="http://www.w3.org/2000/svg" xmlns:xlink="http://www.w3.org/1999/xlink" fill-rule="evenodd">
    <!-- Generator: Sketch 3.8.3 (29802) - http://www.bohemiancoding.com/sketch -->
    <title>Artboard 1</title>
    <desc>Created with Sketch.</desc>
    <defs></defs>
    <g id="Artboard-1" fill="#000000">
        <path d="M28.95,3.05 C27.683,1.784 25.933,1 24,1 C22.067,1 20.317,1.784 19.05,3.05 L16.05,6.05 C14.784,7.317 14,9.067 14,11 C14,12.206 14.286,13.359 14.808,14.364 L14.365,14.807 C13.359,14.286 12.206,14 11,14 C9.067,14 7.317,14.784 6.05,16.05 L3.05,19.05 C1.784,20.317 1,22.067 1,24 C1,25.933 1.784,27.683 3.05,28.95 C4.316,30.217 6.067,31 8,31 C9.933,31 11.683,30.216 12.95,28.95 L15.95,25.95 C17.216,24.683 18,22.933 18,21 C18,19.794 17.714,18.641 17.192,17.636 L17.635,17.193 C18.641,17.714 19.794,18 21,18 C22.933,18 24.683,17.216 25.95,15.95 L28.95,12.95 C30.216,11.683 31,9.933 31,8 C31,6.067 30.216,4.317 28.95,3.05 L28.95,3.05 L28.95,3.05 Z M16,21 C16,22.335 15.48,23.591 14.536,24.536 L11.536,27.536 C10.591,28.48 9.335,29 8,29 C6.665,29 5.409,28.48 4.464,27.536 C3.52,26.591 3,25.335 3,24 C3,22.665 3.52,21.409 4.464,20.464 L7.464,17.464 C8.409,16.52 9.665,16 11,16 C11.642,16 12.264,16.122 12.84,16.332 L8.586,20.586 L11.414,23.414 L15.668,19.16 C15.878,19.736 16,20.358 16,21 L16,21 L16,21 Z M27.536,11.536 L24.536,14.536 C23.591,15.48 22.335,16 21,16 C20.358,16 19.736,15.878 19.16,15.668 L23.414,11.414 L20.586,8.586 L16.332,12.84 C16.122,12.264 16,11.642 16,11 C16,9.665 16.52,8.409 17.464,7.464 L20.464,4.464 C21.409,3.52 22.665,3 24,3 C25.335,3 26.591,3.52 27.536,4.464 C28.48,5.409 29,6.665 29,8 C29,9.335 28.48,10.591 27.536,11.536 L27.536,11.536 L27.536,11.536 Z" id="Shape"></path>
    </g>
</svg>
