<svg width="24px" height="20px" viewBox="0 0 24 20" version="1.1" xmlns="http://www.w3.org/2000/svg" xmlns:xlink="http://www.w3.org/1999/xlink" fill-rule="evenodd">
  <path d="M0,0 L0,3.2 L0,20 L24,20 L24,3.3 L24,0 L0,0 L0,0 L0,0 L0,0 Z M2,18 L2,5 L22,5 L22,18 L2,18 L2,18 Z"></path>
  <path d="M12,17 C15.6,17 18.3,14.8 20,11.5 C18.3,8.2 15.6,6 12,6 C8.4,6 5.7,8.2 4,11.5 C5.7,14.8 8.4,17 12,17 L12,17 L12,17 L12,17 Z M12,6.9 C14.9,6.9 17.4,8.5 19.1,11.5 C17.4,14.5 14.9,16.1 12,16.1 C9.1,16.1 6.6,14.5 4.9,11.5 C6.6,8.5 9.1,6.9 12,6.9 L12,6.9 L12,6.9 L12,6.9 Z"></path>
  <path d="M12,10.6 C12.6,10.6 13,11 13,11.6 C13,12.2 12.6,12.6 12,12.6 C11.4,12.6 11,12.2 11,11.6 C11,11 11.4,10.6 12,10.6 L12,10.6 Z M12,8.6 C10.3,8.6 9,9.9 9,11.6 C9,13.3 10.3,14.6 12,14.6 C13.7,14.6 15,13.3 15,11.6 C15,9.9 13.7,8.6 12,8.6 L12,8.6 L12,8.6 Z"></path>
</svg>
