<?xml version="1.0" encoding="UTF-8" standalone="no"?>
<svg width="32px" height="32px" viewBox="0 0 32 32" version="1.1" xmlns="http://www.w3.org/2000/svg" xmlns:xlink="http://www.w3.org/1999/xlink" fill-rule="evenodd">
    <!-- Generator: Sketch 3.8.3 (29802) - http://www.bohemiancoding.com/sketch -->
    <title>Artboard 1</title>
    <desc>Created with Sketch.</desc>
    <defs></defs>
    <path d="M0,3 L0,7.33333333 L0,29 L32,29 L32,7.33333333 L32,3 L0,3 L0,3 L0,3 Z M29.8666667,26.8333333 L2.13333333,26.8333333 L2.13333333,9.5 L29.8666667,9.5 L29.8666667,26.8333333 L29.8666667,26.8333333 L29.8666667,26.8333333 Z" id="Shape"></path>
    <path d="M16,24.6666667 C20.7829333,24.6666667 24.4266667,22.04825 26.6666667,18.1666667 C24.4266667,14.2850833 20.7829333,11.6666667 16,11.6666667 C11.2170667,11.6666667 7.57333333,14.2850833 5.33333333,18.1666667 C7.57333333,22.04825 11.2170667,24.6666667 16,24.6666667 L16,24.6666667 L16,24.6666667 Z M16,12.75 C19.8688,12.75 23.1893333,14.6675 25.4144,18.1666667 C23.1893333,21.6658333 19.8688,23.5833333 16,23.5833333 C12.1312,23.5833333 8.81066667,21.6658333 6.5856,18.1666667 C8.81066667,14.6675 12.1312,12.75 16,12.75 L16,12.75 L16,12.75 Z" id="Shape"></path>
    <path d="M16,21.9583333 C18.0629333,21.9583333 19.7333333,20.2618333 19.7333333,18.1666667 C19.7333333,16.0715 18.0629333,14.375 16,14.375 C13.9392,14.375 12.2666667,16.0715 12.2666667,18.1666667 C12.2666667,20.2618333 13.9392,21.9583333 16,21.9583333 L16,21.9583333 L16,21.9583333 Z M16,16.9024167 C16.6890667,16.9024167 17.2437333,17.4679167 17.2437333,18.1666667 C17.2437333,18.8654167 16.6890667,19.4309167 16,19.4309167 C15.3109333,19.4309167 14.7562667,18.8654167 14.7562667,18.1666667 C14.7562667,17.4679167 15.3109333,16.9024167 16,16.9024167 L16,16.9024167 L16,16.9024167 Z" id="Shape"></path>
</svg>
