<svg width="30px" height="24px" viewBox="0 0 30 24" fill-rule="evenodd" version="1.1" xmlns="http://www.w3.org/2000/svg" xmlns:xlink="http://www.w3.org/1999/xlink">
  <path d="M0,0 L0,4 L0,24 L30,24 L30,4 L30,0 L0,0 L0,0 Z M28,22 L2,22 L2,6 L28,6 L28,22 L28,22 Z"></path>
  <path d="M15,20 C19.484,20 22.9,17.583 25,14 C22.9,10.417 19.484,8 15,8 C10.516,8 7.1,10.417 5,14 C7.1,17.583 10.516,20 15,20 L15,20 Z M15,9 C18.627,9 21.74,10.77 23.826,14 C21.74,17.23 18.627,19 15,19 C11.373,19 8.26,17.23 6.174,14 C8.26,10.77 11.373,9 15,9 L15,9 Z"></path>
  <path d="M15,17.5 C16.934,17.5 18.5,15.934 18.5,14 C18.5,12.066 16.934,10.5 15,10.5 C13.068,10.5 11.5,12.066 11.5,14 C11.5,15.934 13.068,17.5 15,17.5 L15,17.5 Z M15,12.833 C15.646,12.833 16.166,13.355 16.166,14 C16.166,14.645 15.646,15.167 15,15.167 C14.354,15.167 13.834,14.645 13.834,14 C13.834,13.355 14.354,12.833 15,12.833 L15,12.833 Z"></path>
</svg>
