<svg width="32px" height="26px" viewBox="0 0 32 26" version="1.1" xmlns="http://www.w3.org/2000/svg" xmlns:xlink="http://www.w3.org/1999/xlink" fill-rule="evenodd">
    <path d="M0,0 L0,4.33333333 L0,26 L32,26 L32,4.33333333 L32,0 L0,0 L0,0 L0,0 L0,0 Z M29.8666667,23.8333333 L2.13333333,23.8333333 L2.13333333,6.5 L29.8666667,6.5 L29.8666667,23.8333333 L29.8666667,23.8333333 L29.8666667,23.8333333 L29.8666667,23.8333333 Z" id="Shape"></path>
    <path d="M16,21.6666667 C20.7829333,21.6666667 24.4266667,19.04825 26.6666667,15.1666667 C24.4266667,11.2850833 20.7829333,8.6666667 16,8.6666667 C11.2170667,8.6666667 7.57333333,11.2850833 5.33333333,15.1666667 C7.57333333,19.04825 11.2170667,21.6666667 16,21.6666667 L16,21.6666667 L16,21.6666667 L16,21.6666667 Z M16,9.75 C19.8688,9.75 23.1893333,11.6675 25.4144,15.1666667 C23.1893333,18.6658333 19.8688,20.5833333 16,20.5833333 C12.1312,20.5833333 8.81066667,18.6658333 6.5856,15.1666667 C8.81066667,11.6675 12.1312,9.75 16,9.75 L16,9.75 L16,9.75 L16,9.75 Z" id="Shape"></path>
    <path d="M16,18.9583333 C18.0629333,18.9583333 19.7333333,17.2618333 19.7333333,15.1666667 C19.7333333,13.0715 18.0629333,11.375 16,11.375 C13.9392,11.375 12.2666667,13.0715 12.2666667,15.1666667 C12.2666667,17.2618333 13.9392,18.9583333 16,18.9583333 L16,18.9583333 L16,18.9583333 L16,18.9583333 Z M16,13.9024167 C16.6890667,13.9024167 17.2437333,14.4679167 17.2437333,15.1666667 C17.2437333,15.8654167 16.6890667,16.4309167 16,16.4309167 C15.3109333,16.4309167 14.7562667,15.8654167 14.7562667,15.1666667 C14.7562667,14.4679167 15.3109333,13.9024167 16,13.9024167 L16,13.9024167 L16,13.9024167 L16,13.9024167 Z" id="Shape"></path>
</svg>