<svg width="22px" height="30px" viewBox="0 0 22 30" fill-rule="evenodd" version="1.1" xmlns="http://www.w3.org/2000/svg" xmlns:xlink="http://www.w3.org/1999/xlink">
  <path d="M11.7783528,27.0475982 C6.3661997,27.0475982 1.9630588,22.668361 1.9630588,17.2855893 C1.9630588,11.9028175 6.3661997,7.5235803 11.7783528,7.5235803 L18.2427055,7.5235803 L14.0289997,11.7144107 L15.4168823,13.0947588 L22,6.54737941 L15.4168823,0 L14.0289997,1.38034807 L18.2427055,5.57117851 L11.7783528,5.57117851 C5.28357277,5.57117851 0,10.8260679 0,17.2855893 C0,23.7451106 5.28357277,29 11.7783528,29 C14.9241545,29 17.8815026,27.7817013 20.1066298,25.5686539 L18.7187472,24.1883058 C16.8646382,26.0323493 14.4000178,27.0475982 11.7783528,27.0475982 L11.7783528,27.0475982 Z"></path>
</svg>
