<svg width="32px" height="32px" viewBox="0 0 32 32" version="1.1" xmlns="http://www.w3.org/2000/svg" xmlns:xlink="http://www.w3.org/1999/xlink" fill-rule="evenodd">
  <path d="M16.8491121,29.8456256 C10.9449451,29.8456256 6.14151869,25.0133639 6.14151869,19.0737537 C6.14151869,13.1341434 10.9449451,8.30188171 16.8491121,8.30188171 L23.9011333,8.30188171 L19.3043633,12.9262463 L20.8184171,14.449389 L28,7.22469452 L20.8184171,0 L19.3043633,1.5231427 L23.9011333,6.14750732 L16.8491121,6.14750732 C9.76389757,6.14750732 4,11.946006 4,19.0737537 C4,26.2015014 9.76389757,32 16.8491121,32 C20.2808958,32 23.5070937,30.6556704 25.9345052,28.2136871 L24.4204515,26.6905443 C22.3977871,28.725351 19.7091103,29.8456256 16.8491121,29.8456256 L16.8491121,29.8456256 L16.8491121,29.8456256 Z" id="Shape"></path>
</svg>
