<svg width="30px" height="20px" viewBox="0 0 30 20" version="1.1" xmlns="http://www.w3.org/2000/svg" xmlns:xlink="http://www.w3.org/1999/xlink" fill-rule="evenodd">
    <path d="M10,5 C7.239,5 5,7.239 5,10 C5,12.761 7.239,15 10,15 C12.761,15 15,12.761 15,10 C15,7.239 12.761,5 10,5 L10,5 L10,5 L10,5 Z M10,12 C8.895,12 8,11.104 8,10 C8,8.896 8.895,8 10,8 C11.104,8 12,8.896 12,10 C12,11.104 11.104,12 10,12 L10,12 L10,12 L10,12 Z"></path>
    <path d="M29.121,0.879 C28.578,0.337 27.828,0 27,0 L10,0 C7.239,0 4.739,1.119 2.929,2.929 C1.119,4.738 0,7.238 0,10 C0,12.762 1.119,15.262 2.929,17.071 C4.739,18.881 7.239,20 10,20 C12.761,20 15.257,18.877 17.071,17.071 L17.071,17.071 C17.073,17.069 17.074,17.068 17.075,17.066 C20.086,14.068 29.12,5.121 29.12,5.121 C29.665,4.579 30,3.829 30,3 C30,2.171 29.665,1.421 29.121,0.879 L29.121,0.879 L29.121,0.879 L29.121,0.879 Z M15.661,15.652 L15.66,15.653 C14.14,17.167 12.13,18 10,18 C7.863,18 5.854,17.168 4.343,15.657 C2.832,14.146 2,12.137 2,10 C2,7.863 2.832,5.854 4.343,4.343 C5.854,2.832 7.863,2 10,2 C12.049,2 14.097,2.783 15.657,4.343 C18.774,7.461 18.775,12.533 15.661,15.652 L15.661,15.652 L15.661,15.652 L15.661,15.652 Z M19.882,11.461 C20.326,8.439 19.397,5.255 17.071,2.928 C16.727,2.585 16.36,2.283 15.982,2 L24.182,2 C23.808,3.056 24.034,4.276 24.879,5.121 C25.125,5.367 25.407,5.549 25.703,5.692 C24.148,7.231 21.924,9.436 19.882,11.461 L19.882,11.461 L19.882,11.461 L19.882,11.461 Z M27,4 C26.448,4 26,3.552 26,3 C26,2.448 26.448,2 27,2 C27.552,2 28,2.448 28,3 C28,3.552 27.552,4 27,4 L27,4 L27,4 L27,4 Z"></path>
</svg>