<svg width="16px" height="16px" viewBox="0 0 16 16" version="1.1" xmlns="http://www.w3.org/2000/svg" xmlns:xlink="http://www.w3.org/1999/xlink" fill-rule="evenodd">
  <path d="M5.8181818,1.45454545 C8.2181818,1.45454545 10.1818182,3.41818182 10.1818182,5.8181818 C10.1818182,8.2181818 8.2181818,10.1818182 5.8181818,10.1818182 C3.41818182,10.1818182 1.45454545,8.2181818 1.45454545,5.8181818 C1.45454545,3.41818182 3.41818182,1.45454545 5.8181818,1.45454545 L5.8181818,1.45454545 L5.8181818,1.45454545 L5.8181818,1.45454545 Z M5.8181818,0 C2.61818182,0 0,2.61818182 0,5.8181818 C0,9.0181818 2.61818182,11.6363636 5.8181818,11.6363636 C9.0181818,11.6363636 11.6363636,9.0181818 11.6363636,5.8181818 C11.6363636,2.61818182 9.0181818,0 5.8181818,0 L5.8181818,0 L5.8181818,0 L5.8181818,0 Z M10.1818182,12.3636364 L12.3636364,10.1818182 L16,13.8181818 L13.8181818,16 L10.1818182,12.3636364 L10.1818182,12.3636364 L10.1818182,12.3636364 L10.1818182,12.3636364 Z"></path>
</svg>
