<?xml version="1.0" encoding="UTF-8" standalone="no"?>
<svg width="32px" height="32px" viewBox="0 0 32 32" version="1.1" xmlns="http://www.w3.org/2000/svg" xmlns:xlink="http://www.w3.org/1999/xlink" fill-rule="evenodd">
    <!-- Generator: Sketch 3.8.3 (29802) - http://www.bohemiancoding.com/sketch -->
    <title>Artboard 1</title>
    <desc>Created with Sketch.</desc>
    <defs></defs>
    <path d="M11.6363636,2.90909091 C16.4363636,2.90909091 20.3636364,6.83636364 20.3636364,11.6363636 C20.3636364,16.4363636 16.4363636,20.3636364 11.6363636,20.3636364 C6.83636364,20.3636364 2.90909091,16.4363636 2.90909091,11.6363636 C2.90909091,6.83636364 6.83636364,2.90909091 11.6363636,2.90909091 L11.6363636,2.90909091 L11.6363636,2.90909091 Z M11.6363636,0 C5.23636364,0 0,5.23636364 0,11.6363636 C0,18.0363636 5.23636364,23.2727273 11.6363636,23.2727273 C18.0363636,23.2727273 23.2727273,18.0363636 23.2727273,11.6363636 C23.2727273,5.23636364 18.0363636,0 11.6363636,0 L11.6363636,0 L11.6363636,0 Z M20.3636364,24.7272727 L24.7272727,20.3636364 L32,27.6363636 L27.6363636,32 L20.3636364,24.7272727 L20.3636364,24.7272727 L20.3636364,24.7272727 Z" id="Shape"></path>
</svg>
