<?xml version="1.0" encoding="UTF-8" standalone="no"?>
<svg width="32px" height="32px" viewBox="0 0 32 32" version="1.1" xmlns="http://www.w3.org/2000/svg" xmlns:xlink="http://www.w3.org/1999/xlink" fill-rule="evenodd">
    <!-- Generator: Sketch 3.8.3 (29802) - http://www.bohemiancoding.com/sketch -->
    <title>Artboard 1</title>
    <desc>Created with Sketch.</desc>
    <defs></defs>
    <g id="Artboard-1" fill="#000000">
        <path d="M27.4995455,16 C27.4995455,15.385 27.4381818,14.7863636 27.3440909,14.1972727 L31,10.9995455 L27.895,5.90227273 L23.5354545,7.32590909 C22.4936364,6.41909091 21.2881818,5.70318182 19.9668182,5.21636364 L19,1 L13,1 L12.0331818,5.21636364 C10.7131818,5.70318182 9.50636364,6.42045455 8.46454545,7.32727273 L4.105,5.90227273 L1,10.9995455 L4.65454545,14.1986364 C4.56181818,14.7863636 4.50045455,15.385 4.50045455,16 C4.50045455,16.615 4.56181818,17.2136364 4.65454545,17.8013636 L1,21.0004545 L4.10636364,26.0977273 L8.46454545,24.6740909 C9.50636364,25.5809091 10.7131818,26.2981818 12.0345455,26.7836364 L13,31 L19,31 L19.9654545,26.7836364 C21.2868182,26.2981818 22.4922727,25.5809091 23.5340909,24.6740909 L27.8922727,26.0977273 L31,21.0004545 L27.3440909,17.8027273 C27.4381818,17.2136364 27.4995455,16.615 27.4995455,16 L27.4995455,16 L27.4995455,16 Z M16,20.0909091 C13.7431818,20.0909091 11.9090909,18.2595455 11.9090909,16 C11.9090909,13.7404545 13.7431818,11.9090909 16,11.9090909 C18.2568182,11.9090909 20.0909091,13.7404545 20.0909091,16 C20.0909091,18.2595455 18.2568182,20.0909091 16,20.0909091 L16,20.0909091 L16,20.0909091 Z" id="Shape"></path>
    </g>
</svg>
