<svg width="30px" height="30px" viewBox="0 0 30 30" version="1.1" xmlns="http://www.w3.org/2000/svg" xmlns:xlink="http://www.w3.org/1999/xlink" fill-rule="evenodd">
    <path d="M26.4995455,15 C26.4995455,14.385 26.4381818,13.7863636 26.3440909,13.1972727 L30,9.9995455 L26.895,4.90227273 L22.5354545,6.32590909 C21.4936364,5.41909091 20.2881818,4.70318182 18.9668182,4.21636364 L18,0 L12,0 L11.0331818,4.21636364 C9.7131818,4.70318182 8.50636364,5.42045455 7.46454545,6.32727273 L3.105,4.90227273 L0,9.9995455 L3.65454545,13.1986364 C3.56181818,13.7863636 3.50045455,14.385 3.50045455,15 C3.50045455,15.615 3.56181818,16.2136364 3.65454545,16.8013636 L0,20.0004545 L3.10636364,25.0977273 L7.46454545,23.6740909 C8.50636364,24.5809091 9.7131818,25.2981818 11.0345455,25.7836364 L12,30 L18,30 L18.9654545,25.7836364 C20.2868182,25.2981818 21.4922727,24.5809091 22.5340909,23.6740909 L26.8922727,25.0977273 L30,20.0004545 L26.3440909,16.8027273 C26.4381818,16.2136364 26.4995455,15.615 26.4995455,15 L26.4995455,15 L26.4995455,15 L26.4995455,15 Z M15,19.0909091 C12.7431818,19.0909091 10.9090909,17.2595455 10.9090909,15 C10.9090909,12.7404545 12.7431818,10.9090909 15,10.9090909 C17.2568182,10.9090909 19.0909091,12.7404545 19.0909091,15 C19.0909091,17.2595455 17.2568182,19.0909091 15,19.0909091 L15,19.0909091 L15,19.0909091 L15,19.0909091 Z" id="Shape"></path>
</svg>