<?xml version="1.0" encoding="UTF-8" standalone="no"?>
<svg width="32px" height="32px" viewBox="0 0 32 32" version="1.1" xmlns="http://www.w3.org/2000/svg" xmlns:xlink="http://www.w3.org/1999/xlink" fill-rule="evenodd">
    <!-- Generator: Sketch 3.8.3 (29802) - http://www.bohemiancoding.com/sketch -->
    <title>Artboard 1</title>
    <desc>Created with Sketch.</desc>
    <defs></defs>
    <g id="Artboard-1" fill="#000000">
        <g id="tile-view">
            <rect id="Rectangle-path" x="19.6923077" y="0" width="12.3076923" height="12.3076923"></rect>
            <path d="M17.2307692,0 L14.7692308,0 L0,0 L0,14.7692308 L0,17.2307692 L0,32 L14.7692308,32 L17.2307692,32 L32,32 L32,17.2307692 L32,14.7692308 L17.2307692,14.7692308 L17.2307692,0 L17.2307692,0 L17.2307692,0 Z M14.7692308,29.5384615 L2.46153846,29.5384615 L2.46153846,17.2307692 L14.7692308,17.2307692 L14.7692308,29.5384615 L14.7692308,29.5384615 L14.7692308,29.5384615 Z M29.5384615,17.2307692 L29.5384615,29.5384615 L17.2307692,29.5384615 L17.2307692,17.2307692 L29.5384615,17.2307692 L29.5384615,17.2307692 L29.5384615,17.2307692 Z M2.46153846,14.7692308 L2.46153846,2.46153846 L14.7692308,2.46153846 L14.7692308,14.7692308 L2.46153846,14.7692308 L2.46153846,14.7692308 L2.46153846,14.7692308 Z" id="Shape"></path>
        </g>
    </g>
</svg>
