<svg width="24px" height="30px" viewBox="0 0 24 30" version="1.1" xmlns="http://www.w3.org/2000/svg" xmlns:xlink="http://www.w3.org/1999/xlink" fill-rule="evenodd">
    <path d="M12,20 C17.523,20 22,15.523 22,10 C22,4.477 17.523,0 12,0 C6.477,0 2,4.477 2,10 C2,15.523 6.477,20 12,20 L12,20 Z M12,2 C16.41,2 20,5.59 20,10 C20,14.41 16.41,18 12,18 C7.59,18 4,14.41 4,10 C4,5.59 7.59,2 12,2 L12,2 Z M20,22 L4,22 C1.79,22 0,23.79 0,26 L0,30 L24,30 L24,26 C24,23.79 22.21,22 20,22 L20,22 Z" id="Shape"></path>
</svg>