<svg width="24" height="23" viewBox="0 0 24 23" xmlns="http://www.w3.org/2000/svg" fill-rule="evenodd"><path d="M15.9 8c-1.2-.7-2.6-1-3.9-1-2.8 0-5.5 1.5-7 4.1-2.2 3.8-.8 8.7 3.1 10.9 1.2.7 2.6 1 3.9 1 2.8 0 5.5-1.5 7-4.1 2.2-3.9.8-8.7-3.1-10.9zm-9.5 3.2c.7-1 1.9-1.7 3.4-1.8h.4c.4 0 .7 0 1.1.1-.9.9-1.8 2.1-2.7 3.5-.7 1.3-1.2 2.5-1.6 3.6-1.3-1.8-1.6-3.9-.6-5.4zm2 9.5c-.4-.2-.6-.8-.6-1.6.3.3.7.6 1.1.8.3.2.7.4 1.1.6-.7.3-1.3.4-1.6.2zm1.1-1.8c-.6-.4-1.1-.8-1.5-1.2.2-1.2.8-2.6 1.6-4.1.9-1.6 2-2.9 3-3.7.7.2 1.4.6 2 1 .4.2.7.5 1 .7-.2 1.4-.8 3-1.7 4.5-.9 1.6-1.9 2.8-2.9 3.6-.5-.2-1-.5-1.5-.8zm5.7-10c.3.2.5.6.5 1.3-.1-.1-.3-.2-.4-.3-.5-.3-1-.6-1.5-.8.3-.2.7-.3.9-.3.2 0 .4.1.5.1zm-.2 7.8c.8-1.4 1.4-2.8 1.7-4.1 1.7 1.9 2.3 4.3 1.2 6-.7 1-1.9 1.7-3.4 1.8-.7 0-1.4-.1-2.1-.2.8-1 1.8-2.1 2.6-3.5zm3.6-3.6c0 .1.1.3.1.4-.4-.8-1.1-1.6-1.8-2.4v-.9c.8.8 1.4 1.8 1.7 2.9zm-6.6-5c.4 0 .7 0 1.1.1-.2.1-.4.2-.6.4-.7-.2-1.3-.3-1.9-.3.4-.1.9-.2 1.4-.2zm-6.6 8.7c-.1-.5-.2-.9-.2-1.4.4.9.9 1.8 1.6 2.6-.1.5-.1.9-.1 1.3-.6-.7-1.1-1.5-1.3-2.5zm4.8 4.8c.3-.2.7-.4 1-.6.9.3 1.9.5 2.8.5h.1c-.7.2-1.4.4-2.2.4-.5 0-1.1-.1-1.7-.3zM12 5c-.3 0-.6-.3-.6-.6V.6c0-.3.3-.6.6-.6s.6.3.6.6v3.8c0 .3-.2.6-.6.6zM3.8 9c-.1 0-.2 0-.3-.1L.3 7.1c-.3-.2-.4-.6-.2-.9.1-.2.5-.3.8-.2l3.2 1.9c.3.2.4.5.2.8-.1.2-.3.3-.5.3zM20.2 9c-.2 0-.4-.1-.5-.3-.2-.3-.1-.7.2-.8L23.1 6c.3-.2.7-.1.8.2.2.3.1.7-.2.8l-3.2 1.9c-.1.1-.2.1-.3.1zM7.4 6c-.2 0-.4-.1-.5-.3l-2.1-3c-.2-.3-.2-.7.1-.9.3-.1.6-.1.8.2l2.1 3c.3.3.2.7-.1.9-.1.1-.2.1-.3.1zM16.6 6c-.1 0-.2 0-.3-.1-.3-.2-.4-.6-.2-.9l2.1-3c.2-.3.6-.3.8-.1.3.2.3.6.1.8l-2.1 3c0 .2-.2.3-.4.3z"/></svg>