<svg width="12px" height="14px" viewBox="0 0 12 14" version="1.1" xmlns="http://www.w3.org/2000/svg" xmlns:xlink="http://www.w3.org/1999/xlink" fill-rule="evenodd">
    <!-- Generator: Sketch 3.8.3 (29802) - http://www.bohemiancoding.com/sketch -->
    <title>Artboard 1</title>
    <desc>Created with Sketch.</desc>
    <defs></defs>
    <path d="M10.4941262,3.02908783 C9.13222894,1.08158893 6.88577871,-0.0547733002 4.51000744,0.00203362134 C4.30351715,0.00352084107 4.11778366,0.127929593 4.03782184,0.318314882 C3.95786001,0.508700179 3.99905922,0.728420659 4.14256155,0.876904781 C4.36132767,1.12635904 4.56023889,1.39254907 4.73747394,1.67303754 C5.7816712,3.34640072 6.03456499,5.3951606 5.42862216,7.27221296 C4.64923711,9.46121575 2.72365239,11.0400606 0.424359125,11.3753587 C0.234855762,11.4096183 0.0801817566,11.5465205 0.0231604452,11.7304602 C-0.0338608652,11.9144 0.0162536078,12.1147866 0.153149065,12.2502299 C1.44892023,13.3770039 3.10780064,13.9983075 4.82496106,13.9999722 C5.38810044,14.0015742 5.94930428,13.9339946 6.49596497,13.7987518 C8.73080979,13.2157042 10.5441068,11.5850414 11.3602486,9.42439601 C12.1663862,7.28273104 11.840872,4.87918583 10.4941262,3.02908783 L10.4941262,3.02908783 L10.4941262,3.02908783 Z" id="Shape"></path>
</svg>
