<?xml version="1.0" encoding="UTF-8" standalone="no"?>
<svg width="32px" height="32px" viewBox="0 0 32 32" version="1.1" xmlns="http://www.w3.org/2000/svg" xmlns:xlink="http://www.w3.org/1999/xlink" fill-rule="evenodd">
    <!-- Generator: Sketch 3.8.3 (29802) - http://www.bohemiancoding.com/sketch -->
    <title>Artboard 1</title>
    <desc>Created with Sketch.</desc>
    <defs></defs>
    <path d="M32,12.3544304 C32,11.9493671 31.5897436,11.5443038 30.974359,11.3417722 L21.3333334,9.92405064 L17.025641,0.810126582 C16.8205128,0.202531646 16.4102564,0 16,0 C15.5897436,0 15.3846154,0.202531646 14.974359,0.810126582 L10.6666667,9.92405064 L1.02564103,11.3417722 C0.41025641,11.5443038 0,11.7468354 0,12.3544304 C0,12.556962 0.205128206,12.9620253 0.41025641,13.3670886 L7.38461538,20.4556962 L5.74358974,30.5822784 L5.74358974,30.9873418 C5.74358974,31.1898734 5.74358974,31.5949368 5.94871794,31.7974684 C6.15384616,32 6.35897436,32 6.56410256,32 C6.76923076,32 6.97435898,32 7.38461538,31.7974684 L16,26.9367088 L24.6153846,31.7974684 C24.8205128,32 25.2307692,32 25.4358974,32 C25.6410256,32 25.8461538,32 26.051282,31.7974684 C26.2564102,31.5949368 26.2564102,31.392405 26.2564102,30.9873418 L26.2564102,30.5822784 L24.6153846,20.4556962 L31.5897436,13.3670886 C31.7948718,12.9620253 32,12.556962 32,12.3544304 L32,12.3544304 L32,12.3544304 Z" id="Shape"></path>
</svg>
