<?xml version="1.0" encoding="utf-8"?>
<!-- Generator: Adobe Illustrator 19.0.0, SVG Export Plug-In . SVG Version: 6.00 Build 0)  -->
<!DOCTYPE svg PUBLIC "-//W3C//DTD SVG 1.1//EN" "http://www.w3.org/Graphics/SVG/1.1/DTD/svg11.dtd">
<svg version="1.1" id="Layer_1" xmlns:sketch="http://www.bohemiancoding.com/sketch/ns"
	 xmlns="http://www.w3.org/2000/svg" xmlns:xlink="http://www.w3.org/1999/xlink" x="0px" y="0px" viewBox="-631 392 17 17"
	 style="enable-background:new -631 392 17 17;" xml:space="preserve">
<title>Shape</title>
<desc>Created with Sketch.</desc>
<path d="M-614.9,398.8c0-0.2-0.2-0.4-0.5-0.5l-4.7-0.7l-2.1-4.5c-0.1-0.3-0.3-0.4-0.5-0.4c-0.2,0-0.3,0.1-0.5,0.4l-2.1,4.5l-4.7,0.7
	c-0.3,0.1-0.5,0.2-0.5,0.5c0,0.1,0.1,0.3,0.2,0.5l3.4,3.5l-0.8,5c0,0.1,0,0.2,0,0.2c0,0.1,0,0.3,0.1,0.4c0.1,0.1,0.2,0.1,0.3,0.1
	c0.1,0,0.2,0,0.4-0.1l4.2-2.4l4.2,2.4c0.1,0.1,0.3,0.1,0.4,0.1c0.1,0,0.2,0,0.3-0.1c0.1-0.1,0.1-0.2,0.1-0.4c0-0.1,0-0.2,0-0.2
	l-0.8-5l3.4-3.5C-615,399.1-614.9,398.9-614.9,398.8z"/>
</svg>
