<svg width="16px" height="16px" viewBox="0 0 16 16" fill-rule="evenodd" version="1.1" xmlns="http://www.w3.org/2000/svg" xmlns:xlink="http://www.w3.org/1999/xlink">
  <path d="M16,6.17721519 C16,5.97468354 15.7948718,5.7721519 15.4871795,5.67088608 L10.6666667,4.96202532 L8.51282051,0.405063291 C8.41025641,0.101265823 8.20512821,0 8,0 C7.79487179,0 7.69230769,0.101265823 7.48717949,0.405063291 L5.33333333,4.96202532 L0.512820513,5.67088608 C0.205128205,5.7721519 0,5.87341772 0,6.17721519 C0,6.27848101 0.102564103,6.48101266 0.205128205,6.6835443 L3.69230769,10.2278481 L2.87179487,15.2911392 L2.87179487,15.4936709 C2.87179487,15.5949367 2.87179487,15.7974684 2.97435897,15.8987342 C3.07692308,16 3.17948718,16 3.28205128,16 C3.38461538,16 3.48717949,16 3.69230769,15.8987342 L8,13.4683544 L12.3076923,15.8987342 C12.4102564,16 12.6153846,16 12.7179487,16 C12.8205128,16 12.9230769,16 13.025641,15.8987342 C13.1282051,15.7974684 13.1282051,15.6962025 13.1282051,15.4936709 L13.1282051,15.2911392 L12.3076923,10.2278481 L15.7948718,6.6835443 C15.8974359,6.48101266 16,6.27848101 16,6.17721519 L16,6.17721519 Z"></path>
</svg>
