<?xml version="1.0" encoding="utf-8"?>
<!-- Generator: Adobe Illustrator 19.1.0, SVG Export Plug-In . SVG Version: 6.00 Build 0)  -->
<!DOCTYPE svg PUBLIC "-//W3C//DTD SVG 1.1//EN" "http://www.w3.org/Graphics/SVG/1.1/DTD/svg11.dtd">
<svg version="1.1" id="Layer_1" xmlns="http://www.w3.org/2000/svg" xmlns:xlink="http://www.w3.org/1999/xlink" x="0px" y="0px"
	 width="16px" height="16px" viewBox="0 0 16 16" style="enable-background:new 0 0 16 16;" xml:space="preserve">
<style type="text/css">
	.st0{fill:#231F20;}
</style>
<g>
	<path class="st0" d="M5,0C3.7,0,2.6,0.8,2.2,2H0v2h2.2C2.6,5.2,3.7,6,5,6s2.4-0.8,2.8-2H16V2H7.8C7.4,0.8,6.3,0,5,0L5,0z M5,4
		C4.4,4,4,3.6,4,3c0-0.6,0.4-1,1-1c0.6,0,1,0.4,1,1C6,3.6,5.6,4,5,4L5,4z"/>
</g>
<g>
	<path class="st0" d="M5,10c-1.3,0-2.4,0.8-2.8,2H0v2h2.2c0.4,1.2,1.5,2,2.8,2s2.4-0.8,2.8-2H16v-2H7.8C7.4,10.8,6.3,10,5,10L5,10z
		 M5,14c-0.6,0-1-0.4-1-1c0-0.6,0.4-1,1-1c0.6,0,1,0.4,1,1C6,13.6,5.6,14,5,14L5,14z"/>
</g>
<g>
	<path class="st0" d="M11,5C9.7,5,8.6,5.8,8.2,7H0v2h8.2c0.4,1.2,1.5,2,2.8,2s2.4-0.8,2.8-2H16V7h-2.2C13.4,5.8,12.3,5,11,5L11,5z
		 M11,9c-0.6,0-1-0.4-1-1c0-0.6,0.4-1,1-1c0.6,0,1,0.4,1,1C12,8.6,11.6,9,11,9L11,9z"/>
</g>
</svg>
