<svg width="32px" height="32px" viewBox="0 0 32 32" version="1.1" xmlns="http://www.w3.org/2000/svg" xmlns:xlink="http://www.w3.org/1999/xlink" fill-rule="evenodd">
    <!-- Generator: Sketch 40.1 (33804) - http://www.bohemiancoding.com/sketch -->
    <desc>Created with Sketch.</desc>
    <defs></defs>
    <path d="M32,0 L0,0 L0,4.26666667 L12.8,17.0666667 L12.8,32 L19.2,25.6 L19.2,21.9957333 C19.9818667,22.8896 21.1178667,23.4666667 22.4,23.4666667 C24.7573333,23.4666667 26.6666667,21.5573333 26.6666667,19.2 C26.6666667,16.8426667 24.7573333,14.9333333 22.4,14.9333333 C21.9488,14.9333333 21.5232,15.0218667 21.1146667,15.152 L32,4.26666667 L32,0 L32,0 L32,0 L32,0 Z M24.5333333,19.2 C24.5333333,20.3765333 23.5754667,21.3333333 22.4,21.3333333 C21.2234667,21.3333333 20.2666667,20.3765333 20.2666667,19.2 C20.2666667,18.0234667 21.2234667,17.0666667 22.4,17.0666667 C23.5754667,17.0666667 24.5333333,18.0234667 24.5333333,19.2 L24.5333333,19.2 L24.5333333,19.2 L24.5333333,19.2 Z M17.6917333,15.5584 L17.0666667,16.1824 L17.0666667,17.0666667 L17.0666667,24.7157333 L14.9333333,26.8490667 L14.9333333,17.0666667 L14.9333333,16.1824 L14.3082667,15.5584 L3.0176,4.26666667 L28.9834667,4.26666667 L17.6917333,15.5584 L17.6917333,15.5584 L17.6917333,15.5584 L17.6917333,15.5584 Z" id="Shape" stroke="none" fill="#000000" ></path>
</svg>