<svg width="30px" height="30px" viewBox="0 0 30 30" fill-rule="evenodd" version="1.1" xmlns="http://www.w3.org/2000/svg" xmlns:xlink="http://www.w3.org/1999/xlink">
  <path d="M30,0 L0,0 L0,4 L12,16 L12,30 L18,24 L18,20.621 C18.733,21.459 19.798,22 21,22 C23.21,22 25,20.21 25,18 C25,15.79 23.21,14 21,14 C20.577,14 20.178,14.083 19.795,14.205 L30,4 L30,0 L30,0 Z M23,18 C23,19.103 22.102,20 21,20 C19.897,20 19,19.103 19,18 C19,16.897 19.897,16 21,16 C22.102,16 23,16.897 23,18 L23,18 Z M16.586,14.586 L16,15.171 L16,16 L16,23.171 L14,25.171 L14,16 L14,15.171 L13.414,14.586 L2.829,4 L27.172,4 L16.586,14.586 L16.586,14.586 Z"></path>
</svg>
