<?xml version="1.0" encoding="UTF-8" standalone="no"?>
<svg width="32px" height="32px" viewBox="0 0 32 32" version="1.1" xmlns="http://www.w3.org/2000/svg" xmlns:xlink="http://www.w3.org/1999/xlink" fill-rule="evenodd">
    <!-- Generator: Sketch 3.8.3 (29802) - http://www.bohemiancoding.com/sketch -->
    <title>Artboard 1</title>
    <desc>Created with Sketch.</desc>
    <defs></defs>
    <path d="M19.1538462,4.73504274 C12.4700855,4.73504274 6.96581197,10.2393162 6.96581197,17.1196581 L6.96581197,24 L2.64102564,19.4786325 L1.26495726,20.8547009 L8.14529915,27.7350427 L15.025641,20.8547009 L13.6495726,19.4786325 L9.32478632,24 L9.32478632,17.1196581 C9.32478632,11.4188034 13.8461538,6.7008547 19.5470085,6.7008547 C25.2478632,6.7008547 29.7692308,11.4188034 29.7692308,17.1196581 C29.7692308,19.8717949 28.7863248,22.4273504 26.8205128,24.3931624 L28.1965812,25.7692308 C30.5555556,23.4102564 31.7350427,20.2649573 31.7350427,16.9230769 C31.3418803,10.2393162 25.8376068,4.73504274 19.1538462,4.73504274 L19.1538462,4.73504274 L19.1538462,4.73504274 L19.1538462,4.73504274 L19.1538462,4.73504274 Z" id="Shape" transform="translate(16.500000, 16.235043) rotate(90.000000) translate(-16.500000, -16.235043) "></path>
</svg>
