<?xml version="1.0" encoding="utf-8"?>
<!-- Generator: Adobe Illustrator 19.0.0, SVG Export Plug-In . SVG Version: 6.00 Build 0)  -->
<!DOCTYPE svg PUBLIC "-//W3C//DTD SVG 1.1//EN" "http://www.w3.org/Graphics/SVG/1.1/DTD/svg11.dtd">
<svg version="1.1" id="Layer_1" xmlns:sketch="http://www.bohemiancoding.com/sketch/ns"
	 xmlns="http://www.w3.org/2000/svg" xmlns:xlink="http://www.w3.org/1999/xlink" x="0px" y="0px" viewBox="-633 392 13 17"
	 style="enable-background:new -633 392 13 17;" xml:space="preserve">
<title>reset-revert</title>
<desc>Created with Sketch.</desc>
<g id="Page-1" sketch:type="MSPage">
	<g id="List-View-_x2013_-Bare-Metal-Copy-6" transform="translate(-1264.000000, -606.000000)" sketch:type="MSArtboardGroup">
		
			<g id="AppCard1-Copy-4-_x2B_-containerServiceIcon-Copy-Copy-Copy-Copy-Copy" transform="translate(1161.000000, 420.000000)" sketch:type="MSLayerGroup">
			<g id="AppCard1-Copy-4" sketch:type="MSShapeGroup">
				
					<g id="reset-revert" transform="translate(109.903300, 194.777582) scale(-1, 1) rotate(-270.000000) translate(-109.903300, -194.777582) translate(101.903300, 188.777582)">
					<path id="Shape" d="M401.2-633c-3.4,0-6.2,2.8-6.2,6.3v3.5l-2.2-2.3l-0.7,0.7l3.5,3.5l3.5-3.5l-0.7-0.7l-2.2,2.3v-3.5
						c0-2.9,2.3-5.3,5.2-5.3c2.9,0,5.2,2.4,5.2,5.3c0,1.4-0.5,2.7-1.5,3.7l0.7,0.7c1.2-1.2,1.8-2.8,1.8-4.5
						C407.4-630.2,404.6-633,401.2-633L401.2-633z"/>
				</g>
			</g>
		</g>
	</g>
</g>
</svg>
