<svg width="12px" height="16px" viewBox="0 0 12 16" fill-rule="evenodd" version="1.1" xmlns="http://www.w3.org/2000/svg" xmlns:xlink="http://www.w3.org/1999/xlink">
  <path d="M7.22002,1.9033 C3.82002,1.9033 1.02002,4.7033 1.02002,8.2033 L1.02002,11.7033 L-1.17998,9.4033 L-1.87998,10.1033 L1.62002,13.6033 L5.12002,10.1033 L4.42002,9.4033 L2.22002,11.7033 L2.22002,8.2033 C2.22002,5.3033 4.52002,2.9033 7.42002,2.9033 C10.32002,2.9033 12.62002,5.3033 12.62002,8.2033 C12.62002,9.6033 12.12002,10.9033 11.12002,11.9033 L11.82002,12.6033 C13.02002,11.4033 13.62002,9.8033 13.62002,8.1033 C13.42002,4.7033 10.62002,1.9033 7.22002,1.9033 L7.22002,1.9033 L7.22002,1.9033 L7.22002,1.9033 Z" transform="translate(5.870020, 7.753300) rotate(90) translate(-5.870020, -7.753300)"></path>
</svg>
