<svg width="24px" height="31px" viewBox="0 0 24 31" version="1.1" fill-rule="evenodd" xmlns="http://www.w3.org/2000/svg" xmlns:xlink="http://www.w3.org/1999/xlink">
    <!-- Generator: Sketch 40.1 (33804) - http://www.bohemiancoding.com/sketch -->
    <desc>Created with Sketch.</desc>
    <defs></defs>
    <path d="M14.1538465,3.735043 C7.4700858,3.735043 1.96581227,9.23931646 1.96581227,16.1196584 L1.96581227,23.0000003 L-2.35897406,18.4786328 L-3.73504244,19.8547012 L3.14529945,26.735043 L10.0256413,19.8547012 L8.6495729,18.4786328 L4.32478662,23.0000003 L4.32478662,16.1196584 C4.32478662,10.4188037 8.8461541,5.70085496 14.5470088,5.70085496 C20.2478635,5.70085496 24.7692311,10.4188037 24.7692311,16.1196584 C24.7692311,18.8717952 23.7863251,21.4273507 21.8205131,23.3931627 L23.1965815,24.7692311 C25.5555559,22.4102567 26.735043,19.2649576 26.735043,15.9230772 C26.3418806,9.23931646 20.8376071,3.735043 14.1538465,3.735043 L14.1538465,3.735043 L14.1538465,3.735043 L14.1538465,3.735043 L14.1538465,3.735043 L14.1538465,3.735043 Z" id="Shape" transform="translate(11.500000, 15.235043) rotate(90.000000) translate(-11.500000, -15.235043) "></path>
</svg>