<?xml version="1.0" encoding="UTF-8" standalone="no"?>
<svg width="13px" height="17px" viewBox="0 0 13 17" version="1.1" xmlns="http://www.w3.org/2000/svg" xmlns:xlink="http://www.w3.org/1999/xlink" xmlns:sketch="http://www.bohemiancoding.com/sketch/ns">
    <!-- Generator: Sketch 3.4.3 (16618) - http://www.bohemiancoding.com/sketch -->
    <title>reset-revert</title>
    <desc>Created with Sketch.</desc>
    <defs></defs>
    <g id="Page-1" stroke="none" stroke-width="1" fill="none" fill-rule="evenodd" sketch:type="MSPage">
        <g id="List-View-–-Bare-Metal-Copy-6" sketch:type="MSArtboardGroup" transform="translate(-1264.000000, -606.000000)" fill="#959F9F">
            <g id="AppCard1-Copy-4-+-containerServiceIcon-Copy-Copy-Copy-Copy-Copy" sketch:type="MSLayerGroup" transform="translate(1161.000000, 420.000000)">
                <g id="AppCard1-Copy-4" sketch:type="MSShapeGroup">
                    <g id="reset-revert" transform="translate(109.903300, 194.777582) scale(-1, 1) rotate(-270.000000) translate(-109.903300, -194.777582) translate(101.903300, 188.777582)">
                        <path d="M9.20671357,-2.48689958e-14 C5.7664469,-2.48689958e-14 2.96751759,2.8452012 2.96751759,6.34234234 L2.96751759,9.8230991 L0.735705193,7.55399399 L-2.66453526e-15,8.30186186 L3.48745059,11.8467027 L6.97490117,8.3015976 L6.23945595,7.55425826 L4.00738358,9.82296697 L4.00738358,6.34234234 C4.00738358,3.42803604 6.33980302,1.05705706 9.20671357,1.05705706 C12.0736241,1.05705706 14.4060436,3.42803604 14.4060436,6.34234234 C14.4060436,7.75390991 13.8653132,9.08144144 12.8832898,10.0796997 L13.618605,10.827039 C14.7969032,9.628997 15.4459095,8.03627628 15.4459095,6.34234234 C15.4459095,2.8452012 12.6469802,-2.48689958e-14 9.20671357,-2.48689958e-14 L9.20671357,-2.48689958e-14 Z" id="Shape"></path>
                    </g>
                </g>
            </g>
        </g>
    </g>
</svg>