<?xml version="1.0" encoding="UTF-8" standalone="no"?>
<svg width="18px" height="18px" viewBox="0 0 18 18" version="1.1" xmlns="http://www.w3.org/2000/svg" xmlns:xlink="http://www.w3.org/1999/xlink" xmlns:sketch="http://www.bohemiancoding.com/sketch/ns">
    <!-- Generator: Sketch 3.4.2 (15857) - http://www.bohemiancoding.com/sketch -->
    <title>plus-round</title>
    <desc>Created with Sketch.</desc>
    <defs></defs>
    <g id="Page-1" stroke="none" stroke-width="1" fill="none" fill-rule="evenodd" sketch:type="MSPage">
        <g id="plus-round" sketch:type="MSLayerGroup">
            <path d="M9.020815,0.520815 C4.32669,0.520815 0.520815,4.32669 0.520815,9.020815 C0.520815,13.71494 4.32669,17.520815 9.020815,17.520815 C13.71494,17.520815 17.520815,13.71494 17.520815,9.020815 C17.520815,4.32669 13.71494,0.520815 9.020815,0.520815" id="Circle" fill="#5596E6" sketch:type="MSShapeGroup"></path>
            <g id="Plus" transform="translate(9.020815, 9.020815) rotate(-45.000000) translate(-9.020815, -9.020815) translate(5.520815, 5.520815)" fill="#FFFFFF" sketch:type="MSShapeGroup">
                <path d="M6.1064339,0.03500536 L3.49996964,2.64146964 L0.89350536,0.03500536 L0.03500536,0.89350536 L2.64146964,3.49996964 L0.03500536,6.1064339 L0.89350536,6.9649339 L3.49996964,4.35846964 L6.1064339,6.9649339 L6.9649339,6.1064339 L4.35846964,3.49996964 L6.9649339,0.89350536 L6.1064339,0.03500536 L6.1064339,0.03500536 Z"></path>
            </g>
        </g>
    </g>
</svg>