<?xml version="1.0" encoding="utf-8"?>
<!-- Generator: Adobe Illustrator 17.0.2, SVG Export Plug-In . SVG Version: 6.00 Build 0)  -->
<!DOCTYPE svg PUBLIC "-//W3C//DTD SVG 1.1//EN" "http://www.w3.org/Graphics/SVG/1.1/DTD/svg11.dtd">
<svg version="1.1" id="Layer_1" xmlns="http://www.w3.org/2000/svg" xmlns:xlink="http://www.w3.org/1999/xlink" x="0px" y="0px"
	 width="64px" height="64px" viewBox="0 0 64 64" enable-background="new 0 0 64 64" xml:space="preserve">
<g>
	<path fill="#5596E6" d="M32.2,37.7l-16.3-9.4V9.4L32.2,0l16.3,9.4v18.9L32.2,37.7z M19.1,26.5l13.1,7.6l13.1-7.6V11.2L32.2,3.6
		l-13.1,7.6V26.5z"/>
</g>
<g>
	<path fill="#5596E6" d="M46.9,63.2l-16.3-9.4V34.9l16.3-9.4l16.3,9.4v18.9L46.9,63.2z M33.8,52l13.1,7.6L60,52V36.7l-13.1-7.6
		l-13.1,7.6V52z"/>
</g>
<g>
	<path fill="#5596E6" d="M17.5,63.4L1.2,53.9V35.1l16.3-9.4l16.3,9.4v18.9L17.5,63.4z M4.4,52.1l13.1,7.6l13.1-7.6V36.9l-13.1-7.6
		L4.4,36.9V52.1z"/>
</g>
<g>
	<path fill="#5596E6" d="M32.2,54.8l-16.3-9.4V26.5l16.3-9.4l16.3,9.4v18.9L32.2,54.8z M19.1,43.5l13.1,7.6l13.1-7.6V28.3l-13.1-7.6
		l-13.1,7.6V43.5z"/>
</g>
</svg>
