<?xml version="1.0" encoding="UTF-8" standalone="no"?>
<svg width="32px" height="32px" viewBox="0 0 32 32" version="1.1" xmlns="http://www.w3.org/2000/svg" xmlns:xlink="http://www.w3.org/1999/xlink" fill-rule="evenodd">
    <!-- Generator: Sketch 3.8.3 (29802) - http://www.bohemiancoding.com/sketch -->
    <title>Artboard 1</title>
    <desc>Created with Sketch.</desc>
    <defs></defs>
    <path d="M15.8666667,18.0828125 L8.62222222,13.8234375 L8.62222222,5.259375 L15.8666667,1 L23.1111111,5.259375 L23.1111111,13.8234375 L15.8666667,18.0828125 L15.8666667,18.0828125 Z M10.0444444,13.0078125 L15.8666667,16.4515625 L21.6888889,13.0078125 L21.6888889,6.075 L15.8666667,2.63125 L10.0444444,6.075 L10.0444444,13.0078125 L10.0444444,13.0078125 Z" id="Shape"></path>
    <path d="M22.4,29.6375 L15.1555556,25.378125 L15.1555556,16.8140625 L22.4,12.5546875 L29.6444444,16.8140625 L29.6444444,25.378125 L22.4,29.6375 L22.4,29.6375 Z M16.5777778,24.5625 L22.4,28.00625 L28.2222222,24.5625 L28.2222222,17.6296875 L22.4,14.1859375 L16.5777778,17.6296875 L16.5777778,24.5625 L16.5777778,24.5625 Z" id="Shape"></path>
    <path d="M9.33333333,29.728125 L2.08888889,25.4234375 L2.08888889,16.9046875 L9.33333333,12.6453125 L16.5777778,16.9046875 L16.5777778,25.46875 L9.33333333,29.728125 L9.33333333,29.728125 Z M3.51111111,24.6078125 L9.33333333,28.0515625 L15.1555556,24.6078125 L15.1555556,17.7203125 L9.33333333,14.2765625 L3.51111111,17.7203125 L3.51111111,24.6078125 L3.51111111,24.6078125 Z" id="Shape"></path>
    <path d="M15.8666667,25.83125 L8.62222222,21.571875 L8.62222222,13.0078125 L15.8666667,8.7484375 L23.1111111,13.0078125 L23.1111111,21.571875 L15.8666667,25.83125 L15.8666667,25.83125 Z M10.0444444,20.7109375 L15.8666667,24.1546875 L21.6888889,20.7109375 L21.6888889,13.8234375 L15.8666667,10.3796875 L10.0444444,13.8234375 L10.0444444,20.7109375 L10.0444444,20.7109375 Z" id="Shape"></path>
</svg>
