<?xml version="1.0" encoding="utf-8"?>
<!-- Generator: Adobe Illustrator 19.1.0, SVG Export Plug-In . SVG Version: 6.00 Build 0)  -->
<!DOCTYPE svg PUBLIC "-//W3C//DTD SVG 1.1//EN" "http://www.w3.org/Graphics/SVG/1.1/DTD/svg11.dtd">
<svg version="1.1" id="Layer_1" xmlns="http://www.w3.org/2000/svg" xmlns:xlink="http://www.w3.org/1999/xlink" x="0px" y="0px"
	 width="32px" height="32px" viewBox="8 -8 32 32" style="enable-background:new 8 -8 32 32;" xml:space="preserve">
<title>Artboard 1</title>
<desc>Created with Sketch.</desc>
<path d="M32.1,5.3v-8.6L24-8l-8.1,4.7v8.6v0.1L8.7,9.7v9.5l8.1,4.8l7.4-4.3l7.2,4.2l8.1-4.7V9.6L32.1,5.3z M23.9,9.2l-5.7-3.4
	L24,2.4l5.7,3.4L23.9,9.2z M17.5,7.3l5.7,3.4v6.7L17.5,14V7.3z M24.8,10.6l5.7-3.3V14l-5.7,3.4V10.6z M17.5-2.3L24-6.2l6.5,3.8v6.8
	L24,0.6l-6.5,3.8V-2.3z M10.2,18.3v-7.7l5.7-3.4v7.7l6.5,3.8l-5.7,3.4L10.2,18.3z M37.8,18.2l-6.5,3.8l-5.7-3.4l6.5-3.8V7.2l5.7,3.4
	V18.2z"/>
</svg>
