<svg width="31px" height="32px" viewBox="0 0 31 32" version="1.1" xmlns="http://www.w3.org/2000/svg" xmlns:xlink="http://www.w3.org/1999/xlink" fill-rule="evenodd">
    <path d="M23.4,13.3 L23.4,4.7 L15.3,0 L7.2,4.7 L7.2,13.3 L7.2,13.4 L0,17.7 L0,27.2 L8.1,32 L15.5,27.7 L22.7,31.9 L30.8,27.2 L30.8,17.6 L23.4,13.3 L23.4,13.3 Z M15.2,17.2 L9.5,13.8 L15.3,10.4 L21,13.8 L15.2,17.2 L15.2,17.2 Z M8.8,15.3 L14.5,18.7 L14.5,25.4 L8.8,22 L8.8,15.3 L8.8,15.3 Z M16.1,18.6 L21.8,15.3 L21.8,22 L16.1,25.4 L16.1,18.6 L16.1,18.6 Z M8.8,5.7 L15.3,1.8 L21.8,5.6 L21.8,12.4 L15.3,8.6 L8.8,12.4 L8.8,5.7 L8.8,5.7 Z M1.5,26.3 L1.5,18.6 L7.2,15.2 L7.2,22.9 L13.7,26.7 L8,30.1 L1.5,26.3 L1.5,26.3 Z M29.1,26.2 L22.6,30 L16.9,26.6 L23.4,22.8 L23.4,15.2 L29.1,18.6 L29.1,26.2 L29.1,26.2 Z"></path>
</svg>
