<?xml version="1.0" encoding="UTF-8" standalone="no"?>
<svg width="32px" height="32px" viewBox="0 0 32 32" version="1.1" xmlns="http://www.w3.org/2000/svg" xmlns:xlink="http://www.w3.org/1999/xlink" fill-rule="evenodd">
    <!-- Generator: Sketch 3.8.3 (29802) - http://www.bohemiancoding.com/sketch -->
    <title>Artboard 1</title>
    <desc>Created with Sketch.</desc>
    <defs></defs>
    <path d="M28.2661818,16 C28.2661818,15.344 28.2007272,14.7054545 28.1003636,14.0770909 L32,10.6661818 L28.688,5.2290909 L24.0378182,6.74763636 C22.9265454,5.78036364 21.6407272,5.01672728 20.2312728,4.49745454 L19.2,0 L12.8,0 L11.7687273,4.49745454 C10.3607273,5.01672728 9.07345454,5.78181818 7.96218182,6.7490909 L3.312,5.2290909 L0,10.6661818 L3.89818182,14.0785455 C3.79927272,14.7054545 3.73381818,15.344 3.73381818,16 C3.73381818,16.656 3.79927272,17.2945455 3.89818182,17.9214545 L0,21.3338182 L3.31345454,26.770909 L7.96218182,25.2523636 C9.07345454,26.2196364 10.3607273,26.9847272 11.7701818,27.5025454 L12.8,32 L19.2,32 L20.2298182,27.5025454 C21.6392728,26.9847272 22.925091,26.2196364 24.0363636,25.2523636 L28.685091,26.770909 L32,21.3338182 L28.1003636,17.9229091 C28.2007272,17.2945455 28.2661818,16.656 28.2661818,16 L28.2661818,16 L28.2661818,16 Z M16,20.3636364 C13.5927273,20.3636364 11.6363636,18.4101818 11.6363636,16 C11.6363636,13.5898182 13.5927273,11.6363636 16,11.6363636 C18.4072727,11.6363636 20.3636364,13.5898182 20.3636364,16 C20.3636364,18.4101818 18.4072727,20.3636364 16,20.3636364 L16,20.3636364 L16,20.3636364 Z" id="Shape"></path>
</svg>
