<svg width="16px" height="16px" viewBox="0 0 16 16" fill-rule="evenodd" version="1.1" xmlns="http://www.w3.org/2000/svg" xmlns:xlink="http://www.w3.org/1999/xlink">
  <path d="M14.1330909,8 C14.1330909,7.672 14.1003636,7.35272727 14.0501818,7.03854545 L16,5.33309091 L14.344,2.61454545 L12.0189091,3.37381818 C11.4632727,2.89018182 10.8203636,2.50836364 10.1156364,2.24872727 L9.6,0 L6.4,0 L5.88436364,2.24872727 C5.18036364,2.50836364 4.53672727,2.89090909 3.98109091,3.37454545 L1.656,2.61454545 L0,5.33309091 L1.94909091,7.03927273 C1.89963636,7.35272727 1.86690909,7.672 1.86690909,8 C1.86690909,8.328 1.89963636,8.64727273 1.94909091,8.96072727 L0,10.6669091 L1.65672727,13.3854545 L3.98109091,12.6261818 C4.53672727,13.1098182 5.18036364,13.4923636 5.88509091,13.7512727 L6.4,16 L9.6,16 L10.1149091,13.7512727 C10.8196364,13.4923636 11.4625455,13.1098182 12.0181818,12.6261818 L14.3425455,13.3854545 L16,10.6669091 L14.0501818,8.96145455 C14.1003636,8.64727273 14.1330909,8.328 14.1330909,8 L14.1330909,8 Z M8,10.1818182 C6.79636364,10.1818182 5.81818182,9.20509091 5.81818182,8 C5.81818182,6.79490909 6.79636364,5.81818182 8,5.81818182 C9.20363636,5.81818182 10.1818182,6.79490909 10.1818182,8 C10.1818182,9.20509091 9.20363636,10.1818182 8,10.1818182 L8,10.1818182 Z"></path>
</svg>
