<?xml version="1.0" encoding="utf-8"?>
<!-- Generator: Adobe Illustrator 19.1.0, SVG Export Plug-In . SVG Version: 6.00 Build 0)  -->
<!DOCTYPE svg PUBLIC "-//W3C//DTD SVG 1.1//EN" "http://www.w3.org/Graphics/SVG/1.1/DTD/svg11.dtd">
<svg version="1.1" id="Layer_1" xmlns="http://www.w3.org/2000/svg" xmlns:xlink="http://www.w3.org/1999/xlink" x="0px" y="0px"
	 width="16px" height="16px" viewBox="16 0 16 16" style="enable-background:new 16 0 16 16;" xml:space="preserve">
<title>Artboard 1</title>
<desc>Created with Sketch.</desc>
<path id="Shape_1_" d="M16,0v16h16V0H16L16,0L16,0z M30,14H18V5h12V14"/>
<g>
	<path d="M21.6,8.8C21.5,7.2,22.4,6,24,6c1.2,0,2.3,0.8,2.3,2.1c0,2.1-2.2,2.2-3.2,3.6h3.2V13h-5c0-1.6,1-2.2,2.2-3.1
		C24.1,9.5,25,9.1,25,8.3c0-0.7-0.4-1.1-1-1.1c-0.8,0-1.1,0.8-1.1,1.6H21.6z"/>
</g>
</svg>
