<?xml version="1.0" encoding="UTF-8" standalone="no"?>
<svg width="32px" height="32px" viewBox="0 0 32 32" version="1.1" xmlns="http://www.w3.org/2000/svg" xmlns:xlink="http://www.w3.org/1999/xlink" fill-rule="evenodd">
    <!-- Generator: Sketch 3.8.3 (29802) - http://www.bohemiancoding.com/sketch -->
    <title>Artboard 1</title>
    <desc>Created with Sketch.</desc>
    <defs></defs>
    <path d="M16.9142857,18.7428571 C16.6857143,19.2 16.2285714,19.4285714 15.7714286,19.6571429 C15.3142857,20.1142857 14.8571429,20.3428571 14.4,20.5714286 C13.4857143,21.2571429 12.8,21.9428571 12.3428571,22.8571429 C11.6571429,23.7714286 11.4285714,24.6857143 11.4285714,25.8285714 L20.5714286,25.8285714 L20.5714286,23.7714286 L13.9428571,23.7714286 C13.9428571,23.5428571 14.1714286,23.0857143 14.4,22.8571429 C14.6285714,22.6285714 14.8571429,22.4 15.3142857,22.1714286 C15.5428571,21.9428571 16,21.7142857 16.4571429,21.4857143 C16.9142857,21.2571429 17.1428571,21.0285714 17.6,20.8 C18.0571429,20.3428571 18.2857143,20.1142857 18.7428571,19.8857143 C19.2,19.6571429 19.4285714,19.2 19.6571429,18.9714286 C19.8857143,18.5142857 20.1142857,18.2857143 20.3428571,17.8285714 C20.5714286,17.1428571 20.5714286,16.6857143 20.5714286,16.2285714 C20.5714286,15.7714286 20.5714286,15.3142857 20.3428571,14.8571429 C20.3428571,14.4 20.1142857,13.9428571 19.6571429,13.4857143 C19.4285714,13.0285714 18.9714286,12.5714286 18.2857143,12.3428571 C17.8285714,12.1142857 17.1428571,12.1142857 16.2285714,12.1142857 C15.5428571,12.1142857 14.8571429,12.3428571 14.1714286,12.5714286 C13.7142857,12.5714286 13.2571429,13.0285714 12.8,13.4857143 C12.3428571,13.9428571 12.1142857,14.4 11.8857143,15.0857143 C11.6571429,15.7714286 11.6571429,16.4571429 11.6571429,17.1428571 L13.9428571,17.1428571 C13.9428571,16.6857143 13.9428571,16.2285714 14.1714286,15.7714286 C14.1714286,15.3142857 14.4,15.0857143 14.6285714,14.6285714 C14.8571429,14.4 15.0857143,14.1714286 15.3142857,13.9428571 C15.5428571,13.7142857 16,13.7142857 16.4571429,13.7142857 C16.9142857,13.7142857 17.3714286,13.7142857 17.6,13.9428571 C17.8285714,14.1714286 18.0571429,14.4 18.2857143,14.6285714 C18.0571429,14.8571429 18.2857143,15.0857143 18.2857143,15.5428571 L18.2857143,16.2285714 C18.2857143,16.6857143 18.2857143,17.1428571 18.0571429,17.6 C17.8285714,18.0571429 17.3714286,18.5142857 16.9142857,18.7428571 L16.9142857,18.7428571 L16.9142857,18.7428571 Z" id="Shape"></path>
    <path d="M0,0 L0,32 L32,32 L32,0 L0,0 L0,0 L0,0 Z M27.8857143,27.8857143 L4.11428571,28.1142857 L4.11428571,10.0571429 L28.1142857,9.82857143 L28.1142857,27.8857143 L27.8857143,27.8857143 L27.8857143,27.8857143 Z" id="Shape"></path>
</svg>
