<svg width="16px" height="16px" viewBox="0 0 16 16" version="1.1" xmlns="http://www.w3.org/2000/svg" xmlns:xlink="http://www.w3.org/1999/xlink" fill-rule="evenodd">
  <path d="M0,0 L0,16 L16,16 L16,0 L0,0 L0,0 L0,0 L0,0 Z M14,14 L2,14 L2,5 L14,5 L14,14 L14,14 Z"></path>
  <path d="M5.6,8.8 C5.5,7.2 6.4,6 8,6 C9.2,6 10.3,6.8 10.3,8.1 C10.3,10.2 8.1,10.3 7.1,11.7 L10.3,11.7 L10.3,13 L5.3,13 C5.3,11.4 6.3,10.8 7.5,9.9 C8.1,9.5 9,9.1 9,8.3 C9,7.6 8.6,7.2 8,7.2 C7.2,7.2 6.9,8 6.9,8.8 L5.6,8.8 L5.6,8.8 Z"></path>
</svg>
