<svg width="14px" height="14px" viewBox="0 0 14 14" fill-rule="evenodd" transform="translate(1.000000, 1.000000)" version="1.1" xmlns="http://www.w3.org/2000/svg" xmlns:xlink="http://www.w3.org/1999/xlink">
  <path d="M7.4,8.2 C7.3,8.4 7.1,8.5 6.9,8.6 C6.7,8.8 6.5,8.9 6.3,9 C5.9,9.3 5.6,9.6 5.4,10 C5.1,10.4 5,10.8 5,11.3 L9,11.3 L9,10.4 L6.1,10.4 C6.1,10.3 6.2,10.1 6.3,10 C6.4,9.9 6.5,9.8 6.7,9.7 C6.8,9.6 7,9.5 7.2,9.4 C7.4,9.3 7.5,9.2 7.7,9.1 C7.9,8.9 8,8.8 8.2,8.7 C8.4,8.6 8.5,8.4 8.6,8.3 C8.7,8.1 8.8,8 8.9,7.8 C9,7.5 9,7.3 9,7.1 C9,6.9 9,6.7 8.9,6.5 C8.9,6.3 8.8,6.1 8.6,5.9 C8.5,5.7 8.3,5.5 8,5.4 C7.8,5.3 7.5,5.3 7.1,5.3 C6.8,5.3 6.5,5.4 6.2,5.5 C6,5.5 5.8,5.7 5.6,5.9 C5.4,6.1 5.3,6.3 5.2,6.6 C5.1,6.9 5.1,7.2 5.1,7.5 L6.1,7.5 C6.1,7.3 6.1,7.1 6.2,6.9 C6.2,6.7 6.3,6.6 6.4,6.4 C6.5,6.3 6.6,6.2 6.7,6.1 C6.8,6 7,6 7.2,6 C7.4,6 7.6,6 7.7,6.1 C7.8,6.2 7.9,6.3 8,6.4 C7.9,6.5 8,6.6 8,6.8 L8,7.1 C8,7.3 8,7.5 7.9,7.7 C7.8,7.9 7.6,8.1 7.4,8.2 L7.4,8.2 Z"></path>
  <path d="M0,0 L0,14 L14,14 L14,0 L0,0 L0,0 Z M12.2,12.2 L1.8,12.3 L1.8,4.4 L12.3,4.3 L12.3,12.2 L12.2,12.2 Z"></path>
</svg>
