<svg width="16px" height="16px" viewBox="0 0 16 16" fill-rule="evenodd" version="1.1" xmlns="http://www.w3.org/2000/svg" xmlns:xlink="http://www.w3.org/1999/xlink">
  <path d="M8,2 C11.3,2 14,4.7 14,8 C14,11.3 11.3,14 8,14 C4.7,14 2,11.3 2,8 C2,4.7 4.7,2 8,2 L8,2 Z M8,0 C3.6,0 0,3.6 0,8 C0,12.4 3.6,16 8,16 C12.4,16 16,12.4 16,8 C16,3.6 12.4,0 8,0 L8,0 L8,0 Z"></path>
  <circle cx="4.8" cy="8.3" r="1.1"></circle>
  <circle cx="8" cy="8.3" r="1.1"></circle>
  <circle cx="11.2" cy="8.3" r="1.1"></circle>
</svg>
