<?xml version="1.0" encoding="utf-8"?>
<!-- Generator: Adobe Illustrator 19.1.0, SVG Export Plug-In . SVG Version: 6.00 Build 0)  x-->
<!DOCTYPE svg PUBLIC "-//W3C//DTD SVG 1.1//EN" "http://www.w3.org/Graphics/SVG/1.1/DTD/svg11.dtd">
<svg version="1.1" id="Layer_1" xmlns="http://www.w3.org/2000/svg" xmlns:xlink="http://www.w3.org/1999/xlink" x="0px" y="0px"
	 width="16px" height="16px" viewBox="0 0 16 16" style="enable-background:new 0 0 16 16;" xml:space="preserve">
<g>
	<path class="st5" d="M8.4,9.2C8.3,9.4,8.1,9.5,7.9,9.6C7.7,9.8,7.5,9.9,7.3,10c-0.4,0.3-0.7,0.6-0.9,1C6.1,11.4,6,11.8,6,12.3h4
		v-0.9H7.1c0-0.1,0.1-0.3,0.2-0.4c0.1-0.1,0.2-0.2,0.4-0.3c0.1-0.1,0.3-0.2,0.5-0.3c0.2-0.1,0.3-0.2,0.5-0.3C8.9,9.9,9,9.8,9.2,9.7
		c0.2-0.1,0.3-0.3,0.4-0.4c0.1-0.2,0.2-0.3,0.3-0.5C10,8.5,10,8.3,10,8.1c0-0.2,0-0.4-0.1-0.6C9.9,7.3,9.8,7.1,9.6,6.9
		C9.5,6.7,9.3,6.5,9,6.4C8.8,6.3,8.5,6.3,8.1,6.3c-0.3,0-0.6,0.1-0.9,0.2C7,6.5,6.8,6.7,6.6,6.9C6.4,7.1,6.3,7.3,6.2,7.6
		C6.1,7.9,6.1,8.2,6.1,8.5h1c0-0.2,0-0.4,0.1-0.6c0-0.2,0.1-0.3,0.2-0.5c0.1-0.1,0.2-0.2,0.3-0.3c0.1-0.1,0.3-0.1,0.5-0.1
		c0.2,0,0.4,0,0.5,0.1c0.1,0.1,0.2,0.2,0.3,0.3C8.9,7.5,9,7.6,9,7.8c0,0.1,0,0.2,0,0.3C9,8.3,9,8.5,8.9,8.7C8.8,8.9,8.6,9.1,8.4,9.2
		z"/>
	<path class="st5" d="M1,1v14h14l0-14H1z M13.2,13.2L2.8,13.3V5.4l10.5-0.1V13.2z"/>
</g>
</svg>
