<?xml version="1.0" encoding="UTF-8" standalone="no"?>
<svg width="32px" height="32px" viewBox="0 0 32 32" version="1.1" xmlns="http://www.w3.org/2000/svg" xmlns:xlink="http://www.w3.org/1999/xlink" fill-rule="evenodd">
    <!-- Generator: Sketch 3.8.3 (29802) - http://www.bohemiancoding.com/sketch -->
    <title>Artboard 1</title>
    <desc>Created with Sketch.</desc>
    <defs></defs>
    <path d="M16,4 C22.6,4 28,9.4 28,16 C28,22.6 22.6,28 16,28 C9.4,28 4,22.6 4,16 C4,9.4 9.4,4 16,4 L16,4 L16,4 Z M16,0 C7.2,0 0,7.2 0,16 C0,24.8 7.2,32 16,32 C24.8,32 32,24.8 32,16 C32,7.2 24.8,0 16,0 L16,0 L16,0 L16,0 Z" id="Shape"></path>
    <ellipse id="Oval" cx="9.6" cy="16.6" rx="2.2" ry="2.2"></ellipse>
    <ellipse id="Oval" cx="16" cy="16.6" rx="2.2" ry="2.2"></ellipse>
    <ellipse id="Oval" cx="22.4" cy="16.6" rx="2.2" ry="2.2"></ellipse>
</svg>
