<svg xmlns="http://www.w3.org/2000/svg" width="20" height="20" fill-rule="evenodd" viewBox="0 0 20 20">
  <path d="M10 0A10 10 0 0 0 0 10a10 10 0 0 0 10 10 10 10 0 0 0 10-10A10 10 0 0 0 10 0zm.11 3.865c.112 0 .184.055.51.38.076.075.234.227.353.34.118.11.26.245.316.3.15.15.83.805 1.13 1.086.14.14.3.29.35.34l.332.328.363.352.11.113.024-1.797.084-.084.085-.08h.75c.665 0 .756 0 .814.04.137.085.132.024.134 1.96v1.77l.342.328c.19.18.37.355.4.385l.26.247.236.23.137.13c.178.17.226.243.226.35 0 .13-.118.26-.233.26-.094 0-.61-.12-1.59-.372-.074-.018-.142-.034-.15-.034s-.02 1.165-.02 2.59l-.007 2.594-.06.133c-.07.154-.174.266-.302.327-.085.04-.213.042-1.87.05-1.938.006-1.89.01-1.977-.127-.035-.058-.04-.178-.034-1.625l.006-1.565-.056-.068-.053-.07-.813-.006c-.765-.007-.817-.005-.85.036-.036.04-.04.197-.045 1.65-.006 1.733 0 1.66-.13 1.74-.05.03-.315.037-1.81.048-.965.008-1.8.006-1.86-.005-.167-.03-.273-.11-.36-.26l-.076-.135-.007-2.617-.005-2.62-.05.01c-.143.037-.994.24-1.254.3-.164.037-.325.06-.357.054-.09-.016-.196-.157-.196-.26 0-.044.01-.102.023-.127.012-.024.146-.16.3-.302l.287-.27c.025-.027.426-.4.59-.55.093-.085.342-.32.554-.517.21-.2.51-.478.668-.62s.334-.31.396-.37c.16-.152.252-.24.565-.53.246-.228.4-.37.86-.802.24-.225.7-.654.843-.785.07-.066.16-.15.204-.196l.36-.336.4-.37c.14-.14.34-.324.73-.68.292-.27.304-.28.405-.28z"/>
</svg>
