<svg id="Layer_1" data-name="Layer 1" xmlns="http://www.w3.org/2000/svg" viewBox="0 0 15 16">
  <defs>
    <style>
      .cls-1 {
        fill: none;
      }

      .cls-2 {
        fill: #00ff2d;
      }
    </style>
  </defs>
  <title>asleep</title>
  <path class="cls-1" d="M5.66,4.89a8.13,8.13,0,0,1,1-3.84,7,7,0,1,0,5.85,11.87A8.16,8.16,0,0,1,5.66,4.89Z"/>
  <path class="cls-2" d="M7.55,0h0Z"/>
  <path class="cls-1" d="M5.66,4.89a8.13,8.13,0,0,1,1-3.84,7,7,0,1,0,5.85,11.87A8.16,8.16,0,0,1,5.66,4.89Z"/>
  <path class="cls-1" d="M5.66,4.89a8.13,8.13,0,0,1,1-3.84,7,7,0,1,0,5.85,11.87A8.16,8.16,0,0,1,5.66,4.89Z"/>
  <path class="cls-1" d="M5.66,4.89a8.13,8.13,0,0,1,1-3.84,7,7,0,1,0,5.85,11.87A8.16,8.16,0,0,1,5.66,4.89Z"/>
  <path d="M14,12a7.14,7.14,0,0,1-6.8-7.13,6.92,6.92,0,0,1,1.26-4L8.47.77A.51.51,0,0,0,8.56.51.5.5,0,0,0,8.08,0H8a8,8,0,1,0,6.33,12.88h0A.5.5,0,0,0,14,12ZM8,15A7,7,0,0,1,7.12,1.05,8.14,8.14,0,0,0,13,12.92,7,7,0,0,1,8,15Z"/>
</svg>
