<?xml version="1.0" encoding="UTF-8"?>
<svg width="16px" height="16px" viewBox="0 0 16 16" version="1.1" xmlns="http://www.w3.org/2000/svg" xmlns:xlink="http://www.w3.org/1999/xlink">
    <!-- Generator: Sketch 50.2 (55047) - http://www.bohemiancoding.com/sketch -->
    <title>chat</title>
    <desc>Created with Sketch.</desc>
    <defs></defs>
    <g id="chat" stroke="none" stroke-width="1" fill="none" fill-rule="evenodd">
        <polygon id="Path-46" fill="#000000" fill-rule="nonzero" points="3.00259111 8.03108704 2.99740889 7.03110046 8.99740889 7.00000671 9.00259111 7.99999329"></polygon>
        <polygon id="Path-46" fill="#000000" fill-rule="nonzero" points="3 5 3 4 13 4 13 5"></polygon>
        <path d="M11.7124093,12 L7.85987221,15.9940735 L7.14012779,15.2998344 L11.2875907,11 L14,11 C14.5522847,11 15,10.5522847 15,10 L15,2 C15,1.44771525 14.5522847,1 14,1 L2,1 C1.44771525,1 1,1.44771525 1,2 L1,10 C1,10.5522847 1.44771525,11 2,11 L7.50203125,11 L7.50203125,12 L2,12 C0.8954305,12 1.92438658e-15,11.1045695 1.77635684e-15,10 L-2.22044605e-16,2 C-8.14163551e-16,0.8954305 0.8954305,-6.43929354e-15 2,-6.66133815e-15 L14,-7.10542736e-15 C15.1045695,-7.32747196e-15 16,0.8954305 16,2 L16,10 C16,11.1045695 15.1045695,12 14,12 L11.7124093,12 Z" id="Path-43" fill="#000000" fill-rule="nonzero"></path>
    </g>
</svg>