<?xml version="1.0" encoding="UTF-8"?>
<svg width="16px" height="16px" viewBox="0 0 16 16" version="1.1" xmlns="http://www.w3.org/2000/svg" xmlns:xlink="http://www.w3.org/1999/xlink">
    <!-- Generator: Sketch 50.2 (55047) - http://www.bohemiancoding.com/sketch -->
    <title>checkmark--outline</title>
    <desc>Created with Sketch.</desc>
    <defs></defs>
    <g id="checkmark--outline" stroke="none" stroke-width="1" fill="none" fill-rule="evenodd">
        <path d="M8,15 C11.8659932,15 15,11.8659932 15,8 C15,4.13400675 11.8659932,1 8,1 C4.13400675,1 1,4.13400675 1,8 C1,11.8659932 4.13400675,15 8,15 Z M8,16 C3.581722,16 0,12.418278 0,8 C0,3.581722 3.581722,0 8,0 C12.418278,0 16,3.581722 16,8 C16,12.418278 12.418278,16 8,16 Z" id="circle" fill="#000000" fill-rule="nonzero"></path>
        <polygon id="check" fill="#000000" fill-rule="nonzero" points="11.6464466 5.14644661 12.3535534 5.85355339 6.75 11.4571068 3.64644661 8.35355339 4.35355339 7.64644661 6.75 10.0428932"></polygon>
    </g>
</svg>