<?xml version="1.0" encoding="UTF-8" standalone="no"?>
<svg width="16px" height="16px" viewBox="0 0 16 16" version="1.1" xmlns="http://www.w3.org/2000/svg" xmlns:xlink="http://www.w3.org/1999/xlink">
    <!-- Generator: Sketch 50.2 (55047) - http://www.bohemiancoding.com/sketch -->
    <title>close--outline</title>
    <desc>Created with Sketch.</desc>
    <defs></defs>
    <g id="close--outline" stroke="none" stroke-width="1" fill="none" fill-rule="evenodd">
        <path d="M8,14.5 C11.5898509,14.5 14.5,11.5898509 14.5,8 C14.5,4.41014913 11.5898509,1.5 8,1.5 C4.41014913,1.5 1.5,4.41014913 1.5,8 C1.5,11.5898509 4.41014913,14.5 8,14.5 Z M8,16 C3.581722,16 0,12.418278 0,8 C0,3.581722 3.581722,0 8,0 C12.418278,0 16,3.581722 16,8 C16,12.418278 12.418278,16 8,16 Z" id="outline" fill="#000000" fill-rule="nonzero"></path>
        <path d="M8,6.58578644 L10.1213203,4.46446609 L11.5355339,5.87867966 L9.41421356,8 L11.5355339,10.1213203 L10.1213203,11.5355339 L8,9.41421356 L5.87867966,11.5355339 L4.46446609,10.1213203 L6.58578644,8 L4.46446609,5.87867966 L5.87867966,4.46446609 L8,6.58578644 Z" id="x" fill="#000000" fill-rule="nonzero"></path>
    </g>
</svg>