<svg xmlns="http://www.w3.org/2000/svg" width="20" height="20" fill-rule="evenodd" viewBox="0 0 20 20">
  <path fill="none" stroke="#000" stroke-width=".607" d="M19.447 10A9.447 9.447 0 0 1 10 19.447 9.447 9.447 0 0 1 .553 10 9.447 9.447 0 0 1 10 .553 9.447 9.447 0 0 1 19.447 10z" stroke-linecap="round" stroke-linejoin="round" paint-order="stroke fill markers"/>
  <path fill="#242424" d="M6.315 14.437c-1.15-.134-2.12-.956-2.44-2.068-.35-1.22.128-2.52 1.172-3.22.147-.1.434-.257.477-.26.002 0 .018-.14.035-.31.1-1.028.63-1.92 1.47-2.48 1.23-.824 2.79-.745 3.98.2.12.1.3.272.39.387l.17.21.23-.018c1.345-.1 2.6.78 2.98 2.085.053.193.125.65.125.81 0 .02.077.086.172.144.22.134.552.45.71.673.49.69.58 1.65.22 2.424-.31.668-.905 1.164-1.64 1.36l-.232.062-3.81.004c-2.098.002-3.907-.007-4.02-.02zm7.873-.904c.548-.146.987-.585 1.132-1.133.052-.195.052-.584 0-.78-.153-.577-.643-1.04-1.216-1.15l-.182-.034.052-.197c.074-.29.054-.79-.044-1.09-.2-.61-.683-1.098-1.297-1.3-.195-.07-.26-.078-.622-.078s-.42.01-.62.075c-.12.04-.22.072-.222.07 0-.004-.04-.076-.08-.16-.334-.657-.98-1.15-1.697-1.297-.275-.057-.72-.057-.993 0-.95.194-1.724.966-1.918 1.915-.067.326-.054.856.027 1.114.01.035-.014.05-.133.063-.735.097-1.4.655-1.633 1.377-.103.318-.12.778-.04 1.1.186.734.734 1.29 1.456 1.477.205.05.35.053 4.05.054 3.27 0 3.86-.003 3.99-.04z"/>
</svg>
