<svg width="18px" height="24px" viewBox="0 0 18 24" version="1.1" xmlns="http://www.w3.org/2000/svg" xmlns:xlink="http://www.w3.org/1999/xlink">
    <!-- Generator: Sketch 40.1 (33804) - http://www.bohemiancoding.com/sketch -->
    <desc>Created with Sketch.</desc>
    <defs></defs>
    <g id="copy--new" stroke="none" stroke-width="1" fill="none" fill-rule="evenodd">
        <path d="M13,5 L13,0 L0,0 L0,19 L5,19 L5,24 L18,24 L18,5 L13,5 L13,5 Z M2,17 L2,2 L11,2 L11,5 L5,5 L5,17 L2,17 L2,17 Z M16,22 L7,22 L7,7 L16,7 L16,22 L16,22 Z" id="Shape" fill="#000000"></path>
        <rect id="Rectangle-path" fill="#000000" x="9" y="9" width="5" height="2"></rect>
        <rect id="Rectangle-path" fill="#000000" x="9" y="12" width="5" height="2"></rect>
        <rect id="Rectangle-path" fill="#000000" x="9" y="15" width="3" height="2"></rect>
    </g>
</svg>
