<?xml version="1.0" encoding="UTF-8"?>
<svg width="12px" height="16px" viewBox="0 0 12 16" version="1.1" xmlns="http://www.w3.org/2000/svg" xmlns:xlink="http://www.w3.org/1999/xlink">
    <!-- Generator: Sketch 50.2 (55047) - http://www.bohemiancoding.com/sketch -->
    <title>delete</title>
    <desc>Created with Sketch.</desc>
    <defs></defs>
    <g id="delete" stroke="none" stroke-width="1" fill="none" fill-rule="evenodd">
        <path d="M11,4 L11,15 C11,15.5522847 10.5522847,16 10,16 L2,16 C1.44771525,16 1,15.5522847 1,15 L1,4 L0,4 L0,3 L12,3 L12,4 L11,4 Z M2,4 L2,15 L10,15 L10,4 L2,4 Z" id="Trashcan" fill="#000000" fill-rule="nonzero"></path>
        <polygon id="detail" fill="#000000" fill-rule="nonzero" points="4 6 5 6 5 13 4 13"></polygon>
        <polygon id="detail" fill="#000000" fill-rule="nonzero" points="7 6 8 6 8 13 7 13"></polygon>
        <polygon id="lid" fill="#000000" fill-rule="nonzero" points="3 1 3 0 9 0 9 1"></polygon>
    </g>
</svg>