<svg xmlns="http://www.w3.org/2000/svg" width="30" height="16" viewBox="0 0 30 16">
  <path fill-rule="evenodd" d="M8,0 L22,0 C26.418278,-8.11624501e-16 30,3.581722 30,8 C30,12.418278 26.418278,16 22,16 L8,16 C3.581722,16 5.41083001e-16,12.418278 0,8 C-5.41083001e-16,3.581722 3.581722,8.11624501e-16 8,0 Z M8.9748047,12 L14.1203125,12 L14.1203125,10.2866211 L11.0963867,10.2866211 L11.0963867,4.14746094 L8.9748047,4.14746094 L8.9748047,12 Z M21.1916992,5.85009766 C21.1916992,5.28433962 20.9607445,4.84033364 20.4988281,4.51806641 C20.0369117,4.19579917 19.3995483,4.03466797 18.5867187,4.03466797 C18.0245414,4.03466797 17.5259299,4.09553976 17.0908691,4.21728516 C16.6558084,4.33903056 16.230601,4.54313008 15.8152344,4.82958984 L16.6960937,6.24755859 C17.2332058,5.91096837 17.7524063,5.74267578 18.2537109,5.74267578 C18.522267,5.74267578 18.7362134,5.79280549 18.8955566,5.89306641 C19.0548999,5.99332732 19.1345703,6.14729714 19.1345703,6.35498047 C19.1345703,6.90641552 18.5956759,7.18212891 17.5178711,7.18212891 L17.0237305,7.18212891 L17.0237305,8.77734375 L17.5071289,8.77734375 C17.9045918,8.77734375 18.2268542,8.80688447 18.4739258,8.8659668 C18.7209973,8.92504912 18.900032,9.01277611 19.0110351,9.12915039 C19.1220383,9.24552467 19.1775391,9.41113174 19.1775391,9.62597656 C19.1775391,9.90527483 19.0710134,10.1102695 18.857959,10.2409668 C18.6449045,10.3716641 18.3056338,10.4370117 17.8401367,10.4370117 C17.539354,10.4370117 17.2108253,10.3949386 16.854541,10.310791 C16.4982567,10.2266435 16.1482439,10.0968433 15.8044922,9.92138672 L15.8044922,11.6831055 C16.2234396,11.8442391 16.61284,11.9552406 16.9727051,12.0161133 C17.3325701,12.076986 17.7237609,12.1074219 18.1462891,12.1074219 C19.1739635,12.1074219 19.9769339,11.8979513 20.5552246,11.4790039 C21.1335152,11.0600565 21.4226562,10.4853552 21.4226562,9.75488281 C21.4226562,8.68065869 20.7673894,8.06119874 19.4568359,7.89648438 L19.4568359,7.86425781 C20.0190132,7.70670494 20.4486964,7.45337089 20.7458984,7.10424805 C21.0431004,6.75512521 21.1916992,6.33707926 21.1916992,5.85009766 Z"/>
</svg>
