<svg xmlns="http://www.w3.org/2000/svg" width="30" height="16" viewBox="0 0 30 16">
  <path fill-rule="evenodd" d="M8,0 L22,0 C26.418278,-8.11624501e-16 30,3.581722 30,8 C30,12.418278 26.418278,16 22,16 L8,16 C3.581722,16 5.41083001e-16,12.418278 0,8 C-5.41083001e-16,3.581722 3.581722,8.11624501e-16 8,0 Z M8.9748047,12 L14.1203125,12 L14.1203125,10.2866211 L11.0963867,10.2866211 L11.0963867,4.14746094 L8.9748047,4.14746094 L8.9748047,12 Z M21.4548828,12 L21.4548828,10.2490234 L18.484668,10.2490234 L18.484668,10.1953125 C19.3547895,9.41470964 19.9232246,8.88476702 20.1899902,8.60546875 C20.4567559,8.32617048 20.6707023,8.060304 20.8318359,7.80786133 C20.9929695,7.55541866 21.1120276,7.29850391 21.1890137,7.03710938 C21.2659997,6.77571484 21.3044922,6.49104972 21.3044922,6.18310547 C21.3044922,5.77131956 21.1943859,5.39982262 20.9741699,5.06860352 C20.753954,4.73738441 20.444224,4.48226001 20.0449707,4.30322266 C19.6457174,4.1241853 19.1918645,4.03466797 18.6833984,4.03466797 C18.278774,4.03466797 17.9144385,4.07584594 17.5903808,4.15820312 C17.2663232,4.24056031 16.9664402,4.35961836 16.6907226,4.51538086 C16.4150051,4.67114336 16.0748393,4.92984845 15.6702148,5.29150391 L16.8357422,6.65576172 C17.1544287,6.38004419 17.439989,6.17146881 17.6924316,6.0300293 C17.9448743,5.88858979 18.1946277,5.81787109 18.4416992,5.81787109 C18.6816093,5.81787109 18.8678053,5.87695253 19.000293,5.99511719 C19.1327806,6.11328184 19.1990234,6.27441304 19.1990234,6.47851562 C19.1990234,6.64322999 19.165902,6.8007805 19.0996582,6.95117188 C19.0334144,7.10156325 18.9161467,7.28149309 18.7478516,7.4909668 C18.5795564,7.7004405 18.2214871,8.09163125 17.6736328,8.66455078 L15.7561523,10.6035156 L15.7561523,12 L21.4548828,12 Z"/>
</svg>
