<svg xmlns="http://www.w3.org/2000/svg" width="30" height="16" viewBox="0 0 30 16">
  <path fill-rule="evenodd" d="M8,0 L22,0 C26.418278,-8.11624501e-16 30,3.581722 30,8 C30,12.418278 26.418278,16 22,16 L8,16 C3.581722,16 5.41083001e-16,12.418278 0,8 C-5.41083001e-16,3.581722 3.581722,8.11624501e-16 8,0 Z M9.37480469,12 L14.5203125,12 L14.5203125,10.2866211 L11.4963867,10.2866211 L11.4963867,4.14746094 L9.37480469,4.14746094 L9.37480469,12 Z M20.0880859,12 L20.0880859,4.14746094 L18.1759766,4.14746094 L15.4796875,6.34423828 L16.5807617,7.69775391 L17.4723633,6.96191406 C17.6693044,6.78645746 17.8340163,6.61816487 17.9665039,6.45703125 C17.9450194,6.87597866 17.9342773,7.3378881 17.9342773,7.84277344 L17.9342773,12 L20.0880859,12 Z"/>
</svg>
