<?xml version="1.0" encoding="UTF-8"?>
<svg width="16px" height="16px" viewBox="0 0 16 16" version="1.1" xmlns="http://www.w3.org/2000/svg" xmlns:xlink="http://www.w3.org/1999/xlink">
    <!-- Generator: Sketch 50.2 (55047) - http://www.bohemiancoding.com/sketch -->
    <title>error--outline</title>
    <desc>Created with Sketch.</desc>
    <defs></defs>
    <g id="error--outline" stroke="none" stroke-width="1" fill="none" fill-rule="evenodd">
        <path d="M2.64644661,3.35355339 L3.35355339,2.64644661 L13.9601551,13.2530483 L13.2530483,13.9601551 L2.64644661,3.35355339 Z M8,15 C11.8659932,15 15,11.8659932 15,8 C15,4.13400675 11.8659932,1 8,1 C4.13400675,1 1,4.13400675 1,8 C1,11.8659932 4.13400675,15 8,15 Z M8,16 C3.581722,16 0,12.418278 0,8 C0,3.581722 3.581722,0 8,0 C12.418278,0 16,3.581722 16,8 C16,12.418278 12.418278,16 8,16 Z" id="circle" fill="#000000" fill-rule="nonzero"></path>
    </g>
</svg>