<?xml version="1.0" encoding="UTF-8"?>
<svg width="16px" height="15px" viewBox="0 0 16 15" version="1.1" xmlns="http://www.w3.org/2000/svg" xmlns:xlink="http://www.w3.org/1999/xlink">
    <!-- Generator: Sketch 50.2 (55047) - http://www.bohemiancoding.com/sketch -->
    <title>Forum</title>
    <desc>Created with Sketch.</desc>
    <defs></defs>
    <path d="M11.7026941,12 L8.70242193,14.9765113 L7.99813183,14.266599 L11.2908074,11 L14.4967508,11 C14.7728931,11 14.9967508,10.7761424 14.9967508,10.5 L14.9967508,4.5 C14.9967508,4.22385763 14.7728931,4 14.4967508,4 L4.49675076,4 C4.22060839,4 3.99675076,4.22385763 3.99675076,4.5 L3.99675076,10.5097844 C3.99752427,10.7873227 4.22200649,11.010554 4.49814779,11.0097825 L7.99860297,11.000002 L8.00139703,11.999998 L4.50094184,12.0097786 C3.67251795,12.0120932 2.99907129,11.3423994 2.99675662,10.5139755 L2.99675076,4.5 C2.99675076,3.67157288 3.66832364,3 4.49675076,3 L14.4967508,3 C15.3251779,3 15.9967508,3.67157288 15.9967508,4.5 L15.9967508,10.5 C15.9967508,11.3284271 15.3251779,12 14.4967508,12 L11.7026941,12 Z" id="Path-43" fill="#000000" fill-rule="nonzero"></path>
    <path d="M0.998052682,7.99999314 L-0.00194731818,8.00000686 L-0.00203647362,1.50000594 C-0.00204632147,0.671578819 0.66951857,-2.03937876e-06 1.49795255,-1.18872582e-05 L8.00000091,-1.18872582e-05 L7.99999909,1 L1.49795758,0.999988113 C1.22181521,0.999991395 0.997960244,1.22385168 0.997963526,1.49999314 L0.998052682,7.99999314 Z" id="Path-10" fill="#000000" fill-rule="nonzero"></path>
</svg>
