<?xml version="1.0" encoding="UTF-8"?>
<svg width="16px" height="16px" viewBox="0 0 16 16" version="1.1" xmlns="http://www.w3.org/2000/svg" xmlns:xlink="http://www.w3.org/1999/xlink">
    <!-- Generator: Sketch 50.2 (55047) - http://www.bohemiancoding.com/sketch -->
    <title>help--solid</title>
    <desc>Created with Sketch.</desc>
    <defs></defs>
    <g id="help--solid" stroke="none" stroke-width="1" fill="none" fill-rule="evenodd">
        <path d="M7.75,7.5 L7.5,7.5 L7.5,10 L8.5,10 L8.5,8.5 L8.61000013,8.5 C10.1287832,8.5 11.3600001,7.26878306 11.3600001,5.75 C11.3600001,4.23121694 10.1287832,3 8.61000013,3 L7.75,3 C6.23121694,3 5,4.23121694 5,5.75 L6,5.75 C6,4.78350169 6.78350169,4 7.75,4 L8.61000013,4 C9.57649845,4 10.3600001,4.78350169 10.3600001,5.75 C10.3600001,6.71649831 9.57649845,7.5 8.61000013,7.5 L7.75,7.5 Z M8,16 C3.581722,16 0,12.418278 0,8 C0,3.581722 3.581722,0 8,0 C12.418278,0 16,3.581722 16,8 C16,12.418278 12.418278,16 8,16 Z M8,12.75 C8.41421356,12.75 8.75,12.4142136 8.75,12 C8.75,11.5857864 8.41421356,11.25 8,11.25 C7.58578644,11.25 7.25,11.5857864 7.25,12 C7.25,12.4142136 7.58578644,12.75 8,12.75 Z" id="help" fill="#000000"></path>
    </g>
</svg>