<svg xmlns="http://www.w3.org/2000/svg" width="20" height="20" fill-rule="evenodd" viewBox="0 0 20 20">
  <path d="M5.223 15.785c-.166-.03-.273-.102-.36-.245l-.076-.127-.006-2.472v-2.47l-.05.01c-.14.04-.99.23-1.25.29-.16.04-.32.06-.35.06-.09-.01-.19-.15-.19-.24 0-.04.01-.1.03-.12.01-.02.15-.15.3-.28l.29-.25c.03-.02.43-.38.59-.52l.56-.49c.21-.18.51-.45.67-.58.16-.13.34-.29.4-.35l.57-.49c.25-.21.4-.35.86-.76.24-.21.7-.62.85-.74l.21-.18.36-.32s.333-.29.396-.35c.14-.12.34-.3.73-.64.29-.25.3-.26.4-.26.113 0 .185.05.51.36l.35.32.318.29c.156.147.84.76 1.13 1.03l.35.32.34.31c.14.12.3.27.36.33l.11.11.01-.85.017-.85.08-.08.08-.073h.75c.666 0 .756.005.814.04.14.08.13.02.13 1.85V9l.346.31.4.365.26.23.24.213.14.127c.18.16.22.23.22.33 0 .12-.115.243-.23.243-.096 0-.61-.11-1.59-.35-.08-.02-.146-.03-.154-.03-.01 0-.02 1.1-.02 2.447l-.01 2.44-.06.128c-.07.143-.176.25-.304.31-.084.037-.21.04-1.87.046-1.94 0-1.89.01-1.976-.12-.033-.06-.04-.17-.03-1.54l.004-1.48-.054-.07-.054-.07-.81-.01c-.76-.01-.81-.01-.85.03-.03.03-.04.18-.04 1.55-.004 1.64 0 1.57-.13 1.65-.05.03-.31.03-1.81.04-.96.01-1.8.01-1.86 0zm1.752-.52h1.532V13.89c0-1.575-.007-1.513.193-1.713.186-.188.21-.192 1.185-.192.692 0 .85.006.95.036.244.08.386.21.467.43l.055.15v2.67h1.567c1.19 0 1.574-.01 1.595-.03.02-.02.02-.62.02-2.59 0-1.73.01-2.59.02-2.65.02-.1.13-.17.23-.17.07 0 .29.05.75.16.25.06.34.07.28.03-.03-.01-.27-.23-.55-.49l-.53-.47-.86-.78c-.26-.23-.59-.53-.74-.66l-.37-.34-.57-.51-.22-.23-.26-.24c-.02-.02-.12-.11-.23-.21-.11-.09-.32-.28-.47-.42l-.6-.55-.33-.3-.05.05c-.05.04-.7.61-.78.68-.06.06-.75.66-.95.84l-.59.52c-.22.2-.51.46-.66.58l-.56.5-.476.42c-.273.24-.32.28-.36.32l-.14.12c-.053.05-.175.16-.27.24-.17.16-.394.35-.854.75-.133.12-.25.22-.25.23 0 .03.037.02.44-.07.47-.1.48-.1.59-.01l.09.08.01 2.61c.004 2.04.01 2.62.03 2.63.02.01.05.01.077.01.02-.01.73-.01 1.573-.01zm7.978-8.075V5.923l-.413.006h-.412v.13l.006.9.005.77.38.35c.21.19.39.35.4.35.01 0 .02-.57.02-1.27z"/>
  <path fill="none" stroke="#000" stroke-width=".607" d="M19.447 10A9.447 9.447 0 0 1 10 19.447 9.447 9.447 0 0 1 .553 10 9.447 9.447 0 0 1 10 .553 9.447 9.447 0 0 1 19.447 10z" stroke-linecap="round" stroke-linejoin="round" paint-order="stroke fill markers"/>
</svg>
