<svg xmlns="http://www.w3.org/2000/svg" width="20" height="20" fill-rule="evenodd" viewBox="0 0 20 20">
  <path d="M3.252 18.172c-.235-.042-.385-.144-.508-.346l-.108-.18-.017-6.983-.08.017c-.2.048-1.41.317-1.77.396-.24.05-.46.084-.51.075-.13-.02-.27-.21-.27-.34 0-.06.01-.14.03-.17.01-.03.21-.21.42-.4l.41-.36c.03-.03.6-.53.83-.73.13-.11.48-.42.78-.68s.72-.64.94-.83c.22-.19.47-.41.56-.49.22-.2.36-.32.8-.7.35-.3.56-.49 1.21-1.07l1.19-1.05c.09-.08.23-.2.29-.26.06-.05.29-.26.51-.45.22-.19.47-.41.56-.49.2-.18.48-.43 1.03-.91.41-.36.43-.37.57-.37.16 0 .26.07.72.51.1.1.322.308.49.45s.37.33.445.41l1.6 1.45c.205.18.427.383.5.45l.48.43c.192.17.422.384.51.468l.16.154.032-2.4.24-.22h1.06c.94 0 1.065 0 1.15.05.192.11.19.03.19 2.615v2.36l.5.426.567.51.366.33c.158.14.31.28.338.306l.19.177c.26.23.32.328.32.47 0 .172-.16.345-.33.345-.13 0-.86-.16-2.25-.495-.11-.03-.2-.05-.21-.05-.01 0-.02 1.555-.03 3.457l-.01 3.46-.08.18c-.1.2-.24.36-.43.44-.12.05-.3.06-2.64.07-2.74.01-2.67.02-2.79-.162-.05-.08-.05-.24-.05-2.17l.01-2.09-.152-.184-1.15-.01c-1.076 0-1.15 0-1.2.05-.047.06-.053.26-.06 2.2-.01 2.32-.003 2.22-.183 2.328-.07.04-.442.05-2.56.066-1.36.01-2.54.01-2.62-.006zm2.475-.735H7.89v-1.94c0-2.226-.01-2.14.273-2.422.263-.265.3-.27 1.675-.27.977 0 1.2.008 1.343.05.35.102.55.286.66.602l.08.213v3.767h2.22c1.68 0 2.23-.01 2.26-.038.03-.03.04-.89.04-3.67 0-2.45.01-3.67.04-3.75.04-.14.18-.25.34-.25.11 0 .42.06 1.07.22.37.09.49.1.4.04-.03-.02-.38-.34-.78-.7-.09-.09-.43-.39-.73-.67l-1.215-1.1-1.04-.94-.53-.48-.8-.73c-.003-.01-.153-.15-.33-.31-.173-.16-.34-.31-.37-.34l-.32-.29c-.15-.138-.44-.4-.65-.598l-.855-.777-.47-.42-.08.064c-.077.06-.99.86-1.1.964-.09.08-1.056.93-1.34 1.176-.15.13-.53.46-.838.737l-.923.82c-.206.17-.565.49-.8.7-.24.21-.54.48-.67.59-.39.34-.46.4-.514.45l-.2.18c-.075.07-.25.22-.38.34-.24.213-.56.49-1.21 1.05-.19.167-.35.316-.352.33-.003.035.046.026.62-.107.66-.155.68-.156.83-.02l.13.11.007 3.682c.01 2.873.02 3.69.05 3.71.025.01.07.014.106.01.037-.01 1.04-.02 2.23-.02zM16.997 6.03V4.24l-1.166.018.01.184.01 1.28.01 1.095.55.502c.3.27.56.5.58.5.02 0 .03-.81.03-1.79z"/>
</svg>
