<?xml version="1.0" encoding="UTF-8"?>
<svg width="16px" height="16px" viewBox="0 0 16 16" version="1.1" xmlns="http://www.w3.org/2000/svg" xmlns:xlink="http://www.w3.org/1999/xlink">
    <!-- Generator: Sketch 50.2 (55047) - http://www.bohemiancoding.com/sketch -->
    <title>info--solid</title>
    <desc>Created with Sketch.</desc>
    <defs></defs>
    <g id="info--solid" stroke="none" stroke-width="1" fill="none" fill-rule="evenodd">
        <path d="M8.5,7.00669675 L8.50450047,7.00669675 L8.50450047,6.00669675 L6.50450047,6.00669675 L6.50450047,7.00669675 L7.5,7.00669675 L7.5,10.9982246 L5.5,10.9982246 L5.5,11.9982246 L7.5,11.9982246 L7.5,12 L8.5,12 L8.5,11.9982246 L10.5,11.9982246 L10.5,10.9982246 L8.5,10.9982246 L8.5,7.00669675 Z M8,16 C3.581722,16 0,12.418278 0,8 C0,3.581722 3.581722,0 8,0 C12.418278,0 16,3.581722 16,8 C16,12.418278 12.418278,16 8,16 Z M8,4.75 C8.41421356,4.75 8.75,4.41421356 8.75,4 C8.75,3.58578644 8.41421356,3.25 8,3.25 C7.58578644,3.25 7.25,3.58578644 7.25,4 C7.25,4.41421356 7.58578644,4.75 8,4.75 Z" id="info" fill="#000000"></path>
    </g>
</svg>