<?xml version="1.0" encoding="UTF-8"?>
<svg width="16px" height="16px" viewBox="0 0 16 16" version="1.1" xmlns="http://www.w3.org/2000/svg" xmlns:xlink="http://www.w3.org/1999/xlink">
    <!-- Generator: Sketch 50.2 (55047) - http://www.bohemiancoding.com/sketch -->
    <title>info--outline</title>
    <desc>Created with Sketch.</desc>
    <defs></defs>
    <g id="info--outline" stroke="none" stroke-width="1" fill="none" fill-rule="evenodd">
        <g id="info" fill="#000000">
            <path d="M8,15 C11.8659932,15 15,11.8659932 15,8 C15,4.13400675 11.8659932,1 8,1 C4.13400675,1 1,4.13400675 1,8 C1,11.8659932 4.13400675,15 8,15 Z M8,16 C3.581722,16 0,12.418278 0,8 C0,3.581722 3.581722,0 8,0 C12.418278,0 16,3.581722 16,8 C16,12.418278 12.418278,16 8,16 Z" id="circle" fill-rule="nonzero"></path>
            <path d="M8.5,7.00669675 L8.5,10.9982246 L10.5,10.9982246 L10.5,11.9982246 L8.5,11.9982246 L8.5,12 L7.5,12 L7.5,11.9982246 L5.5,11.9982246 L5.5,10.9982246 L7.5,10.9982246 L7.5,7.00669675 L6.50450047,7.00669675 L6.50450047,6.00669675 L8.50450047,6.00669675 L8.50450047,7.00669675 L8.5,7.00669675 Z" id="i" fill-rule="nonzero"></path>
            <circle id="dot" cx="8" cy="4" r="1"></circle>
        </g>
    </g>
</svg>