<?xml version="1.0" encoding="UTF-8"?>
<svg width="16px" height="16px" viewBox="0 0 16 16" version="1.1" xmlns="http://www.w3.org/2000/svg" xmlns:xlink="http://www.w3.org/1999/xlink">
    <!-- Generator: Sketch 50.2 (55047) - http://www.bohemiancoding.com/sketch -->
    <title>launch</title>
    <desc>Created with Sketch.</desc>
    <defs></defs>
    <g id="launch" stroke="none" stroke-width="1" fill="none" fill-rule="evenodd">
        <path d="M14.2928932,1 L10.5,1 L10.5,0 L16,0 L16,5.5 L15,5.5 L15,1.70710678 L9.69669914,7.01040764 L8.98959236,6.30330086 L14.2928932,1 Z" id="Combined-Shape" fill="#000000" fill-rule="nonzero"></path>
        <path d="M14.2928932,1 L10.5,1 L10.5,0 L16,0 L16,5.5 L15,5.5 L15,1.70710678 L9.69669914,7.01040764 L8.98959236,6.30330086 L14.2928932,1 Z" id="Combined-Shape" fill="#000000" fill-rule="nonzero"></path>
        <path d="M13,9 L14,9 L14,15 C14,15.5522847 13.5522847,16 13,16 L1,16 C0.44771525,16 6.76353751e-17,15.5522847 0,15 L-1.11022302e-16,3 C-1.78657678e-16,2.44771525 0.44771525,2 1,2 L7.99504589,2 L7.99504589,3 L1,3 L1,15 L13,15 L13,9 Z" id="window" fill="#000000" fill-rule="nonzero"></path>
    </g>
</svg>