<?xml version="1.0" encoding="UTF-8"?>
<svg width="16px" height="13px" viewBox="0 0 16 13" version="1.1" xmlns="http://www.w3.org/2000/svg" xmlns:xlink="http://www.w3.org/1999/xlink">
    <!-- Generator: Sketch 50.2 (55047) - http://www.bohemiancoding.com/sketch -->
    <title>link</title>
    <desc>Created with Sketch.</desc>
    <defs></defs>
    <g id="link" stroke="none" stroke-width="1" fill="none" fill-rule="evenodd">
        <path d="M8.54689937,4.26528645 L7.54696758,4.25360682 C7.54790872,4.17303256 7.55534303,3.92444507 7.56949385,3.49768934 C7.60846516,2.32267964 6.68751642,1.33855771 5.51250188,1.29959532 C5.47323283,1.29853497 5.47323283,1.29853497 5.43394958,1.29844104 C4.19877789,1.30308573 3.19992967,2.30569704 3.19992967,3.54087747 L3.19992967,9.80871841 C3.19992967,11.0237449 4.18490322,12.0087184 5.39992967,12.0087184 L5.68111958,12.0087184 C6.77036186,12.0087184 7.66862427,11.1553056 7.72436529,10.0674905 L8.72305504,10.1186646 C8.64006913,11.7381778 7.3027575,13.0087184 5.68111958,13.0087184 L5.39992967,13.0087184 C3.63261847,13.0087184 2.19992967,11.5760296 2.19992967,9.80871841 L2.19992967,3.54087747 C2.19992967,1.75488023 3.64420463,0.305164058 5.43018925,0.298448113 C5.48792643,0.298586171 5.48792643,0.298586171 5.54564274,0.300144627 C7.27264059,0.357410274 8.62622318,1.8038429 8.56894441,3.53083406 C8.55513858,3.9471857 8.54771582,4.19538688 8.54689937,4.26528645 Z" id="Path-27" fill="#000000" fill-rule="nonzero" transform="translate(5.461492, 6.653583) rotate(45.000000) translate(-5.461492, -6.653583) "></path>
        <path d="M13.7809453,3.30044609 L12.7810372,3.31400721 L12.7673768,2.30677533 C12.7507839,1.0833306 11.754273,0.100243051 10.5307157,0.100243051 C9.3156893,0.100243051 8.33071575,1.0852166 8.33071575,2.30024305 L8.33071575,8.60024305 C8.33071575,9.8152695 9.3156893,10.8002431 10.5307157,10.8002431 L10.7145946,10.8002431 C11.7598742,10.8002431 12.6072407,9.9528765 12.6072407,8.90759689 C12.6072407,8.87586352 12.6064426,8.84413517 12.6048472,8.81244194 L13.6035826,8.7621658 C13.6060209,8.81060449 13.6072407,8.85909686 13.6072407,8.90759689 C13.6072407,10.5051613 12.3121589,11.8002431 10.7145946,11.8002431 L10.5307157,11.8002431 C8.76340455,11.8002431 7.33071575,10.3675543 7.33071575,8.60024305 L7.33071575,2.30024305 C7.33071575,0.532931851 8.76340455,-0.899756949 10.5307157,-0.899756949 C12.301269,-0.899756949 13.7432741,0.52282373 13.7672848,2.29321421 L13.7809453,3.30044609 Z" id="Path-27" fill="#000000" fill-rule="nonzero" transform="translate(10.555831, 5.450243) scale(-1, -1) rotate(45.000000) translate(-10.555831, -5.450243) "></path>
    </g>
</svg>