<svg width="24px" height="24px" viewBox="0 0 24 24" version="1.1" xmlns="http://www.w3.org/2000/svg" xmlns:xlink="http://www.w3.org/1999/xlink" fill-rule="evenodd">
	<path d="M22.3,1.7 C21.2,0.7 19.8,0 18.2,0 C16.6,0 15.1,0.7 14.1,1.7 L11.6,4.2 C10.5,5.3 9.9,6.7 9.9,8.3 C9.9,8.9 10,9.5 10.2,10.1 C9.5,9.9 9,9.8 8.3,9.8 C6.7,9.8 5.2,10.5 4.2,11.5 L1.7,14 C0.7,15.1 0,16.5 0,18.2 C0,19.8 0.6,21.3 1.7,22.4 C2.7,23.4 4.2,24 5.8,24 C7.4,24 8.9,23.3 9.9,22.3 L12.4,19.8 C13.5,18.7 14.1,17.3 14.1,15.7 C14.1,15.1 14,14.5 13.8,13.9 C14.4,14.1 15,14.2 15.6,14.2 C17.2,14.2 18.7,13.5 19.7,12.5 L22.2,10 C23.3,8.9 24,7.5 24,5.8 C24,4.2 23.3,2.8 22.3,1.7 L22.3,1.7 Z M10.9,18.2 L8.4,20.7 C7.7,21.4 6.8,21.8 5.8,21.8 C4.8,21.8 3.8,21.4 3.2,20.8 C2.5,20.1 2.2,19.2 2.2,18.2 C2.2,17.2 2.6,16.3 3.3,15.6 L5.8,13.1 C6.4,12.4 7.4,12 8.3,12 C8.9,12 9.5,12.2 10,12.4 L6.8,15.6 L8.3,17.1 L11.5,13.9 C11.8,14.4 11.9,15 11.9,15.6 C12,16.6 11.6,17.6 10.9,18.2 L10.9,18.2 Z M20.7,8.4 L18.2,10.9 C17.5,11.6 16.6,12 15.6,12 C15,12 14.4,11.8 13.9,11.6 L17.1,8.4 L15.6,6.9 L12.4,10.1 C12.2,9.5 12,9 12,8.3 C12,7.3 12.4,6.4 13.1,5.7 L15.6,3.2 C16.3,2.5 17.2,2.1 18.2,2.1 C19.2,2.1 20.1,2.5 20.8,3.2 C21.5,3.9 21.9,4.8 21.9,5.8 C21.8,6.8 21.4,7.7 20.7,8.4 L20.7,8.4 Z" id="Shape" fill="#000000"></path>
</svg>