<svg width="18px" height="24px" viewBox="0 0 18 24" version="1.1" xmlns="http://www.w3.org/2000/svg" xmlns:xlink="http://www.w3.org/1999/xlink" fill-rule="evenodd">
	<path d="M15.5,6.5 C15.5,3 12.5,0 9,0 C5.5,0 2.5,3 2.5,6.5 L2.5,9.5 C1.1,11 0.3,13 0.3,15.3 C0.3,20.1 4.2,24 9,24 C13.8,24 17.7,20.1 17.7,15.3 C17.7,13.1 16.9,11.1 15.5,9.5 L15.5,6.5 L15.5,6.5 Z M4.6,6.5 C4.6,4.2 6.6,2.1 9,2.1 C11.4,2.1 13.4,4.1 13.4,6.5 L13.4,7.7 C12.1,7 10.6,6.5 9,6.5 C7.4,6.5 5.9,6.9 4.6,7.7 L4.6,6.5 L4.6,6.5 Z M7.4,20.1 L3.4,16.1 L4.9,14.6 L7.4,17.1 L13.2,11.3 L14.7,12.8 L7.4,20.1 L7.4,20.1 Z" id="Shape" fill="#000000"></path>
</svg>