<svg xmlns="http://www.w3.org/2000/svg" width="16" height="16" viewBox="0 0 16 16">
  <path d="M12.5,6.00000903 L11.5,6.00000903 L11.5,4.54376035 C11.5,2.05626259 9.5,0.00626444537 7.0125,1.44510199e-05 C4.525,-0.00623554334 2.5,2.01563763 2.5,4.50001039 L2.5,6.00000903 L1.5,6.00000903 C0.671875,6.00000903 0,6.67188343 0,7.50000768 L0,14.5000014 C0,15.3281256 0.671875,16 1.5,16 L12.5,16 C13.328125,16 14,15.3281256 14,14.5000014 L14,7.50000768 C14,6.67188343 13.328125,6.00000903 12.5,6.00000903 Z M4,4.50001039 C4,2.84688688 5.346875,1.5000131 7,1.5000131 C8.653125,1.5000131 10,2.84688688 10,4.50001039 L10,6.00000903 L4,6.00000903 L4,4.50001039 Z M12.5,14.5000014 L1.5,14.5000014 L1.5,7.50000768 L12.5,7.50000768 L12.5,14.5000014 Z" transform="translate(1)"/>
</svg>
