<svg width="25px" height="25px" viewBox="0 0 25 25">
  <g id="Page-1" stroke="none" stroke-width="1" fill="none" fill-rule="evenodd">
    <g id="Group" transform="translate(1.000000, 1.000000)" stroke="#000000">
      <g id="Group-14-Copy">
        <path d="M13.2669399,22.4782451 C15.4932917,22.1004832 17.6270147,21.0651927 19.3463781,19.34645 C23.6157581,15.0777634 23.7668941,8.24971989 19.7997861,3.79918576" id="Fill-1" stroke-linecap="round"></path>
        <path d="M9.53427094,0.165212592 C7.25910058,0.524036601 5.07279716,1.56606731 3.31940313,3.31882812 C-0.949756131,7.58868065 -1.10109718,14.4156194 2.86537998,18.8654786" id="Fill-4" stroke-linecap="round"></path>
        <path d="M8.32761895,11.1651321 C8.3261098,11.2315684 8.32530223,11.2987594 8.326,11.3676063 L8.326,11.604075 C8.3216875,17.6696063 8.08378125,21.3546375 4.82209375,21.3984813 C4.50584375,21.4027938 4.38365625,21.649325 4.361375,21.9634188 C4.3398125,22.2796688 4.424625,22.5592625 4.73728125,22.6074188 C4.78184375,22.6146063 5.13403125,22.6656375 5.6795625,22.6656375 C6.92515625,22.6656375 9.17915625,22.3982625 11.0996563,20.7300438 C13.308375,18.8095438 14.398,15.6355438 14.3405,11.3007625 L14.3405,11.0989886 L17.1024249,10.5079347 C17.5348993,10.419331 17.5551882,10.0681974 17.5530525,9.63064786 C17.5519847,9.19419216 17.5263566,8.84634025 17.0938822,8.76101809 L14.3773404,8.20859156 C14.5120122,3.86359945 15.131488,1.30400552 17.8436875,1.26773125 C18.1592188,1.26341875 18.1994688,1.0168875 18.2224688,0.702075 C18.2440313,0.38654375 18.2404375,0.10695 17.9277813,0.05879375 C17.8846563,0.05160625 17.5324688,-0.00014375 16.9869375,-0.00014375 C15.7420625,-0.00014375 13.486625,0.26723125 11.5668438,1.93473125 C9.96106278,3.33138725 8.95307144,5.39895308 8.54165791,8.09077348 L5.25459934,8.7774262 C4.82212497,8.86493611 4.79863254,9.21278802 4.79863254,9.65143146 C4.79863254,10.0878872 4.82212497,10.4368329 5.25459934,10.5243429 L8.32761935,11.1651321 Z" id="Combined-Shape"></path>
      </g>
    </g>
  </g>
</svg>
