<?xml version="1.0" encoding="UTF-8"?>
<svg width="16px" height="16px" viewBox="0 0 16 16" version="1.1" xmlns="http://www.w3.org/2000/svg" xmlns:xlink="http://www.w3.org/1999/xlink">
    <!-- Generator: Sketch 50.2 (55047) - http://www.bohemiancoding.com/sketch -->
    <title>play--solid</title>
    <desc>Created with Sketch.</desc>
    <defs></defs>
    <g id="play--solid" stroke="none" stroke-width="1" fill="none" fill-rule="evenodd">
        <path d="M8,16 C3.581722,16 0,12.418278 0,8 C0,3.581722 3.581722,0 8,0 C12.418278,0 16,3.581722 16,8 C16,12.418278 12.418278,16 8,16 Z M4.99749197,4.77661867 L4.99749197,11.2761393 C4.99749197,11.6903529 5.33327841,12.0261393 5.74749197,12.0261393 C5.88183983,12.0261393 6.01372133,11.990052 6.12935182,11.9216492 L11.6297402,8.6678224 C11.9862455,8.45692702 12.1042856,7.99695791 11.8933903,7.64045263 C11.8289599,7.53153723 11.7380184,7.44069533 11.6290325,7.37638442 L6.12864409,4.13069061 C5.77190788,3.92018611 5.31206842,4.03873033 5.10156391,4.39546655 C5.03342971,4.51093171 4.99749197,4.64254976 4.99749197,4.77661867 Z" id="play" fill="#000000"></path>
    </g>
</svg>