<?xml version="1.0" encoding="UTF-8"?>
<svg width="16px" height="16px" viewBox="0 0 16 16" version="1.1" xmlns="http://www.w3.org/2000/svg" xmlns:xlink="http://www.w3.org/1999/xlink">
    <!-- Generator: Sketch 50.2 (55047) - http://www.bohemiancoding.com/sketch -->
    <title>play--outline</title>
    <desc>Created with Sketch.</desc>
    <defs></defs>
    <g id="play--outline" stroke="none" stroke-width="1" fill="none" fill-rule="evenodd">
        <path d="M8,15 C11.8659932,15 15,11.8659932 15,8 C15,4.13400675 11.8659932,1 8,1 C4.13400675,1 1,4.13400675 1,8 C1,11.8659932 4.13400675,15 8,15 Z M8,16 C3.581722,16 0,12.418278 0,8 C0,3.581722 3.581722,0 8,0 C12.418278,0 16,3.581722 16,8 C16,12.418278 12.418278,16 8,16 Z" id="Oval-13" fill="#000000" fill-rule="nonzero"></path>
        <path d="M4.99749197,4.77639939 C4.99749197,4.64303395 5.03305379,4.51208059 5.10051271,4.39703436 C5.31003023,4.03971757 5.76954023,3.9199026 6.12685701,4.12942013 L11.6249317,7.35329051 C11.7353074,7.4180108 11.8272901,7.50989309 11.892131,7.62019803 C12.1020388,7.97728566 11.982726,8.4369263 11.6256384,8.64683413 L6.12756372,11.8787829 C6.01235157,11.9465083 5.88113545,11.9822185 5.74749197,11.9822185 C5.33327841,11.9822185 4.99749197,11.6464321 4.99749197,11.2322185 L4.99749197,4.77639939 Z M5.99749197,10.795266 L10.7517798,8.00053955 L5.99749197,5.21279863 L5.99749197,10.795266 Z" id="Path-33" fill="#000000" fill-rule="nonzero"></path>
    </g>
</svg>