<svg width="18px" height="24px" viewBox="0 0 18 24" version="1.1" xmlns="http://www.w3.org/2000/svg" xmlns:xlink="http://www.w3.org/1999/xlink" fill-rule="evenodd">
    <path d="M10.9,9.5 L12.2,10.8 L14.6,8.4 L16,7 L17.6,5.4 L12.2,0 L10.9,1.3 L14.2,4.4 L9.5,4.4 L9.5,4.4 L9.5,4.4 C7.3,4.4 5.3,5.2 3.7,6.4 C1.5,8.1 0,10.8 0,13.9 C0,19.1 4.3,23.4 9.5,23.4 C11.9,23.4 14,22.5 15.7,21.1 L14.3,19.7 C13,20.8 11.3,21.4 9.5,21.4 C5.4,21.4 2,18 2,13.9 C2,9.8 5.4,6.4 9.5,6.4 L9.5,6.4 L14.3,6.4 L13.2,7.4 L10.9,9.5 L10.9,9.5 Z"></path>
</svg>