<svg width="25px" height="25px" viewBox="0 0 25 25" version="1.1" xmlns="http://www.w3.org/2000/svg" xmlns:xlink="http://www.w3.org/1999/xlink" fill-rule="evenodd">
	<polygon id="Rectangle-path" fill="#000000" points="16.03594 18.45458 18.44008 16.05044 24.02617 21.63653 21.62203 24.04067"></polygon>
	<circle id="Oval" fill="#000000" cx="16" cy="16" r="1"></circle>
	<path d="M8.5,2 C12.1,2 15,4.9 15,8.5 C15,12.1 12.1,15 8.5,15 C4.9,15 2,12.1 2,8.5 C2,4.9 4.9,2 8.5,2 L8.5,2 Z M8.5,0 C3.8,0 0,3.8 0,8.5 C0,13.2 3.8,17 8.5,17 C13.2,17 17,13.2 17,8.5 C17,3.8 13.2,0 8.5,0 L8.5,0 L8.5,0 Z" id="Shape" fill="#231F20"></path>
</svg>