<?xml version="1.0" encoding="UTF-8"?>
<svg width="15px" height="16px" viewBox="0 0 15 16" version="1.1" xmlns="http://www.w3.org/2000/svg" xmlns:xlink="http://www.w3.org/1999/xlink">
    <!-- Generator: Sketch 50.2 (55047) - http://www.bohemiancoding.com/sketch -->
    <title>settings</title>
    <desc>Created with Sketch.</desc>
    <defs></defs>
    <path d="M7.53094746,10.5 C8.91165933,10.5 10.0309475,9.38071187 10.0309475,8 C10.0309475,6.61928813 8.91165933,5.5 7.53094746,5.5 C6.15023559,5.5 5.03094746,6.61928813 5.03094746,8 C5.03094746,9.38071187 6.15023559,10.5 7.53094746,10.5 Z M7.53094746,11.5 C5.59795084,11.5 4.03094746,9.93299662 4.03094746,8 C4.03094746,6.06700338 5.59795084,4.5 7.53094746,4.5 C9.46394408,4.5 11.0309475,6.06700338 11.0309475,8 C11.0309475,9.93299662 9.46394408,11.5 7.53094746,11.5 Z" id="Oval-18" fill="#000000" fill-rule="nonzero"></path>
    <path d="M6.26789032,2.63558596 L5.9552213,2.72890567 C5.29271941,2.92663707 4.67524579,3.24823292 4.13305732,3.6748249 L3.87752701,3.87587525 L2.45121896,3.12148117 L1.23683273,4.85580444 L2.42344143,5.92892913 L2.31853354,6.2396927 C2.12884572,6.8015958 2.03094746,7.39381669 2.03094746,8 C2.03094746,8.33752411 2.06129114,8.67092688 2.12109725,8.99755011 L2.17127385,9.271583 L1.00002682,10.3308152 L2.21441305,12.0651385 L3.27476588,11.5043031 L3.53588667,11.7801648 C4.19766416,12.4793012 5.03129986,12.9953392 5.9552213,13.2710943 L6.26789032,13.364414 L6.47233857,15 L8.58955635,15 L8.7940046,13.364414 L9.10667362,13.2710943 C9.9345182,13.0240145 10.6906973,12.5838421 11.3162734,11.9901692 L11.5767711,11.7429564 L12.6665778,12.3193702 L13.880964,10.5850469 L12.8007848,9.60817313 L12.8720838,9.31821942 C12.9772474,8.89054793 13.0309475,8.4490004 13.0309475,8 C13.0309475,7.4561209 12.952147,6.92336432 12.7987807,6.41338882 L12.7077279,6.11061913 L13.8585031,5.06990097 L12.6441168,3.33557769 L11.3448293,4.02278885 L11.0867592,3.80386264 C10.5083512,3.31318725 9.83492334,2.94626028 9.10667362,2.72890567 L8.7940046,2.63558596 L8.58955635,1 L6.47233857,1 L6.26789032,2.63558596 Z M5.48006069,0.875965265 C5.5426143,0.375536443 5.9680153,1.11022302e-16 6.47233857,1.11022302e-16 L8.58955635,0 C9.09387962,0 9.51928062,0.375536443 9.58183423,0.875965265 L9.70648244,1.873151 C10.3400396,2.09813191 10.9335805,2.42037059 11.4670642,2.82687687 L12.1765729,2.45160784 C12.6223795,2.21581457 13.1740009,2.34888382 13.4632689,2.76200126 L14.6776551,4.49632453 C14.966923,4.90944197 14.9033016,5.47330893 14.5292536,5.81158402 L13.8409539,6.43405658 C13.9666774,6.9421926 14.0309475,7.46698201 14.0309475,8 C14.0309475,8.42712074 13.9896813,8.84909708 13.9084912,9.26165674 L14.5517145,9.8433639 C14.9257625,10.181639 14.989384,10.7455059 14.700116,11.1586234 L13.4857298,12.8929467 C13.1964619,13.3060641 12.6448404,13.4391333 12.1990339,13.2033401 L11.7347653,12.957782 C11.1356478,13.4662793 10.4488461,13.8632235 9.70648262,14.1268476 L9.58183423,15.1240347 C9.51928062,15.6244636 9.09387962,16 8.58955635,16 L6.47233857,16 C5.9680153,16 5.5426143,15.6244636 5.48006069,15.1240347 L5.35541212,14.1268461 C4.50835873,13.8260382 3.734424,13.3519174 3.08105648,12.738019 L2.68195695,12.9491083 C2.23615038,13.1849016 1.68452895,13.0518323 1.395261,12.6387149 L0.180874772,10.9043916 C-0.108393171,10.4912742 -0.0447717189,9.92740722 0.329276302,9.58913213 L1.0926419,8.89877272 C1.05165681,8.60267186 1.03094746,8.30258396 1.03094746,8 C1.03094746,7.39749919 1.11307184,6.80568847 1.27305192,6.23684454 L0.56608222,5.59748749 C0.192034199,5.2592124 0.128412747,4.69534544 0.41768069,4.282228 L1.63206692,2.54790473 C1.92133486,2.13478729 2.4729563,2.00171805 2.91876287,2.23751131 L3.77825629,2.69210929 C4.26345375,2.3484871 4.7938307,2.07257011 5.35541257,1.87315026 L5.48006069,0.875965265 Z" id="Combined-Shape" fill="#000000" fill-rule="nonzero"></path>
</svg>
