<svg width="24px" height="24px" viewBox="0 0 24 24" version="1.1" xmlns="http://www.w3.org/2000/svg" xmlns:xlink="http://www.w3.org/1999/xlink" fill-rule="evenodd">
	<path d="M21.2,12 C21.2,11.5 21.2,11 21.1,10.6 L24,8 L21.5,3.9 L18,5.1 C17.2,4.4 16.2,3.8 15.1,3.4 L14.4,0 L9.6,0 L8.8,3.4 C7.7,3.8 6.8,4.4 5.9,5.1 L2.5,3.9 L0,8 L2.9,10.6 C2.8,11 2.8,11.5 2.8,12 C2.8,12.5 2.8,13 2.9,13.4 L0,16 L2.5,20.1 L6,18.9 C6.8,19.6 7.8,20.2 8.9,20.6 L9.6,24 L14.4,24 L15.2,20.6 C16.3,20.2 17.2,19.6 18.1,18.9 L21.6,20 L24,16 L21.1,13.4 C21.2,13 21.2,12.5 21.2,12 L21.2,12 L21.2,12 Z M12,15 C10.3,15 9,13.7 9,12 C9,10.3 10.3,9 12,9 C13.7,9 15,10.3 15,12 C15,13.7 13.7,15 12,15 L12,15 L12,15 Z" id="Shape" fill="#000000"></path>
</svg>