<svg xmlns="http://www.w3.org/2000/svg" width="16" height="14" viewBox="0 0 16 14">
  <path d="M15.3330584,1.75 L3.59110527,1.75 L3.35974453,0.535308594 C3.30060574,0.224929688 3.02530063,0 2.7044956,0 L0.333332791,0 C0.149249757,0 0,0.146917969 0,0.328125 L0,0.546875 C0,0.728082031 0.149249757,0.875 0.333332791,0.875 L2.5199959,0.875 L4.46240941,11.0727422 C4.17513209,11.3835859 3.99999349,11.7966406 3.99999349,12.25 C3.99999349,13.2164922 4.79593664,14 5.77776838,14 C6.75960011,14 7.55554326,13.2164922 7.55554326,12.25 C7.55588948,11.9427351 7.47363346,11.6408513 7.31712698,11.375 L11.3495371,11.375 C11.1930306,11.6408513 11.1107746,11.9427351 11.1111208,12.25 C11.1111208,13.2164922 11.907064,14 12.8888957,14 C13.8707274,14 14.6666706,13.2164922 14.6666706,12.25 C14.6666706,11.7580039 14.4601431,11.31375 14.1281159,10.9957969 C14.0561438,10.7157695 13.7988664,10.5 13.4813114,10.5 L5.25776922,10.5 L4.92443643,8.75 L14.1294492,8.75 C14.4452265,8.75 14.7176983,8.53190625 14.7821148,8.22759766 L15.9857518,2.54009766 C16.0719738,2.13256641 15.7559466,1.75 15.3330584,1.75 Z M6.66665582,12.25 C6.66665582,12.7324805 6.26790647,13.125 5.77776838,13.125 C5.28763028,13.125 4.88888093,12.7324805 4.88888093,12.25 C4.88888093,11.7675195 5.28763028,11.375 5.77776838,11.375 C6.26790647,11.375 6.66665582,11.7675195 6.66665582,12.25 Z M12.8888679,13.125 C12.3987298,13.125 11.9999805,12.7324805 11.9999805,12.25 C11.9999805,11.7675195 12.3987298,11.375 12.8888679,11.375 C13.379006,11.375 13.7777554,11.7675195 13.7777554,12.25 C13.7777554,12.7324805 13.379006,13.125 12.8888679,13.125 Z M13.9487551,7.875 L4.75777004,7.875 L3.75777166,2.625 L15.0598644,2.625 L13.9487551,7.875 Z"/>
</svg>
