<svg xmlns="http://www.w3.org/2000/svg" width="16" height="16" viewBox="0 0 16 16">
  <path d="M1.50389111,7.5 L2.38664328,14.5620174 C2.41792008,14.8122318 2.63062058,15 2.88278222,15 L13.1210196,15 C13.3723659,15 13.5846452,14.8134106 13.6168884,14.564141 L14.5306397,7.5 L13.507755,7.5 C13.5028888,7.5000709 13.4980245,7.5000708 13.4931638,7.5 L2.50684037,7.5 C2.50197545,7.5000708 2.49711118,7.5000709 2.49224499,7.5 L1.50389111,7.5 Z M0.499947751,7.5 C0.223829388,7.49997176 8.8817842e-16,7.27612496 8.8817842e-16,7 C8.8817842e-16,6.72385763 0.223857625,6.5 0.5,6.5 L2.23240812,6.5 L6.08397485,0.722649902 C6.23715108,0.492885558 6.54758575,0.430798623 6.7773501,0.583974853 C7.00711444,0.737151082 7.06920138,1.04758575 6.91602515,1.2773501 L3.43425855,6.5 L12.5657415,6.5 L9.08397485,1.2773501 C8.93079862,1.04758575 8.99288556,0.737151082 9.2226499,0.583974853 C9.45241425,0.430798623 9.76284892,0.492885558 9.91602515,0.722649902 L13.7675919,6.5 L15.5,6.5 C15.7761424,6.5 16,6.72385763 16,7 C16,7.26442375 15.7947389,7.48090619 15.5348603,7.49880368 C15.5348847,7.52036794 15.5335148,7.54218007 15.5306742,7.56414097 L14.6086262,14.6924229 C14.5118966,15.4402318 13.8750585,16 13.1210196,16 L2.88278222,16 C2.12629731,16 1.48819581,15.4366953 1.3943654,14.6860521 L0.503861062,7.56201737 C0.501256057,7.54117733 0.499973466,7.52047679 0.499947751,7.5 Z M4,9.5 C4,9.22385763 4.22385763,9 4.5,9 C4.77614237,9 5,9.22385763 5,9.5 L5,13.5 C5,13.7761424 4.77614237,14 4.5,14 C4.22385763,14 4,13.7761424 4,13.5 L4,9.5 Z M11,9.5 C11,9.22385763 11.2238576,9 11.5,9 C11.7761424,9 12,9.22385763 12,9.5 L12,13.5 C12,13.7761424 11.7761424,14 11.5,14 C11.2238576,14 11,13.7761424 11,13.5 L11,9.5 Z M7.5,9.5 C7.5,9.22385763 7.72385763,9 8,9 C8.27614237,9 8.5,9.22385763 8.5,9.5 L8.5,13.5 C8.5,13.7761424 8.27614237,14 8,14 C7.72385763,14 7.5,13.7761424 7.5,13.5 L7.5,9.5 Z"/>
</svg>
