<?xml version="1.0" encoding="UTF-8"?>
<svg width="16px" height="16px" viewBox="0 0 16 16" version="1.1" xmlns="http://www.w3.org/2000/svg" xmlns:xlink="http://www.w3.org/1999/xlink">
    <!-- Generator: Sketch 50.2 (55047) - http://www.bohemiancoding.com/sketch -->
    <title>stop--outline</title>
    <desc>Created with Sketch.</desc>
    <defs></defs>
    <path d="M8,15 C11.8659932,15 15,11.8659932 15,8 C15,4.13400675 11.8659932,1 8,1 C4.13400675,1 1,4.13400675 1,8 C1,11.8659932 4.13400675,15 8,15 Z M8,16 C3.581722,16 0,12.418278 0,8 C0,3.581722 3.581722,0 8,0 C12.418278,0 16,3.581722 16,8 C16,12.418278 12.418278,16 8,16 Z" id="Oval-16" fill="#000000" fill-rule="nonzero"></path>
    <path d="M6,6 L6,10 L10,10 L10,6 L6,6 Z M6,5 L10,5 C10.5522847,5 11,5.44771525 11,6 L11,10 C11,10.5522847 10.5522847,11 10,11 L6,11 C5.44771525,11 5,10.5522847 5,10 L5,6 C5,5.44771525 5.44771525,5 6,5 Z" id="Rectangle-14" fill="#000000" fill-rule="nonzero"></path>
</svg>
