<?xml version="1.0" encoding="UTF-8" standalone="no"?>
<svg width="16px" height="16px" viewBox="0 0 16 16" version="1.1" xmlns="http://www.w3.org/2000/svg" xmlns:xlink="http://www.w3.org/1999/xlink">
    <!-- Generator: Sketch 50.2 (55047) - http://www.bohemiancoding.com/sketch -->
    <title>stop--outline</title>
    <desc>Created with Sketch.</desc>
    <defs></defs>
    <g id="stop--outline" stroke="none" stroke-width="1" fill="none" fill-rule="evenodd">
        <path d="M8,14.5 C11.5898509,14.5 14.5,11.5898509 14.5,8 C14.5,4.41014913 11.5898509,1.5 8,1.5 C4.41014913,1.5 1.5,4.41014913 1.5,8 C1.5,11.5898509 4.41014913,14.5 8,14.5 Z M8,16 C3.581722,16 0,12.418278 0,8 C0,3.581722 3.581722,0 8,0 C12.418278,0 16,3.581722 16,8 C16,12.418278 12.418278,16 8,16 Z" id="Oval-16" fill="#000000" fill-rule="nonzero"></path>
        <path d="M6,6 L6,10 L10,10 L10,6 L6,6 Z M5,4 L11,4 C11.5522847,4 12,4.44771525 12,5 L12,11 C12,11.5522847 11.5522847,12 11,12 L5,12 C4.44771525,12 4,11.5522847 4,11 L4,5 C4,4.44771525 4.44771525,4 5,4 Z" id="Rectangle-14" fill="#000000" fill-rule="nonzero"></path>
    </g>
</svg>