<?xml version="1.0" encoding="utf-8"?>
<!-- Generator: Adobe Illustrator 19.1.0, SVG Export Plug-In . SVG Version: 6.00 Build 0)  -->
<!DOCTYPE svg PUBLIC "-//W3C//DTD SVG 1.1//EN" "http://www.w3.org/Graphics/SVG/1.1/DTD/svg11.dtd">
<svg version="1.1" id="Layer_1" xmlns="http://www.w3.org/2000/svg" xmlns:xlink="http://www.w3.org/1999/xlink" x="0px" y="0px"
	 width="18px" height="24px" viewBox="-2 0 18 24" style="enable-background:new -2 0 18 24;" xml:space="preserve">
<g id="Icon">
	<g>
		<path d="M7,6.5c-1.6,0-3.1,0.4-4.4,1.2V6.5c0-2.3,2-4.4,4.4-4.4c1.2,0,2.3,0.5,3.1,1.3c0.5-0.5,1.1-1.1,1.5-1.5
			C10.4,0.8,8.8,0,7,0C3.5,0,0.5,3,0.5,6.5v3C-0.9,11-1.7,13-1.7,15.3c0,4.8,3.9,8.7,8.7,8.7s8.7-3.9,8.7-8.7S11.8,6.5,7,6.5z
			 M11,17.8l-1.5,1.5L7,16.8l-2.5,2.5L3,17.8l2.5-2.5L3,12.8l1.5-1.5L7,13.7l2.5-2.5l1.5,1.6l-2.5,2.5L11,17.8z"/>
	</g>
</g>
</svg>
