<?xml version="1.0" encoding="UTF-8"?>
<svg width="16px" height="11px" viewBox="0 0 16 11" version="1.1" xmlns="http://www.w3.org/2000/svg" xmlns:xlink="http://www.w3.org/1999/xlink">
    <!-- Generator: Sketch 50.2 (55047) - http://www.bohemiancoding.com/sketch -->
    <title>visibility-on</title>
    <desc>Created with Sketch.</desc>
    <defs></defs>
    <g id="visibility-on" stroke="none" stroke-width="1" fill="none" fill-rule="evenodd">
        <path d="M8,7.5 C9.1045695,7.5 10,6.6045695 10,5.5 C10,4.3954305 9.1045695,3.5 8,3.5 C6.8954305,3.5 6,4.3954305 6,5.5 C6,6.6045695 6.8954305,7.5 8,7.5 Z M8,8.5 C6.34314575,8.5 5,7.15685425 5,5.5 C5,3.84314575 6.34314575,2.5 8,2.5 C9.65685425,2.5 11,3.84314575 11,5.5 C11,7.15685425 9.65685425,8.5 8,8.5 Z" id="Oval-20" fill="#000000" fill-rule="nonzero"></path>
        <path d="M11.1902198,8.73106356 C13.1663611,6.75492232 13.7308519,4.09363138 12.8444855,0.61707479 C9.43577707,-0.205680408 6.80520053,0.388160815 4.82625882,2.36710253 C2.84789702,4.34546432 2.27501332,6.95332325 3.13848579,10.3228446 C6.57606584,11.2501534 9.21468295,10.7066005 11.1902198,8.73106356 Z M4.11915204,1.65999575 C6.47617464,-0.697026854 9.65528681,-1.31864316 13.6564885,-0.204853153 C14.8407365,3.86680657 14.2543492,7.08114774 11.8973266,9.43817034 C9.54030402,11.7951929 6.34887894,12.3586642 2.32305138,11.128584 C1.16342921,7.17321444 1.76212943,4.01701835 4.11915204,1.65999575 Z" id="Rectangle-17" fill="#000000" fill-rule="nonzero" transform="translate(8.000000, 5.510164) rotate(45.000000) translate(-8.000000, -5.510164) "></path>
    </g>
</svg>