<?xml version="1.0" encoding="UTF-8"?>
<svg width="16px" height="15px" viewBox="0 0 16 15" version="1.1" xmlns="http://www.w3.org/2000/svg" xmlns:xlink="http://www.w3.org/1999/xlink">
    <!-- Generator: Sketch 50.2 (55047) - http://www.bohemiancoding.com/sketch -->
    <title>warning--solid</title>
    <desc>Created with Sketch.</desc>
    <defs></defs>
    <g id="warning--solid" stroke="none" stroke-width="1" fill="none" fill-rule="evenodd">
        <path d="M0.482390279,14.9776309 C0.400407776,14.9776309 0.319682976,14.957472 0.247325436,14.9189296 C0.00360290803,14.7891068 -0.0887311231,14.4862886 0.041091605,14.242566 L7.49757567,0.244145491 C7.54391474,0.157150901 7.61493262,0.0857930934 7.70170495,0.039039146 C7.94480478,-0.0919458974 8.24806049,-0.0010589014 8.37904554,0.242040933 L15.9215588,14.2404615 C15.9608295,14.3133455 15.9813876,14.3948404 15.9813876,14.4776309 C15.9813876,14.7537733 15.75753,14.9776309 15.4813876,14.9776309 L0.482390279,14.9776309 Z M7.98171661,12.7309813 C8.39498566,12.7309813 8.73000642,12.3956948 8.73000642,11.982098 C8.73000642,11.5685013 8.39498566,11.2332148 7.98171661,11.2332148 C7.56844755,11.2332148 7.23342679,11.5685013 7.23342679,11.982098 C7.23342679,12.3956948 7.56844755,12.7309813 7.98171661,12.7309813 Z M7.48285673,4.99252142 L7.48285673,9.98507615 L8.48057648,9.98507615 L8.48057648,4.99252142 L7.48285673,4.99252142 Z" id="Combined-Shape" fill="#000000"></path>
    </g>
</svg>