<svg width="12px" height="12px" viewBox="0 0 12 12" fill-rule="evenodd" version="1.1" xmlns="http://www.w3.org/2000/svg" xmlns:xlink="http://www.w3.org/1999/xlink">
  <path d="M9.6,11.5 L6.6,11.5 L5.2,9.1 L5.2,9.1 L5.1,9 L5.1,9 C5.1,9 5.2,9 5.2,9.1 C5.7,9.3 6.1,9.4 6.6,9.4 C8.2,9.4 9.5,8.2 9.7,6.6 L9.7,6.5 L9.7,6.5 L11.1,9 L9.6,11.5 L9.6,11.5 Z"></path>
  <path d="M9.5,6 C9.5,6 9.5,6.1 9.5,6 L6.6,6.1 L5.2,3.6 L5.2,3.6 L5.3,3.6 L9.5,6 L9.5,6 Z"></path>
  <path d="M5.6,3.5 C5.9,3.4 6.3,3.3 6.6,3.3 C7,3.3 7.4,3.4 7.7,3.5 C8,3.6 8.4,3.9 8.6,4.1 C8.9,4.4 9.1,4.7 9.2,5 C9.3,5.2 9.3,5.4 9.4,5.6 L5.6,3.5 L5.6,3.5 Z"></path>
  <polygon points="6.6 6.3 6.6 6.3 6.6 6.3 6.6 6.3 9.4 6.3 9.4 6.3 9.4 6.4 5.2 8.8 5.1 8.8 5.1 8.8 6.6 6.3"></polygon>
  <path d="M9.4,6.7 C9.4,6.9 9.3,7.1 9.2,7.3 C9.1,7.6 8.8,8 8.6,8.2 C8.3,8.5 8,8.7 7.7,8.8 C7.3,9 7,9 6.6,9 C6.3,9 5.9,8.9 5.6,8.8 L9.4,6.7 L9.4,6.7 Z"></path>
  <path d="M6.6,0.9 L9.6,0.9 L11.1,3.5 L9.7,6 L9.7,6 L9.7,5.9 C9.5,4.3 8.2,3.1 6.6,3.1 C6.2,3.1 5.7,3.2 5.4,3.4 C5.4,3.4 5.3,3.4 5.3,3.5 L6.6,0.9 L6.6,0.9 Z"></path>
  <path d="M4.9,3.8 L4.9,3.8 L4.9,3.8 L6.4,6.2 L6.4,6.2 L6.4,6.2 L5,8.7 L5,8.7 C5,8.7 4.9,8.7 4.9,8.6 L4.9,3.8 L4.9,3.8 Z"></path>
  <path d="M1.9,3.6 L4.8,3.6 L4.7,3.7 C3.9,4.3 3.4,5.2 3.4,6.2 C3.4,7.2 3.9,8.1 4.7,8.7 L4.8,8.8 L4.8,8.8 L1.9,8.8 L0.4,6.2 L1.9,3.6 L1.9,3.6 Z"></path>
  <path d="M4.7,4 L4.7,8.5 C4.6,8.4 4.6,8.4 4.5,8.3 C4.3,8 4,7.7 3.9,7.4 C3.7,7 3.7,6.6 3.7,6.2 C3.7,5.8 3.7,5.4 3.9,5.1 C4,4.7 4.3,4.4 4.5,4.2 C4.6,4.1 4.6,4 4.7,4 L4.7,4 Z"></path>
</svg>
