<?xml version="1.0" encoding="utf-8"?>
<svg xmlns="http://www.w3.org/2000/svg" viewBox="-602 388.4 17.6 17.6" style="enable-background:new -602 388.4 17.6 17.6;">
	<path d="M-589.4,402.5h-3l-1.4-2.4l0,0l-0.1-0.1l0,0c0,0,0.1,0,0.1,0.1c0.5,0.2,0.9,0.3,1.4,0.3c1.6,0,2.9-1.2,3.1-2.8 v-0.1l0,0l1.4,2.5L-589.4,402.5z"/>
	<path d="M-589.5,397C-589.5,397-589.5,397.1-589.5,397l-2.9,0.1l-1.4-2.5l0,0h0.1L-589.5,397z"/>
	<path d="M-593.4,394.5c0.3-0.1,0.7-0.2,1-0.2c0.4,0,0.8,0.1,1.1,0.2s0.7,0.4,0.9,0.6c0.3,0.3,0.5,0.6,0.6,0.9 c0.1,0.2,0.1,0.4,0.2,0.6L-593.4,394.5z"/>
	<path d="M-592.4,397.3L-592.4,397.3L-592.4,397.3L-592.4,397.3h2.8l0,0v0.1l-4.2,2.4h-0.1l0,0L-592.4,397.3 L-592.4,397.3z"/>
	<path d="M-589.6,397.7c0,0.2-0.1,0.4-0.2,0.6c-0.1,0.3-0.4,0.7-0.6,0.9c-0.3,0.3-0.6,0.5-0.9,0.6 c-0.4,0.2-0.7,0.2-1.1,0.2c-0.3,0-0.7-0.1-1-0.2L-589.6,397.7z"/>
	<path d="M-592.4,391.9h3l1.5,2.6l-1.4,2.5l0,0v-0.1c-0.2-1.6-1.5-2.8-3.1-2.8c-0.4,0-0.9,0.1-1.2,0.3 c0,0-0.1,0-0.1,0.1L-592.4,391.9z"/>
	<path d="M-594.1,394.8C-594.1,394.8-594,394.8-594.1,394.8L-594.1,394.8l1.5,2.4l0,0l0,0l-1.4,2.5l0,0 c0,0-0.1,0-0.1-0.1V394.8z"/>
	<path d="M-597.1,394.6h2.9l-0.1,0.1c-0.8,0.6-1.3,1.5-1.3,2.5s0.5,1.9,1.3,2.5l0.1,0.1l0,0h-2.9l-1.5-2.6L-597.1,394.6 z"/>
	<path d="M-594.3,395v4.5c-0.1-0.1-0.1-0.1-0.2-0.2c-0.2-0.3-0.5-0.6-0.6-0.9c-0.2-0.4-0.2-0.8-0.2-1.2 c0-0.4,0-0.8,0.2-1.1c0.1-0.4,0.4-0.7,0.6-0.9C-594.4,395.1-594.4,395-594.3,395z"/>
</svg>
