<?xml version="1.0" encoding="utf-8"?>
<svg xmlns="http://www.w3.org/2000/svg" viewBox="-602 388 18 18" style="enable-background:new -602 388 18 18;">
<g>
	<path d="M-599.3,390.6c-3.5,3.5-3.5,9.2,0,12.7s9.2,3.5,12.7,0s3.5-9.2,0-12.7S-595.8,387.1-599.3,390.6z M-587.4,402.5c-3,3-7.9,3-10.9,0s-3-7.9,0-10.9s7.9-3,10.9,0S-584.4,399.4-587.4,402.5z"/>
	<path d="M-595.2,400.8l-1.5-1.5l2.3-2.3l-2.3-2.3l1.5-1.5l2.3,2.3l2.3-2.3l1.5,1.5l-2.3,2.3l2.3,2.3l-1.5,1.5l-2.3-2.3 L-595.2,400.8z"/>
</g>
</svg>
