<?xml version="1.0" encoding="UTF-8" standalone="no"?>
<svg width="32px" height="32px" viewBox="0 0 32 32" version="1.1" xmlns="http://www.w3.org/2000/svg" xmlns:xlink="http://www.w3.org/1999/xlink" fill-rule="evenodd">
    <!-- Generator: Sketch 3.8.3 (29802) - http://www.bohemiancoding.com/sketch -->
    <title>Artboard 1</title>
    <desc>Created with Sketch.</desc>
    <defs></defs>
    <g id="Artboard-1" fill="#000000">
        <path d="M5.41016334,5.84573503 C-0.306715064,11.5626134 -0.306715064,20.8729583 5.41016334,26.5898367 C11.1270417,32.3067151 20.4373866,32.3067151 26.154265,26.5898367 C31.8711434,20.8729583 31.8711434,11.5626134 26.154265,5.84573503 C20.4373866,0.128856624 11.1270417,0.128856624 5.41016334,5.84573503 L5.41016334,5.84573503 L5.41016334,5.84573503 Z M24.8475499,25.2831216 C19.9473684,30.1833031 11.9437387,30.1833031 7.04355717,25.2831216 C2.14337568,20.3829401 2.14337568,12.3793103 7.04355717,7.47912886 C11.9437387,2.57894737 19.9473684,2.57894737 24.8475499,7.47912886 C29.7477314,12.3793103 29.7477314,20.2196007 24.8475499,25.2831216 L24.8475499,25.2831216 L24.8475499,25.2831216 Z" id="Shape"></path>
        <polygon id="Shape" points="12.107078 22.5063521 9.6569873 20.0562613 13.4137931 16.2994555 9.6569873 12.5426497 12.107078 10.092559 15.8638838 13.8493648 19.6206897 10.092559 22.0707804 12.5426497 18.3139746 16.2994555 22.0707804 20.0562613 19.6206897 22.5063521 15.8638838 18.7495463"></polygon>
    </g>
</svg>
