<svg width="19px" height="19px" viewBox="0 0 19 19" fill-rule="evenodd" version="1.1" xmlns="http://www.w3.org/2000/svg" xmlns:xlink="http://www.w3.org/1999/xlink">
  <path d="M2.7,3.6 C-0.8,7.1 -0.8,12.8 2.7,16.3 C6.2,19.8 11.9,19.8 15.4,16.3 C18.9,12.8 18.9,7.1 15.4,3.6 C11.9,0.1 6.2,0.1 2.7,3.6 L2.7,3.6 Z M14.6,15.5 C11.6,18.5 6.7,18.5 3.7,15.5 C0.7,12.5 0.7,7.6 3.7,4.6 C6.7,1.6 11.6,1.6 14.6,4.6 C17.6,7.6 17.6,12.4 14.6,15.5 L14.6,15.5 Z"></path>
  <polygon points="6.8 13.8 5.3 12.3 7.6 10 5.3 7.7 6.8 6.2 9.1 8.5 11.4 6.2 12.9 7.7 10.6 10 12.9 12.3 11.4 13.8 9.1 11.5"></polygon>
</svg>
