<?xml version="1.0" encoding="UTF-8" standalone="no"?>
<svg width="32px" height="32px" viewBox="0 0 32 32" version="1.1" xmlns="http://www.w3.org/2000/svg" xmlns:xlink="http://www.w3.org/1999/xlink" fill-rule="evenodd">
    <!-- Generator: Sketch 3.8.3 (29802) - http://www.bohemiancoding.com/sketch -->
    <title>Artboard 1</title>
    <desc>Created with Sketch.</desc>
    <defs></defs>
    <g id="Artboard-1" fill="#000000">
        <path d="M16,0.953846154 C7.66666667,0.953846154 1,7.63076923 1,15.9769231 C1,24.3230769 7.66666667,31 16,31 C24.3333333,31 31,24.3230769 31,15.9769231 C31,7.63076923 24.3333333,0.953846154 16,0.953846154 L16,0.953846154 L16,0.953846154 Z M16,29.5692308 C8.5,29.5692308 2.30952381,23.4884615 2.30952381,15.9769231 C2.30952381,8.46538462 8.38095238,2.26538462 16,2.26538462 C23.6190476,2.26538462 29.5714286,8.46538462 29.5714286,15.9769231 C29.5714286,23.4884615 23.6190476,29.5692308 16,29.5692308 L16,29.5692308 L16,29.5692308 Z" id="Shape"></path>
        <path d="M16,5.60384615 C10.2857143,5.60384615 5.64285714,10.2538462 5.64285714,15.9769231 C5.64285714,21.7 10.2857143,26.35 16,26.35 C21.7142857,26.35 26.3571429,21.7 26.3571429,15.9769231 C26.3571429,10.2538462 21.8333333,5.60384615 16,5.60384615 L16,5.60384615 L16,5.60384615 Z M17.4285714,22.8923077 L14.452381,22.8923077 L14.452381,20.0307692 L17.4285714,20.0307692 L17.4285714,22.8923077 L17.4285714,22.8923077 L17.4285714,22.8923077 Z M17.1904762,18.1230769 L17.1904762,18.8384615 L14.5714286,18.8384615 L14.5714286,18.0038462 C14.8095238,14.6653846 17.6666667,15.0230769 17.6666667,12.9961538 C17.6666667,11.8038462 17.0714286,11.3269231 16,11.3269231 C14.5714286,11.3269231 14.0952381,12.4 14.0952381,13.8307692 L11.2380952,13.8307692 C11.2380952,11.0884615 13.0238095,9.06153846 15.8809524,9.06153846 C19.452381,9.06153846 20.6428571,11.3269231 20.6428571,12.7576923 C20.7619048,16.3346154 17.6666667,15.8576923 17.1904762,18.1230769 L17.1904762,18.1230769 L17.1904762,18.1230769 Z" id="Shape"></path>
    </g>
</svg>
