<svg width="27px" height="27px" viewBox="0 0 27 27" fill-rule="evenodd" version="1.1" xmlns="http://www.w3.org/2000/svg" xmlns:xlink="http://www.w3.org/1999/xlink">
  <path d="M13.5,0.8 C6.5,0.8 0.9,6.4 0.9,13.4 C0.9,20.4 6.5,26 13.5,26 C20.5,26 26.1,20.4 26.1,13.4 C26.1,6.4 20.5,0.8 13.5,0.8 L13.5,0.8 Z M13.5,24.8 C7.2,24.8 2,19.7 2,13.4 C2,7.1 7.1,1.9 13.5,1.9 C19.9,1.9 24.9,7.1 24.9,13.4 C24.9,19.7 19.9,24.8 13.5,24.8 L13.5,24.8 Z"></path>
  <path d="M13.5,4.7 C8.7,4.7 4.8,8.6 4.8,13.4 C4.8,18.2 8.7,22.1 13.5,22.1 C18.3,22.1 22.2,18.2 22.2,13.4 C22.2,8.6 18.4,4.7 13.5,4.7 L13.5,4.7 Z M14.7,19.2 L12.2,19.2 L12.2,16.8 L14.7,16.8 L14.7,19.2 L14.7,19.2 Z M14.5,15.2 L14.5,15.8 L12.3,15.8 L12.3,15.1 C12.5,12.3 14.9,12.6 14.9,10.9 C14.9,9.9 14.4,9.5 13.5,9.5 C12.3,9.5 11.9,10.4 11.9,11.6 L9.5,11.6 C9.5,9.3 11,7.6 13.4,7.6 C16.4,7.6 17.4,9.5 17.4,10.7 C17.5,13.7 14.9,13.3 14.5,15.2 L14.5,15.2 Z"></path>
</svg>
