<?xml version="1.0" encoding="utf-8"?>
<svg xmlns="http://www.w3.org/2000/svg" viewBox="-598 384.9 25.1 25.1" style="enable-background:new -598 384.9 25.1 25.1;">
	<path d="M-585.5,384.8c-7,0-12.6,5.6-12.6,12.6s5.6,12.6,12.6,12.6s12.6-5.6,12.6-12.6S-578.5,384.8-585.5,384.8z M-585.5,408.8c-6.3,0-11.5-5.1-11.5-11.4s5.1-11.5,11.5-11.5s11.4,5.2,11.4,11.5S-579.1,408.8-585.5,408.8z"/>
	<path d="M-585.5,388.7c-4.8,0-8.7,3.9-8.7,8.7c0,4.8,3.9,8.7,8.7,8.7s8.7-3.9,8.7-8.7 C-576.8,392.6-580.6,388.7-585.5,388.7z M-584.3,403.2h-2.5v-2.4h2.5V403.2z M-584.5,399.2v0.6h-2.2v-0.7c0.2-2.8,2.6-2.5,2.6-4.2 c0-1-0.5-1.4-1.4-1.4c-1.2,0-1.6,0.9-1.6,2.1h-2.4c0-2.3,1.5-4,3.9-4c3,0,4,1.9,4,3.1C-581.5,397.7-584.1,397.3-584.5,399.2z"/>
</svg>
