<?xml version="1.0" encoding="UTF-8" standalone="no"?>
<svg width="32px" height="32px" viewBox="0 0 32 32" version="1.1" xmlns="http://www.w3.org/2000/svg" xmlns:xlink="http://www.w3.org/1999/xlink" fill-rule="evenodd">
    <!-- Generator: Sketch 3.8.3 (29802) - http://www.bohemiancoding.com/sketch -->
    <title>Artboard 1</title>
    <desc>Created with Sketch.</desc>
    <defs></defs>
    <g id="Artboard-1" fill="#000000">
        <path d="M16,0.953846154 C7.7037037,0.953846154 1.06666667,7.63076923 1.06666667,15.9769231 C1.06666667,24.3230769 7.7037037,31 16,31 C24.2962963,31 30.9333333,24.3230769 30.9333333,15.9769231 C30.9333333,7.63076923 24.2962963,0.953846154 16,0.953846154 L16,0.953846154 L16,0.953846154 Z M16,29.5692308 C8.53333333,29.5692308 2.37037037,23.4884615 2.37037037,15.9769231 C2.37037037,8.46538462 8.41481481,2.26538462 16,2.26538462 C23.5851852,2.26538462 29.5111111,8.46538462 29.5111111,15.9769231 C29.5111111,23.4884615 23.5851852,29.5692308 16,29.5692308 L16,29.5692308 L16,29.5692308 Z" id="Shape"></path>
        <path d="M16,26.2307692 C21.6888889,26.2307692 26.1925926,21.7 26.3111111,15.9769231 C26.1925926,10.2538462 21.6888889,5.60384615 16,5.60384615 C10.3111111,5.60384615 5.68888889,10.2538462 5.68888889,15.9769231 C5.80740741,21.5807692 10.4296296,26.2307692 16,26.2307692 L16,26.2307692 L16,26.2307692 Z M16.8296296,23.3692308 C16.7111111,23.8461538 16.3555556,24.0846154 16,24.0846154 C15.5259259,24.0846154 15.1703704,23.7269231 15.1703704,23.3692308 C14.5777778,23.3692308 14.1037037,22.8923077 14.1037037,22.2961538 L18.0148148,22.2961538 C18.0148148,22.7730769 17.5407407,23.25 16.8296296,23.3692308 L16.8296296,23.3692308 L16.8296296,23.3692308 Z M17.7777778,21.4615385 L14.3407407,21.4615385 C14.1037037,21.4615385 13.8666667,21.2230769 13.8666667,20.9846154 C13.8666667,20.7461538 14.1037037,20.5076923 14.3407407,20.5076923 L17.7777778,20.5076923 C18.0148148,20.5076923 18.2518519,20.7461538 18.2518519,20.9846154 C18.2518519,21.2230769 18.0148148,21.4615385 17.7777778,21.4615385 L17.7777778,21.4615385 L17.7777778,21.4615385 Z M16,8.46538462 C18.6074074,8.46538462 20.6222222,10.6115385 20.6222222,13.1153846 C20.6222222,14.1884615 20.2666667,15.2615385 19.6740741,15.9769231 C19.2,16.6923077 18.6074074,17.5269231 18.1333333,18.2423077 L18.1333333,19.7923077 L13.8666667,19.7923077 L13.8666667,18.2423077 C13.3925926,17.4076923 12.8,16.6923077 12.3259259,15.9769231 C11.7333333,15.1423077 11.3777778,14.1884615 11.3777778,13.1153846 C11.4962963,10.4923077 13.6296296,8.46538462 16,8.46538462 L16,8.46538462 L16,8.46538462 Z" id="Shape"></path>
    </g>
</svg>
