<svg width="27px" height="27px" viewBox="0 0 27 27" fill-rule="evenodd" version="1.1" xmlns="http://www.w3.org/2000/svg" xmlns:xlink="http://www.w3.org/1999/xlink">
  <path d="M13.5,0.8 C6.5,0.8 0.9,6.4 0.9,13.4 C0.9,20.4 6.5,26 13.5,26 C20.5,26 26.1,20.4 26.1,13.4 C26.1,6.4 20.5,0.8 13.5,0.8 L13.5,0.8 Z M13.5,24.8 C7.2,24.8 2,19.7 2,13.4 C2,7.1 7.1,1.9 13.5,1.9 C19.9,1.9 24.9,7.1 24.9,13.4 C24.9,19.7 19.9,24.8 13.5,24.8 L13.5,24.8 Z"></path>
  <path d="M13.5,22 C18.3,22 22.1,18.2 22.2,13.4 C22.1,8.6 18.3,4.7 13.5,4.7 C8.7,4.7 4.8,8.6 4.8,13.4 C4.9,18.1 8.8,22 13.5,22 L13.5,22 Z M14.2,19.6 C14.1,20 13.8,20.2 13.5,20.2 C13.1,20.2 12.8,19.9 12.8,19.6 C12.3,19.6 11.9,19.2 11.9,18.7 L15.2,18.7 C15.2,19.1 14.8,19.5 14.2,19.6 L14.2,19.6 Z M15,18 L12.1,18 C11.9,18 11.7,17.8 11.7,17.6 C11.7,17.4 11.9,17.2 12.1,17.2 L15,17.2 C15.2,17.2 15.4,17.4 15.4,17.6 C15.4,17.8 15.2,18 15,18 L15,18 Z M13.5,7.1 C15.7,7.1 17.4,8.9 17.4,11 C17.4,11.9 17.1,12.8 16.6,13.4 C16.2,14 15.7,14.7 15.3,15.3 L15.3,16.6 L11.7,16.6 L11.7,15.3 C11.3,14.6 10.8,14 10.4,13.4 C9.9,12.7 9.6,11.9 9.6,11 C9.7,8.8 11.5,7.1 13.5,7.1 L13.5,7.1 Z"></path>
</svg>
