<?xml version="1.0" encoding="utf-8"?>
<svg xmlns="http://www.w3.org/2000/svg" viewBox="-598 384.9 25.1 25.1" style="enable-background:new -598 384.9 25.1 25.1;">
	<path d="M-585.5,384.8c-7,0-12.6,5.6-12.6,12.6s5.6,12.6,12.6,12.6s12.6-5.6,12.6-12.6S-578.5,384.8-585.5,384.8z M-585.5,408.8c-6.3,0-11.5-5.1-11.5-11.4s5.1-11.5,11.5-11.5s11.4,5.2,11.4,11.5S-579.1,408.8-585.5,408.8z"/>
	<path d="M-585.5,406c4.8,0,8.6-3.8,8.7-8.6c-0.1-4.8-3.9-8.7-8.7-8.7s-8.7,3.9-8.7,8.7 C-594.1,402.1-590.2,406-585.5,406z M-584.8,403.6c-0.1,0.4-0.4,0.6-0.7,0.6c-0.4,0-0.7-0.3-0.7-0.6c-0.5,0-0.9-0.4-0.9-0.9h3.3 C-583.8,403.1-584.2,403.5-584.8,403.6z M-584,402h-2.9c-0.2,0-0.4-0.2-0.4-0.4s0.2-0.4,0.4-0.4h2.9c0.2,0,0.4,0.2,0.4,0.4 S-583.8,402-584,402z M-585.5,391.1c2.2,0,3.9,1.8,3.9,3.9c0,0.9-0.3,1.8-0.8,2.4c-0.4,0.6-0.9,1.3-1.3,1.9v1.3h-3.6v-1.3 c-0.4-0.7-0.9-1.3-1.3-1.9c-0.5-0.7-0.8-1.5-0.8-2.4C-589.3,392.8-587.5,391.1-585.5,391.1z"/>
</svg>
