<svg width="12px" height="12px" viewBox="0 0 12 12" fill-rule="evenodd" version="1.1" xmlns="http://www.w3.org/2000/svg" xmlns:xlink="http://www.w3.org/1999/xlink">
  <polygon points="6.9 5.1 4.3 5.1 4.3 6 5.1 6 5.1 8.6 4.3 8.6 4.3 9.4 7.7 9.4 7.7 8.6 6.9 8.6"></polygon>
  <circle cx="6" cy="3.4" r="0.9"></circle>
  <path d="M6,0 C2.7,0 0,2.7 0,6 C0,9.3 2.7,12 6,12 C9.3,12 12,9.3 12,6 C12,2.7 9.3,0 6,0 L6,0 Z M6,11.1 C3.2,11.1 0.9,8.8 0.9,6 C0.9,3.2 3.2,0.9 6,0.9 C8.8,0.9 11.1,3.2 11.1,6 C11.1,8.8 8.8,11.1 6,11.1 L6,11.1 Z"></path>
</svg>
