<?xml version="1.0" encoding="utf-8"?>
<svg xmlns="http://www.w3.org/2000/svg" viewBox="-605 391 12 12" style="enable-background:new -605 391 12 12;">
	<polygon class="st0" points="-598.1,396.1 -600.7,396.1 -600.7,397 -599.9,397 -599.9,399.6 -600.7,399.6 -600.7,400.4 -597.3,400.4 -597.3,399.6 -598.1,399.6"/>
	<circle class="st0" cx="-599" cy="394.4" r="0.9"/>
	<path class="st0" d="M-599,391c-3.3,0-6,2.7-6,6s2.7,6,6,6s6-2.7,6-6S-595.7,391-599,391z M-599,402.1c-2.8,0-5.1-2.3-5.1-5.1 s2.3-5.1,5.1-5.1s5.1,2.3,5.1,5.1S-596.2,402.1-599,402.1z"/>
</svg>
