<?xml version="1.0" encoding="UTF-8" standalone="no"?>
<svg width="32px" height="32px" viewBox="0 0 32 32" version="1.1" xmlns="http://www.w3.org/2000/svg" xmlns:xlink="http://www.w3.org/1999/xlink" fill-rule="evenodd">
    <!-- Generator: Sketch 3.8.3 (29802) - http://www.bohemiancoding.com/sketch -->
    <title>Artboard 1</title>
    <desc>Created with Sketch.</desc>
    <defs></defs>
    <g id="Artboard-1" fill="#000000">
        <polygon id="Shape" points="18.4 13.6 11.4666667 13.6 11.4666667 16 13.6 16 13.6 22.9333333 11.4666667 22.9333333 11.4666667 25.0666667 20.5333333 25.0666667 20.5333333 22.9333333 18.4 22.9333333"></polygon>
        <ellipse id="Oval" cx="16" cy="9.06666667" rx="2.4" ry="2.4"></ellipse>
        <path d="M16,0 C7.2,0 0,7.2 0,16 C0,24.8 7.2,32 16,32 C24.8,32 32,24.8 32,16 C32,7.2 24.8,0 16,0 L16,0 L16,0 Z M16,29.6 C8.53333333,29.6 2.4,23.4666667 2.4,16 C2.4,8.53333333 8.53333333,2.4 16,2.4 C23.4666667,2.4 29.6,8.53333333 29.6,16 C29.6,23.4666667 23.4666667,29.6 16,29.6 L16,29.6 L16,29.6 Z" id="Shape"></path>
    </g>
</svg>
