<?xml version="1.0" encoding="UTF-8" standalone="no"?>
<svg width="32px" height="32px" viewBox="0 0 32 32" version="1.1" xmlns="http://www.w3.org/2000/svg" xmlns:xlink="http://www.w3.org/1999/xlink" fill-rule="evenodd">
    <!-- Generator: Sketch 3.8.3 (29802) - http://www.bohemiancoding.com/sketch -->
    <title>Artboard 1</title>
    <desc>Created with Sketch.</desc>
    <defs></defs>
    <g id="Artboard-1" fill="#000000">
        <path d="M5.84573503,5.84573503 C0.128856624,11.5626134 0.128856624,20.8729583 5.84573503,26.5898367 C11.5626134,32.3067151 20.8729583,32.3067151 26.5898367,26.5898367 C32.3067151,20.8729583 32.3067151,11.5626134 26.5898367,5.84573503 C20.8729583,0.128856624 11.7259528,0.128856624 5.84573503,5.84573503 L5.84573503,5.84573503 L5.84573503,5.84573503 Z M25.2831216,25.2831216 C20.3829401,30.1833031 12.3793103,30.1833031 7.47912886,25.2831216 C2.57894737,20.3829401 2.57894737,12.3793103 7.47912886,7.47912886 C12.3793103,2.57894737 20.3829401,2.57894737 25.2831216,7.47912886 C30.1833031,12.3793103 30.1833031,20.2196007 25.2831216,25.2831216 L25.2831216,25.2831216 L25.2831216,25.2831216 Z" id="Shape"></path>
        <polygon id="Shape" points="18.2595281 22.5063521 20.7096189 20.0562613 16.7894737 16.2994555 20.7096189 12.5426497 18.2595281 10.092559 14.3393829 13.8493648 14.3393829 13.8493648 11.8892922 16.2994555 12.0526316 16.2994555 11.8892922 16.2994555 14.3393829 18.7495463 14.3393829 18.7495463"></polygon>
    </g>
</svg>
