<?xml version="1.0" encoding="utf-8"?>
<svg xmlns="http://www.w3.org/2000/svg" viewBox="-590 388 18 18" style="enable-background:new -590 388 18 18;">
<g>
	<path d="M-587.4,390.6c-3.5,3.5-3.5,9.2,0,12.7c3.5,3.5,9.2,3.5,12.7,0c3.5-3.5,3.5-9.2,0-12.7 C-578.2,387.1-583.8,387.1-587.4,390.6z M-575.5,402.5c-3,3-7.9,3-10.9,0s-3-7.9,0-10.9c3-3,7.9-3,10.9,0S-572.5,399.4-575.5,402.5 z"/>
	<polygon points="-579.8,400.8 -578.3,399.3 -580.7,397 -578.3,394.7 -579.8,393.2 -582.2,395.5 -582.2,395.5 -583.7,397 -583.6,397 -583.7,397 -582.2,398.5 -582.2,398.5"/>
</g>
</svg>
