<svg width="19px" height="19px" viewBox="0 0 19 19" fill-rule="evenodd" version="1.1" xmlns="http://www.w3.org/2000/svg" xmlns:xlink="http://www.w3.org/1999/xlink">
  <path d="M3.6,3.6 C0.1,7.1 0.1,12.8 3.6,16.3 C7.1,19.8 12.8,19.8 16.3,16.3 C19.8,12.8 19.8,7.1 16.3,3.6 C12.8,0.1 7.2,0.1 3.6,3.6 L3.6,3.6 Z M15.5,15.5 C12.5,18.5 7.6,18.5 4.6,15.5 C1.6,12.5 1.6,7.6 4.6,4.6 C7.6,1.6 12.5,1.6 15.5,4.6 C18.5,7.6 18.5,12.4 15.5,15.5 L15.5,15.5 Z"></path>
  <polygon points="11.2 13.8 12.7 12.3 10.3 10 12.7 7.7 11.2 6.2 8.8 8.5 8.8 8.5 7.3 10 7.4 10 7.3 10 8.8 11.5 8.8 11.5"></polygon>
</svg>
