<?xml version="1.0" encoding="UTF-8" standalone="no"?>
<svg width="32px" height="32px" viewBox="0 0 32 32" version="1.1" xmlns="http://www.w3.org/2000/svg" xmlns:xlink="http://www.w3.org/1999/xlink" fill-rule="evenodd">
    <!-- Generator: Sketch 3.8.3 (29802) - http://www.bohemiancoding.com/sketch -->
    <title>Artboard 1</title>
    <desc>Created with Sketch.</desc>
    <defs></defs>
    <g id="Artboard-1" fill="#000000">
        <path d="M11.7333333,0.177777778 C5.33333333,0.177777778 0.177777778,5.33333333 0.177777778,11.7333333 C0.177777778,18.1333333 5.33333333,23.2888889 11.7333333,23.2888889 C18.1333333,23.2888889 23.2888889,18.1333333 23.2888889,11.7333333 C23.4666667,5.33333333 18.1333333,0.177777778 11.7333333,0.177777778 L11.7333333,0.177777778 L11.7333333,0.177777778 Z M11.7333333,21.3333333 C6.4,21.3333333 2.13333333,17.0666667 2.13333333,11.7333333 C2.13333333,6.4 6.4,2.13333333 11.7333333,2.13333333 C17.0666667,2.13333333 21.3333333,6.4 21.3333333,11.7333333 C21.3333333,17.0666667 17.0666667,21.3333333 11.7333333,21.3333333 L11.7333333,21.3333333 L11.7333333,21.3333333 Z" id="Shape"></path>
        <rect id="Rectangle-path" transform="translate(26.606578, 26.580071) rotate(45.000000) translate(-26.606578, -26.580071) " x="21.3621836" y="24.3578702" width="10.4887883" height="4.44440181"></rect>
        <path d="M22.4,21.3333333 C22.4,20.8 21.8666667,20.2666667 21.3333333,20.2666667 C20.6222222,20.2666667 20.2666667,20.6222222 20.2666667,21.3333333 C20.2666667,21.8666667 20.8,22.4 21.3333333,22.4 C21.8666667,22.4 22.4,21.8666667 22.4,21.3333333 L22.4,21.3333333 L22.4,21.3333333 Z" id="Shape"></path>
    </g>
</svg>
