<svg width="18px" height="18px" viewBox="0 0 18 18" fill-rule="evenodd" version="1.1" xmlns="http://www.w3.org/2000/svg" xmlns:xlink="http://www.w3.org/1999/xlink">
  <path d="M6.6,0.1 C3,0.1 0.1,3 0.1,6.6 C0.1,10.2 3,13.1 6.6,13.1 C10.2,13.1 13.1,10.2 13.1,6.6 C13.2,3 10.2,0.1 6.6,0.1 L6.6,0.1 Z M6.6,12 C3.6,12 1.2,9.6 1.2,6.6 C1.2,3.6 3.6,1.2 6.6,1.2 C9.6,1.2 12,3.6 12,6.6 C12,9.6 9.6,12 6.6,12 L6.6,12 Z"></path>
  <rect id="Rectangle-path" transform="translate(14.966200, 14.951290) rotate(45.000000) translate(-14.966200, -14.951290) " x="12.0162283" y="13.701302" width="5.89994342" height="2.49997602"></rect>
  <path d="M12.6,12 C12.6,11.7 12.3,11.4 12,11.4 C11.6,11.4 11.4,11.6 11.4,12 C11.4,12.3 11.7,12.6 12,12.6 C12.3,12.6 12.6,12.3 12.6,12 L12.6,12 Z"></path>
</svg>
