<?xml version="1.0" encoding="utf-8"?>
<svg xmlns="http://www.w3.org/2000/svg" viewBox="-1192 764 30 30" style="enable-background:new -1192 764 30 30;">
	<path d="M-1179.4,770.1c-3.6,0-6.5,2.9-6.5,6.5c0,3.6,2.9,6.5,6.5,6.5s6.5-2.9,6.5-6.5 C-1172.8,773-1175.8,770.1-1179.4,770.1z M-1179.4,782c-3,0-5.4-2.4-5.4-5.4s2.4-5.4,5.4-5.4s5.4,2.4,5.4,5.4 S-1176.4,782-1179.4,782z"/>
	<rect x="-1174" y="783.7" transform="matrix(0.7071 0.7071 -0.7071 0.7071 212.0538 1057.9626)" width="5.9" height="2.5"/>
	<path d="M-1173.4,782c0-0.3-0.3-0.6-0.6-0.6c-0.4,0-0.6,0.2-0.6,0.6c0,0.3,0.3,0.6,0.6,0.6S-1173.4,782.3-1173.4,782z"/>
</svg>
