<?xml version="1.0" encoding="UTF-8" standalone="no"?>
<svg width="32px" height="32px" viewBox="0 0 32 32" version="1.1" xmlns="http://www.w3.org/2000/svg" xmlns:xlink="http://www.w3.org/1999/xlink" fill-rule="evenodd">
    <!-- Generator: Sketch 3.8.3 (29802) - http://www.bohemiancoding.com/sketch -->
    <title>Artboard 1</title>
    <desc>Created with Sketch.</desc>
    <defs></defs>
    <g id="Artboard-1" fill="#000000">
        <rect id="Rectangle-path" transform="translate(20.170273, 9.985375) rotate(221.140111) translate(-20.170273, -9.985375) " x="14.3600192" y="8.80311406" width="11.620507" height="2.36452259"></rect>
        <rect id="Rectangle-path" transform="translate(17.801601, 13.719172) rotate(207.064711) translate(-17.801601, -13.719172) " x="11.9912798" y="12.5368974" width="11.620642" height="2.36455004"></rect>
        <rect id="Rectangle-path" transform="translate(16.174877, 17.640500) rotate(193.633238) translate(-16.174877, -17.640500) " x="10.3647468" y="16.4582642" width="11.6202613" height="2.36447259"></rect>
        <rect id="Rectangle-path" transform="translate(15.422268, 21.617480) rotate(183.125444) translate(-15.422268, -21.617480) " x="9.61206432" y="20.4352284" width="11.6204072" height="2.36450229"></rect>
        <rect id="Rectangle-path" x="9.35968379" y="23.7586207" width="11.8577075" height="2.36453202"></rect>
        <polygon id="Shape" points="4.85375494 30.8522167 4.85375494 18.7931034 7.22529644 18.7931034 7.22529644 28.4876847 23.5889328 28.4876847 23.5889328 18.7931034 25.9604743 18.7931034 25.9604743 30.8522167"></polygon>
        <rect id="Rectangle-path" transform="translate(23.740047, 6.590629) rotate(55.833194) translate(-23.740047, -6.590629) " x="17.9298134" y="5.40837123" width="11.6204681" height="2.36451466"></rect>
    </g>
</svg>
