<?xml version="1.0" encoding="UTF-8" standalone="no"?>
<svg width="23px" height="30px" viewBox="0 0 23 30" version="1.1" xmlns="http://www.w3.org/2000/svg" xmlns:xlink="http://www.w3.org/1999/xlink">
    <g id="stackoverflow-padding" transform="translate(-1.000000, 0.000000)">
        <rect id="Rectangle-path" transform="translate(16.170273, 8.985375) rotate(221.140111) translate(-16.170273, -8.985375) " x="10.36002" y="7.80311364" width="11.620507" height="2.36452259"></rect>
        <rect id="Rectangle-path" transform="translate(13.801601, 12.719172) rotate(207.064711) translate(-13.801601, -12.719172) " x="7.99128037" y="11.5368967" width="11.620642" height="2.36455004"></rect>
        <rect id="Rectangle-path" transform="translate(12.174877, 16.640499) rotate(193.633238) translate(-12.174877, -16.640499) " x="6.36474603" y="15.4582631" width="11.6202613" height="2.36447259"></rect>
        <rect id="Rectangle-path" transform="translate(11.422268, 20.617480) rotate(183.125444) translate(-11.422268, -20.617480) " x="5.61206446" y="19.4352293" width="11.6204072" height="2.36450229"></rect>
        <rect id="Rectangle-path" x="5.35968379" y="22.7586207" width="11.8577075" height="2.36453202"></rect>
        <polygon id="Shape" points="0.85375494 29.8522167 0.85375494 17.7931034 3.22529644 17.7931034 3.22529644 27.4876847 19.5889328 27.4876847 19.5889328 17.7931034 21.9604743 17.7931034 21.9604743 29.8522167"></polygon>
        <rect id="Rectangle-path" transform="translate(19.740048, 5.590629) rotate(55.833194) translate(-19.740048, -5.590629) " x="13.9298136" y="4.4083718" width="11.6204681" height="2.36451466"></rect>
    </g>
</svg>
