<svg width="11px" height="14px" viewBox="0 0 11 14" fill-rule="evenodd" version="1.1" xmlns="http://www.w3.org/2000/svg" xmlns:xlink="http://www.w3.org/1999/xlink">
  <rect transform="translate(7.258465, 4.675065) rotate(221.140111) translate(-7.258465, -4.675065) " x="4.80847478" y="4.175067" width="4.89998045" height="0.99999601"></rect>
  <rect transform="translate(6.259675, 6.254150) rotate(207.064711) translate(-6.259675, -6.254150) " x="3.80965632" y="5.75414619" width="4.90003736" height="1.00000762"></rect>
  <rect transform="translate(5.573740, 7.912545) rotate(193.633238) translate(-5.573740, -7.912545) " x="3.12380158" y="7.41255757" width="4.89987684" height="0.999974865"></rect>
  <rect transform="translate(5.256390, 9.594476) rotate(183.125444) translate(-5.256390, -9.594476) " x="2.80642118" y="9.09448254" width="4.89993838" height="0.999987425"></rect>
  <rect x="2.7" y="10.5" width="5" height="1"></rect>
  <polygon points="0.8 13.5 0.8 8.4 1.8 8.4 1.8 12.5 8.7 12.5 8.7 8.4 9.7 8.4 9.7 13.5"></polygon>
  <rect transform="translate(8.763720, 3.239370) rotate(55.833194) translate(-8.763720, -3.239370) " x="6.31373798" y="2.73937367" width="4.89996403" height="0.99999266"></rect>
</svg>
