<?xml version="1.0" encoding="utf-8"?>
<svg xmlns="http://www.w3.org/2000/svg" viewBox="-602 388.4 17.6 17.6" style="enable-background:new -602 388.4 17.6 17.6;">
	<rect x="-594.2" y="394.1" transform="matrix(-0.7531 -0.6579 0.6579 -0.7531 -1296.9958 302.536)" width="4.9" height="1"/>
	<rect x="-595.2" y="395.7" transform="matrix(-0.8905 -0.455 0.455 -0.8905 -1300.8552 479.369)" width="4.9" height="1"/>
	<rect x="-595.9" y="397.4" transform="matrix(-0.9718 -0.2357 0.2357 -0.9718 -1263.926 644.7156)" width="4.9" height="1"/>
	<rect x="-596.2" y="399.1" transform="matrix(-0.9985 -5.452156e-02 5.452156e-02 -0.9985 -1208.3898 766.2229)" width="4.9" height="1"/>
	<rect x="-596.3" y="400.5" width="5" height="1"/>
	<polygon points="-598.2,403.5 -598.2,398.4 -597.2,398.4 -597.2,402.5 -590.3,402.5 -590.3,398.4 -589.3,398.4 -589.3,403.5"/>
	<rect x="-592.7" y="392.7" transform="matrix(0.5616 0.8274 -0.8274 0.5616 66.5818 660.7911)" width="4.9" height="1"/>
</svg>
