<svg width="32px" height="32px" viewBox="0 0 32 32" fill-rule="evenodd" version="1.1" xmlns="http://www.w3.org/2000/svg" xmlns:xlink="http://www.w3.org/1999/xlink">
  <path d="M15.9,4.45 C10.9,4.45 6.85,8.5 6.85,13.5 C6.85,18.5 10.9,22.55 15.9,22.55 C20.9,22.55 24.95,18.5 24.95,13.5 C24.95,8.5 20.9,4.45 15.9,4.45 L15.9,4.45 Z M15.9,21.65 C11.4,21.65 7.75,18 7.75,13.5 C7.75,9 11.4,5.35 15.9,5.35 C20.4,5.35 24.05,9 24.05,13.5 C24.05,18 20.4,21.65 15.9,21.65 L15.9,21.65 Z"></path>
  <path d="M15.9,0.05 C7.25,0.05 0.15,7.15 0.15,15.8 C0.15,24.5 7.2,31.55 15.9,31.55 C24.6,31.55 31.65,24.5 31.65,15.8 C31.65,7.15 24.6,0.05 15.9,0.05 L15.9,0.05 Z M23.15,24.35 L8.65,24.35 C7.25,24.35 6.05,25.15 5.45,26.3 C2.8,23.6 1.1,19.9 1.1,15.8 C1.1,7.65 7.75,1 15.9,1 C24.05,1 30.7,7.65 30.7,15.8 C30.7,19.9 29.05,23.6 26.35,26.25 C25.75,25.15 24.55,24.35 23.15,24.35 L23.15,24.35 Z"></path>
</svg>
