<?xml version="1.0" encoding="utf-8"?>
<!-- Generator: Adobe Illustrator 19.1.0, SVG Export Plug-In . SVG Version: 6.00 Build 0)  -->
<!DOCTYPE svg PUBLIC "-//W3C//DTD SVG 1.1//EN" "http://www.w3.org/Graphics/SVG/1.1/DTD/svg11.dtd">
<svg version="1.1" id="Layer_1" xmlns="http://www.w3.org/2000/svg" xmlns:xlink="http://www.w3.org/1999/xlink" x="0px" y="0px"
	 width="32px" height="32px" viewBox="13 -11 32 32" style="enable-background:new 13 -11 32 32;" xml:space="preserve">
<path d="M28.9-10.9c-8.6,0-15.8,7.1-15.8,15.8c0,8.7,7.1,15.7,15.8,15.7s15.8-7,15.8-15.7C44.7-3.8,37.6-10.9,28.9-10.9L28.9-10.9z
	 M36.2,13.4H21.6c-1.4,0-2.6,0.8-3.2,1.9c-2.7-2.7-4.4-6.4-4.4-10.5c0-8.1,6.6-14.8,14.8-14.8S43.7-3.3,43.7,4.8
	c0,4.1-1.7,7.8-4.4,10.4C38.8,14.1,37.5,13.4,36.2,13.4L36.2,13.4z"/>
<g>
	<path d="M28.9-4.5c3.9,0,7,3.1,7,7s-3.1,7-7,7s-7-3.1-7-7S25-4.5,28.9-4.5 M28.9-6.5c-5,0-9,4-9,9s4,9,9,9s9-4,9-9
		S33.9-6.5,28.9-6.5L28.9-6.5z"/>
</g>
</svg>
