<?xml version="1.0" encoding="utf-8"?>
<svg xmlns="http://www.w3.org/2000/svg" viewBox="-1605.7 980.1 63 63" style="enable-background:new -1605.7 980.1 63 63;">
	<path class="st0" d="M-1574.2,988.9c-10,0-18.1,8.1-18.1,18.1s8.1,18.1,18.1,18.1s18.1-8.1,18.1-18.1S-1564.2,988.9-1574.2,988.9z M-1574.2,1023.3c-9,0-16.3-7.3-16.3-16.3s7.3-16.3,16.3-16.3s16.3,7.3,16.3,16.3S-1565.2,1023.3-1574.2,1023.3z"/>
	<path class="st0" d="M-1574.2,980.1c-17.3,0-31.5,14.2-31.5,31.5c0,17.4,14.1,31.5,31.5,31.5s31.5-14.1,31.5-31.5 C-1542.7,994.3-1556.8,980.1-1574.2,980.1z M-1559.7,1028.7h-29c-2.8,0-5.2,1.6-6.4,3.9c-5.3-5.4-8.7-12.8-8.7-21 c0-16.3,13.3-29.6,29.6-29.6s29.6,13.3,29.6,29.6c0,8.2-3.3,15.6-8.7,20.9C-1554.5,1030.3-1556.9,1028.7-1559.7,1028.7z"/>
</svg>
